<?xml version="1.0" encoding="UTF-8"?>
<svg xmlns="http://www.w3.org/2000/svg" width="960" height="360" viewBox="0 0 960 360">
  <rect width="100%" height="100%" fill="#0f172a"/>
  <text x="56" y="18" fill="#e5e7eb" font-family="sans-serif" font-size="14">cache-friendly-prompt キャッシュ再利用スコア（最新 500 件）</text>
  <line x1="56" y1="318" x2="944" y2="318" stroke="#475569"/>
  <line x1="56" y1="24" x2="56" y2="318" stroke="#475569"/>
  <text x="14" y="29" fill="#94a3b8" font-family="sans-serif" font-size="11">100%</text>
  <text x="22" y="171" fill="#94a3b8" font-family="sans-serif" font-size="11">50%</text>
  <text x="28" y="318" fill="#94a3b8" font-family="sans-serif" font-size="11">0%</text>
  <line x1="56" y1="171.0" x2="944" y2="171.0" stroke="#334155" stroke-dasharray="4 4"/>
  <line x1="98.7" y1="24" x2="98.7" y2="318" stroke="#f59e0b" stroke-opacity="0.35"/>
  <line x1="114.7" y1="24" x2="114.7" y2="318" stroke="#f59e0b" stroke-opacity="0.35"/>
  <line x1="132.5" y1="24" x2="132.5" y2="318" stroke="#f59e0b" stroke-opacity="0.35"/>
  <line x1="143.2" y1="24" x2="143.2" y2="318" stroke="#f59e0b" stroke-opacity="0.35"/>
  <line x1="173.5" y1="24" x2="173.5" y2="318" stroke="#f59e0b" stroke-opacity="0.35"/>
  <line x1="175.2" y1="24" x2="175.2" y2="318" stroke="#f59e0b" stroke-opacity="0.35"/>
  <line x1="189.5" y1="24" x2="189.5" y2="318" stroke="#f59e0b" stroke-opacity="0.35"/>
  <line x1="198.4" y1="24" x2="198.4" y2="318" stroke="#f59e0b" stroke-opacity="0.35"/>
  <line x1="201.9" y1="24" x2="201.9" y2="318" stroke="#f59e0b" stroke-opacity="0.35"/>
  <line x1="203.7" y1="24" x2="203.7" y2="318" stroke="#f59e0b" stroke-opacity="0.35"/>
  <line x1="205.5" y1="24" x2="205.5" y2="318" stroke="#f59e0b" stroke-opacity="0.35"/>
  <line x1="278.4" y1="24" x2="278.4" y2="318" stroke="#f59e0b" stroke-opacity="0.35"/>
  <line x1="326.5" y1="24" x2="326.5" y2="318" stroke="#f59e0b" stroke-opacity="0.35"/>
  <line x1="330.1" y1="24" x2="330.1" y2="318" stroke="#f59e0b" stroke-opacity="0.35"/>
  <line x1="331.8" y1="24" x2="331.8" y2="318" stroke="#f59e0b" stroke-opacity="0.35"/>
  <line x1="333.6" y1="24" x2="333.6" y2="318" stroke="#f59e0b" stroke-opacity="0.35"/>
  <line x1="335.4" y1="24" x2="335.4" y2="318" stroke="#f59e0b" stroke-opacity="0.35"/>
  <line x1="338.9" y1="24" x2="338.9" y2="318" stroke="#f59e0b" stroke-opacity="0.35"/>
  <line x1="340.7" y1="24" x2="340.7" y2="318" stroke="#f59e0b" stroke-opacity="0.35"/>
  <line x1="347.8" y1="24" x2="347.8" y2="318" stroke="#f59e0b" stroke-opacity="0.35"/>
  <line x1="349.6" y1="24" x2="349.6" y2="318" stroke="#f59e0b" stroke-opacity="0.35"/>
  <line x1="353.2" y1="24" x2="353.2" y2="318" stroke="#f59e0b" stroke-opacity="0.35"/>
  <line x1="426.1" y1="24" x2="426.1" y2="318" stroke="#f59e0b" stroke-opacity="0.35"/>
  <line x1="614.8" y1="24" x2="614.8" y2="318" stroke="#f59e0b" stroke-opacity="0.35"/>
  <line x1="637.9" y1="24" x2="637.9" y2="318" stroke="#f59e0b" stroke-opacity="0.35"/>
  <line x1="641.5" y1="24" x2="641.5" y2="318" stroke="#f59e0b" stroke-opacity="0.35"/>
  <line x1="668.2" y1="24" x2="668.2" y2="318" stroke="#f59e0b" stroke-opacity="0.35"/>
  <line x1="673.5" y1="24" x2="673.5" y2="318" stroke="#f59e0b" stroke-opacity="0.35"/>
  <line x1="675.3" y1="24" x2="675.3" y2="318" stroke="#f59e0b" stroke-opacity="0.35"/>
  <line x1="728.7" y1="24" x2="728.7" y2="318" stroke="#f59e0b" stroke-opacity="0.35"/>
  <line x1="735.8" y1="24" x2="735.8" y2="318" stroke="#f59e0b" stroke-opacity="0.35"/>
  <line x1="744.7" y1="24" x2="744.7" y2="318" stroke="#f59e0b" stroke-opacity="0.35"/>
  <line x1="849.7" y1="24" x2="849.7" y2="318" stroke="#f59e0b" stroke-opacity="0.35"/>
  <polyline fill="none" stroke="#a78bfa" stroke-width="2.8" points="56.0,318.0 57.8,24.0 59.6,24.0 61.3,24.0 63.1,24.0 64.9,24.0 66.7,24.0 68.5,24.0 70.2,24.0 72.0,24.0 73.8,24.0 75.6,24.0 77.4,24.0 79.1,24.0 80.9,24.0 82.7,24.0 84.5,24.0 86.3,24.0 88.0,24.0 89.8,24.0 91.6,24.0 93.4,24.0 95.2,24.0 96.9,24.0 98.7,318.0 100.5,24.0 102.3,24.0 104.0,24.0 105.8,24.0 107.6,24.0 109.4,24.0 111.2,24.0 112.9,24.0 114.7,318.0 116.5,24.0 118.3,24.0 120.1,24.0 121.8,24.0 123.6,24.0 125.4,24.0 127.2,24.0 129.0,24.0 130.7,24.0 132.5,318.0 134.3,24.0 136.1,24.0 137.9,24.0 139.6,24.0 141.4,24.0 143.2,318.0 145.0,24.0 146.8,24.0 148.5,24.0 150.3,24.0 152.1,24.0 153.9,24.0 155.7,24.0 157.4,24.0 159.2,24.0 161.0,24.0 162.8,24.0 164.6,24.0 166.3,24.0 168.1,24.0 169.9,24.0 171.7,24.0 173.5,318.0 175.2,318.0 177.0,24.0 178.8,24.0 180.6,24.0 182.3,24.0 184.1,24.0 185.9,24.0 187.7,24.0 189.5,318.0 191.2,24.0 193.0,24.0 194.8,24.0 196.6,24.0 198.4,318.0 200.1,24.0 201.9,318.0 203.7,318.0 205.5,318.0 207.3,24.0 209.0,24.0 210.8,24.0 212.6,24.0 214.4,24.0 216.2,24.0 217.9,24.0 219.7,24.0 221.5,24.0 223.3,24.0 225.1,24.0 226.8,24.0 228.6,24.0 230.4,24.0 232.2,24.0 234.0,24.0 235.7,24.0 237.5,24.0 239.3,24.0 241.1,24.0 242.9,24.0 244.6,24.0 246.4,24.0 248.2,24.0 250.0,24.0 251.8,24.0 253.5,24.0 255.3,24.0 257.1,24.0 258.9,24.0 260.6,24.0 262.4,24.0 264.2,24.0 266.0,24.0 267.8,24.0 269.5,24.0 271.3,24.0 273.1,24.0 274.9,24.0 276.7,24.0 278.4,318.0 280.2,24.0 282.0,24.0 283.8,24.0 285.6,24.0 287.3,24.0 289.1,24.0 290.9,24.0 292.7,24.0 294.5,24.0 296.2,24.0 298.0,24.0 299.8,24.0 301.6,24.0 303.4,24.0 305.1,24.0 306.9,24.0 308.7,24.0 310.5,24.0 312.3,24.0 314.0,24.0 315.8,24.0 317.6,24.0 319.4,24.0 321.2,24.0 322.9,24.0 324.7,24.0 326.5,318.0 328.3,24.0 330.1,318.0 331.8,318.0 333.6,318.0 335.4,318.0 337.2,24.0 338.9,318.0 340.7,318.0 342.5,24.0 344.3,24.0 346.1,24.0 347.8,318.0 349.6,318.0 351.4,24.0 353.2,318.0 355.0,24.0 356.7,24.0 358.5,24.0 360.3,24.0 362.1,24.0 363.9,24.0 365.6,24.0 367.4,24.0 369.2,24.0 371.0,24.0 372.8,24.0 374.5,24.0 376.3,24.0 378.1,24.0 379.9,24.0 381.7,24.0 383.4,24.0 385.2,24.0 387.0,24.0 388.8,24.0 390.6,24.0 392.3,24.0 394.1,24.0 395.9,24.0 397.7,24.0 399.5,24.0 401.2,24.0 403.0,24.0 404.8,24.0 406.6,24.0 408.4,24.0 410.1,24.0 411.9,24.0 413.7,24.0 415.5,24.0 417.3,24.0 419.0,24.0 420.8,24.0 422.6,24.0 424.4,24.0 426.1,318.0 427.9,24.0 429.7,24.0 431.5,24.0 433.3,24.0 435.0,24.0 436.8,24.0 438.6,24.0 440.4,24.0 442.2,24.0 443.9,24.0 445.7,24.0 447.5,24.0 449.3,24.0 451.1,24.0 452.8,24.0 454.6,24.0 456.4,24.0 458.2,24.0 460.0,24.0 461.7,24.0 463.5,24.0 465.3,24.0 467.1,24.0 468.9,24.0 470.6,24.0 472.4,24.0 474.2,24.0 476.0,24.0 477.8,24.0 479.5,24.0 481.3,24.0 483.1,24.0 484.9,24.0 486.7,24.0 488.4,24.0 490.2,24.0 492.0,24.0 493.8,24.0 495.6,24.0 497.3,24.0 499.1,24.0 500.9,24.0 502.7,24.0 504.4,24.0 506.2,24.0 508.0,24.0 509.8,24.0 511.6,24.0 513.3,24.0 515.1,24.0 516.9,24.0 518.7,24.0 520.5,24.0 522.2,24.0 524.0,24.0 525.8,24.0 527.6,24.0 529.4,24.0 531.1,24.0 532.9,24.0 534.7,24.0 536.5,24.0 538.3,24.0 540.0,24.0 541.8,24.0 543.6,24.0 545.4,24.0 547.2,24.0 548.9,24.0 550.7,24.0 552.5,24.0 554.3,24.0 556.1,24.0 557.8,24.0 559.6,24.0 561.4,24.0 563.2,24.0 565.0,24.0 566.7,24.0 568.5,24.0 570.3,24.0 572.1,24.0 573.9,24.0 575.6,24.0 577.4,24.0 579.2,24.0 581.0,24.0 582.7,24.0 584.5,24.0 586.3,24.0 588.1,24.0 589.9,24.0 591.6,24.0 593.4,24.0 595.2,24.0 597.0,24.0 598.8,24.0 600.5,24.0 602.3,24.0 604.1,24.0 605.9,24.0 607.7,24.0 609.4,24.0 611.2,24.0 613.0,24.0 614.8,318.0 616.6,24.0 618.3,24.0 620.1,24.0 621.9,24.0 623.7,24.0 625.5,24.0 627.2,24.0 629.0,24.0 630.8,24.0 632.6,24.0 634.4,24.0 636.1,24.0 637.9,318.0 639.7,24.0 641.5,318.0 643.3,24.0 645.0,24.0 646.8,24.0 648.6,24.0 650.4,24.0 652.2,24.0 653.9,24.0 655.7,24.0 657.5,24.0 659.3,24.0 661.1,24.0 662.8,24.0 664.6,24.0 666.4,24.0 668.2,318.0 669.9,24.0 671.7,24.0 673.5,318.0 675.3,318.0 677.1,24.0 678.8,24.0 680.6,24.0 682.4,24.0 684.2,24.0 686.0,24.0 687.7,24.0 689.5,24.0 691.3,24.0 693.1,24.0 694.9,24.0 696.6,24.0 698.4,24.0 700.2,24.0 702.0,24.0 703.8,24.0 705.5,24.0 707.3,24.0 709.1,24.0 710.9,24.0 712.7,24.0 714.4,24.0 716.2,24.0 718.0,24.0 719.8,24.0 721.6,24.0 723.3,24.0 725.1,24.0 726.9,24.0 728.7,318.0 730.5,24.0 732.2,24.0 734.0,24.0 735.8,318.0 737.6,24.0 739.4,24.0 741.1,24.0 742.9,24.0 744.7,318.0 746.5,24.0 748.2,24.0 750.0,24.0 751.8,24.0 753.6,24.0 755.4,24.0 757.1,24.0 758.9,24.0 760.7,24.0 762.5,24.0 764.3,24.0 766.0,24.0 767.8,24.0 769.6,24.0 771.4,24.0 773.2,24.0 774.9,24.0 776.7,24.0 778.5,24.0 780.3,24.0 782.1,24.0 783.8,24.0 785.6,24.0 787.4,24.0 789.2,24.0 791.0,24.0 792.7,24.0 794.5,24.0 796.3,24.0 798.1,24.0 799.9,24.0 801.6,24.0 803.4,24.0 805.2,24.0 807.0,24.0 808.8,24.0 810.5,24.0 812.3,24.0 814.1,24.0 815.9,24.0 817.7,24.0 819.4,24.0 821.2,24.0 823.0,24.0 824.8,24.0 826.5,24.0 828.3,24.0 830.1,24.0 831.9,24.0 833.7,24.0 835.4,24.0 837.2,24.0 839.0,24.0 840.8,24.0 842.6,24.0 844.3,24.0 846.1,24.0 847.9,24.0 849.7,318.0 851.5,24.0 853.2,24.0 855.0,24.0 856.8,24.0 858.6,24.0 860.4,24.0 862.1,24.0 863.9,24.0 865.7,24.0 867.5,24.0 869.3,24.0 871.0,24.0 872.8,24.0 874.6,24.0 876.4,24.0 878.2,24.0 879.9,24.0 881.7,24.0 883.5,24.0 885.3,24.0 887.1,24.0 888.8,24.0 890.6,24.0 892.4,24.0 894.2,24.0 896.0,24.0 897.7,24.0 899.5,24.0 901.3,24.0 903.1,24.0 904.8,24.0 906.6,24.0 908.4,24.0 910.2,24.0 912.0,24.0 913.7,24.0 915.5,24.0 917.3,24.0 919.1,24.0 920.9,24.0 922.6,24.0 924.4,24.0 926.2,24.0 928.0,24.0 929.8,24.0 931.5,24.0 933.3,24.0 935.1,24.0 936.9,24.0 938.7,24.0 940.4,24.0 942.2,24.0 944.0,24.0"/>
  <rect x="650" y="28" width="280" height="118" rx="6" fill="#111827" stroke="#334155"/>
  <line x1="666" y1="50" x2="706" y2="50" stroke="#a78bfa" stroke-width="3"/><text x="714" y="54" fill="#cbd5e1" font-family="sans-serif" font-size="12">reuse score</text>
  <text x="666" y="78" fill="#ddd6fe" font-family="sans-serif" font-size="12">latest score: 100%</text>
  <text x="666" y="98" fill="#cbd5e1" font-family="sans-serif" font-size="12">stable prefix: 11491 chars</text>
  <text x="666" y="118" fill="#cbd5e1" font-family="sans-serif" font-size="12">stable tokens: 2873</text>
  <text x="666" y="138" fill="#fbbf24" font-family="sans-serif" font-size="12">streak: 54 requests</text>
</svg>
