<?xml version="1.0" encoding="UTF-8"?>
<svg xmlns="http://www.w3.org/2000/svg" width="960" height="360" viewBox="0 0 960 360">
  <rect width="100%" height="100%" fill="#0f172a"/>
  <text x="56" y="18" fill="#e5e7eb" font-family="sans-serif" font-size="14">cache-friendly-prompt キャッシュ効率（最新 500 件）</text>
  <line x1="56" y1="318" x2="944" y2="318" stroke="#475569"/>
  <line x1="56" y1="24" x2="56" y2="318" stroke="#475569"/>
  <text x="14" y="29" fill="#94a3b8" font-family="sans-serif" font-size="11">100%</text>
  <text x="22" y="171" fill="#94a3b8" font-family="sans-serif" font-size="11">50%</text>
  <text x="28" y="318" fill="#94a3b8" font-family="sans-serif" font-size="11">0%</text>
  <line x1="56" y1="171.0" x2="944" y2="171.0" stroke="#334155" stroke-dasharray="4 4"/>
  <line x1="125.4" y1="24" x2="125.4" y2="318" stroke="#f59e0b" stroke-opacity="0.32"/>
  <line x1="198.4" y1="24" x2="198.4" y2="318" stroke="#f59e0b" stroke-opacity="0.32"/>
  <line x1="205.5" y1="24" x2="205.5" y2="318" stroke="#f59e0b" stroke-opacity="0.32"/>
  <line x1="207.3" y1="24" x2="207.3" y2="318" stroke="#f59e0b" stroke-opacity="0.32"/>
  <line x1="209.0" y1="24" x2="209.0" y2="318" stroke="#f59e0b" stroke-opacity="0.32"/>
  <line x1="210.8" y1="24" x2="210.8" y2="318" stroke="#f59e0b" stroke-opacity="0.32"/>
  <line x1="241.1" y1="24" x2="241.1" y2="318" stroke="#f59e0b" stroke-opacity="0.32"/>
  <line x1="285.6" y1="24" x2="285.6" y2="318" stroke="#f59e0b" stroke-opacity="0.32"/>
  <line x1="319.4" y1="24" x2="319.4" y2="318" stroke="#f59e0b" stroke-opacity="0.32"/>
  <line x1="335.4" y1="24" x2="335.4" y2="318" stroke="#f59e0b" stroke-opacity="0.32"/>
  <line x1="338.9" y1="24" x2="338.9" y2="318" stroke="#f59e0b" stroke-opacity="0.32"/>
  <line x1="349.6" y1="24" x2="349.6" y2="318" stroke="#f59e0b" stroke-opacity="0.32"/>
  <line x1="358.5" y1="24" x2="358.5" y2="318" stroke="#f59e0b" stroke-opacity="0.32"/>
  <line x1="362.1" y1="24" x2="362.1" y2="318" stroke="#f59e0b" stroke-opacity="0.32"/>
  <line x1="363.9" y1="24" x2="363.9" y2="318" stroke="#f59e0b" stroke-opacity="0.32"/>
  <line x1="365.6" y1="24" x2="365.6" y2="318" stroke="#f59e0b" stroke-opacity="0.32"/>
  <line x1="367.4" y1="24" x2="367.4" y2="318" stroke="#f59e0b" stroke-opacity="0.32"/>
  <line x1="378.1" y1="24" x2="378.1" y2="318" stroke="#f59e0b" stroke-opacity="0.32"/>
  <line x1="379.9" y1="24" x2="379.9" y2="318" stroke="#f59e0b" stroke-opacity="0.32"/>
  <line x1="385.2" y1="24" x2="385.2" y2="318" stroke="#f59e0b" stroke-opacity="0.32"/>
  <line x1="387.0" y1="24" x2="387.0" y2="318" stroke="#f59e0b" stroke-opacity="0.32"/>
  <line x1="395.9" y1="24" x2="395.9" y2="318" stroke="#f59e0b" stroke-opacity="0.32"/>
  <line x1="397.7" y1="24" x2="397.7" y2="318" stroke="#f59e0b" stroke-opacity="0.32"/>
  <line x1="404.8" y1="24" x2="404.8" y2="318" stroke="#f59e0b" stroke-opacity="0.32"/>
  <line x1="406.6" y1="24" x2="406.6" y2="318" stroke="#f59e0b" stroke-opacity="0.32"/>
  <line x1="410.1" y1="24" x2="410.1" y2="318" stroke="#f59e0b" stroke-opacity="0.32"/>
  <line x1="411.9" y1="24" x2="411.9" y2="318" stroke="#f59e0b" stroke-opacity="0.32"/>
  <line x1="413.7" y1="24" x2="413.7" y2="318" stroke="#f59e0b" stroke-opacity="0.32"/>
  <line x1="415.5" y1="24" x2="415.5" y2="318" stroke="#f59e0b" stroke-opacity="0.32"/>
  <line x1="419.0" y1="24" x2="419.0" y2="318" stroke="#f59e0b" stroke-opacity="0.32"/>
  <line x1="420.8" y1="24" x2="420.8" y2="318" stroke="#f59e0b" stroke-opacity="0.32"/>
  <line x1="424.4" y1="24" x2="424.4" y2="318" stroke="#f59e0b" stroke-opacity="0.32"/>
  <line x1="426.1" y1="24" x2="426.1" y2="318" stroke="#f59e0b" stroke-opacity="0.32"/>
  <line x1="431.5" y1="24" x2="431.5" y2="318" stroke="#f59e0b" stroke-opacity="0.32"/>
  <line x1="433.3" y1="24" x2="433.3" y2="318" stroke="#f59e0b" stroke-opacity="0.32"/>
  <line x1="445.7" y1="24" x2="445.7" y2="318" stroke="#f59e0b" stroke-opacity="0.32"/>
  <line x1="508.0" y1="24" x2="508.0" y2="318" stroke="#f59e0b" stroke-opacity="0.32"/>
  <line x1="524.0" y1="24" x2="524.0" y2="318" stroke="#f59e0b" stroke-opacity="0.32"/>
  <line x1="541.8" y1="24" x2="541.8" y2="318" stroke="#f59e0b" stroke-opacity="0.32"/>
  <line x1="552.5" y1="24" x2="552.5" y2="318" stroke="#f59e0b" stroke-opacity="0.32"/>
  <line x1="582.7" y1="24" x2="582.7" y2="318" stroke="#f59e0b" stroke-opacity="0.32"/>
  <line x1="584.5" y1="24" x2="584.5" y2="318" stroke="#f59e0b" stroke-opacity="0.32"/>
  <line x1="598.8" y1="24" x2="598.8" y2="318" stroke="#f59e0b" stroke-opacity="0.32"/>
  <line x1="607.7" y1="24" x2="607.7" y2="318" stroke="#f59e0b" stroke-opacity="0.32"/>
  <line x1="611.2" y1="24" x2="611.2" y2="318" stroke="#f59e0b" stroke-opacity="0.32"/>
  <line x1="613.0" y1="24" x2="613.0" y2="318" stroke="#f59e0b" stroke-opacity="0.32"/>
  <line x1="614.8" y1="24" x2="614.8" y2="318" stroke="#f59e0b" stroke-opacity="0.32"/>
  <line x1="687.7" y1="24" x2="687.7" y2="318" stroke="#f59e0b" stroke-opacity="0.32"/>
  <line x1="735.8" y1="24" x2="735.8" y2="318" stroke="#f59e0b" stroke-opacity="0.32"/>
  <line x1="739.4" y1="24" x2="739.4" y2="318" stroke="#f59e0b" stroke-opacity="0.32"/>
  <line x1="741.1" y1="24" x2="741.1" y2="318" stroke="#f59e0b" stroke-opacity="0.32"/>
  <line x1="742.9" y1="24" x2="742.9" y2="318" stroke="#f59e0b" stroke-opacity="0.32"/>
  <line x1="744.7" y1="24" x2="744.7" y2="318" stroke="#f59e0b" stroke-opacity="0.32"/>
  <line x1="748.2" y1="24" x2="748.2" y2="318" stroke="#f59e0b" stroke-opacity="0.32"/>
  <line x1="750.0" y1="24" x2="750.0" y2="318" stroke="#f59e0b" stroke-opacity="0.32"/>
  <line x1="757.1" y1="24" x2="757.1" y2="318" stroke="#f59e0b" stroke-opacity="0.32"/>
  <line x1="758.9" y1="24" x2="758.9" y2="318" stroke="#f59e0b" stroke-opacity="0.32"/>
  <line x1="762.5" y1="24" x2="762.5" y2="318" stroke="#f59e0b" stroke-opacity="0.32"/>
  <line x1="835.4" y1="24" x2="835.4" y2="318" stroke="#f59e0b" stroke-opacity="0.32"/>
  <polyline fill="none" stroke="#a78bfa" stroke-width="2.5" points="56.0,75.6 57.8,81.8 59.6,86.7 61.3,92.2 63.1,92.2 64.9,112.3 66.7,115.7 68.5,119.9 70.2,119.9 72.0,142.3 73.8,143.4 75.6,143.4 77.4,143.4 79.1,143.4 80.9,146.3 82.7,146.3 84.5,146.3 86.3,146.3 88.0,146.3 89.8,152.7 91.6,154.5 93.4,154.5 95.2,157.3 96.9,157.3 98.7,169.4 100.5,170.0 102.3,170.0 104.0,170.0 105.8,170.0 107.6,170.0 109.4,170.0 111.2,170.0 112.9,172.0 114.7,172.0 116.5,174.4 118.3,175.6 120.1,175.6 121.8,175.6 123.6,175.6 125.4,24.5 127.2,152.4 129.0,223.8 130.7,24.7 132.5,33.2 134.3,33.2 136.1,40.9 137.9,40.9 139.6,45.6 141.4,45.6 143.2,52.4 145.0,52.4 146.8,52.4 148.5,52.4 150.3,52.4 152.1,52.4 153.9,59.7 155.7,65.7 157.4,71.3 159.2,76.8 161.0,94.6 162.8,108.9 164.6,111.8 166.3,116.5 168.1,120.1 169.9,120.1 171.7,123.6 173.5,132.6 175.2,137.7 177.0,141.0 178.8,141.0 180.6,143.7 182.3,147.5 184.1,230.2 185.9,232.6 187.7,232.6 189.5,233.3 191.2,234.2 193.0,234.2 194.8,234.2 196.6,234.8 198.4,26.0 200.1,32.2 201.9,32.2 203.7,39.8 205.5,29.5 207.3,39.8 209.0,29.9 210.8,39.8 212.6,45.4 214.4,51.3 216.2,51.3 217.9,56.6 219.7,56.6 221.5,56.6 223.3,67.9 225.1,67.9 226.8,67.9 228.6,67.9 230.4,67.9 232.2,67.9 234.0,72.8 235.7,72.8 237.5,72.8 239.3,78.7 241.1,42.2 242.9,48.6 244.6,48.6 246.4,48.6 248.2,54.3 250.0,54.3 251.8,60.2 253.5,60.2 255.3,60.2 257.1,65.4 258.9,69.0 260.6,69.0 262.4,74.0 264.2,79.1 266.0,81.8 267.8,42.2 269.5,48.3 271.3,42.2 273.1,42.2 274.9,42.2 276.7,48.1 278.4,54.1 280.2,60.1 282.0,60.1 283.8,57.0 285.6,24.3 287.3,28.4 289.1,28.1 290.9,29.3 292.7,38.7 294.5,46.1 296.2,57.5 298.0,67.0 299.8,67.0 301.6,67.0 303.4,67.0 305.1,73.3 306.9,79.0 308.7,79.0 310.5,79.0 312.3,83.6 314.0,83.6 315.8,83.6 317.6,88.7 319.4,78.2 321.2,94.1 322.9,160.8 324.7,269.5 326.5,269.8 328.3,285.1 330.1,294.3 331.8,295.2 333.6,295.8 335.4,24.3 337.2,41.4 338.9,63.0 340.7,63.0 342.5,129.1 344.3,148.6 346.1,160.2 347.8,172.7 349.6,48.7 351.4,55.5 353.2,105.0 355.0,25.2 356.7,35.8 358.5,62.7 360.3,62.7 362.1,35.8 363.9,62.5 365.6,35.8 367.4,62.5 369.2,62.7 371.0,62.5 372.8,62.7 374.5,62.5 376.3,62.7 378.1,35.8 379.9,62.7 381.7,62.5 383.4,62.7 385.2,35.8 387.0,62.5 388.8,62.5 390.6,62.7 392.3,62.5 394.1,62.7 395.9,35.8 397.7,62.7 399.5,62.5 401.2,62.5 403.0,62.7 404.8,35.8 406.6,62.7 408.4,62.5 410.1,35.8 411.9,62.5 413.7,35.8 415.5,62.5 417.3,62.7 419.0,35.8 420.8,62.5 422.6,62.5 424.4,35.8 426.1,62.7 427.9,62.5 429.7,62.7 431.5,35.8 433.3,62.5 435.0,62.7 436.8,62.7 438.6,62.5 440.4,62.7 442.2,62.5 443.9,71.3 445.7,35.8 447.5,35.8 449.3,35.8 451.1,35.8 452.8,91.6 454.6,100.5 456.4,100.5 458.2,100.5 460.0,105.4 461.7,105.4 463.5,105.4 465.3,105.4 467.1,105.4 468.9,105.4 470.6,105.4 472.4,105.4 474.2,105.4 476.0,105.4 477.8,105.4 479.5,105.4 481.3,105.4 483.1,105.4 484.9,105.4 486.7,114.1 488.4,114.1 490.2,114.1 492.0,114.1 493.8,114.1 495.6,114.1 497.3,114.1 499.1,114.1 500.9,114.1 502.7,114.1 504.4,114.1 506.2,117.5 508.0,29.9 509.8,82.4 511.6,101.3 513.3,102.3 515.1,130.9 516.9,172.6 518.7,178.5 520.5,181.6 522.2,188.0 524.0,62.1 525.8,75.4 527.6,295.4 529.4,257.3 531.1,295.4 532.9,275.0 534.7,296.5 536.5,308.8 538.3,312.5 540.0,312.8 541.8,188.5 543.6,191.9 545.4,192.3 547.2,194.2 548.9,197.5 550.7,201.5 552.5,84.8 554.3,95.7 556.1,295.9 557.8,309.5 559.6,302.1 561.4,313.2 563.2,308.9 565.0,308.9 566.7,313.7 568.5,309.8 570.3,311.6 572.1,311.9 573.9,311.9 575.6,312.7 577.4,313.0 579.2,313.7 581.0,313.7 582.7,201.9 584.5,313.7 586.3,313.7 588.1,313.7 589.9,313.8 591.6,313.8 593.4,313.8 595.2,313.9 597.0,313.9 598.8,202.2 600.5,205.5 602.3,208.1 604.1,210.5 605.9,212.2 607.7,56.3 609.4,272.9 611.2,259.7 613.0,273.1 614.8,260.4 616.6,260.4 618.3,260.5 620.1,286.5 621.9,292.0 623.7,294.6 625.5,294.6 627.2,295.3 629.0,295.3 630.8,295.3 632.6,295.8 634.4,296.0 636.1,296.2 637.9,296.3 639.7,296.3 641.5,296.7 643.3,297.5 645.0,297.6 646.8,297.6 648.6,297.6 650.4,297.8 652.2,297.8 653.9,297.9 655.7,298.2 657.5,299.1 659.3,299.2 661.1,299.3 662.8,299.3 664.6,299.3 666.4,299.3 668.2,299.6 669.9,300.1 671.7,300.4 673.5,301.4 675.3,301.4 677.1,301.4 678.8,301.6 680.6,301.6 682.4,301.6 684.2,301.7 686.0,301.7 687.7,138.9 689.5,142.7 691.3,146.3 693.1,146.3 694.9,146.3 696.6,150.1 698.4,150.1 700.2,154.0 702.0,157.3 703.8,157.3 705.5,157.3 707.3,160.6 709.1,160.6 710.9,163.8 712.7,163.8 714.4,163.8 716.2,166.4 718.0,166.4 719.8,169.8 721.6,172.6 723.3,185.0 725.1,185.0 726.9,185.0 728.7,250.7 730.5,250.8 732.2,251.6 734.0,252.2 735.8,42.5 737.6,42.5 739.4,252.2 741.1,57.4 742.9,252.3 744.7,57.4 746.5,57.4 748.2,252.9 750.0,57.4 751.8,57.4 753.6,57.4 755.4,57.4 757.1,253.5 758.9,57.4 760.7,57.4 762.5,253.5 764.3,253.5 766.0,253.5 767.8,253.6 769.6,253.6 771.4,253.6 773.2,256.1 774.9,256.6 776.7,256.6 778.5,257.1 780.3,257.1 782.1,257.1 783.8,257.1 785.6,257.8 787.4,257.8 789.2,257.8 791.0,257.8 792.7,257.8 794.5,257.8 796.3,258.2 798.1,258.2 799.9,258.2 801.6,258.2 803.4,258.7 805.2,258.7 807.0,259.2 808.8,259.2 810.5,259.7 812.3,259.7 814.1,260.2 815.9,260.6 817.7,260.6 819.4,260.6 821.2,260.6 823.0,260.6 824.8,260.6 826.5,260.6 828.3,260.6 830.1,260.6 831.9,260.6 833.7,261.0 835.4,24.9 837.2,37.3 839.0,50.4 840.8,50.4 842.6,61.1 844.3,70.4 846.1,70.4 847.9,70.4 849.7,70.4 851.5,70.4 853.2,70.4 855.0,70.4 856.8,70.4 858.6,78.6 860.4,78.6 862.1,78.6 863.9,78.6 865.7,78.6 867.5,78.6 869.3,78.6 871.0,78.6 872.8,86.1 874.6,92.8 876.4,92.8 878.2,99.6 879.9,99.6 881.7,99.6 883.5,99.6 885.3,114.1 887.1,114.1 888.8,118.8 890.6,118.8 892.4,118.8 894.2,131.9 896.0,144.4 897.7,146.2 899.5,165.7 901.3,172.3 903.1,172.3 904.8,172.3 906.6,172.3 908.4,172.3 910.2,172.3 912.0,172.3 913.7,172.3 915.5,172.3 917.3,172.3 919.1,172.3 920.9,175.0 922.6,181.8 924.4,186.8 926.2,193.9 928.0,195.9 929.8,195.9 931.5,195.9 933.3,195.9 935.1,197.8 936.9,197.8 938.7,197.8 940.4,200.1 942.2,201.9 944.0,201.9"/>
  <text x="770" y="42" fill="#ddd6fe" font-family="sans-serif" font-size="13">latest: 39.5%</text>
  <text x="770" y="62" fill="#fbbf24" font-family="sans-serif" font-size="12">orange: hash change</text>
</svg>
