<?xml version="1.0" encoding="UTF-8"?>
<svg xmlns="http://www.w3.org/2000/svg" width="960" height="360" viewBox="0 0 960 360">
  <rect width="100%" height="100%" fill="#0f172a"/>
  <text x="56" y="18" fill="#e5e7eb" font-family="sans-serif" font-size="14">cache-friendly-prompt 推移（最新 500 件）</text>
  <line x1="56" y1="318" x2="944" y2="318" stroke="#475569"/>
  <line x1="56" y1="24" x2="56" y2="318" stroke="#475569"/>
  <text x="8" y="34" fill="#94a3b8" font-family="sans-serif" font-size="11">455149</text>
  <text x="20" y="318" fill="#94a3b8" font-family="sans-serif" font-size="11">0</text>
  <line x1="125.4" y1="24" x2="125.4" y2="318" stroke="#f59e0b" stroke-opacity="0.28"/>
  <line x1="198.4" y1="24" x2="198.4" y2="318" stroke="#f59e0b" stroke-opacity="0.28"/>
  <line x1="205.5" y1="24" x2="205.5" y2="318" stroke="#f59e0b" stroke-opacity="0.28"/>
  <line x1="207.3" y1="24" x2="207.3" y2="318" stroke="#f59e0b" stroke-opacity="0.28"/>
  <line x1="209.0" y1="24" x2="209.0" y2="318" stroke="#f59e0b" stroke-opacity="0.28"/>
  <line x1="210.8" y1="24" x2="210.8" y2="318" stroke="#f59e0b" stroke-opacity="0.28"/>
  <line x1="241.1" y1="24" x2="241.1" y2="318" stroke="#f59e0b" stroke-opacity="0.28"/>
  <line x1="285.6" y1="24" x2="285.6" y2="318" stroke="#f59e0b" stroke-opacity="0.28"/>
  <line x1="319.4" y1="24" x2="319.4" y2="318" stroke="#f59e0b" stroke-opacity="0.28"/>
  <line x1="335.4" y1="24" x2="335.4" y2="318" stroke="#f59e0b" stroke-opacity="0.28"/>
  <line x1="338.9" y1="24" x2="338.9" y2="318" stroke="#f59e0b" stroke-opacity="0.28"/>
  <line x1="349.6" y1="24" x2="349.6" y2="318" stroke="#f59e0b" stroke-opacity="0.28"/>
  <line x1="358.5" y1="24" x2="358.5" y2="318" stroke="#f59e0b" stroke-opacity="0.28"/>
  <line x1="362.1" y1="24" x2="362.1" y2="318" stroke="#f59e0b" stroke-opacity="0.28"/>
  <line x1="363.9" y1="24" x2="363.9" y2="318" stroke="#f59e0b" stroke-opacity="0.28"/>
  <line x1="365.6" y1="24" x2="365.6" y2="318" stroke="#f59e0b" stroke-opacity="0.28"/>
  <line x1="367.4" y1="24" x2="367.4" y2="318" stroke="#f59e0b" stroke-opacity="0.28"/>
  <line x1="378.1" y1="24" x2="378.1" y2="318" stroke="#f59e0b" stroke-opacity="0.28"/>
  <line x1="379.9" y1="24" x2="379.9" y2="318" stroke="#f59e0b" stroke-opacity="0.28"/>
  <line x1="385.2" y1="24" x2="385.2" y2="318" stroke="#f59e0b" stroke-opacity="0.28"/>
  <line x1="387.0" y1="24" x2="387.0" y2="318" stroke="#f59e0b" stroke-opacity="0.28"/>
  <line x1="395.9" y1="24" x2="395.9" y2="318" stroke="#f59e0b" stroke-opacity="0.28"/>
  <line x1="397.7" y1="24" x2="397.7" y2="318" stroke="#f59e0b" stroke-opacity="0.28"/>
  <line x1="404.8" y1="24" x2="404.8" y2="318" stroke="#f59e0b" stroke-opacity="0.28"/>
  <line x1="406.6" y1="24" x2="406.6" y2="318" stroke="#f59e0b" stroke-opacity="0.28"/>
  <line x1="410.1" y1="24" x2="410.1" y2="318" stroke="#f59e0b" stroke-opacity="0.28"/>
  <line x1="411.9" y1="24" x2="411.9" y2="318" stroke="#f59e0b" stroke-opacity="0.28"/>
  <line x1="413.7" y1="24" x2="413.7" y2="318" stroke="#f59e0b" stroke-opacity="0.28"/>
  <line x1="415.5" y1="24" x2="415.5" y2="318" stroke="#f59e0b" stroke-opacity="0.28"/>
  <line x1="419.0" y1="24" x2="419.0" y2="318" stroke="#f59e0b" stroke-opacity="0.28"/>
  <line x1="420.8" y1="24" x2="420.8" y2="318" stroke="#f59e0b" stroke-opacity="0.28"/>
  <line x1="424.4" y1="24" x2="424.4" y2="318" stroke="#f59e0b" stroke-opacity="0.28"/>
  <line x1="426.1" y1="24" x2="426.1" y2="318" stroke="#f59e0b" stroke-opacity="0.28"/>
  <line x1="431.5" y1="24" x2="431.5" y2="318" stroke="#f59e0b" stroke-opacity="0.28"/>
  <line x1="433.3" y1="24" x2="433.3" y2="318" stroke="#f59e0b" stroke-opacity="0.28"/>
  <line x1="445.7" y1="24" x2="445.7" y2="318" stroke="#f59e0b" stroke-opacity="0.28"/>
  <line x1="508.0" y1="24" x2="508.0" y2="318" stroke="#f59e0b" stroke-opacity="0.28"/>
  <line x1="524.0" y1="24" x2="524.0" y2="318" stroke="#f59e0b" stroke-opacity="0.28"/>
  <line x1="541.8" y1="24" x2="541.8" y2="318" stroke="#f59e0b" stroke-opacity="0.28"/>
  <line x1="552.5" y1="24" x2="552.5" y2="318" stroke="#f59e0b" stroke-opacity="0.28"/>
  <line x1="582.7" y1="24" x2="582.7" y2="318" stroke="#f59e0b" stroke-opacity="0.28"/>
  <line x1="584.5" y1="24" x2="584.5" y2="318" stroke="#f59e0b" stroke-opacity="0.28"/>
  <line x1="598.8" y1="24" x2="598.8" y2="318" stroke="#f59e0b" stroke-opacity="0.28"/>
  <line x1="607.7" y1="24" x2="607.7" y2="318" stroke="#f59e0b" stroke-opacity="0.28"/>
  <line x1="611.2" y1="24" x2="611.2" y2="318" stroke="#f59e0b" stroke-opacity="0.28"/>
  <line x1="613.0" y1="24" x2="613.0" y2="318" stroke="#f59e0b" stroke-opacity="0.28"/>
  <line x1="614.8" y1="24" x2="614.8" y2="318" stroke="#f59e0b" stroke-opacity="0.28"/>
  <line x1="687.7" y1="24" x2="687.7" y2="318" stroke="#f59e0b" stroke-opacity="0.28"/>
  <line x1="735.8" y1="24" x2="735.8" y2="318" stroke="#f59e0b" stroke-opacity="0.28"/>
  <line x1="739.4" y1="24" x2="739.4" y2="318" stroke="#f59e0b" stroke-opacity="0.28"/>
  <line x1="741.1" y1="24" x2="741.1" y2="318" stroke="#f59e0b" stroke-opacity="0.28"/>
  <line x1="742.9" y1="24" x2="742.9" y2="318" stroke="#f59e0b" stroke-opacity="0.28"/>
  <line x1="744.7" y1="24" x2="744.7" y2="318" stroke="#f59e0b" stroke-opacity="0.28"/>
  <line x1="748.2" y1="24" x2="748.2" y2="318" stroke="#f59e0b" stroke-opacity="0.28"/>
  <line x1="750.0" y1="24" x2="750.0" y2="318" stroke="#f59e0b" stroke-opacity="0.28"/>
  <line x1="757.1" y1="24" x2="757.1" y2="318" stroke="#f59e0b" stroke-opacity="0.28"/>
  <line x1="758.9" y1="24" x2="758.9" y2="318" stroke="#f59e0b" stroke-opacity="0.28"/>
  <line x1="762.5" y1="24" x2="762.5" y2="318" stroke="#f59e0b" stroke-opacity="0.28"/>
  <line x1="835.4" y1="24" x2="835.4" y2="318" stroke="#f59e0b" stroke-opacity="0.28"/>
  <polyline fill="none" stroke="#38bdf8" stroke-width="2" points="56.0,306.4 57.8,306.1 59.6,305.8 61.3,305.5 63.1,305.5 64.9,304.3 66.7,304.1 68.5,303.8 70.2,303.8 72.0,302.0 73.8,301.9 75.6,301.9 77.4,301.9 79.1,301.9 80.9,301.6 82.7,301.6 84.5,301.6 86.3,301.6 88.0,301.6 89.8,301.0 91.6,300.8 93.4,300.8 95.2,300.5 96.9,300.5 98.7,299.1 100.5,299.0 102.3,299.0 104.0,299.0 105.8,299.0 107.6,299.0 109.4,299.0 111.2,299.0 112.9,298.7 114.7,298.7 116.5,298.4 118.3,298.2 120.1,298.2 121.8,298.2 123.6,298.2 125.4,307.7 127.2,299.7 129.0,285.9 130.7,307.7 132.5,307.4 134.3,307.4 136.1,307.1 137.9,307.1 139.6,306.9 141.4,306.9 143.2,306.6 145.0,306.6 146.8,306.6 148.5,306.6 150.3,306.6 152.1,306.6 153.9,306.3 155.7,306.0 157.4,305.7 159.2,305.4 161.0,304.4 162.8,303.5 164.6,303.3 166.3,303.0 168.1,302.7 169.9,302.7 171.7,302.4 173.5,301.7 175.2,301.2 177.0,300.9 178.8,300.9 180.6,300.6 182.3,300.2 184.1,283.5 185.9,282.6 187.7,282.6 189.5,282.3 191.2,281.9 193.0,281.9 194.8,281.9 196.6,281.6 198.4,305.9 200.1,305.7 201.9,305.7 203.7,305.3 205.5,307.5 207.3,305.3 209.0,307.5 210.8,305.3 212.6,305.1 214.4,304.8 216.2,304.8 217.9,304.5 219.7,304.5 221.5,304.5 223.3,303.9 225.1,303.9 226.8,303.9 228.6,303.9 230.4,303.9 232.2,303.9 234.0,303.6 235.7,303.6 237.5,303.6 239.3,303.3 241.1,306.7 242.9,306.4 244.6,306.4 246.4,306.4 248.2,306.2 250.0,306.2 251.8,305.9 253.5,305.9 255.3,305.9 257.1,305.7 258.9,305.5 260.6,305.5 262.4,305.2 264.2,305.0 266.0,304.8 267.8,306.7 269.5,306.5 271.3,306.7 273.1,306.7 274.9,306.7 276.7,306.5 278.4,306.2 280.2,305.9 282.0,305.9 283.8,306.1 285.6,307.7 287.3,307.5 289.1,307.6 290.9,307.5 292.7,307.2 294.5,306.9 296.2,306.4 298.0,305.9 299.8,305.9 301.6,305.9 303.4,305.9 305.1,305.6 306.9,305.3 308.7,305.3 310.5,305.3 312.3,305.1 314.0,305.1 315.8,305.1 317.6,304.8 319.4,310.4 321.2,309.9 322.9,306.4 324.7,280.5 326.5,280.2 328.3,262.7 330.1,241.1 331.8,238.2 333.6,235.9 335.4,307.7 337.2,307.1 338.9,310.0 340.7,310.0 342.5,307.2 344.3,305.9 346.1,305.1 347.8,303.9 349.6,306.8 351.4,306.5 353.2,303.8 355.0,307.7 356.7,307.3 358.5,310.0 360.3,310.0 362.1,307.3 363.9,310.0 365.6,307.3 367.4,310.0 369.2,310.0 371.0,310.0 372.8,310.0 374.5,310.0 376.3,310.0 378.1,307.3 379.9,310.0 381.7,310.0 383.4,310.0 385.2,307.3 387.0,310.0 388.8,310.0 390.6,310.0 392.3,310.0 394.1,310.0 395.9,307.3 397.7,310.0 399.5,310.0 401.2,310.0 403.0,310.0 404.8,307.3 406.6,310.0 408.4,310.0 410.1,307.3 411.9,310.0 413.7,307.3 415.5,310.0 417.3,310.0 419.0,307.3 420.8,310.0 422.6,310.0 424.4,307.3 426.1,310.0 427.9,310.0 429.7,310.0 431.5,307.3 433.3,310.0 435.0,310.0 436.8,310.0 438.6,310.0 440.4,310.0 442.2,310.0 443.9,309.7 445.7,307.3 447.5,307.3 449.3,307.3 451.1,307.3 452.8,304.6 454.6,304.1 456.4,304.1 458.2,304.1 460.0,303.8 461.7,303.8 463.5,303.8 465.3,303.8 467.1,303.8 468.9,303.8 470.6,303.8 472.4,303.8 474.2,303.8 476.0,303.8 477.8,303.8 479.5,303.8 481.3,303.8 483.1,303.8 484.9,303.8 486.7,303.2 488.4,303.2 490.2,303.2 492.0,303.2 493.8,303.2 495.6,303.2 497.3,303.2 499.1,303.2 500.9,303.2 502.7,303.2 504.4,303.2 506.2,302.9 508.0,310.0 509.8,308.2 511.6,307.3 513.3,307.2 515.1,305.6 516.9,302.1 518.7,301.4 520.5,301.0 522.2,300.2 524.0,313.3 525.8,313.0 527.6,264.6 529.4,298.2 531.1,264.6 532.9,290.0 534.7,261.9 536.5,186.9 538.3,97.6 540.0,86.9 541.8,300.1 543.6,299.6 545.4,299.6 547.2,299.3 548.9,298.8 550.7,298.1 552.5,312.8 554.3,312.6 556.1,263.6 557.8,175.8 559.6,242.2 561.4,67.6 563.2,185.0 565.0,184.9 566.7,34.8 568.5,171.5 570.3,130.5 572.1,119.9 573.9,119.4 575.6,90.6 577.4,76.5 579.2,39.7 581.0,37.5 582.7,298.0 584.5,37.5 586.3,37.5 588.1,34.9 589.9,30.9 591.6,29.6 593.4,28.0 595.2,27.2 597.0,24.0 598.8,298.0 600.5,297.4 602.3,296.9 604.1,296.4 605.9,296.1 607.7,313.4 609.4,291.3 611.2,278.2 613.0,291.2 614.8,277.8 616.6,277.7 618.3,277.6 620.1,244.3 621.9,228.6 623.7,218.9 625.5,218.8 627.2,216.0 629.0,215.9 630.8,215.8 632.6,213.4 634.4,212.8 636.1,211.5 637.9,211.4 639.7,211.2 641.5,209.1 643.3,204.6 645.0,204.5 646.8,204.4 648.6,204.3 650.4,203.1 652.2,203.0 653.9,202.8 655.7,201.0 657.5,195.0 659.3,194.9 661.1,194.3 662.8,194.2 664.6,194.0 666.4,193.9 668.2,192.0 669.9,188.2 671.7,186.1 673.5,178.5 675.3,178.4 677.1,178.2 678.8,176.6 680.6,176.3 682.4,176.2 684.2,176.1 686.0,176.1 687.7,305.8 689.5,305.5 691.3,305.2 693.1,305.2 694.9,305.2 696.6,305.0 698.4,305.0 700.2,304.6 702.0,304.4 703.8,304.4 705.5,304.4 707.3,304.1 709.1,304.1 710.9,303.8 712.7,303.8 714.4,303.8 716.2,303.6 718.0,303.6 719.8,303.2 721.6,302.9 723.3,301.5 725.1,301.5 726.9,301.5 728.7,285.4 730.5,285.4 732.2,285.0 734.0,284.7 735.8,313.6 737.6,313.6 739.4,284.7 741.1,313.4 742.9,284.7 744.7,313.4 746.5,313.4 748.2,284.4 750.0,313.4 751.8,313.4 753.6,313.4 755.4,313.4 757.1,284.0 758.9,313.4 760.7,313.4 762.5,284.0 764.3,284.0 766.0,284.0 767.8,284.0 769.6,284.0 771.4,284.0 773.2,282.6 774.9,282.3 776.7,282.3 778.5,282.0 780.3,282.0 782.1,282.0 783.8,282.0 785.6,281.6 787.4,281.6 789.2,281.6 791.0,281.6 792.7,281.6 794.5,281.6 796.3,281.4 798.1,281.4 799.9,281.4 801.6,281.4 803.4,281.1 805.2,281.1 807.0,280.8 808.8,280.8 810.5,280.4 812.3,280.4 814.1,280.1 815.9,279.9 817.7,279.9 819.4,279.9 821.2,279.9 823.0,279.9 824.8,279.9 826.5,279.9 828.3,279.9 830.1,279.9 831.9,279.9 833.7,279.6 835.4,310.9 837.2,310.5 839.0,310.2 840.8,310.2 842.6,309.9 844.3,309.6 846.1,309.6 847.9,309.6 849.7,309.6 851.5,309.6 853.2,309.6 855.0,309.6 856.8,309.6 858.6,309.3 860.4,309.3 862.1,309.3 863.9,309.3 865.7,309.3 867.5,309.3 869.3,309.3 871.0,309.3 872.8,309.0 874.6,308.7 876.4,308.7 878.2,308.4 879.9,308.4 881.7,308.4 883.5,308.4 885.3,307.7 887.1,307.7 888.8,307.5 890.6,307.5 892.4,307.5 894.2,306.8 896.0,305.9 897.7,305.8 899.5,304.3 901.3,303.6 903.1,303.6 904.8,303.6 906.6,303.6 908.4,303.6 910.2,303.6 912.0,303.6 913.7,303.6 915.5,303.6 917.3,303.6 919.1,303.6 920.9,303.4 922.6,302.6 924.4,302.0 926.2,301.1 928.0,300.9 929.8,300.9 931.5,300.9 933.3,300.9 935.1,300.6 936.9,300.6 938.7,300.6 940.4,300.3 942.2,300.0 944.0,300.0"/>
  <polyline fill="none" stroke="#22c55e" stroke-width="2" points="56.0,308.4 57.8,308.4 59.6,308.4 61.3,308.4 63.1,308.4 64.9,308.4 66.7,308.4 68.5,308.4 70.2,308.4 72.0,308.4 73.8,308.4 75.6,308.4 77.4,308.4 79.1,308.4 80.9,308.4 82.7,308.4 84.5,308.4 86.3,308.4 88.0,308.4 89.8,308.4 91.6,308.4 93.4,308.4 95.2,308.4 96.9,308.4 98.7,308.4 100.5,308.4 102.3,308.4 104.0,308.4 105.8,308.4 107.6,308.4 109.4,308.4 111.2,308.4 112.9,308.4 114.7,308.4 116.5,308.4 118.3,308.4 120.1,308.4 121.8,308.4 123.6,308.4 125.4,307.7 127.2,307.7 129.0,307.7 130.7,307.7 132.5,307.7 134.3,307.7 136.1,307.7 137.9,307.7 139.6,307.7 141.4,307.7 143.2,307.7 145.0,307.7 146.8,307.7 148.5,307.7 150.3,307.7 152.1,307.7 153.9,307.7 155.7,307.7 157.4,307.7 159.2,307.7 161.0,307.7 162.8,307.7 164.6,307.7 166.3,307.7 168.1,307.7 169.9,307.7 171.7,307.7 173.5,307.7 175.2,307.7 177.0,307.7 178.8,307.7 180.6,307.7 182.3,307.7 184.1,307.7 185.9,307.7 187.7,307.7 189.5,307.7 191.2,307.7 193.0,307.7 194.8,307.7 196.6,307.7 198.4,306.0 200.1,306.0 201.9,306.0 203.7,306.0 205.5,307.7 207.3,306.0 209.0,307.7 210.8,306.0 212.6,306.0 214.4,306.0 216.2,306.0 217.9,306.0 219.7,306.0 221.5,306.0 223.3,306.0 225.1,306.0 226.8,306.0 228.6,306.0 230.4,306.0 232.2,306.0 234.0,306.0 235.7,306.0 237.5,306.0 239.3,306.0 241.1,307.4 242.9,307.4 244.6,307.4 246.4,307.4 248.2,307.4 250.0,307.4 251.8,307.4 253.5,307.4 255.3,307.4 257.1,307.4 258.9,307.4 260.6,307.4 262.4,307.4 264.2,307.4 266.0,307.4 267.8,307.4 269.5,307.4 271.3,307.4 273.1,307.4 274.9,307.4 276.7,307.4 278.4,307.4 280.2,307.4 282.0,307.4 283.8,307.4 285.6,307.7 287.3,307.7 289.1,307.7 290.9,307.7 292.7,307.7 294.5,307.7 296.2,307.7 298.0,307.7 299.8,307.7 301.6,307.7 303.4,307.7 305.1,307.7 306.9,307.7 308.7,307.7 310.5,307.7 312.3,307.7 314.0,307.7 315.8,307.7 317.6,307.7 319.4,311.8 321.2,311.8 322.9,311.8 324.7,311.8 326.5,311.8 328.3,311.8 330.1,311.8 331.8,311.8 333.6,311.8 335.4,307.7 337.2,307.7 338.9,311.1 340.7,311.1 342.5,311.1 344.3,311.1 346.1,311.1 347.8,311.1 349.6,307.7 351.4,307.7 353.2,307.7 355.0,307.7 356.7,307.7 358.5,311.1 360.3,311.1 362.1,307.7 363.9,311.1 365.6,307.7 367.4,311.1 369.2,311.1 371.0,311.1 372.8,311.1 374.5,311.1 376.3,311.1 378.1,307.7 379.9,311.1 381.7,311.1 383.4,311.1 385.2,307.7 387.0,311.1 388.8,311.1 390.6,311.1 392.3,311.1 394.1,311.1 395.9,307.7 397.7,311.1 399.5,311.1 401.2,311.1 403.0,311.1 404.8,307.7 406.6,311.1 408.4,311.1 410.1,307.7 411.9,311.1 413.7,307.7 415.5,311.1 417.3,311.1 419.0,307.7 420.8,311.1 422.6,311.1 424.4,307.7 426.1,311.1 427.9,311.1 429.7,311.1 431.5,307.7 433.3,311.1 435.0,311.1 436.8,311.1 438.6,311.1 440.4,311.1 442.2,311.1 443.9,311.1 445.7,307.7 447.5,307.7 449.3,307.7 451.1,307.7 452.8,307.7 454.6,307.7 456.4,307.7 458.2,307.7 460.0,307.7 461.7,307.7 463.5,307.7 465.3,307.7 467.1,307.7 468.9,307.7 470.6,307.7 472.4,307.7 474.2,307.7 476.0,307.7 477.8,307.7 479.5,307.7 481.3,307.7 483.1,307.7 484.9,307.7 486.7,307.7 488.4,307.7 490.2,307.7 492.0,307.7 493.8,307.7 495.6,307.7 497.3,307.7 499.1,307.7 500.9,307.7 502.7,307.7 504.4,307.7 506.2,307.7 508.0,310.1 509.8,310.1 511.6,310.1 513.3,310.1 515.1,310.1 516.9,310.1 518.7,310.1 520.5,310.1 522.2,310.1 524.0,313.9 525.8,313.9 527.6,313.9 529.4,313.9 531.1,313.9 532.9,313.9 534.7,313.9 536.5,313.9 538.3,313.9 540.0,313.9 541.8,310.1 543.6,310.1 545.4,310.1 547.2,310.1 548.9,310.1 550.7,310.1 552.5,313.9 554.3,313.9 556.1,313.9 557.8,313.9 559.6,313.9 561.4,313.9 563.2,313.9 565.0,313.9 566.7,313.9 568.5,313.9 570.3,313.9 572.1,313.9 573.9,313.9 575.6,313.9 577.4,313.9 579.2,313.9 581.0,313.9 582.7,310.1 584.5,313.9 586.3,313.9 588.1,313.9 589.9,313.9 591.6,313.9 593.4,313.9 595.2,313.9 597.0,313.9 598.8,310.1 600.5,310.1 602.3,310.1 604.1,310.1 605.9,310.1 607.7,313.9 609.4,313.9 611.2,310.1 613.0,313.9 614.8,310.1 616.6,310.1 618.3,310.1 620.1,310.1 621.9,310.1 623.7,310.1 625.5,310.1 627.2,310.1 629.0,310.1 630.8,310.1 632.6,310.1 634.4,310.1 636.1,310.1 637.9,310.1 639.7,310.1 641.5,310.1 643.3,310.1 645.0,310.1 646.8,310.1 648.6,310.1 650.4,310.1 652.2,310.1 653.9,310.1 655.7,310.1 657.5,310.1 659.3,310.1 661.1,310.1 662.8,310.1 664.6,310.1 666.4,310.1 668.2,310.1 669.9,310.1 671.7,310.1 673.5,310.1 675.3,310.1 677.1,310.1 678.8,310.1 680.6,310.1 682.4,310.1 684.2,310.1 686.0,310.1 687.7,310.6 689.5,310.6 691.3,310.6 693.1,310.6 694.9,310.6 696.6,310.6 698.4,310.6 700.2,310.6 702.0,310.6 703.8,310.6 705.5,310.6 707.3,310.6 709.1,310.6 710.9,310.6 712.7,310.6 714.4,310.6 716.2,310.6 718.0,310.6 719.8,310.6 721.6,310.6 723.3,310.6 725.1,310.6 726.9,310.6 728.7,310.6 730.5,310.6 732.2,310.6 734.0,310.6 735.8,313.9 737.6,313.9 739.4,310.6 741.1,313.9 742.9,310.6 744.7,313.9 746.5,313.9 748.2,310.6 750.0,313.9 751.8,313.9 753.6,313.9 755.4,313.9 757.1,310.6 758.9,313.9 760.7,313.9 762.5,310.6 764.3,310.6 766.0,310.6 767.8,310.6 769.6,310.6 771.4,310.6 773.2,310.6 774.9,310.6 776.7,310.6 778.5,310.6 780.3,310.6 782.1,310.6 783.8,310.6 785.6,310.6 787.4,310.6 789.2,310.6 791.0,310.6 792.7,310.6 794.5,310.6 796.3,310.6 798.1,310.6 799.9,310.6 801.6,310.6 803.4,310.6 805.2,310.6 807.0,310.6 808.8,310.6 810.5,310.6 812.3,310.6 814.1,310.6 815.9,310.6 817.7,310.6 819.4,310.6 821.2,310.6 823.0,310.6 824.8,310.6 826.5,310.6 828.3,310.6 830.1,310.6 831.9,310.6 833.7,310.6 835.4,310.9 837.2,310.9 839.0,310.9 840.8,310.9 842.6,310.9 844.3,310.9 846.1,310.9 847.9,310.9 849.7,310.9 851.5,310.9 853.2,310.9 855.0,310.9 856.8,310.9 858.6,310.9 860.4,310.9 862.1,310.9 863.9,310.9 865.7,310.9 867.5,310.9 869.3,310.9 871.0,310.9 872.8,310.9 874.6,310.9 876.4,310.9 878.2,310.9 879.9,310.9 881.7,310.9 883.5,310.9 885.3,310.9 887.1,310.9 888.8,310.9 890.6,310.9 892.4,310.9 894.2,310.9 896.0,310.9 897.7,310.9 899.5,310.9 901.3,310.9 903.1,310.9 904.8,310.9 906.6,310.9 908.4,310.9 910.2,310.9 912.0,310.9 913.7,310.9 915.5,310.9 917.3,310.9 919.1,310.9 920.9,310.9 922.6,310.9 924.4,310.9 926.2,310.9 928.0,310.9 929.8,310.9 931.5,310.9 933.3,310.9 935.1,310.9 936.9,310.9 938.7,310.9 940.4,310.9 942.2,310.9 944.0,310.9"/>
  
  <rect x="710" y="28" width="220" height="62" rx="6" fill="#111827" stroke="#334155"/>
  <line x1="724" y1="48" x2="764" y2="48" stroke="#38bdf8" stroke-width="3"/><text x="772" y="52" fill="#cbd5e1" font-family="sans-serif" font-size="12">totalPromptChars</text>
  <line x1="724" y1="68" x2="764" y2="68" stroke="#22c55e" stroke-width="3"/><text x="772" y="72" fill="#cbd5e1" font-family="sans-serif" font-size="12">stablePrefixChars</text>
</svg>
