<?xml version="1.0" encoding="UTF-8"?>
<svg xmlns="http://www.w3.org/2000/svg" width="960" height="360" viewBox="0 0 960 360">
  <rect width="100%" height="100%" fill="#0f172a"/>
  <text x="56" y="18" fill="#e5e7eb" font-family="sans-serif" font-size="14">cache-friendly-prompt 推移（最新 500 件）</text>
  <line x1="56" y1="318" x2="944" y2="318" stroke="#475569"/>
  <line x1="56" y1="24" x2="56" y2="318" stroke="#475569"/>
  <text x="8" y="34" fill="#94a3b8" font-family="sans-serif" font-size="11">455149</text>
  <text x="20" y="318" fill="#94a3b8" font-family="sans-serif" font-size="11">0</text>
  <line x1="75.6" y1="24" x2="75.6" y2="318" stroke="#f59e0b" stroke-opacity="0.28"/>
  <line x1="77.4" y1="24" x2="77.4" y2="318" stroke="#f59e0b" stroke-opacity="0.28"/>
  <line x1="91.6" y1="24" x2="91.6" y2="318" stroke="#f59e0b" stroke-opacity="0.28"/>
  <line x1="100.5" y1="24" x2="100.5" y2="318" stroke="#f59e0b" stroke-opacity="0.28"/>
  <line x1="104.0" y1="24" x2="104.0" y2="318" stroke="#f59e0b" stroke-opacity="0.28"/>
  <line x1="105.8" y1="24" x2="105.8" y2="318" stroke="#f59e0b" stroke-opacity="0.28"/>
  <line x1="107.6" y1="24" x2="107.6" y2="318" stroke="#f59e0b" stroke-opacity="0.28"/>
  <line x1="180.6" y1="24" x2="180.6" y2="318" stroke="#f59e0b" stroke-opacity="0.28"/>
  <line x1="228.6" y1="24" x2="228.6" y2="318" stroke="#f59e0b" stroke-opacity="0.28"/>
  <line x1="232.2" y1="24" x2="232.2" y2="318" stroke="#f59e0b" stroke-opacity="0.28"/>
  <line x1="234.0" y1="24" x2="234.0" y2="318" stroke="#f59e0b" stroke-opacity="0.28"/>
  <line x1="235.7" y1="24" x2="235.7" y2="318" stroke="#f59e0b" stroke-opacity="0.28"/>
  <line x1="237.5" y1="24" x2="237.5" y2="318" stroke="#f59e0b" stroke-opacity="0.28"/>
  <line x1="241.1" y1="24" x2="241.1" y2="318" stroke="#f59e0b" stroke-opacity="0.28"/>
  <line x1="242.9" y1="24" x2="242.9" y2="318" stroke="#f59e0b" stroke-opacity="0.28"/>
  <line x1="250.0" y1="24" x2="250.0" y2="318" stroke="#f59e0b" stroke-opacity="0.28"/>
  <line x1="251.8" y1="24" x2="251.8" y2="318" stroke="#f59e0b" stroke-opacity="0.28"/>
  <line x1="255.3" y1="24" x2="255.3" y2="318" stroke="#f59e0b" stroke-opacity="0.28"/>
  <line x1="328.3" y1="24" x2="328.3" y2="318" stroke="#f59e0b" stroke-opacity="0.28"/>
  <line x1="516.9" y1="24" x2="516.9" y2="318" stroke="#f59e0b" stroke-opacity="0.28"/>
  <line x1="540.0" y1="24" x2="540.0" y2="318" stroke="#f59e0b" stroke-opacity="0.28"/>
  <line x1="543.6" y1="24" x2="543.6" y2="318" stroke="#f59e0b" stroke-opacity="0.28"/>
  <line x1="570.3" y1="24" x2="570.3" y2="318" stroke="#f59e0b" stroke-opacity="0.28"/>
  <line x1="575.6" y1="24" x2="575.6" y2="318" stroke="#f59e0b" stroke-opacity="0.28"/>
  <line x1="577.4" y1="24" x2="577.4" y2="318" stroke="#f59e0b" stroke-opacity="0.28"/>
  <line x1="630.8" y1="24" x2="630.8" y2="318" stroke="#f59e0b" stroke-opacity="0.28"/>
  <line x1="637.9" y1="24" x2="637.9" y2="318" stroke="#f59e0b" stroke-opacity="0.28"/>
  <line x1="646.8" y1="24" x2="646.8" y2="318" stroke="#f59e0b" stroke-opacity="0.28"/>
  <line x1="751.8" y1="24" x2="751.8" y2="318" stroke="#f59e0b" stroke-opacity="0.28"/>
  <polyline fill="none" stroke="#38bdf8" stroke-width="2" points="56.0,185.0 57.8,184.9 59.6,34.8 61.3,171.5 63.1,130.5 64.9,119.9 66.7,119.4 68.5,90.6 70.2,76.5 72.0,39.7 73.8,37.5 75.6,298.0 77.4,37.5 79.1,37.5 80.9,34.9 82.7,30.9 84.5,29.6 86.3,28.0 88.0,27.2 89.8,24.0 91.6,298.0 93.4,297.4 95.2,296.9 96.9,296.4 98.7,296.1 100.5,313.4 102.3,291.3 104.0,278.2 105.8,291.2 107.6,277.8 109.4,277.7 111.2,277.6 112.9,244.3 114.7,228.6 116.5,218.9 118.3,218.8 120.1,216.0 121.8,215.9 123.6,215.8 125.4,213.4 127.2,212.8 129.0,211.5 130.7,211.4 132.5,211.2 134.3,209.1 136.1,204.6 137.9,204.5 139.6,204.4 141.4,204.3 143.2,203.1 145.0,203.0 146.8,202.8 148.5,201.0 150.3,195.0 152.1,194.9 153.9,194.3 155.7,194.2 157.4,194.0 159.2,193.9 161.0,192.0 162.8,188.2 164.6,186.1 166.3,178.5 168.1,178.4 169.9,178.2 171.7,176.6 173.5,176.3 175.2,176.2 177.0,176.1 178.8,176.1 180.6,305.8 182.3,305.5 184.1,305.2 185.9,305.2 187.7,305.2 189.5,305.0 191.2,305.0 193.0,304.6 194.8,304.4 196.6,304.4 198.4,304.4 200.1,304.1 201.9,304.1 203.7,303.8 205.5,303.8 207.3,303.8 209.0,303.6 210.8,303.6 212.6,303.2 214.4,302.9 216.2,301.5 217.9,301.5 219.7,301.5 221.5,285.4 223.3,285.4 225.1,285.0 226.8,284.7 228.6,313.6 230.4,313.6 232.2,284.7 234.0,313.4 235.7,284.7 237.5,313.4 239.3,313.4 241.1,284.4 242.9,313.4 244.6,313.4 246.4,313.4 248.2,313.4 250.0,284.0 251.8,313.4 253.5,313.4 255.3,284.0 257.1,284.0 258.9,284.0 260.6,284.0 262.4,284.0 264.2,284.0 266.0,282.6 267.8,282.3 269.5,282.3 271.3,282.0 273.1,282.0 274.9,282.0 276.7,282.0 278.4,281.6 280.2,281.6 282.0,281.6 283.8,281.6 285.6,281.6 287.3,281.6 289.1,281.4 290.9,281.4 292.7,281.4 294.5,281.4 296.2,281.1 298.0,281.1 299.8,280.8 301.6,280.8 303.4,280.4 305.1,280.4 306.9,280.1 308.7,279.9 310.5,279.9 312.3,279.9 314.0,279.9 315.8,279.9 317.6,279.9 319.4,279.9 321.2,279.9 322.9,279.9 324.7,279.9 326.5,279.6 328.3,310.9 330.1,310.5 331.8,310.2 333.6,310.2 335.4,309.9 337.2,309.6 338.9,309.6 340.7,309.6 342.5,309.6 344.3,309.6 346.1,309.6 347.8,309.6 349.6,309.6 351.4,309.3 353.2,309.3 355.0,309.3 356.7,309.3 358.5,309.3 360.3,309.3 362.1,309.3 363.9,309.3 365.6,309.0 367.4,308.7 369.2,308.7 371.0,308.4 372.8,308.4 374.5,308.4 376.3,308.4 378.1,307.7 379.9,307.7 381.7,307.5 383.4,307.5 385.2,307.5 387.0,306.8 388.8,305.9 390.6,305.8 392.3,304.3 394.1,303.6 395.9,303.6 397.7,303.6 399.5,303.6 401.2,303.6 403.0,303.6 404.8,303.6 406.6,303.6 408.4,303.6 410.1,303.6 411.9,303.6 413.7,303.4 415.5,302.6 417.3,302.0 419.0,301.1 420.8,300.9 422.6,300.9 424.4,300.9 426.1,300.9 427.9,300.6 429.7,300.6 431.5,300.6 433.3,300.3 435.0,300.0 436.8,300.0 438.6,300.0 440.4,299.7 442.2,299.4 443.9,299.2 445.7,298.6 447.5,296.7 449.3,296.4 451.1,296.4 452.8,296.4 454.6,296.4 456.4,296.4 458.2,296.4 460.0,296.0 461.7,296.0 463.5,296.0 465.3,296.0 467.1,296.0 468.9,295.6 470.6,295.2 472.4,295.2 474.2,295.2 476.0,295.2 477.8,295.2 479.5,294.9 481.3,293.9 483.1,293.9 484.9,293.9 486.7,293.9 488.4,293.9 490.2,293.9 492.0,293.9 493.8,293.6 495.6,291.6 497.3,291.3 499.1,291.3 500.9,291.3 502.7,291.3 504.4,291.3 506.2,291.3 508.0,291.3 509.8,291.3 511.6,291.3 513.3,291.3 515.1,291.3 516.9,314.5 518.7,314.5 520.5,314.5 522.2,314.3 524.0,313.9 525.8,313.6 527.6,314.6 529.4,314.3 531.1,314.1 532.9,313.8 534.7,313.5 536.5,313.5 538.3,313.2 540.0,312.1 541.8,312.3 543.6,267.2 545.4,262.7 547.2,262.5 548.9,257.2 550.7,252.4 552.5,252.3 554.3,252.3 556.1,251.3 557.8,251.2 559.6,251.1 561.4,250.0 563.2,249.0 565.0,249.0 566.7,246.9 568.5,246.4 570.3,308.8 572.1,308.4 573.9,308.2 575.6,307.3 577.4,208.2 579.2,207.3 581.0,206.6 582.7,206.5 584.5,206.4 586.3,206.3 588.1,205.6 589.9,205.5 591.6,205.4 593.4,204.6 595.2,204.4 597.0,204.1 598.8,204.0 600.5,203.8 602.3,203.7 604.1,203.5 605.9,203.3 607.7,203.1 609.4,203.0 611.2,201.0 613.0,200.9 614.8,197.8 616.6,197.6 618.3,196.6 620.1,196.4 621.9,196.1 623.7,196.1 625.5,195.9 627.2,193.8 629.0,193.7 630.8,304.5 632.6,304.2 634.4,304.2 636.1,304.0 637.9,304.3 639.7,304.0 641.5,304.0 643.3,303.5 645.0,282.9 646.8,110.8 648.6,110.7 650.4,110.6 652.2,109.9 653.9,109.5 655.7,109.3 657.5,108.7 659.3,108.7 661.1,108.6 662.8,108.5 664.6,108.1 666.4,106.7 668.2,106.5 669.9,106.4 671.7,106.3 673.5,106.2 675.3,106.1 677.1,105.6 678.8,104.4 680.6,104.2 682.4,104.2 684.2,103.2 686.0,103.1 687.7,103.1 689.5,102.8 691.3,102.5 693.1,102.3 694.9,102.1 696.6,101.8 698.4,101.4 700.2,101.1 702.0,100.8 703.8,100.7 705.5,100.7 707.3,100.4 709.1,100.0 710.9,99.1 712.7,98.9 714.4,98.8 716.2,98.0 718.0,97.6 719.8,97.5 721.6,97.3 723.3,97.2 725.1,97.0 726.9,97.0 728.7,96.9 730.5,95.9 732.2,95.2 734.0,94.6 735.8,94.5 737.6,94.4 739.4,94.4 741.1,94.3 742.9,94.2 744.7,94.2 746.5,93.9 748.2,92.3 750.0,92.1 751.8,310.6 753.6,310.1 755.4,309.1 757.1,307.9 758.9,307.1 760.7,307.1 762.5,306.9 764.3,306.6 766.0,305.6 767.8,304.8 769.6,304.8 771.4,304.2 773.2,303.3 774.9,303.1 776.7,302.9 778.5,302.7 780.3,302.7 782.1,302.6 783.8,309.7 785.6,309.4 787.4,309.4 789.2,309.1 791.0,308.8 792.7,308.5 794.5,308.3 796.3,308.3 798.1,308.3 799.9,308.0 801.6,307.7 803.4,307.7 805.2,307.7 807.0,307.5 808.8,307.5 810.5,306.7 812.3,306.5 814.1,306.2 815.9,305.7 817.7,305.1 819.4,304.8 821.2,301.7 823.0,301.4 824.8,301.1 826.5,301.1 828.3,300.8 830.1,300.8 831.9,300.8 833.7,300.8 835.4,300.5 837.2,300.5 839.0,300.5 840.8,300.5 842.6,300.3 844.3,300.3 846.1,300.0 847.9,297.6 849.7,297.3 851.5,297.3 853.2,297.0 855.0,296.7 856.8,296.4 858.6,296.4 860.4,296.0 862.1,295.7 863.9,295.4 865.7,295.1 867.5,294.8 869.3,294.1 871.0,294.1 872.8,294.1 874.6,294.1 876.4,294.1 878.2,294.1 879.9,294.1 881.7,293.8 883.5,293.5 885.3,293.5 887.1,292.9 888.8,292.6 890.6,292.4 892.4,292.4 894.2,292.4 896.0,292.1 897.7,292.1 899.5,292.1 901.3,292.1 903.1,292.1 904.8,292.1 906.6,292.1 908.4,292.1 910.2,292.1 912.0,292.1 913.7,292.1 915.5,292.1 917.3,291.3 919.1,291.3 920.9,291.0 922.6,291.0 924.4,291.0 926.2,291.0 928.0,291.0 929.8,290.0 931.5,290.0 933.3,290.0 935.1,290.0 936.9,290.0 938.7,290.0 940.4,290.0 942.2,290.0 944.0,290.0"/>
  <polyline fill="none" stroke="#22c55e" stroke-width="2" points="56.0,313.9 57.8,313.9 59.6,313.9 61.3,313.9 63.1,313.9 64.9,313.9 66.7,313.9 68.5,313.9 70.2,313.9 72.0,313.9 73.8,313.9 75.6,310.1 77.4,313.9 79.1,313.9 80.9,313.9 82.7,313.9 84.5,313.9 86.3,313.9 88.0,313.9 89.8,313.9 91.6,310.1 93.4,310.1 95.2,310.1 96.9,310.1 98.7,310.1 100.5,313.9 102.3,313.9 104.0,310.1 105.8,313.9 107.6,310.1 109.4,310.1 111.2,310.1 112.9,310.1 114.7,310.1 116.5,310.1 118.3,310.1 120.1,310.1 121.8,310.1 123.6,310.1 125.4,310.1 127.2,310.1 129.0,310.1 130.7,310.1 132.5,310.1 134.3,310.1 136.1,310.1 137.9,310.1 139.6,310.1 141.4,310.1 143.2,310.1 145.0,310.1 146.8,310.1 148.5,310.1 150.3,310.1 152.1,310.1 153.9,310.1 155.7,310.1 157.4,310.1 159.2,310.1 161.0,310.1 162.8,310.1 164.6,310.1 166.3,310.1 168.1,310.1 169.9,310.1 171.7,310.1 173.5,310.1 175.2,310.1 177.0,310.1 178.8,310.1 180.6,310.6 182.3,310.6 184.1,310.6 185.9,310.6 187.7,310.6 189.5,310.6 191.2,310.6 193.0,310.6 194.8,310.6 196.6,310.6 198.4,310.6 200.1,310.6 201.9,310.6 203.7,310.6 205.5,310.6 207.3,310.6 209.0,310.6 210.8,310.6 212.6,310.6 214.4,310.6 216.2,310.6 217.9,310.6 219.7,310.6 221.5,310.6 223.3,310.6 225.1,310.6 226.8,310.6 228.6,313.9 230.4,313.9 232.2,310.6 234.0,313.9 235.7,310.6 237.5,313.9 239.3,313.9 241.1,310.6 242.9,313.9 244.6,313.9 246.4,313.9 248.2,313.9 250.0,310.6 251.8,313.9 253.5,313.9 255.3,310.6 257.1,310.6 258.9,310.6 260.6,310.6 262.4,310.6 264.2,310.6 266.0,310.6 267.8,310.6 269.5,310.6 271.3,310.6 273.1,310.6 274.9,310.6 276.7,310.6 278.4,310.6 280.2,310.6 282.0,310.6 283.8,310.6 285.6,310.6 287.3,310.6 289.1,310.6 290.9,310.6 292.7,310.6 294.5,310.6 296.2,310.6 298.0,310.6 299.8,310.6 301.6,310.6 303.4,310.6 305.1,310.6 306.9,310.6 308.7,310.6 310.5,310.6 312.3,310.6 314.0,310.6 315.8,310.6 317.6,310.6 319.4,310.6 321.2,310.6 322.9,310.6 324.7,310.6 326.5,310.6 328.3,310.9 330.1,310.9 331.8,310.9 333.6,310.9 335.4,310.9 337.2,310.9 338.9,310.9 340.7,310.9 342.5,310.9 344.3,310.9 346.1,310.9 347.8,310.9 349.6,310.9 351.4,310.9 353.2,310.9 355.0,310.9 356.7,310.9 358.5,310.9 360.3,310.9 362.1,310.9 363.9,310.9 365.6,310.9 367.4,310.9 369.2,310.9 371.0,310.9 372.8,310.9 374.5,310.9 376.3,310.9 378.1,310.9 379.9,310.9 381.7,310.9 383.4,310.9 385.2,310.9 387.0,310.9 388.8,310.9 390.6,310.9 392.3,310.9 394.1,310.9 395.9,310.9 397.7,310.9 399.5,310.9 401.2,310.9 403.0,310.9 404.8,310.9 406.6,310.9 408.4,310.9 410.1,310.9 411.9,310.9 413.7,310.9 415.5,310.9 417.3,310.9 419.0,310.9 420.8,310.9 422.6,310.9 424.4,310.9 426.1,310.9 427.9,310.9 429.7,310.9 431.5,310.9 433.3,310.9 435.0,310.9 436.8,310.9 438.6,310.9 440.4,310.9 442.2,310.9 443.9,310.9 445.7,310.9 447.5,310.9 449.3,310.9 451.1,310.9 452.8,310.9 454.6,310.9 456.4,310.9 458.2,310.9 460.0,310.9 461.7,310.9 463.5,310.9 465.3,310.9 467.1,310.9 468.9,310.9 470.6,310.9 472.4,310.9 474.2,310.9 476.0,310.9 477.8,310.9 479.5,310.9 481.3,310.9 483.1,310.9 484.9,310.9 486.7,310.9 488.4,310.9 490.2,310.9 492.0,310.9 493.8,310.9 495.6,310.9 497.3,310.9 499.1,310.9 500.9,310.9 502.7,310.9 504.4,310.9 506.2,310.9 508.0,310.9 509.8,310.9 511.6,310.9 513.3,310.9 515.1,310.9 516.9,314.8 518.7,314.8 520.5,314.8 522.2,314.8 524.0,314.8 525.8,314.8 527.6,314.8 529.4,314.8 531.1,314.8 532.9,314.8 534.7,314.8 536.5,314.8 538.3,314.8 540.0,315.4 541.8,315.4 543.6,310.9 545.4,310.9 547.2,310.9 548.9,310.9 550.7,310.9 552.5,310.9 554.3,310.9 556.1,310.9 557.8,310.9 559.6,310.9 561.4,310.9 563.2,310.9 565.0,310.9 566.7,310.9 568.5,310.9 570.3,314.8 572.1,314.8 573.9,314.8 575.6,315.4 577.4,310.9 579.2,310.9 581.0,310.9 582.7,310.9 584.5,310.9 586.3,310.9 588.1,310.9 589.9,310.9 591.6,310.9 593.4,310.9 595.2,310.9 597.0,310.9 598.8,310.9 600.5,310.9 602.3,310.9 604.1,310.9 605.9,310.9 607.7,310.9 609.4,310.9 611.2,310.9 613.0,310.9 614.8,310.9 616.6,310.9 618.3,310.9 620.1,310.9 621.9,310.9 623.7,310.9 625.5,310.9 627.2,310.9 629.0,310.9 630.8,314.8 632.6,314.8 634.4,314.8 636.1,314.8 637.9,315.4 639.7,315.4 641.5,315.4 643.3,315.4 645.0,315.4 646.8,310.9 648.6,310.9 650.4,310.9 652.2,310.9 653.9,310.9 655.7,310.9 657.5,310.9 659.3,310.9 661.1,310.9 662.8,310.9 664.6,310.9 666.4,310.9 668.2,310.9 669.9,310.9 671.7,310.9 673.5,310.9 675.3,310.9 677.1,310.9 678.8,310.9 680.6,310.9 682.4,310.9 684.2,310.9 686.0,310.9 687.7,310.9 689.5,310.9 691.3,310.9 693.1,310.9 694.9,310.9 696.6,310.9 698.4,310.9 700.2,310.9 702.0,310.9 703.8,310.9 705.5,310.9 707.3,310.9 709.1,310.9 710.9,310.9 712.7,310.9 714.4,310.9 716.2,310.9 718.0,310.9 719.8,310.9 721.6,310.9 723.3,310.9 725.1,310.9 726.9,310.9 728.7,310.9 730.5,310.9 732.2,310.9 734.0,310.9 735.8,310.9 737.6,310.9 739.4,310.9 741.1,310.9 742.9,310.9 744.7,310.9 746.5,310.9 748.2,310.9 750.0,310.9 751.8,310.6 753.6,310.6 755.4,310.6 757.1,310.6 758.9,310.6 760.7,310.6 762.5,310.6 764.3,310.6 766.0,310.6 767.8,310.6 769.6,310.6 771.4,310.6 773.2,310.6 774.9,310.6 776.7,310.6 778.5,310.6 780.3,310.6 782.1,310.6 783.8,310.6 785.6,310.6 787.4,310.6 789.2,310.6 791.0,310.6 792.7,310.6 794.5,310.6 796.3,310.6 798.1,310.6 799.9,310.6 801.6,310.6 803.4,310.6 805.2,310.6 807.0,310.6 808.8,310.6 810.5,310.6 812.3,310.6 814.1,310.6 815.9,310.6 817.7,310.6 819.4,310.6 821.2,310.6 823.0,310.6 824.8,310.6 826.5,310.6 828.3,310.6 830.1,310.6 831.9,310.6 833.7,310.6 835.4,310.6 837.2,310.6 839.0,310.6 840.8,310.6 842.6,310.6 844.3,310.6 846.1,310.6 847.9,310.6 849.7,310.6 851.5,310.6 853.2,310.6 855.0,310.6 856.8,310.6 858.6,310.6 860.4,310.6 862.1,310.6 863.9,310.6 865.7,310.6 867.5,310.6 869.3,310.6 871.0,310.6 872.8,310.6 874.6,310.6 876.4,310.6 878.2,310.6 879.9,310.6 881.7,310.6 883.5,310.6 885.3,310.6 887.1,310.6 888.8,310.6 890.6,310.6 892.4,310.6 894.2,310.6 896.0,310.6 897.7,310.6 899.5,310.6 901.3,310.6 903.1,310.6 904.8,310.6 906.6,310.6 908.4,310.6 910.2,310.6 912.0,310.6 913.7,310.6 915.5,310.6 917.3,310.6 919.1,310.6 920.9,310.6 922.6,310.6 924.4,310.6 926.2,310.6 928.0,310.6 929.8,310.6 931.5,310.6 933.3,310.6 935.1,310.6 936.9,310.6 938.7,310.6 940.4,310.6 942.2,310.6 944.0,310.6"/>
  <circle cx="540.0" cy="32" r="3" fill="#ef4444"/>
  <circle cx="541.8" cy="32" r="3" fill="#ef4444"/>
  <circle cx="575.6" cy="32" r="3" fill="#ef4444"/>
  <circle cx="637.9" cy="32" r="3" fill="#ef4444"/>
  <circle cx="639.7" cy="32" r="3" fill="#ef4444"/>
  <circle cx="641.5" cy="32" r="3" fill="#ef4444"/>
  <circle cx="643.3" cy="32" r="3" fill="#ef4444"/>
  <circle cx="645.0" cy="32" r="3" fill="#ef4444"/>
  <rect x="710" y="28" width="220" height="62" rx="6" fill="#111827" stroke="#334155"/>
  <line x1="724" y1="48" x2="764" y2="48" stroke="#38bdf8" stroke-width="3"/><text x="772" y="52" fill="#cbd5e1" font-family="sans-serif" font-size="12">totalPromptChars</text>
  <line x1="724" y1="68" x2="764" y2="68" stroke="#22c55e" stroke-width="3"/><text x="772" y="72" fill="#cbd5e1" font-family="sans-serif" font-size="12">stablePrefixChars</text>
</svg>
