<?xml version="1.0" encoding="UTF-8"?>
<svg xmlns="http://www.w3.org/2000/svg" width="960" height="360" viewBox="0 0 960 360">
  <rect width="100%" height="100%" fill="#0f172a"/>
  <text x="56" y="18" fill="#e5e7eb" font-family="sans-serif" font-size="14">cache-friendly-prompt 推移（最新 500 件）</text>
  <line x1="56" y1="318" x2="944" y2="318" stroke="#475569"/>
  <line x1="56" y1="24" x2="56" y2="318" stroke="#475569"/>
  <text x="8" y="34" fill="#94a3b8" font-family="sans-serif" font-size="11">387808</text>
  <text x="20" y="318" fill="#94a3b8" font-family="sans-serif" font-size="11">0</text>
  <line x1="57.8" y1="24" x2="57.8" y2="318" stroke="#f59e0b" stroke-opacity="0.28"/>
  <line x1="130.7" y1="24" x2="130.7" y2="318" stroke="#f59e0b" stroke-opacity="0.28"/>
  <line x1="319.4" y1="24" x2="319.4" y2="318" stroke="#f59e0b" stroke-opacity="0.28"/>
  <line x1="342.5" y1="24" x2="342.5" y2="318" stroke="#f59e0b" stroke-opacity="0.28"/>
  <line x1="346.1" y1="24" x2="346.1" y2="318" stroke="#f59e0b" stroke-opacity="0.28"/>
  <line x1="372.8" y1="24" x2="372.8" y2="318" stroke="#f59e0b" stroke-opacity="0.28"/>
  <line x1="378.1" y1="24" x2="378.1" y2="318" stroke="#f59e0b" stroke-opacity="0.28"/>
  <line x1="379.9" y1="24" x2="379.9" y2="318" stroke="#f59e0b" stroke-opacity="0.28"/>
  <line x1="433.3" y1="24" x2="433.3" y2="318" stroke="#f59e0b" stroke-opacity="0.28"/>
  <line x1="440.4" y1="24" x2="440.4" y2="318" stroke="#f59e0b" stroke-opacity="0.28"/>
  <line x1="449.3" y1="24" x2="449.3" y2="318" stroke="#f59e0b" stroke-opacity="0.28"/>
  <line x1="554.3" y1="24" x2="554.3" y2="318" stroke="#f59e0b" stroke-opacity="0.28"/>
  <line x1="748.2" y1="24" x2="748.2" y2="318" stroke="#f59e0b" stroke-opacity="0.28"/>
  <line x1="764.3" y1="24" x2="764.3" y2="318" stroke="#f59e0b" stroke-opacity="0.28"/>
  <line x1="887.1" y1="24" x2="887.1" y2="318" stroke="#f59e0b" stroke-opacity="0.28"/>
  <line x1="890.6" y1="24" x2="890.6" y2="318" stroke="#f59e0b" stroke-opacity="0.28"/>
  <line x1="933.3" y1="24" x2="933.3" y2="318" stroke="#f59e0b" stroke-opacity="0.28"/>
  <line x1="938.7" y1="24" x2="938.7" y2="318" stroke="#f59e0b" stroke-opacity="0.28"/>
  <line x1="940.4" y1="24" x2="940.4" y2="318" stroke="#f59e0b" stroke-opacity="0.28"/>
  <polyline fill="none" stroke="#38bdf8" stroke-width="2" points="56.0,312.6 57.8,278.1 59.6,278.1 61.3,278.1 63.1,278.1 64.9,278.1 66.7,278.1 68.5,276.5 70.2,276.1 72.0,276.1 73.8,275.8 75.6,275.8 77.4,275.8 79.1,275.8 80.9,275.3 82.7,275.3 84.5,275.3 86.3,275.3 88.0,275.3 89.8,275.3 91.6,275.0 93.4,275.0 95.2,275.0 96.9,275.0 98.7,274.7 100.5,274.7 102.3,274.3 104.0,274.3 105.8,273.9 107.6,273.9 109.4,273.5 111.2,273.2 112.9,273.2 114.7,273.2 116.5,273.2 118.3,273.2 120.1,273.2 121.8,273.2 123.6,273.2 125.4,273.2 127.2,273.2 129.0,272.9 130.7,309.6 132.5,309.3 134.3,308.8 136.1,308.8 137.9,308.4 139.6,308.1 141.4,308.1 143.2,308.1 145.0,308.1 146.8,308.1 148.5,308.1 150.3,308.1 152.1,308.1 153.9,307.7 155.7,307.7 157.4,307.7 159.2,307.7 161.0,307.7 162.8,307.7 164.6,307.7 166.3,307.7 168.1,307.4 169.9,307.1 171.7,307.1 173.5,306.8 175.2,306.8 177.0,306.8 178.8,306.8 180.6,306.0 182.3,306.0 184.1,305.7 185.9,305.7 187.7,305.7 189.5,304.8 191.2,303.9 193.0,303.7 194.8,301.9 196.6,301.1 198.4,301.1 200.1,301.1 201.9,301.1 203.7,301.1 205.5,301.1 207.3,301.1 209.0,301.1 210.8,301.1 212.6,301.1 214.4,301.1 216.2,300.8 217.9,300.0 219.7,299.3 221.5,298.2 223.3,297.9 225.1,297.9 226.8,297.9 228.6,297.9 230.4,297.6 232.2,297.6 234.0,297.6 235.7,297.2 237.5,296.8 239.3,296.8 241.1,296.8 242.9,296.5 244.6,296.2 246.4,295.9 248.2,295.2 250.0,293.0 251.8,292.7 253.5,292.7 255.3,292.7 257.1,292.7 258.9,292.7 260.6,292.7 262.4,292.2 264.2,292.2 266.0,292.2 267.8,292.2 269.5,292.2 271.3,291.7 273.1,291.3 274.9,291.3 276.7,291.3 278.4,291.3 280.2,291.3 282.0,290.8 283.8,289.7 285.6,289.7 287.3,289.7 289.1,289.7 290.9,289.7 292.7,289.7 294.5,289.7 296.2,289.3 298.0,287.0 299.8,286.7 301.6,286.7 303.4,286.7 305.1,286.7 306.9,286.7 308.7,286.7 310.5,286.7 312.3,286.7 314.0,286.7 315.8,286.7 317.6,286.7 319.4,313.9 321.2,313.9 322.9,313.9 324.7,313.6 326.5,313.2 328.3,312.9 330.1,314.0 331.8,313.7 333.6,313.4 335.4,313.1 337.2,312.7 338.9,312.7 340.7,312.4 342.5,311.1 344.3,311.3 346.1,258.3 347.8,253.1 349.6,252.8 351.4,246.7 353.2,241.1 355.0,240.9 356.7,240.9 358.5,239.7 360.3,239.6 362.1,239.5 363.9,238.2 365.6,237.1 367.4,237.1 369.2,234.6 371.0,234.0 372.8,307.1 374.5,306.8 376.3,306.5 378.1,305.5 379.9,189.2 381.7,188.1 383.4,187.3 385.2,187.2 387.0,187.1 388.8,186.9 390.6,186.0 392.3,185.9 394.1,185.8 395.9,184.9 397.7,184.7 399.5,184.3 401.2,184.2 403.0,183.9 404.8,183.8 406.6,183.6 408.4,183.4 410.1,183.2 411.9,183.1 413.7,180.7 415.5,180.6 417.3,176.9 419.0,176.7 420.8,175.5 422.6,175.3 424.4,175.0 426.1,174.9 427.9,174.7 429.7,172.3 431.5,172.1 433.3,302.2 435.0,301.9 436.8,301.9 438.6,301.5 440.4,301.9 442.2,301.6 443.9,301.6 445.7,301.0 447.5,276.8 449.3,74.8 451.1,74.7 452.8,74.6 454.6,73.7 456.4,73.3 458.2,73.1 460.0,72.4 461.7,72.3 463.5,72.2 465.3,72.2 467.1,71.6 468.9,70.0 470.6,69.8 472.4,69.7 474.2,69.6 476.0,69.4 477.8,69.4 479.5,68.7 481.3,67.3 483.1,67.1 484.9,67.0 486.7,65.9 488.4,65.8 490.2,65.8 492.0,65.4 493.8,65.0 495.6,64.9 497.3,64.6 499.1,64.3 500.9,63.8 502.7,63.4 504.4,63.1 506.2,63.0 508.0,63.0 509.8,62.7 511.6,62.2 513.3,61.1 515.1,60.9 516.9,60.8 518.7,59.8 520.5,59.3 522.2,59.2 524.0,59.0 525.8,58.9 527.6,58.7 529.4,58.6 531.1,58.5 532.9,57.4 534.7,56.5 536.5,55.8 538.3,55.7 540.0,55.6 541.8,55.5 543.6,55.5 545.4,55.4 547.2,55.4 548.9,55.0 550.7,53.1 552.5,52.8 554.3,309.3 556.1,308.7 557.8,307.5 559.6,306.1 561.4,305.2 563.2,305.2 565.0,305.0 566.7,304.7 568.5,303.5 570.3,302.5 572.1,302.5 573.9,301.8 575.6,300.7 577.4,300.5 579.2,300.3 581.0,300.1 582.7,300.0 584.5,299.9 586.3,308.2 588.1,307.9 589.9,307.9 591.6,307.6 593.4,307.2 595.2,306.9 597.0,306.6 598.8,306.6 600.5,306.6 602.3,306.3 604.1,305.9 605.9,305.9 607.7,305.9 609.4,305.6 611.2,305.6 613.0,304.8 614.8,304.5 616.6,304.1 618.3,303.6 620.1,302.9 621.9,302.5 623.7,298.9 625.5,298.6 627.2,298.2 629.0,298.2 630.8,297.8 632.6,297.8 634.4,297.8 636.1,297.8 637.9,297.5 639.7,297.5 641.5,297.5 643.3,297.5 645.0,297.2 646.8,297.2 648.6,296.8 650.4,294.1 652.2,293.7 653.9,293.7 655.7,293.4 657.5,293.0 659.3,292.6 661.1,292.6 662.8,292.2 664.6,291.9 666.4,291.5 668.2,291.2 669.9,290.8 671.7,289.9 673.5,289.9 675.3,289.9 677.1,289.9 678.8,289.9 680.6,289.9 682.4,289.9 684.2,289.6 686.0,289.3 687.7,289.3 689.5,288.5 691.3,288.2 693.1,287.9 694.9,287.9 696.6,287.9 698.4,287.6 700.2,287.6 702.0,287.6 703.8,287.6 705.5,287.6 707.3,287.6 709.1,287.6 710.9,287.6 712.7,287.6 714.4,287.6 716.2,287.6 718.0,287.6 719.8,286.6 721.6,286.6 723.3,286.3 725.1,286.3 726.9,286.3 728.7,286.3 730.5,286.3 732.2,285.2 734.0,285.2 735.8,285.2 737.6,285.2 739.4,285.2 741.1,285.2 742.9,285.2 744.7,285.2 746.5,285.2 748.2,313.5 750.0,313.1 751.8,312.8 753.6,312.5 755.4,312.5 757.1,312.2 758.9,311.8 760.7,311.8 762.5,311.5 764.3,164.9 766.0,152.1 767.8,152.0 769.6,149.2 771.4,149.1 773.2,149.0 774.9,148.8 776.7,148.0 778.5,148.0 780.3,137.2 782.1,137.1 783.8,130.6 785.6,130.5 787.4,130.3 789.2,130.2 791.0,130.1 792.7,128.7 794.5,128.3 796.3,127.1 798.1,126.9 799.9,126.8 801.6,126.2 803.4,126.0 805.2,125.5 807.0,125.2 808.8,125.1 810.5,125.0 812.3,124.4 814.1,123.7 815.9,123.0 817.7,120.3 819.4,118.5 821.2,117.6 823.0,117.5 824.8,116.6 826.5,115.9 828.3,114.7 830.1,114.7 831.9,114.6 833.7,114.3 835.4,114.1 837.2,113.1 839.0,113.1 840.8,113.0 842.6,112.6 844.3,111.8 846.1,111.6 847.9,111.3 849.7,110.7 851.5,110.6 853.2,110.5 855.0,108.4 856.8,105.7 858.6,104.3 860.4,103.8 862.1,102.9 863.9,102.0 865.7,99.2 867.5,98.6 869.3,98.4 871.0,97.0 872.8,95.3 874.6,93.4 876.4,92.2 878.2,92.0 879.9,91.7 881.7,90.8 883.5,89.6 885.3,88.1 887.1,299.0 888.8,298.6 890.6,46.3 892.4,45.7 894.2,45.3 896.0,45.1 897.7,45.0 899.5,44.9 901.3,44.8 903.1,44.7 904.8,44.6 906.6,44.5 908.4,44.5 910.2,27.6 912.0,26.6 913.7,25.8 915.5,25.5 917.3,25.4 919.1,25.1 920.9,25.1 922.6,25.0 924.4,25.0 926.2,24.9 928.0,24.5 929.8,24.2 931.5,24.0 933.3,302.3 935.1,302.0 936.9,301.7 938.7,301.6 940.4,291.6 942.2,283.2 944.0,279.3"/>
  <polyline fill="none" stroke="#22c55e" stroke-width="2" points="56.0,313.2 57.8,309.3 59.6,309.3 61.3,309.3 63.1,309.3 64.9,309.3 66.7,309.3 68.5,309.3 70.2,309.3 72.0,309.3 73.8,309.3 75.6,309.3 77.4,309.3 79.1,309.3 80.9,309.3 82.7,309.3 84.5,309.3 86.3,309.3 88.0,309.3 89.8,309.3 91.6,309.3 93.4,309.3 95.2,309.3 96.9,309.3 98.7,309.3 100.5,309.3 102.3,309.3 104.0,309.3 105.8,309.3 107.6,309.3 109.4,309.3 111.2,309.3 112.9,309.3 114.7,309.3 116.5,309.3 118.3,309.3 120.1,309.3 121.8,309.3 123.6,309.3 125.4,309.3 127.2,309.3 129.0,309.3 130.7,309.6 132.5,309.6 134.3,309.6 136.1,309.6 137.9,309.6 139.6,309.6 141.4,309.6 143.2,309.6 145.0,309.6 146.8,309.6 148.5,309.6 150.3,309.6 152.1,309.6 153.9,309.6 155.7,309.6 157.4,309.6 159.2,309.6 161.0,309.6 162.8,309.6 164.6,309.6 166.3,309.6 168.1,309.6 169.9,309.6 171.7,309.6 173.5,309.6 175.2,309.6 177.0,309.6 178.8,309.6 180.6,309.6 182.3,309.6 184.1,309.6 185.9,309.6 187.7,309.6 189.5,309.6 191.2,309.6 193.0,309.6 194.8,309.6 196.6,309.6 198.4,309.6 200.1,309.6 201.9,309.6 203.7,309.6 205.5,309.6 207.3,309.6 209.0,309.6 210.8,309.6 212.6,309.6 214.4,309.6 216.2,309.6 217.9,309.6 219.7,309.6 221.5,309.6 223.3,309.6 225.1,309.6 226.8,309.6 228.6,309.6 230.4,309.6 232.2,309.6 234.0,309.6 235.7,309.6 237.5,309.6 239.3,309.6 241.1,309.6 242.9,309.6 244.6,309.6 246.4,309.6 248.2,309.6 250.0,309.6 251.8,309.6 253.5,309.6 255.3,309.6 257.1,309.6 258.9,309.6 260.6,309.6 262.4,309.6 264.2,309.6 266.0,309.6 267.8,309.6 269.5,309.6 271.3,309.6 273.1,309.6 274.9,309.6 276.7,309.6 278.4,309.6 280.2,309.6 282.0,309.6 283.8,309.6 285.6,309.6 287.3,309.6 289.1,309.6 290.9,309.6 292.7,309.6 294.5,309.6 296.2,309.6 298.0,309.6 299.8,309.6 301.6,309.6 303.4,309.6 305.1,309.6 306.9,309.6 308.7,309.6 310.5,309.6 312.3,309.6 314.0,309.6 315.8,309.6 317.6,309.6 319.4,314.2 321.2,314.2 322.9,314.2 324.7,314.2 326.5,314.2 328.3,314.2 330.1,314.2 331.8,314.2 333.6,314.2 335.4,314.2 337.2,314.2 338.9,314.2 340.7,314.2 342.5,315.0 344.3,315.0 346.1,309.6 347.8,309.6 349.6,309.6 351.4,309.6 353.2,309.6 355.0,309.6 356.7,309.6 358.5,309.6 360.3,309.6 362.1,309.6 363.9,309.6 365.6,309.6 367.4,309.6 369.2,309.6 371.0,309.6 372.8,314.2 374.5,314.2 376.3,314.2 378.1,315.0 379.9,309.6 381.7,309.6 383.4,309.6 385.2,309.6 387.0,309.6 388.8,309.6 390.6,309.6 392.3,309.6 394.1,309.6 395.9,309.6 397.7,309.6 399.5,309.6 401.2,309.6 403.0,309.6 404.8,309.6 406.6,309.6 408.4,309.6 410.1,309.6 411.9,309.6 413.7,309.6 415.5,309.6 417.3,309.6 419.0,309.6 420.8,309.6 422.6,309.6 424.4,309.6 426.1,309.6 427.9,309.6 429.7,309.6 431.5,309.6 433.3,314.2 435.0,314.2 436.8,314.2 438.6,314.2 440.4,315.0 442.2,315.0 443.9,315.0 445.7,315.0 447.5,315.0 449.3,309.6 451.1,309.6 452.8,309.6 454.6,309.6 456.4,309.6 458.2,309.6 460.0,309.6 461.7,309.6 463.5,309.6 465.3,309.6 467.1,309.6 468.9,309.6 470.6,309.6 472.4,309.6 474.2,309.6 476.0,309.6 477.8,309.6 479.5,309.6 481.3,309.6 483.1,309.6 484.9,309.6 486.7,309.6 488.4,309.6 490.2,309.6 492.0,309.6 493.8,309.6 495.6,309.6 497.3,309.6 499.1,309.6 500.9,309.6 502.7,309.6 504.4,309.6 506.2,309.6 508.0,309.6 509.8,309.6 511.6,309.6 513.3,309.6 515.1,309.6 516.9,309.6 518.7,309.6 520.5,309.6 522.2,309.6 524.0,309.6 525.8,309.6 527.6,309.6 529.4,309.6 531.1,309.6 532.9,309.6 534.7,309.6 536.5,309.6 538.3,309.6 540.0,309.6 541.8,309.6 543.6,309.6 545.4,309.6 547.2,309.6 548.9,309.6 550.7,309.6 552.5,309.6 554.3,309.3 556.1,309.3 557.8,309.3 559.6,309.3 561.4,309.3 563.2,309.3 565.0,309.3 566.7,309.3 568.5,309.3 570.3,309.3 572.1,309.3 573.9,309.3 575.6,309.3 577.4,309.3 579.2,309.3 581.0,309.3 582.7,309.3 584.5,309.3 586.3,309.3 588.1,309.3 589.9,309.3 591.6,309.3 593.4,309.3 595.2,309.3 597.0,309.3 598.8,309.3 600.5,309.3 602.3,309.3 604.1,309.3 605.9,309.3 607.7,309.3 609.4,309.3 611.2,309.3 613.0,309.3 614.8,309.3 616.6,309.3 618.3,309.3 620.1,309.3 621.9,309.3 623.7,309.3 625.5,309.3 627.2,309.3 629.0,309.3 630.8,309.3 632.6,309.3 634.4,309.3 636.1,309.3 637.9,309.3 639.7,309.3 641.5,309.3 643.3,309.3 645.0,309.3 646.8,309.3 648.6,309.3 650.4,309.3 652.2,309.3 653.9,309.3 655.7,309.3 657.5,309.3 659.3,309.3 661.1,309.3 662.8,309.3 664.6,309.3 666.4,309.3 668.2,309.3 669.9,309.3 671.7,309.3 673.5,309.3 675.3,309.3 677.1,309.3 678.8,309.3 680.6,309.3 682.4,309.3 684.2,309.3 686.0,309.3 687.7,309.3 689.5,309.3 691.3,309.3 693.1,309.3 694.9,309.3 696.6,309.3 698.4,309.3 700.2,309.3 702.0,309.3 703.8,309.3 705.5,309.3 707.3,309.3 709.1,309.3 710.9,309.3 712.7,309.3 714.4,309.3 716.2,309.3 718.0,309.3 719.8,309.3 721.6,309.3 723.3,309.3 725.1,309.3 726.9,309.3 728.7,309.3 730.5,309.3 732.2,309.3 734.0,309.3 735.8,309.3 737.6,309.3 739.4,309.3 741.1,309.3 742.9,309.3 744.7,309.3 746.5,309.3 748.2,313.9 750.0,313.9 751.8,313.9 753.6,313.9 755.4,313.9 757.1,313.9 758.9,313.9 760.7,313.9 762.5,313.9 764.3,309.3 766.0,309.3 767.8,309.3 769.6,309.3 771.4,309.3 773.2,309.3 774.9,309.3 776.7,309.3 778.5,309.3 780.3,309.3 782.1,309.3 783.8,309.3 785.6,309.3 787.4,309.3 789.2,309.3 791.0,309.3 792.7,309.3 794.5,309.3 796.3,309.3 798.1,309.3 799.9,309.3 801.6,309.3 803.4,309.3 805.2,309.3 807.0,309.3 808.8,309.3 810.5,309.3 812.3,309.3 814.1,309.3 815.9,309.3 817.7,309.3 819.4,309.3 821.2,309.3 823.0,309.3 824.8,309.3 826.5,309.3 828.3,309.3 830.1,309.3 831.9,309.3 833.7,309.3 835.4,309.3 837.2,309.3 839.0,309.3 840.8,309.3 842.6,309.3 844.3,309.3 846.1,309.3 847.9,309.3 849.7,309.3 851.5,309.3 853.2,309.3 855.0,309.3 856.8,309.3 858.6,309.3 860.4,309.3 862.1,309.3 863.9,309.3 865.7,309.3 867.5,309.3 869.3,309.3 871.0,309.3 872.8,309.3 874.6,309.3 876.4,309.3 878.2,309.3 879.9,309.3 881.7,309.3 883.5,309.3 885.3,309.3 887.1,313.9 888.8,313.9 890.6,309.3 892.4,309.3 894.2,309.3 896.0,309.3 897.7,309.3 899.5,309.3 901.3,309.3 903.1,309.3 904.8,309.3 906.6,309.3 908.4,309.3 910.2,309.3 912.0,309.3 913.7,309.3 915.5,309.3 917.3,309.3 919.1,309.3 920.9,309.3 922.6,309.3 924.4,309.3 926.2,309.3 928.0,309.3 929.8,309.3 931.5,309.3 933.3,313.9 935.1,313.9 936.9,313.9 938.7,314.6 940.4,309.3 942.2,309.3 944.0,309.3"/>
  <circle cx="342.5" cy="32" r="3" fill="#ef4444"/>
  <circle cx="344.3" cy="32" r="3" fill="#ef4444"/>
  <circle cx="378.1" cy="32" r="3" fill="#ef4444"/>
  <circle cx="440.4" cy="32" r="3" fill="#ef4444"/>
  <circle cx="442.2" cy="32" r="3" fill="#ef4444"/>
  <circle cx="443.9" cy="32" r="3" fill="#ef4444"/>
  <circle cx="445.7" cy="32" r="3" fill="#ef4444"/>
  <circle cx="447.5" cy="32" r="3" fill="#ef4444"/>
  <rect x="710" y="28" width="220" height="62" rx="6" fill="#111827" stroke="#334155"/>
  <line x1="724" y1="48" x2="764" y2="48" stroke="#38bdf8" stroke-width="3"/><text x="772" y="52" fill="#cbd5e1" font-family="sans-serif" font-size="12">totalPromptChars</text>
  <line x1="724" y1="68" x2="764" y2="68" stroke="#22c55e" stroke-width="3"/><text x="772" y="72" fill="#cbd5e1" font-family="sans-serif" font-size="12">stablePrefixChars</text>
</svg>
