<?xml version="1.0" encoding="UTF-8"?>
<svg xmlns="http://www.w3.org/2000/svg" width="960" height="360" viewBox="0 0 960 360">
  <rect width="100%" height="100%" fill="#0f172a"/>
  <text x="56" y="18" fill="#e5e7eb" font-family="sans-serif" font-size="14">cache-friendly-prompt 推移（最新 500 件）</text>
  <line x1="56" y1="318" x2="944" y2="318" stroke="#475569"/>
  <line x1="56" y1="24" x2="56" y2="318" stroke="#475569"/>
  <text x="8" y="34" fill="#94a3b8" font-family="sans-serif" font-size="11">387808</text>
  <text x="20" y="318" fill="#94a3b8" font-family="sans-serif" font-size="11">0</text>
  <line x1="127.2" y1="24" x2="127.2" y2="318" stroke="#f59e0b" stroke-opacity="0.28"/>
  <line x1="315.8" y1="24" x2="315.8" y2="318" stroke="#f59e0b" stroke-opacity="0.28"/>
  <line x1="338.9" y1="24" x2="338.9" y2="318" stroke="#f59e0b" stroke-opacity="0.28"/>
  <line x1="342.5" y1="24" x2="342.5" y2="318" stroke="#f59e0b" stroke-opacity="0.28"/>
  <line x1="369.2" y1="24" x2="369.2" y2="318" stroke="#f59e0b" stroke-opacity="0.28"/>
  <line x1="374.5" y1="24" x2="374.5" y2="318" stroke="#f59e0b" stroke-opacity="0.28"/>
  <line x1="376.3" y1="24" x2="376.3" y2="318" stroke="#f59e0b" stroke-opacity="0.28"/>
  <line x1="429.7" y1="24" x2="429.7" y2="318" stroke="#f59e0b" stroke-opacity="0.28"/>
  <line x1="436.8" y1="24" x2="436.8" y2="318" stroke="#f59e0b" stroke-opacity="0.28"/>
  <line x1="445.7" y1="24" x2="445.7" y2="318" stroke="#f59e0b" stroke-opacity="0.28"/>
  <line x1="550.7" y1="24" x2="550.7" y2="318" stroke="#f59e0b" stroke-opacity="0.28"/>
  <line x1="744.7" y1="24" x2="744.7" y2="318" stroke="#f59e0b" stroke-opacity="0.28"/>
  <line x1="760.7" y1="24" x2="760.7" y2="318" stroke="#f59e0b" stroke-opacity="0.28"/>
  <line x1="883.5" y1="24" x2="883.5" y2="318" stroke="#f59e0b" stroke-opacity="0.28"/>
  <line x1="887.1" y1="24" x2="887.1" y2="318" stroke="#f59e0b" stroke-opacity="0.28"/>
  <line x1="929.8" y1="24" x2="929.8" y2="318" stroke="#f59e0b" stroke-opacity="0.28"/>
  <line x1="935.1" y1="24" x2="935.1" y2="318" stroke="#f59e0b" stroke-opacity="0.28"/>
  <line x1="936.9" y1="24" x2="936.9" y2="318" stroke="#f59e0b" stroke-opacity="0.28"/>
  <polyline fill="none" stroke="#38bdf8" stroke-width="2" points="56.0,278.1 57.8,278.1 59.6,278.1 61.3,278.1 63.1,278.1 64.9,276.5 66.7,276.1 68.5,276.1 70.2,275.8 72.0,275.8 73.8,275.8 75.6,275.8 77.4,275.3 79.1,275.3 80.9,275.3 82.7,275.3 84.5,275.3 86.3,275.3 88.0,275.0 89.8,275.0 91.6,275.0 93.4,275.0 95.2,274.7 96.9,274.7 98.7,274.3 100.5,274.3 102.3,273.9 104.0,273.9 105.8,273.5 107.6,273.2 109.4,273.2 111.2,273.2 112.9,273.2 114.7,273.2 116.5,273.2 118.3,273.2 120.1,273.2 121.8,273.2 123.6,273.2 125.4,272.9 127.2,309.6 129.0,309.3 130.7,308.8 132.5,308.8 134.3,308.4 136.1,308.1 137.9,308.1 139.6,308.1 141.4,308.1 143.2,308.1 145.0,308.1 146.8,308.1 148.5,308.1 150.3,307.7 152.1,307.7 153.9,307.7 155.7,307.7 157.4,307.7 159.2,307.7 161.0,307.7 162.8,307.7 164.6,307.4 166.3,307.1 168.1,307.1 169.9,306.8 171.7,306.8 173.5,306.8 175.2,306.8 177.0,306.0 178.8,306.0 180.6,305.7 182.3,305.7 184.1,305.7 185.9,304.8 187.7,303.9 189.5,303.7 191.2,301.9 193.0,301.1 194.8,301.1 196.6,301.1 198.4,301.1 200.1,301.1 201.9,301.1 203.7,301.1 205.5,301.1 207.3,301.1 209.0,301.1 210.8,301.1 212.6,300.8 214.4,300.0 216.2,299.3 217.9,298.2 219.7,297.9 221.5,297.9 223.3,297.9 225.1,297.9 226.8,297.6 228.6,297.6 230.4,297.6 232.2,297.2 234.0,296.8 235.7,296.8 237.5,296.8 239.3,296.5 241.1,296.2 242.9,295.9 244.6,295.2 246.4,293.0 248.2,292.7 250.0,292.7 251.8,292.7 253.5,292.7 255.3,292.7 257.1,292.7 258.9,292.2 260.6,292.2 262.4,292.2 264.2,292.2 266.0,292.2 267.8,291.7 269.5,291.3 271.3,291.3 273.1,291.3 274.9,291.3 276.7,291.3 278.4,290.8 280.2,289.7 282.0,289.7 283.8,289.7 285.6,289.7 287.3,289.7 289.1,289.7 290.9,289.7 292.7,289.3 294.5,287.0 296.2,286.7 298.0,286.7 299.8,286.7 301.6,286.7 303.4,286.7 305.1,286.7 306.9,286.7 308.7,286.7 310.5,286.7 312.3,286.7 314.0,286.7 315.8,313.9 317.6,313.9 319.4,313.9 321.2,313.6 322.9,313.2 324.7,312.9 326.5,314.0 328.3,313.7 330.1,313.4 331.8,313.1 333.6,312.7 335.4,312.7 337.2,312.4 338.9,311.1 340.7,311.3 342.5,258.3 344.3,253.1 346.1,252.8 347.8,246.7 349.6,241.1 351.4,240.9 353.2,240.9 355.0,239.7 356.7,239.6 358.5,239.5 360.3,238.2 362.1,237.1 363.9,237.1 365.6,234.6 367.4,234.0 369.2,307.1 371.0,306.8 372.8,306.5 374.5,305.5 376.3,189.2 378.1,188.1 379.9,187.3 381.7,187.2 383.4,187.1 385.2,186.9 387.0,186.0 388.8,185.9 390.6,185.8 392.3,184.9 394.1,184.7 395.9,184.3 397.7,184.2 399.5,183.9 401.2,183.8 403.0,183.6 404.8,183.4 406.6,183.2 408.4,183.1 410.1,180.7 411.9,180.6 413.7,176.9 415.5,176.7 417.3,175.5 419.0,175.3 420.8,175.0 422.6,174.9 424.4,174.7 426.1,172.3 427.9,172.1 429.7,302.2 431.5,301.9 433.3,301.9 435.0,301.5 436.8,301.9 438.6,301.6 440.4,301.6 442.2,301.0 443.9,276.8 445.7,74.8 447.5,74.7 449.3,74.6 451.1,73.7 452.8,73.3 454.6,73.1 456.4,72.4 458.2,72.3 460.0,72.2 461.7,72.2 463.5,71.6 465.3,70.0 467.1,69.8 468.9,69.7 470.6,69.6 472.4,69.4 474.2,69.4 476.0,68.7 477.8,67.3 479.5,67.1 481.3,67.0 483.1,65.9 484.9,65.8 486.7,65.8 488.4,65.4 490.2,65.0 492.0,64.9 493.8,64.6 495.6,64.3 497.3,63.8 499.1,63.4 500.9,63.1 502.7,63.0 504.4,63.0 506.2,62.7 508.0,62.2 509.8,61.1 511.6,60.9 513.3,60.8 515.1,59.8 516.9,59.3 518.7,59.2 520.5,59.0 522.2,58.9 524.0,58.7 525.8,58.6 527.6,58.5 529.4,57.4 531.1,56.5 532.9,55.8 534.7,55.7 536.5,55.6 538.3,55.5 540.0,55.5 541.8,55.4 543.6,55.4 545.4,55.0 547.2,53.1 548.9,52.8 550.7,309.3 552.5,308.7 554.3,307.5 556.1,306.1 557.8,305.2 559.6,305.2 561.4,305.0 563.2,304.7 565.0,303.5 566.7,302.5 568.5,302.5 570.3,301.8 572.1,300.7 573.9,300.5 575.6,300.3 577.4,300.1 579.2,300.0 581.0,299.9 582.7,308.2 584.5,307.9 586.3,307.9 588.1,307.6 589.9,307.2 591.6,306.9 593.4,306.6 595.2,306.6 597.0,306.6 598.8,306.3 600.5,305.9 602.3,305.9 604.1,305.9 605.9,305.6 607.7,305.6 609.4,304.8 611.2,304.5 613.0,304.1 614.8,303.6 616.6,302.9 618.3,302.5 620.1,298.9 621.9,298.6 623.7,298.2 625.5,298.2 627.2,297.8 629.0,297.8 630.8,297.8 632.6,297.8 634.4,297.5 636.1,297.5 637.9,297.5 639.7,297.5 641.5,297.2 643.3,297.2 645.0,296.8 646.8,294.1 648.6,293.7 650.4,293.7 652.2,293.4 653.9,293.0 655.7,292.6 657.5,292.6 659.3,292.2 661.1,291.9 662.8,291.5 664.6,291.2 666.4,290.8 668.2,289.9 669.9,289.9 671.7,289.9 673.5,289.9 675.3,289.9 677.1,289.9 678.8,289.9 680.6,289.6 682.4,289.3 684.2,289.3 686.0,288.5 687.7,288.2 689.5,287.9 691.3,287.9 693.1,287.9 694.9,287.6 696.6,287.6 698.4,287.6 700.2,287.6 702.0,287.6 703.8,287.6 705.5,287.6 707.3,287.6 709.1,287.6 710.9,287.6 712.7,287.6 714.4,287.6 716.2,286.6 718.0,286.6 719.8,286.3 721.6,286.3 723.3,286.3 725.1,286.3 726.9,286.3 728.7,285.2 730.5,285.2 732.2,285.2 734.0,285.2 735.8,285.2 737.6,285.2 739.4,285.2 741.1,285.2 742.9,285.2 744.7,313.5 746.5,313.1 748.2,312.8 750.0,312.5 751.8,312.5 753.6,312.2 755.4,311.8 757.1,311.8 758.9,311.5 760.7,164.9 762.5,152.1 764.3,152.0 766.0,149.2 767.8,149.1 769.6,149.0 771.4,148.8 773.2,148.0 774.9,148.0 776.7,137.2 778.5,137.1 780.3,130.6 782.1,130.5 783.8,130.3 785.6,130.2 787.4,130.1 789.2,128.7 791.0,128.3 792.7,127.1 794.5,126.9 796.3,126.8 798.1,126.2 799.9,126.0 801.6,125.5 803.4,125.2 805.2,125.1 807.0,125.0 808.8,124.4 810.5,123.7 812.3,123.0 814.1,120.3 815.9,118.5 817.7,117.6 819.4,117.5 821.2,116.6 823.0,115.9 824.8,114.7 826.5,114.7 828.3,114.6 830.1,114.3 831.9,114.1 833.7,113.1 835.4,113.1 837.2,113.0 839.0,112.6 840.8,111.8 842.6,111.6 844.3,111.3 846.1,110.7 847.9,110.6 849.7,110.5 851.5,108.4 853.2,105.7 855.0,104.3 856.8,103.8 858.6,102.9 860.4,102.0 862.1,99.2 863.9,98.6 865.7,98.4 867.5,97.0 869.3,95.3 871.0,93.4 872.8,92.2 874.6,92.0 876.4,91.7 878.2,90.8 879.9,89.6 881.7,88.1 883.5,299.0 885.3,298.6 887.1,46.3 888.8,45.7 890.6,45.3 892.4,45.1 894.2,45.0 896.0,44.9 897.7,44.8 899.5,44.7 901.3,44.6 903.1,44.5 904.8,44.5 906.6,27.6 908.4,26.6 910.2,25.8 912.0,25.5 913.7,25.4 915.5,25.1 917.3,25.1 919.1,25.0 920.9,25.0 922.6,24.9 924.4,24.5 926.2,24.2 928.0,24.0 929.8,302.3 931.5,302.0 933.3,301.7 935.1,301.6 936.9,291.6 938.7,283.2 940.4,279.3 942.2,278.6 944.0,273.6"/>
  <polyline fill="none" stroke="#22c55e" stroke-width="2" points="56.0,309.3 57.8,309.3 59.6,309.3 61.3,309.3 63.1,309.3 64.9,309.3 66.7,309.3 68.5,309.3 70.2,309.3 72.0,309.3 73.8,309.3 75.6,309.3 77.4,309.3 79.1,309.3 80.9,309.3 82.7,309.3 84.5,309.3 86.3,309.3 88.0,309.3 89.8,309.3 91.6,309.3 93.4,309.3 95.2,309.3 96.9,309.3 98.7,309.3 100.5,309.3 102.3,309.3 104.0,309.3 105.8,309.3 107.6,309.3 109.4,309.3 111.2,309.3 112.9,309.3 114.7,309.3 116.5,309.3 118.3,309.3 120.1,309.3 121.8,309.3 123.6,309.3 125.4,309.3 127.2,309.6 129.0,309.6 130.7,309.6 132.5,309.6 134.3,309.6 136.1,309.6 137.9,309.6 139.6,309.6 141.4,309.6 143.2,309.6 145.0,309.6 146.8,309.6 148.5,309.6 150.3,309.6 152.1,309.6 153.9,309.6 155.7,309.6 157.4,309.6 159.2,309.6 161.0,309.6 162.8,309.6 164.6,309.6 166.3,309.6 168.1,309.6 169.9,309.6 171.7,309.6 173.5,309.6 175.2,309.6 177.0,309.6 178.8,309.6 180.6,309.6 182.3,309.6 184.1,309.6 185.9,309.6 187.7,309.6 189.5,309.6 191.2,309.6 193.0,309.6 194.8,309.6 196.6,309.6 198.4,309.6 200.1,309.6 201.9,309.6 203.7,309.6 205.5,309.6 207.3,309.6 209.0,309.6 210.8,309.6 212.6,309.6 214.4,309.6 216.2,309.6 217.9,309.6 219.7,309.6 221.5,309.6 223.3,309.6 225.1,309.6 226.8,309.6 228.6,309.6 230.4,309.6 232.2,309.6 234.0,309.6 235.7,309.6 237.5,309.6 239.3,309.6 241.1,309.6 242.9,309.6 244.6,309.6 246.4,309.6 248.2,309.6 250.0,309.6 251.8,309.6 253.5,309.6 255.3,309.6 257.1,309.6 258.9,309.6 260.6,309.6 262.4,309.6 264.2,309.6 266.0,309.6 267.8,309.6 269.5,309.6 271.3,309.6 273.1,309.6 274.9,309.6 276.7,309.6 278.4,309.6 280.2,309.6 282.0,309.6 283.8,309.6 285.6,309.6 287.3,309.6 289.1,309.6 290.9,309.6 292.7,309.6 294.5,309.6 296.2,309.6 298.0,309.6 299.8,309.6 301.6,309.6 303.4,309.6 305.1,309.6 306.9,309.6 308.7,309.6 310.5,309.6 312.3,309.6 314.0,309.6 315.8,314.2 317.6,314.2 319.4,314.2 321.2,314.2 322.9,314.2 324.7,314.2 326.5,314.2 328.3,314.2 330.1,314.2 331.8,314.2 333.6,314.2 335.4,314.2 337.2,314.2 338.9,315.0 340.7,315.0 342.5,309.6 344.3,309.6 346.1,309.6 347.8,309.6 349.6,309.6 351.4,309.6 353.2,309.6 355.0,309.6 356.7,309.6 358.5,309.6 360.3,309.6 362.1,309.6 363.9,309.6 365.6,309.6 367.4,309.6 369.2,314.2 371.0,314.2 372.8,314.2 374.5,315.0 376.3,309.6 378.1,309.6 379.9,309.6 381.7,309.6 383.4,309.6 385.2,309.6 387.0,309.6 388.8,309.6 390.6,309.6 392.3,309.6 394.1,309.6 395.9,309.6 397.7,309.6 399.5,309.6 401.2,309.6 403.0,309.6 404.8,309.6 406.6,309.6 408.4,309.6 410.1,309.6 411.9,309.6 413.7,309.6 415.5,309.6 417.3,309.6 419.0,309.6 420.8,309.6 422.6,309.6 424.4,309.6 426.1,309.6 427.9,309.6 429.7,314.2 431.5,314.2 433.3,314.2 435.0,314.2 436.8,315.0 438.6,315.0 440.4,315.0 442.2,315.0 443.9,315.0 445.7,309.6 447.5,309.6 449.3,309.6 451.1,309.6 452.8,309.6 454.6,309.6 456.4,309.6 458.2,309.6 460.0,309.6 461.7,309.6 463.5,309.6 465.3,309.6 467.1,309.6 468.9,309.6 470.6,309.6 472.4,309.6 474.2,309.6 476.0,309.6 477.8,309.6 479.5,309.6 481.3,309.6 483.1,309.6 484.9,309.6 486.7,309.6 488.4,309.6 490.2,309.6 492.0,309.6 493.8,309.6 495.6,309.6 497.3,309.6 499.1,309.6 500.9,309.6 502.7,309.6 504.4,309.6 506.2,309.6 508.0,309.6 509.8,309.6 511.6,309.6 513.3,309.6 515.1,309.6 516.9,309.6 518.7,309.6 520.5,309.6 522.2,309.6 524.0,309.6 525.8,309.6 527.6,309.6 529.4,309.6 531.1,309.6 532.9,309.6 534.7,309.6 536.5,309.6 538.3,309.6 540.0,309.6 541.8,309.6 543.6,309.6 545.4,309.6 547.2,309.6 548.9,309.6 550.7,309.3 552.5,309.3 554.3,309.3 556.1,309.3 557.8,309.3 559.6,309.3 561.4,309.3 563.2,309.3 565.0,309.3 566.7,309.3 568.5,309.3 570.3,309.3 572.1,309.3 573.9,309.3 575.6,309.3 577.4,309.3 579.2,309.3 581.0,309.3 582.7,309.3 584.5,309.3 586.3,309.3 588.1,309.3 589.9,309.3 591.6,309.3 593.4,309.3 595.2,309.3 597.0,309.3 598.8,309.3 600.5,309.3 602.3,309.3 604.1,309.3 605.9,309.3 607.7,309.3 609.4,309.3 611.2,309.3 613.0,309.3 614.8,309.3 616.6,309.3 618.3,309.3 620.1,309.3 621.9,309.3 623.7,309.3 625.5,309.3 627.2,309.3 629.0,309.3 630.8,309.3 632.6,309.3 634.4,309.3 636.1,309.3 637.9,309.3 639.7,309.3 641.5,309.3 643.3,309.3 645.0,309.3 646.8,309.3 648.6,309.3 650.4,309.3 652.2,309.3 653.9,309.3 655.7,309.3 657.5,309.3 659.3,309.3 661.1,309.3 662.8,309.3 664.6,309.3 666.4,309.3 668.2,309.3 669.9,309.3 671.7,309.3 673.5,309.3 675.3,309.3 677.1,309.3 678.8,309.3 680.6,309.3 682.4,309.3 684.2,309.3 686.0,309.3 687.7,309.3 689.5,309.3 691.3,309.3 693.1,309.3 694.9,309.3 696.6,309.3 698.4,309.3 700.2,309.3 702.0,309.3 703.8,309.3 705.5,309.3 707.3,309.3 709.1,309.3 710.9,309.3 712.7,309.3 714.4,309.3 716.2,309.3 718.0,309.3 719.8,309.3 721.6,309.3 723.3,309.3 725.1,309.3 726.9,309.3 728.7,309.3 730.5,309.3 732.2,309.3 734.0,309.3 735.8,309.3 737.6,309.3 739.4,309.3 741.1,309.3 742.9,309.3 744.7,313.9 746.5,313.9 748.2,313.9 750.0,313.9 751.8,313.9 753.6,313.9 755.4,313.9 757.1,313.9 758.9,313.9 760.7,309.3 762.5,309.3 764.3,309.3 766.0,309.3 767.8,309.3 769.6,309.3 771.4,309.3 773.2,309.3 774.9,309.3 776.7,309.3 778.5,309.3 780.3,309.3 782.1,309.3 783.8,309.3 785.6,309.3 787.4,309.3 789.2,309.3 791.0,309.3 792.7,309.3 794.5,309.3 796.3,309.3 798.1,309.3 799.9,309.3 801.6,309.3 803.4,309.3 805.2,309.3 807.0,309.3 808.8,309.3 810.5,309.3 812.3,309.3 814.1,309.3 815.9,309.3 817.7,309.3 819.4,309.3 821.2,309.3 823.0,309.3 824.8,309.3 826.5,309.3 828.3,309.3 830.1,309.3 831.9,309.3 833.7,309.3 835.4,309.3 837.2,309.3 839.0,309.3 840.8,309.3 842.6,309.3 844.3,309.3 846.1,309.3 847.9,309.3 849.7,309.3 851.5,309.3 853.2,309.3 855.0,309.3 856.8,309.3 858.6,309.3 860.4,309.3 862.1,309.3 863.9,309.3 865.7,309.3 867.5,309.3 869.3,309.3 871.0,309.3 872.8,309.3 874.6,309.3 876.4,309.3 878.2,309.3 879.9,309.3 881.7,309.3 883.5,313.9 885.3,313.9 887.1,309.3 888.8,309.3 890.6,309.3 892.4,309.3 894.2,309.3 896.0,309.3 897.7,309.3 899.5,309.3 901.3,309.3 903.1,309.3 904.8,309.3 906.6,309.3 908.4,309.3 910.2,309.3 912.0,309.3 913.7,309.3 915.5,309.3 917.3,309.3 919.1,309.3 920.9,309.3 922.6,309.3 924.4,309.3 926.2,309.3 928.0,309.3 929.8,313.9 931.5,313.9 933.3,313.9 935.1,314.6 936.9,309.3 938.7,309.3 940.4,309.3 942.2,309.3 944.0,309.3"/>
  <circle cx="338.9" cy="32" r="3" fill="#ef4444"/>
  <circle cx="340.7" cy="32" r="3" fill="#ef4444"/>
  <circle cx="374.5" cy="32" r="3" fill="#ef4444"/>
  <circle cx="436.8" cy="32" r="3" fill="#ef4444"/>
  <circle cx="438.6" cy="32" r="3" fill="#ef4444"/>
  <circle cx="440.4" cy="32" r="3" fill="#ef4444"/>
  <circle cx="442.2" cy="32" r="3" fill="#ef4444"/>
  <circle cx="443.9" cy="32" r="3" fill="#ef4444"/>
  <rect x="710" y="28" width="220" height="62" rx="6" fill="#111827" stroke="#334155"/>
  <line x1="724" y1="48" x2="764" y2="48" stroke="#38bdf8" stroke-width="3"/><text x="772" y="52" fill="#cbd5e1" font-family="sans-serif" font-size="12">totalPromptChars</text>
  <line x1="724" y1="68" x2="764" y2="68" stroke="#22c55e" stroke-width="3"/><text x="772" y="72" fill="#cbd5e1" font-family="sans-serif" font-size="12">stablePrefixChars</text>
</svg>
