<?xml version="1.0" encoding="UTF-8"?>
<svg xmlns="http://www.w3.org/2000/svg" width="960" height="360" viewBox="0 0 960 360">
  <rect width="100%" height="100%" fill="#0f172a"/>
  <text x="56" y="18" fill="#e5e7eb" font-family="sans-serif" font-size="14">cache-friendly-prompt 推移（最新 500 件）</text>
  <line x1="56" y1="318" x2="944" y2="318" stroke="#475569"/>
  <line x1="56" y1="24" x2="56" y2="318" stroke="#475569"/>
  <text x="8" y="34" fill="#94a3b8" font-family="sans-serif" font-size="11">455149</text>
  <text x="20" y="318" fill="#94a3b8" font-family="sans-serif" font-size="11">0</text>
  <line x1="98.7" y1="24" x2="98.7" y2="318" stroke="#f59e0b" stroke-opacity="0.28"/>
  <line x1="114.7" y1="24" x2="114.7" y2="318" stroke="#f59e0b" stroke-opacity="0.28"/>
  <line x1="132.5" y1="24" x2="132.5" y2="318" stroke="#f59e0b" stroke-opacity="0.28"/>
  <line x1="143.2" y1="24" x2="143.2" y2="318" stroke="#f59e0b" stroke-opacity="0.28"/>
  <line x1="173.5" y1="24" x2="173.5" y2="318" stroke="#f59e0b" stroke-opacity="0.28"/>
  <line x1="175.2" y1="24" x2="175.2" y2="318" stroke="#f59e0b" stroke-opacity="0.28"/>
  <line x1="189.5" y1="24" x2="189.5" y2="318" stroke="#f59e0b" stroke-opacity="0.28"/>
  <line x1="198.4" y1="24" x2="198.4" y2="318" stroke="#f59e0b" stroke-opacity="0.28"/>
  <line x1="201.9" y1="24" x2="201.9" y2="318" stroke="#f59e0b" stroke-opacity="0.28"/>
  <line x1="203.7" y1="24" x2="203.7" y2="318" stroke="#f59e0b" stroke-opacity="0.28"/>
  <line x1="205.5" y1="24" x2="205.5" y2="318" stroke="#f59e0b" stroke-opacity="0.28"/>
  <line x1="278.4" y1="24" x2="278.4" y2="318" stroke="#f59e0b" stroke-opacity="0.28"/>
  <line x1="326.5" y1="24" x2="326.5" y2="318" stroke="#f59e0b" stroke-opacity="0.28"/>
  <line x1="330.1" y1="24" x2="330.1" y2="318" stroke="#f59e0b" stroke-opacity="0.28"/>
  <line x1="331.8" y1="24" x2="331.8" y2="318" stroke="#f59e0b" stroke-opacity="0.28"/>
  <line x1="333.6" y1="24" x2="333.6" y2="318" stroke="#f59e0b" stroke-opacity="0.28"/>
  <line x1="335.4" y1="24" x2="335.4" y2="318" stroke="#f59e0b" stroke-opacity="0.28"/>
  <line x1="338.9" y1="24" x2="338.9" y2="318" stroke="#f59e0b" stroke-opacity="0.28"/>
  <line x1="340.7" y1="24" x2="340.7" y2="318" stroke="#f59e0b" stroke-opacity="0.28"/>
  <line x1="347.8" y1="24" x2="347.8" y2="318" stroke="#f59e0b" stroke-opacity="0.28"/>
  <line x1="349.6" y1="24" x2="349.6" y2="318" stroke="#f59e0b" stroke-opacity="0.28"/>
  <line x1="353.2" y1="24" x2="353.2" y2="318" stroke="#f59e0b" stroke-opacity="0.28"/>
  <line x1="426.1" y1="24" x2="426.1" y2="318" stroke="#f59e0b" stroke-opacity="0.28"/>
  <line x1="614.8" y1="24" x2="614.8" y2="318" stroke="#f59e0b" stroke-opacity="0.28"/>
  <line x1="637.9" y1="24" x2="637.9" y2="318" stroke="#f59e0b" stroke-opacity="0.28"/>
  <line x1="641.5" y1="24" x2="641.5" y2="318" stroke="#f59e0b" stroke-opacity="0.28"/>
  <line x1="668.2" y1="24" x2="668.2" y2="318" stroke="#f59e0b" stroke-opacity="0.28"/>
  <line x1="673.5" y1="24" x2="673.5" y2="318" stroke="#f59e0b" stroke-opacity="0.28"/>
  <line x1="675.3" y1="24" x2="675.3" y2="318" stroke="#f59e0b" stroke-opacity="0.28"/>
  <line x1="728.7" y1="24" x2="728.7" y2="318" stroke="#f59e0b" stroke-opacity="0.28"/>
  <line x1="735.8" y1="24" x2="735.8" y2="318" stroke="#f59e0b" stroke-opacity="0.28"/>
  <line x1="744.7" y1="24" x2="744.7" y2="318" stroke="#f59e0b" stroke-opacity="0.28"/>
  <line x1="849.7" y1="24" x2="849.7" y2="318" stroke="#f59e0b" stroke-opacity="0.28"/>
  <polyline fill="none" stroke="#38bdf8" stroke-width="2" points="56.0,303.8 57.8,303.8 59.6,303.8 61.3,303.8 63.1,303.8 64.9,303.8 66.7,303.8 68.5,303.8 70.2,303.8 72.0,303.8 73.8,303.8 75.6,303.8 77.4,303.2 79.1,303.2 80.9,303.2 82.7,303.2 84.5,303.2 86.3,303.2 88.0,303.2 89.8,303.2 91.6,303.2 93.4,303.2 95.2,303.2 96.9,302.9 98.7,310.0 100.5,308.2 102.3,307.3 104.0,307.2 105.8,305.6 107.6,302.1 109.4,301.4 111.2,301.0 112.9,300.2 114.7,313.3 116.5,313.0 118.3,264.6 120.1,298.2 121.8,264.6 123.6,290.0 125.4,261.9 127.2,186.9 129.0,97.6 130.7,86.9 132.5,300.1 134.3,299.6 136.1,299.6 137.9,299.3 139.6,298.8 141.4,298.1 143.2,312.8 145.0,312.6 146.8,263.6 148.5,175.8 150.3,242.2 152.1,67.6 153.9,185.0 155.7,184.9 157.4,34.8 159.2,171.5 161.0,130.5 162.8,119.9 164.6,119.4 166.3,90.6 168.1,76.5 169.9,39.7 171.7,37.5 173.5,298.0 175.2,37.5 177.0,37.5 178.8,34.9 180.6,30.9 182.3,29.6 184.1,28.0 185.9,27.2 187.7,24.0 189.5,298.0 191.2,297.4 193.0,296.9 194.8,296.4 196.6,296.1 198.4,313.4 200.1,291.3 201.9,278.2 203.7,291.2 205.5,277.8 207.3,277.7 209.0,277.6 210.8,244.3 212.6,228.6 214.4,218.9 216.2,218.8 217.9,216.0 219.7,215.9 221.5,215.8 223.3,213.4 225.1,212.8 226.8,211.5 228.6,211.4 230.4,211.2 232.2,209.1 234.0,204.6 235.7,204.5 237.5,204.4 239.3,204.3 241.1,203.1 242.9,203.0 244.6,202.8 246.4,201.0 248.2,195.0 250.0,194.9 251.8,194.3 253.5,194.2 255.3,194.0 257.1,193.9 258.9,192.0 260.6,188.2 262.4,186.1 264.2,178.5 266.0,178.4 267.8,178.2 269.5,176.6 271.3,176.3 273.1,176.2 274.9,176.1 276.7,176.1 278.4,305.8 280.2,305.5 282.0,305.2 283.8,305.2 285.6,305.2 287.3,305.0 289.1,305.0 290.9,304.6 292.7,304.4 294.5,304.4 296.2,304.4 298.0,304.1 299.8,304.1 301.6,303.8 303.4,303.8 305.1,303.8 306.9,303.6 308.7,303.6 310.5,303.2 312.3,302.9 314.0,301.5 315.8,301.5 317.6,301.5 319.4,285.4 321.2,285.4 322.9,285.0 324.7,284.7 326.5,313.6 328.3,313.6 330.1,284.7 331.8,313.4 333.6,284.7 335.4,313.4 337.2,313.4 338.9,284.4 340.7,313.4 342.5,313.4 344.3,313.4 346.1,313.4 347.8,284.0 349.6,313.4 351.4,313.4 353.2,284.0 355.0,284.0 356.7,284.0 358.5,284.0 360.3,284.0 362.1,284.0 363.9,282.6 365.6,282.3 367.4,282.3 369.2,282.0 371.0,282.0 372.8,282.0 374.5,282.0 376.3,281.6 378.1,281.6 379.9,281.6 381.7,281.6 383.4,281.6 385.2,281.6 387.0,281.4 388.8,281.4 390.6,281.4 392.3,281.4 394.1,281.1 395.9,281.1 397.7,280.8 399.5,280.8 401.2,280.4 403.0,280.4 404.8,280.1 406.6,279.9 408.4,279.9 410.1,279.9 411.9,279.9 413.7,279.9 415.5,279.9 417.3,279.9 419.0,279.9 420.8,279.9 422.6,279.9 424.4,279.6 426.1,310.9 427.9,310.5 429.7,310.2 431.5,310.2 433.3,309.9 435.0,309.6 436.8,309.6 438.6,309.6 440.4,309.6 442.2,309.6 443.9,309.6 445.7,309.6 447.5,309.6 449.3,309.3 451.1,309.3 452.8,309.3 454.6,309.3 456.4,309.3 458.2,309.3 460.0,309.3 461.7,309.3 463.5,309.0 465.3,308.7 467.1,308.7 468.9,308.4 470.6,308.4 472.4,308.4 474.2,308.4 476.0,307.7 477.8,307.7 479.5,307.5 481.3,307.5 483.1,307.5 484.9,306.8 486.7,305.9 488.4,305.8 490.2,304.3 492.0,303.6 493.8,303.6 495.6,303.6 497.3,303.6 499.1,303.6 500.9,303.6 502.7,303.6 504.4,303.6 506.2,303.6 508.0,303.6 509.8,303.6 511.6,303.4 513.3,302.6 515.1,302.0 516.9,301.1 518.7,300.9 520.5,300.9 522.2,300.9 524.0,300.9 525.8,300.6 527.6,300.6 529.4,300.6 531.1,300.3 532.9,300.0 534.7,300.0 536.5,300.0 538.3,299.7 540.0,299.4 541.8,299.2 543.6,298.6 545.4,296.7 547.2,296.4 548.9,296.4 550.7,296.4 552.5,296.4 554.3,296.4 556.1,296.4 557.8,296.0 559.6,296.0 561.4,296.0 563.2,296.0 565.0,296.0 566.7,295.6 568.5,295.2 570.3,295.2 572.1,295.2 573.9,295.2 575.6,295.2 577.4,294.9 579.2,293.9 581.0,293.9 582.7,293.9 584.5,293.9 586.3,293.9 588.1,293.9 589.9,293.9 591.6,293.6 593.4,291.6 595.2,291.3 597.0,291.3 598.8,291.3 600.5,291.3 602.3,291.3 604.1,291.3 605.9,291.3 607.7,291.3 609.4,291.3 611.2,291.3 613.0,291.3 614.8,314.5 616.6,314.5 618.3,314.5 620.1,314.3 621.9,313.9 623.7,313.6 625.5,314.6 627.2,314.3 629.0,314.1 630.8,313.8 632.6,313.5 634.4,313.5 636.1,313.2 637.9,312.1 639.7,312.3 641.5,267.2 643.3,262.7 645.0,262.5 646.8,257.2 648.6,252.4 650.4,252.3 652.2,252.3 653.9,251.3 655.7,251.2 657.5,251.1 659.3,250.0 661.1,249.0 662.8,249.0 664.6,246.9 666.4,246.4 668.2,308.8 669.9,308.4 671.7,308.2 673.5,307.3 675.3,208.2 677.1,207.3 678.8,206.6 680.6,206.5 682.4,206.4 684.2,206.3 686.0,205.6 687.7,205.5 689.5,205.4 691.3,204.6 693.1,204.4 694.9,204.1 696.6,204.0 698.4,203.8 700.2,203.7 702.0,203.5 703.8,203.3 705.5,203.1 707.3,203.0 709.1,201.0 710.9,200.9 712.7,197.8 714.4,197.6 716.2,196.6 718.0,196.4 719.8,196.1 721.6,196.1 723.3,195.9 725.1,193.8 726.9,193.7 728.7,304.5 730.5,304.2 732.2,304.2 734.0,304.0 735.8,304.3 737.6,304.0 739.4,304.0 741.1,303.5 742.9,282.9 744.7,110.8 746.5,110.7 748.2,110.6 750.0,109.9 751.8,109.5 753.6,109.3 755.4,108.7 757.1,108.7 758.9,108.6 760.7,108.5 762.5,108.1 764.3,106.7 766.0,106.5 767.8,106.4 769.6,106.3 771.4,106.2 773.2,106.1 774.9,105.6 776.7,104.4 778.5,104.2 780.3,104.2 782.1,103.2 783.8,103.1 785.6,103.1 787.4,102.8 789.2,102.5 791.0,102.3 792.7,102.1 794.5,101.8 796.3,101.4 798.1,101.1 799.9,100.8 801.6,100.7 803.4,100.7 805.2,100.4 807.0,100.0 808.8,99.1 810.5,98.9 812.3,98.8 814.1,98.0 815.9,97.6 817.7,97.5 819.4,97.3 821.2,97.2 823.0,97.0 824.8,97.0 826.5,96.9 828.3,95.9 830.1,95.2 831.9,94.6 833.7,94.5 835.4,94.4 837.2,94.4 839.0,94.3 840.8,94.2 842.6,94.2 844.3,93.9 846.1,92.3 847.9,92.1 849.7,310.6 851.5,310.1 853.2,309.1 855.0,307.9 856.8,307.1 858.6,307.1 860.4,306.9 862.1,306.6 863.9,305.6 865.7,304.8 867.5,304.8 869.3,304.2 871.0,303.3 872.8,303.1 874.6,302.9 876.4,302.7 878.2,302.7 879.9,302.6 881.7,309.7 883.5,309.4 885.3,309.4 887.1,309.1 888.8,308.8 890.6,308.5 892.4,308.3 894.2,308.3 896.0,308.3 897.7,308.0 899.5,307.7 901.3,307.7 903.1,307.7 904.8,307.5 906.6,307.5 908.4,306.7 910.2,306.5 912.0,306.2 913.7,305.7 915.5,305.1 917.3,304.8 919.1,301.7 920.9,301.4 922.6,301.1 924.4,301.1 926.2,300.8 928.0,300.8 929.8,300.8 931.5,300.8 933.3,300.5 935.1,300.5 936.9,300.5 938.7,300.5 940.4,300.3 942.2,300.3 944.0,300.0"/>
  <polyline fill="none" stroke="#22c55e" stroke-width="2" points="56.0,307.7 57.8,307.7 59.6,307.7 61.3,307.7 63.1,307.7 64.9,307.7 66.7,307.7 68.5,307.7 70.2,307.7 72.0,307.7 73.8,307.7 75.6,307.7 77.4,307.7 79.1,307.7 80.9,307.7 82.7,307.7 84.5,307.7 86.3,307.7 88.0,307.7 89.8,307.7 91.6,307.7 93.4,307.7 95.2,307.7 96.9,307.7 98.7,310.1 100.5,310.1 102.3,310.1 104.0,310.1 105.8,310.1 107.6,310.1 109.4,310.1 111.2,310.1 112.9,310.1 114.7,313.9 116.5,313.9 118.3,313.9 120.1,313.9 121.8,313.9 123.6,313.9 125.4,313.9 127.2,313.9 129.0,313.9 130.7,313.9 132.5,310.1 134.3,310.1 136.1,310.1 137.9,310.1 139.6,310.1 141.4,310.1 143.2,313.9 145.0,313.9 146.8,313.9 148.5,313.9 150.3,313.9 152.1,313.9 153.9,313.9 155.7,313.9 157.4,313.9 159.2,313.9 161.0,313.9 162.8,313.9 164.6,313.9 166.3,313.9 168.1,313.9 169.9,313.9 171.7,313.9 173.5,310.1 175.2,313.9 177.0,313.9 178.8,313.9 180.6,313.9 182.3,313.9 184.1,313.9 185.9,313.9 187.7,313.9 189.5,310.1 191.2,310.1 193.0,310.1 194.8,310.1 196.6,310.1 198.4,313.9 200.1,313.9 201.9,310.1 203.7,313.9 205.5,310.1 207.3,310.1 209.0,310.1 210.8,310.1 212.6,310.1 214.4,310.1 216.2,310.1 217.9,310.1 219.7,310.1 221.5,310.1 223.3,310.1 225.1,310.1 226.8,310.1 228.6,310.1 230.4,310.1 232.2,310.1 234.0,310.1 235.7,310.1 237.5,310.1 239.3,310.1 241.1,310.1 242.9,310.1 244.6,310.1 246.4,310.1 248.2,310.1 250.0,310.1 251.8,310.1 253.5,310.1 255.3,310.1 257.1,310.1 258.9,310.1 260.6,310.1 262.4,310.1 264.2,310.1 266.0,310.1 267.8,310.1 269.5,310.1 271.3,310.1 273.1,310.1 274.9,310.1 276.7,310.1 278.4,310.6 280.2,310.6 282.0,310.6 283.8,310.6 285.6,310.6 287.3,310.6 289.1,310.6 290.9,310.6 292.7,310.6 294.5,310.6 296.2,310.6 298.0,310.6 299.8,310.6 301.6,310.6 303.4,310.6 305.1,310.6 306.9,310.6 308.7,310.6 310.5,310.6 312.3,310.6 314.0,310.6 315.8,310.6 317.6,310.6 319.4,310.6 321.2,310.6 322.9,310.6 324.7,310.6 326.5,313.9 328.3,313.9 330.1,310.6 331.8,313.9 333.6,310.6 335.4,313.9 337.2,313.9 338.9,310.6 340.7,313.9 342.5,313.9 344.3,313.9 346.1,313.9 347.8,310.6 349.6,313.9 351.4,313.9 353.2,310.6 355.0,310.6 356.7,310.6 358.5,310.6 360.3,310.6 362.1,310.6 363.9,310.6 365.6,310.6 367.4,310.6 369.2,310.6 371.0,310.6 372.8,310.6 374.5,310.6 376.3,310.6 378.1,310.6 379.9,310.6 381.7,310.6 383.4,310.6 385.2,310.6 387.0,310.6 388.8,310.6 390.6,310.6 392.3,310.6 394.1,310.6 395.9,310.6 397.7,310.6 399.5,310.6 401.2,310.6 403.0,310.6 404.8,310.6 406.6,310.6 408.4,310.6 410.1,310.6 411.9,310.6 413.7,310.6 415.5,310.6 417.3,310.6 419.0,310.6 420.8,310.6 422.6,310.6 424.4,310.6 426.1,310.9 427.9,310.9 429.7,310.9 431.5,310.9 433.3,310.9 435.0,310.9 436.8,310.9 438.6,310.9 440.4,310.9 442.2,310.9 443.9,310.9 445.7,310.9 447.5,310.9 449.3,310.9 451.1,310.9 452.8,310.9 454.6,310.9 456.4,310.9 458.2,310.9 460.0,310.9 461.7,310.9 463.5,310.9 465.3,310.9 467.1,310.9 468.9,310.9 470.6,310.9 472.4,310.9 474.2,310.9 476.0,310.9 477.8,310.9 479.5,310.9 481.3,310.9 483.1,310.9 484.9,310.9 486.7,310.9 488.4,310.9 490.2,310.9 492.0,310.9 493.8,310.9 495.6,310.9 497.3,310.9 499.1,310.9 500.9,310.9 502.7,310.9 504.4,310.9 506.2,310.9 508.0,310.9 509.8,310.9 511.6,310.9 513.3,310.9 515.1,310.9 516.9,310.9 518.7,310.9 520.5,310.9 522.2,310.9 524.0,310.9 525.8,310.9 527.6,310.9 529.4,310.9 531.1,310.9 532.9,310.9 534.7,310.9 536.5,310.9 538.3,310.9 540.0,310.9 541.8,310.9 543.6,310.9 545.4,310.9 547.2,310.9 548.9,310.9 550.7,310.9 552.5,310.9 554.3,310.9 556.1,310.9 557.8,310.9 559.6,310.9 561.4,310.9 563.2,310.9 565.0,310.9 566.7,310.9 568.5,310.9 570.3,310.9 572.1,310.9 573.9,310.9 575.6,310.9 577.4,310.9 579.2,310.9 581.0,310.9 582.7,310.9 584.5,310.9 586.3,310.9 588.1,310.9 589.9,310.9 591.6,310.9 593.4,310.9 595.2,310.9 597.0,310.9 598.8,310.9 600.5,310.9 602.3,310.9 604.1,310.9 605.9,310.9 607.7,310.9 609.4,310.9 611.2,310.9 613.0,310.9 614.8,314.8 616.6,314.8 618.3,314.8 620.1,314.8 621.9,314.8 623.7,314.8 625.5,314.8 627.2,314.8 629.0,314.8 630.8,314.8 632.6,314.8 634.4,314.8 636.1,314.8 637.9,315.4 639.7,315.4 641.5,310.9 643.3,310.9 645.0,310.9 646.8,310.9 648.6,310.9 650.4,310.9 652.2,310.9 653.9,310.9 655.7,310.9 657.5,310.9 659.3,310.9 661.1,310.9 662.8,310.9 664.6,310.9 666.4,310.9 668.2,314.8 669.9,314.8 671.7,314.8 673.5,315.4 675.3,310.9 677.1,310.9 678.8,310.9 680.6,310.9 682.4,310.9 684.2,310.9 686.0,310.9 687.7,310.9 689.5,310.9 691.3,310.9 693.1,310.9 694.9,310.9 696.6,310.9 698.4,310.9 700.2,310.9 702.0,310.9 703.8,310.9 705.5,310.9 707.3,310.9 709.1,310.9 710.9,310.9 712.7,310.9 714.4,310.9 716.2,310.9 718.0,310.9 719.8,310.9 721.6,310.9 723.3,310.9 725.1,310.9 726.9,310.9 728.7,314.8 730.5,314.8 732.2,314.8 734.0,314.8 735.8,315.4 737.6,315.4 739.4,315.4 741.1,315.4 742.9,315.4 744.7,310.9 746.5,310.9 748.2,310.9 750.0,310.9 751.8,310.9 753.6,310.9 755.4,310.9 757.1,310.9 758.9,310.9 760.7,310.9 762.5,310.9 764.3,310.9 766.0,310.9 767.8,310.9 769.6,310.9 771.4,310.9 773.2,310.9 774.9,310.9 776.7,310.9 778.5,310.9 780.3,310.9 782.1,310.9 783.8,310.9 785.6,310.9 787.4,310.9 789.2,310.9 791.0,310.9 792.7,310.9 794.5,310.9 796.3,310.9 798.1,310.9 799.9,310.9 801.6,310.9 803.4,310.9 805.2,310.9 807.0,310.9 808.8,310.9 810.5,310.9 812.3,310.9 814.1,310.9 815.9,310.9 817.7,310.9 819.4,310.9 821.2,310.9 823.0,310.9 824.8,310.9 826.5,310.9 828.3,310.9 830.1,310.9 831.9,310.9 833.7,310.9 835.4,310.9 837.2,310.9 839.0,310.9 840.8,310.9 842.6,310.9 844.3,310.9 846.1,310.9 847.9,310.9 849.7,310.6 851.5,310.6 853.2,310.6 855.0,310.6 856.8,310.6 858.6,310.6 860.4,310.6 862.1,310.6 863.9,310.6 865.7,310.6 867.5,310.6 869.3,310.6 871.0,310.6 872.8,310.6 874.6,310.6 876.4,310.6 878.2,310.6 879.9,310.6 881.7,310.6 883.5,310.6 885.3,310.6 887.1,310.6 888.8,310.6 890.6,310.6 892.4,310.6 894.2,310.6 896.0,310.6 897.7,310.6 899.5,310.6 901.3,310.6 903.1,310.6 904.8,310.6 906.6,310.6 908.4,310.6 910.2,310.6 912.0,310.6 913.7,310.6 915.5,310.6 917.3,310.6 919.1,310.6 920.9,310.6 922.6,310.6 924.4,310.6 926.2,310.6 928.0,310.6 929.8,310.6 931.5,310.6 933.3,310.6 935.1,310.6 936.9,310.6 938.7,310.6 940.4,310.6 942.2,310.6 944.0,310.6"/>
  <circle cx="637.9" cy="32" r="3" fill="#ef4444"/>
  <circle cx="639.7" cy="32" r="3" fill="#ef4444"/>
  <circle cx="673.5" cy="32" r="3" fill="#ef4444"/>
  <circle cx="735.8" cy="32" r="3" fill="#ef4444"/>
  <circle cx="737.6" cy="32" r="3" fill="#ef4444"/>
  <circle cx="739.4" cy="32" r="3" fill="#ef4444"/>
  <circle cx="741.1" cy="32" r="3" fill="#ef4444"/>
  <circle cx="742.9" cy="32" r="3" fill="#ef4444"/>
  <rect x="710" y="28" width="220" height="62" rx="6" fill="#111827" stroke="#334155"/>
  <line x1="724" y1="48" x2="764" y2="48" stroke="#38bdf8" stroke-width="3"/><text x="772" y="52" fill="#cbd5e1" font-family="sans-serif" font-size="12">totalPromptChars</text>
  <line x1="724" y1="68" x2="764" y2="68" stroke="#22c55e" stroke-width="3"/><text x="772" y="72" fill="#cbd5e1" font-family="sans-serif" font-size="12">stablePrefixChars</text>
</svg>
