<?xml version="1.0" encoding="UTF-8"?>
<svg xmlns="http://www.w3.org/2000/svg" width="960" height="360" viewBox="0 0 960 360">
  <rect width="100%" height="100%" fill="#0f172a"/>
  <text x="56" y="18" fill="#e5e7eb" font-family="sans-serif" font-size="14">cache-friendly-prompt 推移（最新 500 件）</text>
  <line x1="56" y1="318" x2="944" y2="318" stroke="#475569"/>
  <line x1="56" y1="24" x2="56" y2="318" stroke="#475569"/>
  <text x="8" y="34" fill="#94a3b8" font-family="sans-serif" font-size="11">387808</text>
  <text x="20" y="318" fill="#94a3b8" font-family="sans-serif" font-size="11">0</text>
  <line x1="129.0" y1="24" x2="129.0" y2="318" stroke="#f59e0b" stroke-opacity="0.28"/>
  <line x1="317.6" y1="24" x2="317.6" y2="318" stroke="#f59e0b" stroke-opacity="0.28"/>
  <line x1="340.7" y1="24" x2="340.7" y2="318" stroke="#f59e0b" stroke-opacity="0.28"/>
  <line x1="344.3" y1="24" x2="344.3" y2="318" stroke="#f59e0b" stroke-opacity="0.28"/>
  <line x1="371.0" y1="24" x2="371.0" y2="318" stroke="#f59e0b" stroke-opacity="0.28"/>
  <line x1="376.3" y1="24" x2="376.3" y2="318" stroke="#f59e0b" stroke-opacity="0.28"/>
  <line x1="378.1" y1="24" x2="378.1" y2="318" stroke="#f59e0b" stroke-opacity="0.28"/>
  <line x1="431.5" y1="24" x2="431.5" y2="318" stroke="#f59e0b" stroke-opacity="0.28"/>
  <line x1="438.6" y1="24" x2="438.6" y2="318" stroke="#f59e0b" stroke-opacity="0.28"/>
  <line x1="447.5" y1="24" x2="447.5" y2="318" stroke="#f59e0b" stroke-opacity="0.28"/>
  <line x1="552.5" y1="24" x2="552.5" y2="318" stroke="#f59e0b" stroke-opacity="0.28"/>
  <line x1="746.5" y1="24" x2="746.5" y2="318" stroke="#f59e0b" stroke-opacity="0.28"/>
  <line x1="762.5" y1="24" x2="762.5" y2="318" stroke="#f59e0b" stroke-opacity="0.28"/>
  <line x1="885.3" y1="24" x2="885.3" y2="318" stroke="#f59e0b" stroke-opacity="0.28"/>
  <line x1="888.8" y1="24" x2="888.8" y2="318" stroke="#f59e0b" stroke-opacity="0.28"/>
  <line x1="931.5" y1="24" x2="931.5" y2="318" stroke="#f59e0b" stroke-opacity="0.28"/>
  <line x1="936.9" y1="24" x2="936.9" y2="318" stroke="#f59e0b" stroke-opacity="0.28"/>
  <line x1="938.7" y1="24" x2="938.7" y2="318" stroke="#f59e0b" stroke-opacity="0.28"/>
  <polyline fill="none" stroke="#38bdf8" stroke-width="2" points="56.0,278.1 57.8,278.1 59.6,278.1 61.3,278.1 63.1,278.1 64.9,278.1 66.7,276.5 68.5,276.1 70.2,276.1 72.0,275.8 73.8,275.8 75.6,275.8 77.4,275.8 79.1,275.3 80.9,275.3 82.7,275.3 84.5,275.3 86.3,275.3 88.0,275.3 89.8,275.0 91.6,275.0 93.4,275.0 95.2,275.0 96.9,274.7 98.7,274.7 100.5,274.3 102.3,274.3 104.0,273.9 105.8,273.9 107.6,273.5 109.4,273.2 111.2,273.2 112.9,273.2 114.7,273.2 116.5,273.2 118.3,273.2 120.1,273.2 121.8,273.2 123.6,273.2 125.4,273.2 127.2,272.9 129.0,309.6 130.7,309.3 132.5,308.8 134.3,308.8 136.1,308.4 137.9,308.1 139.6,308.1 141.4,308.1 143.2,308.1 145.0,308.1 146.8,308.1 148.5,308.1 150.3,308.1 152.1,307.7 153.9,307.7 155.7,307.7 157.4,307.7 159.2,307.7 161.0,307.7 162.8,307.7 164.6,307.7 166.3,307.4 168.1,307.1 169.9,307.1 171.7,306.8 173.5,306.8 175.2,306.8 177.0,306.8 178.8,306.0 180.6,306.0 182.3,305.7 184.1,305.7 185.9,305.7 187.7,304.8 189.5,303.9 191.2,303.7 193.0,301.9 194.8,301.1 196.6,301.1 198.4,301.1 200.1,301.1 201.9,301.1 203.7,301.1 205.5,301.1 207.3,301.1 209.0,301.1 210.8,301.1 212.6,301.1 214.4,300.8 216.2,300.0 217.9,299.3 219.7,298.2 221.5,297.9 223.3,297.9 225.1,297.9 226.8,297.9 228.6,297.6 230.4,297.6 232.2,297.6 234.0,297.2 235.7,296.8 237.5,296.8 239.3,296.8 241.1,296.5 242.9,296.2 244.6,295.9 246.4,295.2 248.2,293.0 250.0,292.7 251.8,292.7 253.5,292.7 255.3,292.7 257.1,292.7 258.9,292.7 260.6,292.2 262.4,292.2 264.2,292.2 266.0,292.2 267.8,292.2 269.5,291.7 271.3,291.3 273.1,291.3 274.9,291.3 276.7,291.3 278.4,291.3 280.2,290.8 282.0,289.7 283.8,289.7 285.6,289.7 287.3,289.7 289.1,289.7 290.9,289.7 292.7,289.7 294.5,289.3 296.2,287.0 298.0,286.7 299.8,286.7 301.6,286.7 303.4,286.7 305.1,286.7 306.9,286.7 308.7,286.7 310.5,286.7 312.3,286.7 314.0,286.7 315.8,286.7 317.6,313.9 319.4,313.9 321.2,313.9 322.9,313.6 324.7,313.2 326.5,312.9 328.3,314.0 330.1,313.7 331.8,313.4 333.6,313.1 335.4,312.7 337.2,312.7 338.9,312.4 340.7,311.1 342.5,311.3 344.3,258.3 346.1,253.1 347.8,252.8 349.6,246.7 351.4,241.1 353.2,240.9 355.0,240.9 356.7,239.7 358.5,239.6 360.3,239.5 362.1,238.2 363.9,237.1 365.6,237.1 367.4,234.6 369.2,234.0 371.0,307.1 372.8,306.8 374.5,306.5 376.3,305.5 378.1,189.2 379.9,188.1 381.7,187.3 383.4,187.2 385.2,187.1 387.0,186.9 388.8,186.0 390.6,185.9 392.3,185.8 394.1,184.9 395.9,184.7 397.7,184.3 399.5,184.2 401.2,183.9 403.0,183.8 404.8,183.6 406.6,183.4 408.4,183.2 410.1,183.1 411.9,180.7 413.7,180.6 415.5,176.9 417.3,176.7 419.0,175.5 420.8,175.3 422.6,175.0 424.4,174.9 426.1,174.7 427.9,172.3 429.7,172.1 431.5,302.2 433.3,301.9 435.0,301.9 436.8,301.5 438.6,301.9 440.4,301.6 442.2,301.6 443.9,301.0 445.7,276.8 447.5,74.8 449.3,74.7 451.1,74.6 452.8,73.7 454.6,73.3 456.4,73.1 458.2,72.4 460.0,72.3 461.7,72.2 463.5,72.2 465.3,71.6 467.1,70.0 468.9,69.8 470.6,69.7 472.4,69.6 474.2,69.4 476.0,69.4 477.8,68.7 479.5,67.3 481.3,67.1 483.1,67.0 484.9,65.9 486.7,65.8 488.4,65.8 490.2,65.4 492.0,65.0 493.8,64.9 495.6,64.6 497.3,64.3 499.1,63.8 500.9,63.4 502.7,63.1 504.4,63.0 506.2,63.0 508.0,62.7 509.8,62.2 511.6,61.1 513.3,60.9 515.1,60.8 516.9,59.8 518.7,59.3 520.5,59.2 522.2,59.0 524.0,58.9 525.8,58.7 527.6,58.6 529.4,58.5 531.1,57.4 532.9,56.5 534.7,55.8 536.5,55.7 538.3,55.6 540.0,55.5 541.8,55.5 543.6,55.4 545.4,55.4 547.2,55.0 548.9,53.1 550.7,52.8 552.5,309.3 554.3,308.7 556.1,307.5 557.8,306.1 559.6,305.2 561.4,305.2 563.2,305.0 565.0,304.7 566.7,303.5 568.5,302.5 570.3,302.5 572.1,301.8 573.9,300.7 575.6,300.5 577.4,300.3 579.2,300.1 581.0,300.0 582.7,299.9 584.5,308.2 586.3,307.9 588.1,307.9 589.9,307.6 591.6,307.2 593.4,306.9 595.2,306.6 597.0,306.6 598.8,306.6 600.5,306.3 602.3,305.9 604.1,305.9 605.9,305.9 607.7,305.6 609.4,305.6 611.2,304.8 613.0,304.5 614.8,304.1 616.6,303.6 618.3,302.9 620.1,302.5 621.9,298.9 623.7,298.6 625.5,298.2 627.2,298.2 629.0,297.8 630.8,297.8 632.6,297.8 634.4,297.8 636.1,297.5 637.9,297.5 639.7,297.5 641.5,297.5 643.3,297.2 645.0,297.2 646.8,296.8 648.6,294.1 650.4,293.7 652.2,293.7 653.9,293.4 655.7,293.0 657.5,292.6 659.3,292.6 661.1,292.2 662.8,291.9 664.6,291.5 666.4,291.2 668.2,290.8 669.9,289.9 671.7,289.9 673.5,289.9 675.3,289.9 677.1,289.9 678.8,289.9 680.6,289.9 682.4,289.6 684.2,289.3 686.0,289.3 687.7,288.5 689.5,288.2 691.3,287.9 693.1,287.9 694.9,287.9 696.6,287.6 698.4,287.6 700.2,287.6 702.0,287.6 703.8,287.6 705.5,287.6 707.3,287.6 709.1,287.6 710.9,287.6 712.7,287.6 714.4,287.6 716.2,287.6 718.0,286.6 719.8,286.6 721.6,286.3 723.3,286.3 725.1,286.3 726.9,286.3 728.7,286.3 730.5,285.2 732.2,285.2 734.0,285.2 735.8,285.2 737.6,285.2 739.4,285.2 741.1,285.2 742.9,285.2 744.7,285.2 746.5,313.5 748.2,313.1 750.0,312.8 751.8,312.5 753.6,312.5 755.4,312.2 757.1,311.8 758.9,311.8 760.7,311.5 762.5,164.9 764.3,152.1 766.0,152.0 767.8,149.2 769.6,149.1 771.4,149.0 773.2,148.8 774.9,148.0 776.7,148.0 778.5,137.2 780.3,137.1 782.1,130.6 783.8,130.5 785.6,130.3 787.4,130.2 789.2,130.1 791.0,128.7 792.7,128.3 794.5,127.1 796.3,126.9 798.1,126.8 799.9,126.2 801.6,126.0 803.4,125.5 805.2,125.2 807.0,125.1 808.8,125.0 810.5,124.4 812.3,123.7 814.1,123.0 815.9,120.3 817.7,118.5 819.4,117.6 821.2,117.5 823.0,116.6 824.8,115.9 826.5,114.7 828.3,114.7 830.1,114.6 831.9,114.3 833.7,114.1 835.4,113.1 837.2,113.1 839.0,113.0 840.8,112.6 842.6,111.8 844.3,111.6 846.1,111.3 847.9,110.7 849.7,110.6 851.5,110.5 853.2,108.4 855.0,105.7 856.8,104.3 858.6,103.8 860.4,102.9 862.1,102.0 863.9,99.2 865.7,98.6 867.5,98.4 869.3,97.0 871.0,95.3 872.8,93.4 874.6,92.2 876.4,92.0 878.2,91.7 879.9,90.8 881.7,89.6 883.5,88.1 885.3,299.0 887.1,298.6 888.8,46.3 890.6,45.7 892.4,45.3 894.2,45.1 896.0,45.0 897.7,44.9 899.5,44.8 901.3,44.7 903.1,44.6 904.8,44.5 906.6,44.5 908.4,27.6 910.2,26.6 912.0,25.8 913.7,25.5 915.5,25.4 917.3,25.1 919.1,25.1 920.9,25.0 922.6,25.0 924.4,24.9 926.2,24.5 928.0,24.2 929.8,24.0 931.5,302.3 933.3,302.0 935.1,301.7 936.9,301.6 938.7,291.6 940.4,283.2 942.2,279.3 944.0,278.6"/>
  <polyline fill="none" stroke="#22c55e" stroke-width="2" points="56.0,309.3 57.8,309.3 59.6,309.3 61.3,309.3 63.1,309.3 64.9,309.3 66.7,309.3 68.5,309.3 70.2,309.3 72.0,309.3 73.8,309.3 75.6,309.3 77.4,309.3 79.1,309.3 80.9,309.3 82.7,309.3 84.5,309.3 86.3,309.3 88.0,309.3 89.8,309.3 91.6,309.3 93.4,309.3 95.2,309.3 96.9,309.3 98.7,309.3 100.5,309.3 102.3,309.3 104.0,309.3 105.8,309.3 107.6,309.3 109.4,309.3 111.2,309.3 112.9,309.3 114.7,309.3 116.5,309.3 118.3,309.3 120.1,309.3 121.8,309.3 123.6,309.3 125.4,309.3 127.2,309.3 129.0,309.6 130.7,309.6 132.5,309.6 134.3,309.6 136.1,309.6 137.9,309.6 139.6,309.6 141.4,309.6 143.2,309.6 145.0,309.6 146.8,309.6 148.5,309.6 150.3,309.6 152.1,309.6 153.9,309.6 155.7,309.6 157.4,309.6 159.2,309.6 161.0,309.6 162.8,309.6 164.6,309.6 166.3,309.6 168.1,309.6 169.9,309.6 171.7,309.6 173.5,309.6 175.2,309.6 177.0,309.6 178.8,309.6 180.6,309.6 182.3,309.6 184.1,309.6 185.9,309.6 187.7,309.6 189.5,309.6 191.2,309.6 193.0,309.6 194.8,309.6 196.6,309.6 198.4,309.6 200.1,309.6 201.9,309.6 203.7,309.6 205.5,309.6 207.3,309.6 209.0,309.6 210.8,309.6 212.6,309.6 214.4,309.6 216.2,309.6 217.9,309.6 219.7,309.6 221.5,309.6 223.3,309.6 225.1,309.6 226.8,309.6 228.6,309.6 230.4,309.6 232.2,309.6 234.0,309.6 235.7,309.6 237.5,309.6 239.3,309.6 241.1,309.6 242.9,309.6 244.6,309.6 246.4,309.6 248.2,309.6 250.0,309.6 251.8,309.6 253.5,309.6 255.3,309.6 257.1,309.6 258.9,309.6 260.6,309.6 262.4,309.6 264.2,309.6 266.0,309.6 267.8,309.6 269.5,309.6 271.3,309.6 273.1,309.6 274.9,309.6 276.7,309.6 278.4,309.6 280.2,309.6 282.0,309.6 283.8,309.6 285.6,309.6 287.3,309.6 289.1,309.6 290.9,309.6 292.7,309.6 294.5,309.6 296.2,309.6 298.0,309.6 299.8,309.6 301.6,309.6 303.4,309.6 305.1,309.6 306.9,309.6 308.7,309.6 310.5,309.6 312.3,309.6 314.0,309.6 315.8,309.6 317.6,314.2 319.4,314.2 321.2,314.2 322.9,314.2 324.7,314.2 326.5,314.2 328.3,314.2 330.1,314.2 331.8,314.2 333.6,314.2 335.4,314.2 337.2,314.2 338.9,314.2 340.7,315.0 342.5,315.0 344.3,309.6 346.1,309.6 347.8,309.6 349.6,309.6 351.4,309.6 353.2,309.6 355.0,309.6 356.7,309.6 358.5,309.6 360.3,309.6 362.1,309.6 363.9,309.6 365.6,309.6 367.4,309.6 369.2,309.6 371.0,314.2 372.8,314.2 374.5,314.2 376.3,315.0 378.1,309.6 379.9,309.6 381.7,309.6 383.4,309.6 385.2,309.6 387.0,309.6 388.8,309.6 390.6,309.6 392.3,309.6 394.1,309.6 395.9,309.6 397.7,309.6 399.5,309.6 401.2,309.6 403.0,309.6 404.8,309.6 406.6,309.6 408.4,309.6 410.1,309.6 411.9,309.6 413.7,309.6 415.5,309.6 417.3,309.6 419.0,309.6 420.8,309.6 422.6,309.6 424.4,309.6 426.1,309.6 427.9,309.6 429.7,309.6 431.5,314.2 433.3,314.2 435.0,314.2 436.8,314.2 438.6,315.0 440.4,315.0 442.2,315.0 443.9,315.0 445.7,315.0 447.5,309.6 449.3,309.6 451.1,309.6 452.8,309.6 454.6,309.6 456.4,309.6 458.2,309.6 460.0,309.6 461.7,309.6 463.5,309.6 465.3,309.6 467.1,309.6 468.9,309.6 470.6,309.6 472.4,309.6 474.2,309.6 476.0,309.6 477.8,309.6 479.5,309.6 481.3,309.6 483.1,309.6 484.9,309.6 486.7,309.6 488.4,309.6 490.2,309.6 492.0,309.6 493.8,309.6 495.6,309.6 497.3,309.6 499.1,309.6 500.9,309.6 502.7,309.6 504.4,309.6 506.2,309.6 508.0,309.6 509.8,309.6 511.6,309.6 513.3,309.6 515.1,309.6 516.9,309.6 518.7,309.6 520.5,309.6 522.2,309.6 524.0,309.6 525.8,309.6 527.6,309.6 529.4,309.6 531.1,309.6 532.9,309.6 534.7,309.6 536.5,309.6 538.3,309.6 540.0,309.6 541.8,309.6 543.6,309.6 545.4,309.6 547.2,309.6 548.9,309.6 550.7,309.6 552.5,309.3 554.3,309.3 556.1,309.3 557.8,309.3 559.6,309.3 561.4,309.3 563.2,309.3 565.0,309.3 566.7,309.3 568.5,309.3 570.3,309.3 572.1,309.3 573.9,309.3 575.6,309.3 577.4,309.3 579.2,309.3 581.0,309.3 582.7,309.3 584.5,309.3 586.3,309.3 588.1,309.3 589.9,309.3 591.6,309.3 593.4,309.3 595.2,309.3 597.0,309.3 598.8,309.3 600.5,309.3 602.3,309.3 604.1,309.3 605.9,309.3 607.7,309.3 609.4,309.3 611.2,309.3 613.0,309.3 614.8,309.3 616.6,309.3 618.3,309.3 620.1,309.3 621.9,309.3 623.7,309.3 625.5,309.3 627.2,309.3 629.0,309.3 630.8,309.3 632.6,309.3 634.4,309.3 636.1,309.3 637.9,309.3 639.7,309.3 641.5,309.3 643.3,309.3 645.0,309.3 646.8,309.3 648.6,309.3 650.4,309.3 652.2,309.3 653.9,309.3 655.7,309.3 657.5,309.3 659.3,309.3 661.1,309.3 662.8,309.3 664.6,309.3 666.4,309.3 668.2,309.3 669.9,309.3 671.7,309.3 673.5,309.3 675.3,309.3 677.1,309.3 678.8,309.3 680.6,309.3 682.4,309.3 684.2,309.3 686.0,309.3 687.7,309.3 689.5,309.3 691.3,309.3 693.1,309.3 694.9,309.3 696.6,309.3 698.4,309.3 700.2,309.3 702.0,309.3 703.8,309.3 705.5,309.3 707.3,309.3 709.1,309.3 710.9,309.3 712.7,309.3 714.4,309.3 716.2,309.3 718.0,309.3 719.8,309.3 721.6,309.3 723.3,309.3 725.1,309.3 726.9,309.3 728.7,309.3 730.5,309.3 732.2,309.3 734.0,309.3 735.8,309.3 737.6,309.3 739.4,309.3 741.1,309.3 742.9,309.3 744.7,309.3 746.5,313.9 748.2,313.9 750.0,313.9 751.8,313.9 753.6,313.9 755.4,313.9 757.1,313.9 758.9,313.9 760.7,313.9 762.5,309.3 764.3,309.3 766.0,309.3 767.8,309.3 769.6,309.3 771.4,309.3 773.2,309.3 774.9,309.3 776.7,309.3 778.5,309.3 780.3,309.3 782.1,309.3 783.8,309.3 785.6,309.3 787.4,309.3 789.2,309.3 791.0,309.3 792.7,309.3 794.5,309.3 796.3,309.3 798.1,309.3 799.9,309.3 801.6,309.3 803.4,309.3 805.2,309.3 807.0,309.3 808.8,309.3 810.5,309.3 812.3,309.3 814.1,309.3 815.9,309.3 817.7,309.3 819.4,309.3 821.2,309.3 823.0,309.3 824.8,309.3 826.5,309.3 828.3,309.3 830.1,309.3 831.9,309.3 833.7,309.3 835.4,309.3 837.2,309.3 839.0,309.3 840.8,309.3 842.6,309.3 844.3,309.3 846.1,309.3 847.9,309.3 849.7,309.3 851.5,309.3 853.2,309.3 855.0,309.3 856.8,309.3 858.6,309.3 860.4,309.3 862.1,309.3 863.9,309.3 865.7,309.3 867.5,309.3 869.3,309.3 871.0,309.3 872.8,309.3 874.6,309.3 876.4,309.3 878.2,309.3 879.9,309.3 881.7,309.3 883.5,309.3 885.3,313.9 887.1,313.9 888.8,309.3 890.6,309.3 892.4,309.3 894.2,309.3 896.0,309.3 897.7,309.3 899.5,309.3 901.3,309.3 903.1,309.3 904.8,309.3 906.6,309.3 908.4,309.3 910.2,309.3 912.0,309.3 913.7,309.3 915.5,309.3 917.3,309.3 919.1,309.3 920.9,309.3 922.6,309.3 924.4,309.3 926.2,309.3 928.0,309.3 929.8,309.3 931.5,313.9 933.3,313.9 935.1,313.9 936.9,314.6 938.7,309.3 940.4,309.3 942.2,309.3 944.0,309.3"/>
  <circle cx="340.7" cy="32" r="3" fill="#ef4444"/>
  <circle cx="342.5" cy="32" r="3" fill="#ef4444"/>
  <circle cx="376.3" cy="32" r="3" fill="#ef4444"/>
  <circle cx="438.6" cy="32" r="3" fill="#ef4444"/>
  <circle cx="440.4" cy="32" r="3" fill="#ef4444"/>
  <circle cx="442.2" cy="32" r="3" fill="#ef4444"/>
  <circle cx="443.9" cy="32" r="3" fill="#ef4444"/>
  <circle cx="445.7" cy="32" r="3" fill="#ef4444"/>
  <rect x="710" y="28" width="220" height="62" rx="6" fill="#111827" stroke="#334155"/>
  <line x1="724" y1="48" x2="764" y2="48" stroke="#38bdf8" stroke-width="3"/><text x="772" y="52" fill="#cbd5e1" font-family="sans-serif" font-size="12">totalPromptChars</text>
  <line x1="724" y1="68" x2="764" y2="68" stroke="#22c55e" stroke-width="3"/><text x="772" y="72" fill="#cbd5e1" font-family="sans-serif" font-size="12">stablePrefixChars</text>
</svg>
