<?xml version="1.0" encoding="UTF-8"?>
<svg xmlns="http://www.w3.org/2000/svg" width="960" height="360" viewBox="0 0 960 360">
  <rect width="100%" height="100%" fill="#0f172a"/>
  <text x="56" y="18" fill="#e5e7eb" font-family="sans-serif" font-size="14">cache-friendly-prompt 推移（最新 500 件）</text>
  <line x1="56" y1="318" x2="944" y2="318" stroke="#475569"/>
  <line x1="56" y1="24" x2="56" y2="318" stroke="#475569"/>
  <text x="8" y="34" fill="#94a3b8" font-family="sans-serif" font-size="11">455149</text>
  <text x="20" y="318" fill="#94a3b8" font-family="sans-serif" font-size="11">0</text>
  <line x1="66.7" y1="24" x2="66.7" y2="318" stroke="#f59e0b" stroke-opacity="0.28"/>
  <line x1="73.8" y1="24" x2="73.8" y2="318" stroke="#f59e0b" stroke-opacity="0.28"/>
  <line x1="75.6" y1="24" x2="75.6" y2="318" stroke="#f59e0b" stroke-opacity="0.28"/>
  <line x1="77.4" y1="24" x2="77.4" y2="318" stroke="#f59e0b" stroke-opacity="0.28"/>
  <line x1="79.1" y1="24" x2="79.1" y2="318" stroke="#f59e0b" stroke-opacity="0.28"/>
  <line x1="109.4" y1="24" x2="109.4" y2="318" stroke="#f59e0b" stroke-opacity="0.28"/>
  <line x1="153.9" y1="24" x2="153.9" y2="318" stroke="#f59e0b" stroke-opacity="0.28"/>
  <line x1="187.7" y1="24" x2="187.7" y2="318" stroke="#f59e0b" stroke-opacity="0.28"/>
  <line x1="203.7" y1="24" x2="203.7" y2="318" stroke="#f59e0b" stroke-opacity="0.28"/>
  <line x1="207.3" y1="24" x2="207.3" y2="318" stroke="#f59e0b" stroke-opacity="0.28"/>
  <line x1="217.9" y1="24" x2="217.9" y2="318" stroke="#f59e0b" stroke-opacity="0.28"/>
  <line x1="226.8" y1="24" x2="226.8" y2="318" stroke="#f59e0b" stroke-opacity="0.28"/>
  <line x1="230.4" y1="24" x2="230.4" y2="318" stroke="#f59e0b" stroke-opacity="0.28"/>
  <line x1="232.2" y1="24" x2="232.2" y2="318" stroke="#f59e0b" stroke-opacity="0.28"/>
  <line x1="234.0" y1="24" x2="234.0" y2="318" stroke="#f59e0b" stroke-opacity="0.28"/>
  <line x1="235.7" y1="24" x2="235.7" y2="318" stroke="#f59e0b" stroke-opacity="0.28"/>
  <line x1="246.4" y1="24" x2="246.4" y2="318" stroke="#f59e0b" stroke-opacity="0.28"/>
  <line x1="248.2" y1="24" x2="248.2" y2="318" stroke="#f59e0b" stroke-opacity="0.28"/>
  <line x1="253.5" y1="24" x2="253.5" y2="318" stroke="#f59e0b" stroke-opacity="0.28"/>
  <line x1="255.3" y1="24" x2="255.3" y2="318" stroke="#f59e0b" stroke-opacity="0.28"/>
  <line x1="264.2" y1="24" x2="264.2" y2="318" stroke="#f59e0b" stroke-opacity="0.28"/>
  <line x1="266.0" y1="24" x2="266.0" y2="318" stroke="#f59e0b" stroke-opacity="0.28"/>
  <line x1="273.1" y1="24" x2="273.1" y2="318" stroke="#f59e0b" stroke-opacity="0.28"/>
  <line x1="274.9" y1="24" x2="274.9" y2="318" stroke="#f59e0b" stroke-opacity="0.28"/>
  <line x1="278.4" y1="24" x2="278.4" y2="318" stroke="#f59e0b" stroke-opacity="0.28"/>
  <line x1="280.2" y1="24" x2="280.2" y2="318" stroke="#f59e0b" stroke-opacity="0.28"/>
  <line x1="282.0" y1="24" x2="282.0" y2="318" stroke="#f59e0b" stroke-opacity="0.28"/>
  <line x1="283.8" y1="24" x2="283.8" y2="318" stroke="#f59e0b" stroke-opacity="0.28"/>
  <line x1="287.3" y1="24" x2="287.3" y2="318" stroke="#f59e0b" stroke-opacity="0.28"/>
  <line x1="289.1" y1="24" x2="289.1" y2="318" stroke="#f59e0b" stroke-opacity="0.28"/>
  <line x1="292.7" y1="24" x2="292.7" y2="318" stroke="#f59e0b" stroke-opacity="0.28"/>
  <line x1="294.5" y1="24" x2="294.5" y2="318" stroke="#f59e0b" stroke-opacity="0.28"/>
  <line x1="299.8" y1="24" x2="299.8" y2="318" stroke="#f59e0b" stroke-opacity="0.28"/>
  <line x1="301.6" y1="24" x2="301.6" y2="318" stroke="#f59e0b" stroke-opacity="0.28"/>
  <line x1="314.0" y1="24" x2="314.0" y2="318" stroke="#f59e0b" stroke-opacity="0.28"/>
  <line x1="376.3" y1="24" x2="376.3" y2="318" stroke="#f59e0b" stroke-opacity="0.28"/>
  <line x1="392.3" y1="24" x2="392.3" y2="318" stroke="#f59e0b" stroke-opacity="0.28"/>
  <line x1="410.1" y1="24" x2="410.1" y2="318" stroke="#f59e0b" stroke-opacity="0.28"/>
  <line x1="420.8" y1="24" x2="420.8" y2="318" stroke="#f59e0b" stroke-opacity="0.28"/>
  <line x1="451.1" y1="24" x2="451.1" y2="318" stroke="#f59e0b" stroke-opacity="0.28"/>
  <line x1="452.8" y1="24" x2="452.8" y2="318" stroke="#f59e0b" stroke-opacity="0.28"/>
  <line x1="467.1" y1="24" x2="467.1" y2="318" stroke="#f59e0b" stroke-opacity="0.28"/>
  <line x1="476.0" y1="24" x2="476.0" y2="318" stroke="#f59e0b" stroke-opacity="0.28"/>
  <line x1="479.5" y1="24" x2="479.5" y2="318" stroke="#f59e0b" stroke-opacity="0.28"/>
  <line x1="481.3" y1="24" x2="481.3" y2="318" stroke="#f59e0b" stroke-opacity="0.28"/>
  <line x1="483.1" y1="24" x2="483.1" y2="318" stroke="#f59e0b" stroke-opacity="0.28"/>
  <line x1="556.1" y1="24" x2="556.1" y2="318" stroke="#f59e0b" stroke-opacity="0.28"/>
  <line x1="604.1" y1="24" x2="604.1" y2="318" stroke="#f59e0b" stroke-opacity="0.28"/>
  <line x1="607.7" y1="24" x2="607.7" y2="318" stroke="#f59e0b" stroke-opacity="0.28"/>
  <line x1="609.4" y1="24" x2="609.4" y2="318" stroke="#f59e0b" stroke-opacity="0.28"/>
  <line x1="611.2" y1="24" x2="611.2" y2="318" stroke="#f59e0b" stroke-opacity="0.28"/>
  <line x1="613.0" y1="24" x2="613.0" y2="318" stroke="#f59e0b" stroke-opacity="0.28"/>
  <line x1="616.6" y1="24" x2="616.6" y2="318" stroke="#f59e0b" stroke-opacity="0.28"/>
  <line x1="618.3" y1="24" x2="618.3" y2="318" stroke="#f59e0b" stroke-opacity="0.28"/>
  <line x1="625.5" y1="24" x2="625.5" y2="318" stroke="#f59e0b" stroke-opacity="0.28"/>
  <line x1="627.2" y1="24" x2="627.2" y2="318" stroke="#f59e0b" stroke-opacity="0.28"/>
  <line x1="630.8" y1="24" x2="630.8" y2="318" stroke="#f59e0b" stroke-opacity="0.28"/>
  <line x1="703.8" y1="24" x2="703.8" y2="318" stroke="#f59e0b" stroke-opacity="0.28"/>
  <line x1="892.4" y1="24" x2="892.4" y2="318" stroke="#f59e0b" stroke-opacity="0.28"/>
  <line x1="915.5" y1="24" x2="915.5" y2="318" stroke="#f59e0b" stroke-opacity="0.28"/>
  <line x1="919.1" y1="24" x2="919.1" y2="318" stroke="#f59e0b" stroke-opacity="0.28"/>
  <polyline fill="none" stroke="#38bdf8" stroke-width="2" points="56.0,282.6 57.8,282.3 59.6,281.9 61.3,281.9 63.1,281.9 64.9,281.6 66.7,305.9 68.5,305.7 70.2,305.7 72.0,305.3 73.8,307.5 75.6,305.3 77.4,307.5 79.1,305.3 80.9,305.1 82.7,304.8 84.5,304.8 86.3,304.5 88.0,304.5 89.8,304.5 91.6,303.9 93.4,303.9 95.2,303.9 96.9,303.9 98.7,303.9 100.5,303.9 102.3,303.6 104.0,303.6 105.8,303.6 107.6,303.3 109.4,306.7 111.2,306.4 112.9,306.4 114.7,306.4 116.5,306.2 118.3,306.2 120.1,305.9 121.8,305.9 123.6,305.9 125.4,305.7 127.2,305.5 129.0,305.5 130.7,305.2 132.5,305.0 134.3,304.8 136.1,306.7 137.9,306.5 139.6,306.7 141.4,306.7 143.2,306.7 145.0,306.5 146.8,306.2 148.5,305.9 150.3,305.9 152.1,306.1 153.9,307.7 155.7,307.5 157.4,307.6 159.2,307.5 161.0,307.2 162.8,306.9 164.6,306.4 166.3,305.9 168.1,305.9 169.9,305.9 171.7,305.9 173.5,305.6 175.2,305.3 177.0,305.3 178.8,305.3 180.6,305.1 182.3,305.1 184.1,305.1 185.9,304.8 187.7,310.4 189.5,309.9 191.2,306.4 193.0,280.5 194.8,280.2 196.6,262.7 198.4,241.1 200.1,238.2 201.9,235.9 203.7,307.7 205.5,307.1 207.3,310.0 209.0,310.0 210.8,307.2 212.6,305.9 214.4,305.1 216.2,303.9 217.9,306.8 219.7,306.5 221.5,303.8 223.3,307.7 225.1,307.3 226.8,310.0 228.6,310.0 230.4,307.3 232.2,310.0 234.0,307.3 235.7,310.0 237.5,310.0 239.3,310.0 241.1,310.0 242.9,310.0 244.6,310.0 246.4,307.3 248.2,310.0 250.0,310.0 251.8,310.0 253.5,307.3 255.3,310.0 257.1,310.0 258.9,310.0 260.6,310.0 262.4,310.0 264.2,307.3 266.0,310.0 267.8,310.0 269.5,310.0 271.3,310.0 273.1,307.3 274.9,310.0 276.7,310.0 278.4,307.3 280.2,310.0 282.0,307.3 283.8,310.0 285.6,310.0 287.3,307.3 289.1,310.0 290.9,310.0 292.7,307.3 294.5,310.0 296.2,310.0 298.0,310.0 299.8,307.3 301.6,310.0 303.4,310.0 305.1,310.0 306.9,310.0 308.7,310.0 310.5,310.0 312.3,309.7 314.0,307.3 315.8,307.3 317.6,307.3 319.4,307.3 321.2,304.6 322.9,304.1 324.7,304.1 326.5,304.1 328.3,303.8 330.1,303.8 331.8,303.8 333.6,303.8 335.4,303.8 337.2,303.8 338.9,303.8 340.7,303.8 342.5,303.8 344.3,303.8 346.1,303.8 347.8,303.8 349.6,303.8 351.4,303.8 353.2,303.8 355.0,303.2 356.7,303.2 358.5,303.2 360.3,303.2 362.1,303.2 363.9,303.2 365.6,303.2 367.4,303.2 369.2,303.2 371.0,303.2 372.8,303.2 374.5,302.9 376.3,310.0 378.1,308.2 379.9,307.3 381.7,307.2 383.4,305.6 385.2,302.1 387.0,301.4 388.8,301.0 390.6,300.2 392.3,313.3 394.1,313.0 395.9,264.6 397.7,298.2 399.5,264.6 401.2,290.0 403.0,261.9 404.8,186.9 406.6,97.6 408.4,86.9 410.1,300.1 411.9,299.6 413.7,299.6 415.5,299.3 417.3,298.8 419.0,298.1 420.8,312.8 422.6,312.6 424.4,263.6 426.1,175.8 427.9,242.2 429.7,67.6 431.5,185.0 433.3,184.9 435.0,34.8 436.8,171.5 438.6,130.5 440.4,119.9 442.2,119.4 443.9,90.6 445.7,76.5 447.5,39.7 449.3,37.5 451.1,298.0 452.8,37.5 454.6,37.5 456.4,34.9 458.2,30.9 460.0,29.6 461.7,28.0 463.5,27.2 465.3,24.0 467.1,298.0 468.9,297.4 470.6,296.9 472.4,296.4 474.2,296.1 476.0,313.4 477.8,291.3 479.5,278.2 481.3,291.2 483.1,277.8 484.9,277.7 486.7,277.6 488.4,244.3 490.2,228.6 492.0,218.9 493.8,218.8 495.6,216.0 497.3,215.9 499.1,215.8 500.9,213.4 502.7,212.8 504.4,211.5 506.2,211.4 508.0,211.2 509.8,209.1 511.6,204.6 513.3,204.5 515.1,204.4 516.9,204.3 518.7,203.1 520.5,203.0 522.2,202.8 524.0,201.0 525.8,195.0 527.6,194.9 529.4,194.3 531.1,194.2 532.9,194.0 534.7,193.9 536.5,192.0 538.3,188.2 540.0,186.1 541.8,178.5 543.6,178.4 545.4,178.2 547.2,176.6 548.9,176.3 550.7,176.2 552.5,176.1 554.3,176.1 556.1,305.8 557.8,305.5 559.6,305.2 561.4,305.2 563.2,305.2 565.0,305.0 566.7,305.0 568.5,304.6 570.3,304.4 572.1,304.4 573.9,304.4 575.6,304.1 577.4,304.1 579.2,303.8 581.0,303.8 582.7,303.8 584.5,303.6 586.3,303.6 588.1,303.2 589.9,302.9 591.6,301.5 593.4,301.5 595.2,301.5 597.0,285.4 598.8,285.4 600.5,285.0 602.3,284.7 604.1,313.6 605.9,313.6 607.7,284.7 609.4,313.4 611.2,284.7 613.0,313.4 614.8,313.4 616.6,284.4 618.3,313.4 620.1,313.4 621.9,313.4 623.7,313.4 625.5,284.0 627.2,313.4 629.0,313.4 630.8,284.0 632.6,284.0 634.4,284.0 636.1,284.0 637.9,284.0 639.7,284.0 641.5,282.6 643.3,282.3 645.0,282.3 646.8,282.0 648.6,282.0 650.4,282.0 652.2,282.0 653.9,281.6 655.7,281.6 657.5,281.6 659.3,281.6 661.1,281.6 662.8,281.6 664.6,281.4 666.4,281.4 668.2,281.4 669.9,281.4 671.7,281.1 673.5,281.1 675.3,280.8 677.1,280.8 678.8,280.4 680.6,280.4 682.4,280.1 684.2,279.9 686.0,279.9 687.7,279.9 689.5,279.9 691.3,279.9 693.1,279.9 694.9,279.9 696.6,279.9 698.4,279.9 700.2,279.9 702.0,279.6 703.8,310.9 705.5,310.5 707.3,310.2 709.1,310.2 710.9,309.9 712.7,309.6 714.4,309.6 716.2,309.6 718.0,309.6 719.8,309.6 721.6,309.6 723.3,309.6 725.1,309.6 726.9,309.3 728.7,309.3 730.5,309.3 732.2,309.3 734.0,309.3 735.8,309.3 737.6,309.3 739.4,309.3 741.1,309.0 742.9,308.7 744.7,308.7 746.5,308.4 748.2,308.4 750.0,308.4 751.8,308.4 753.6,307.7 755.4,307.7 757.1,307.5 758.9,307.5 760.7,307.5 762.5,306.8 764.3,305.9 766.0,305.8 767.8,304.3 769.6,303.6 771.4,303.6 773.2,303.6 774.9,303.6 776.7,303.6 778.5,303.6 780.3,303.6 782.1,303.6 783.8,303.6 785.6,303.6 787.4,303.6 789.2,303.4 791.0,302.6 792.7,302.0 794.5,301.1 796.3,300.9 798.1,300.9 799.9,300.9 801.6,300.9 803.4,300.6 805.2,300.6 807.0,300.6 808.8,300.3 810.5,300.0 812.3,300.0 814.1,300.0 815.9,299.7 817.7,299.4 819.4,299.2 821.2,298.6 823.0,296.7 824.8,296.4 826.5,296.4 828.3,296.4 830.1,296.4 831.9,296.4 833.7,296.4 835.4,296.0 837.2,296.0 839.0,296.0 840.8,296.0 842.6,296.0 844.3,295.6 846.1,295.2 847.9,295.2 849.7,295.2 851.5,295.2 853.2,295.2 855.0,294.9 856.8,293.9 858.6,293.9 860.4,293.9 862.1,293.9 863.9,293.9 865.7,293.9 867.5,293.9 869.3,293.6 871.0,291.6 872.8,291.3 874.6,291.3 876.4,291.3 878.2,291.3 879.9,291.3 881.7,291.3 883.5,291.3 885.3,291.3 887.1,291.3 888.8,291.3 890.6,291.3 892.4,314.5 894.2,314.5 896.0,314.5 897.7,314.3 899.5,313.9 901.3,313.6 903.1,314.6 904.8,314.3 906.6,314.1 908.4,313.8 910.2,313.5 912.0,313.5 913.7,313.2 915.5,312.1 917.3,312.3 919.1,267.2 920.9,262.7 922.6,262.5 924.4,257.2 926.2,252.4 928.0,252.3 929.8,252.3 931.5,251.3 933.3,251.2 935.1,251.1 936.9,250.0 938.7,249.0 940.4,249.0 942.2,246.9 944.0,246.4"/>
  <polyline fill="none" stroke="#22c55e" stroke-width="2" points="56.0,307.7 57.8,307.7 59.6,307.7 61.3,307.7 63.1,307.7 64.9,307.7 66.7,306.0 68.5,306.0 70.2,306.0 72.0,306.0 73.8,307.7 75.6,306.0 77.4,307.7 79.1,306.0 80.9,306.0 82.7,306.0 84.5,306.0 86.3,306.0 88.0,306.0 89.8,306.0 91.6,306.0 93.4,306.0 95.2,306.0 96.9,306.0 98.7,306.0 100.5,306.0 102.3,306.0 104.0,306.0 105.8,306.0 107.6,306.0 109.4,307.4 111.2,307.4 112.9,307.4 114.7,307.4 116.5,307.4 118.3,307.4 120.1,307.4 121.8,307.4 123.6,307.4 125.4,307.4 127.2,307.4 129.0,307.4 130.7,307.4 132.5,307.4 134.3,307.4 136.1,307.4 137.9,307.4 139.6,307.4 141.4,307.4 143.2,307.4 145.0,307.4 146.8,307.4 148.5,307.4 150.3,307.4 152.1,307.4 153.9,307.7 155.7,307.7 157.4,307.7 159.2,307.7 161.0,307.7 162.8,307.7 164.6,307.7 166.3,307.7 168.1,307.7 169.9,307.7 171.7,307.7 173.5,307.7 175.2,307.7 177.0,307.7 178.8,307.7 180.6,307.7 182.3,307.7 184.1,307.7 185.9,307.7 187.7,311.8 189.5,311.8 191.2,311.8 193.0,311.8 194.8,311.8 196.6,311.8 198.4,311.8 200.1,311.8 201.9,311.8 203.7,307.7 205.5,307.7 207.3,311.1 209.0,311.1 210.8,311.1 212.6,311.1 214.4,311.1 216.2,311.1 217.9,307.7 219.7,307.7 221.5,307.7 223.3,307.7 225.1,307.7 226.8,311.1 228.6,311.1 230.4,307.7 232.2,311.1 234.0,307.7 235.7,311.1 237.5,311.1 239.3,311.1 241.1,311.1 242.9,311.1 244.6,311.1 246.4,307.7 248.2,311.1 250.0,311.1 251.8,311.1 253.5,307.7 255.3,311.1 257.1,311.1 258.9,311.1 260.6,311.1 262.4,311.1 264.2,307.7 266.0,311.1 267.8,311.1 269.5,311.1 271.3,311.1 273.1,307.7 274.9,311.1 276.7,311.1 278.4,307.7 280.2,311.1 282.0,307.7 283.8,311.1 285.6,311.1 287.3,307.7 289.1,311.1 290.9,311.1 292.7,307.7 294.5,311.1 296.2,311.1 298.0,311.1 299.8,307.7 301.6,311.1 303.4,311.1 305.1,311.1 306.9,311.1 308.7,311.1 310.5,311.1 312.3,311.1 314.0,307.7 315.8,307.7 317.6,307.7 319.4,307.7 321.2,307.7 322.9,307.7 324.7,307.7 326.5,307.7 328.3,307.7 330.1,307.7 331.8,307.7 333.6,307.7 335.4,307.7 337.2,307.7 338.9,307.7 340.7,307.7 342.5,307.7 344.3,307.7 346.1,307.7 347.8,307.7 349.6,307.7 351.4,307.7 353.2,307.7 355.0,307.7 356.7,307.7 358.5,307.7 360.3,307.7 362.1,307.7 363.9,307.7 365.6,307.7 367.4,307.7 369.2,307.7 371.0,307.7 372.8,307.7 374.5,307.7 376.3,310.1 378.1,310.1 379.9,310.1 381.7,310.1 383.4,310.1 385.2,310.1 387.0,310.1 388.8,310.1 390.6,310.1 392.3,313.9 394.1,313.9 395.9,313.9 397.7,313.9 399.5,313.9 401.2,313.9 403.0,313.9 404.8,313.9 406.6,313.9 408.4,313.9 410.1,310.1 411.9,310.1 413.7,310.1 415.5,310.1 417.3,310.1 419.0,310.1 420.8,313.9 422.6,313.9 424.4,313.9 426.1,313.9 427.9,313.9 429.7,313.9 431.5,313.9 433.3,313.9 435.0,313.9 436.8,313.9 438.6,313.9 440.4,313.9 442.2,313.9 443.9,313.9 445.7,313.9 447.5,313.9 449.3,313.9 451.1,310.1 452.8,313.9 454.6,313.9 456.4,313.9 458.2,313.9 460.0,313.9 461.7,313.9 463.5,313.9 465.3,313.9 467.1,310.1 468.9,310.1 470.6,310.1 472.4,310.1 474.2,310.1 476.0,313.9 477.8,313.9 479.5,310.1 481.3,313.9 483.1,310.1 484.9,310.1 486.7,310.1 488.4,310.1 490.2,310.1 492.0,310.1 493.8,310.1 495.6,310.1 497.3,310.1 499.1,310.1 500.9,310.1 502.7,310.1 504.4,310.1 506.2,310.1 508.0,310.1 509.8,310.1 511.6,310.1 513.3,310.1 515.1,310.1 516.9,310.1 518.7,310.1 520.5,310.1 522.2,310.1 524.0,310.1 525.8,310.1 527.6,310.1 529.4,310.1 531.1,310.1 532.9,310.1 534.7,310.1 536.5,310.1 538.3,310.1 540.0,310.1 541.8,310.1 543.6,310.1 545.4,310.1 547.2,310.1 548.9,310.1 550.7,310.1 552.5,310.1 554.3,310.1 556.1,310.6 557.8,310.6 559.6,310.6 561.4,310.6 563.2,310.6 565.0,310.6 566.7,310.6 568.5,310.6 570.3,310.6 572.1,310.6 573.9,310.6 575.6,310.6 577.4,310.6 579.2,310.6 581.0,310.6 582.7,310.6 584.5,310.6 586.3,310.6 588.1,310.6 589.9,310.6 591.6,310.6 593.4,310.6 595.2,310.6 597.0,310.6 598.8,310.6 600.5,310.6 602.3,310.6 604.1,313.9 605.9,313.9 607.7,310.6 609.4,313.9 611.2,310.6 613.0,313.9 614.8,313.9 616.6,310.6 618.3,313.9 620.1,313.9 621.9,313.9 623.7,313.9 625.5,310.6 627.2,313.9 629.0,313.9 630.8,310.6 632.6,310.6 634.4,310.6 636.1,310.6 637.9,310.6 639.7,310.6 641.5,310.6 643.3,310.6 645.0,310.6 646.8,310.6 648.6,310.6 650.4,310.6 652.2,310.6 653.9,310.6 655.7,310.6 657.5,310.6 659.3,310.6 661.1,310.6 662.8,310.6 664.6,310.6 666.4,310.6 668.2,310.6 669.9,310.6 671.7,310.6 673.5,310.6 675.3,310.6 677.1,310.6 678.8,310.6 680.6,310.6 682.4,310.6 684.2,310.6 686.0,310.6 687.7,310.6 689.5,310.6 691.3,310.6 693.1,310.6 694.9,310.6 696.6,310.6 698.4,310.6 700.2,310.6 702.0,310.6 703.8,310.9 705.5,310.9 707.3,310.9 709.1,310.9 710.9,310.9 712.7,310.9 714.4,310.9 716.2,310.9 718.0,310.9 719.8,310.9 721.6,310.9 723.3,310.9 725.1,310.9 726.9,310.9 728.7,310.9 730.5,310.9 732.2,310.9 734.0,310.9 735.8,310.9 737.6,310.9 739.4,310.9 741.1,310.9 742.9,310.9 744.7,310.9 746.5,310.9 748.2,310.9 750.0,310.9 751.8,310.9 753.6,310.9 755.4,310.9 757.1,310.9 758.9,310.9 760.7,310.9 762.5,310.9 764.3,310.9 766.0,310.9 767.8,310.9 769.6,310.9 771.4,310.9 773.2,310.9 774.9,310.9 776.7,310.9 778.5,310.9 780.3,310.9 782.1,310.9 783.8,310.9 785.6,310.9 787.4,310.9 789.2,310.9 791.0,310.9 792.7,310.9 794.5,310.9 796.3,310.9 798.1,310.9 799.9,310.9 801.6,310.9 803.4,310.9 805.2,310.9 807.0,310.9 808.8,310.9 810.5,310.9 812.3,310.9 814.1,310.9 815.9,310.9 817.7,310.9 819.4,310.9 821.2,310.9 823.0,310.9 824.8,310.9 826.5,310.9 828.3,310.9 830.1,310.9 831.9,310.9 833.7,310.9 835.4,310.9 837.2,310.9 839.0,310.9 840.8,310.9 842.6,310.9 844.3,310.9 846.1,310.9 847.9,310.9 849.7,310.9 851.5,310.9 853.2,310.9 855.0,310.9 856.8,310.9 858.6,310.9 860.4,310.9 862.1,310.9 863.9,310.9 865.7,310.9 867.5,310.9 869.3,310.9 871.0,310.9 872.8,310.9 874.6,310.9 876.4,310.9 878.2,310.9 879.9,310.9 881.7,310.9 883.5,310.9 885.3,310.9 887.1,310.9 888.8,310.9 890.6,310.9 892.4,314.8 894.2,314.8 896.0,314.8 897.7,314.8 899.5,314.8 901.3,314.8 903.1,314.8 904.8,314.8 906.6,314.8 908.4,314.8 910.2,314.8 912.0,314.8 913.7,314.8 915.5,315.4 917.3,315.4 919.1,310.9 920.9,310.9 922.6,310.9 924.4,310.9 926.2,310.9 928.0,310.9 929.8,310.9 931.5,310.9 933.3,310.9 935.1,310.9 936.9,310.9 938.7,310.9 940.4,310.9 942.2,310.9 944.0,310.9"/>
  <circle cx="915.5" cy="32" r="3" fill="#ef4444"/>
  <circle cx="917.3" cy="32" r="3" fill="#ef4444"/>
  <rect x="710" y="28" width="220" height="62" rx="6" fill="#111827" stroke="#334155"/>
  <line x1="724" y1="48" x2="764" y2="48" stroke="#38bdf8" stroke-width="3"/><text x="772" y="52" fill="#cbd5e1" font-family="sans-serif" font-size="12">totalPromptChars</text>
  <line x1="724" y1="68" x2="764" y2="68" stroke="#22c55e" stroke-width="3"/><text x="772" y="72" fill="#cbd5e1" font-family="sans-serif" font-size="12">stablePrefixChars</text>
</svg>
