<?xml version="1.0" encoding="UTF-8"?>
<svg xmlns="http://www.w3.org/2000/svg" width="960" height="360" viewBox="0 0 960 360">
  <rect width="100%" height="100%" fill="#0f172a"/>
  <text x="56" y="18" fill="#e5e7eb" font-family="sans-serif" font-size="14">cache-friendly-prompt 推移（最新 500 件）</text>
  <line x1="56" y1="318" x2="944" y2="318" stroke="#475569"/>
  <line x1="56" y1="24" x2="56" y2="318" stroke="#475569"/>
  <text x="8" y="34" fill="#94a3b8" font-family="sans-serif" font-size="11">387808</text>
  <text x="20" y="318" fill="#94a3b8" font-family="sans-serif" font-size="11">0</text>
  <line x1="73.8" y1="24" x2="73.8" y2="318" stroke="#f59e0b" stroke-opacity="0.28"/>
  <line x1="262.4" y1="24" x2="262.4" y2="318" stroke="#f59e0b" stroke-opacity="0.28"/>
  <line x1="285.6" y1="24" x2="285.6" y2="318" stroke="#f59e0b" stroke-opacity="0.28"/>
  <line x1="289.1" y1="24" x2="289.1" y2="318" stroke="#f59e0b" stroke-opacity="0.28"/>
  <line x1="315.8" y1="24" x2="315.8" y2="318" stroke="#f59e0b" stroke-opacity="0.28"/>
  <line x1="321.2" y1="24" x2="321.2" y2="318" stroke="#f59e0b" stroke-opacity="0.28"/>
  <line x1="322.9" y1="24" x2="322.9" y2="318" stroke="#f59e0b" stroke-opacity="0.28"/>
  <line x1="376.3" y1="24" x2="376.3" y2="318" stroke="#f59e0b" stroke-opacity="0.28"/>
  <line x1="383.4" y1="24" x2="383.4" y2="318" stroke="#f59e0b" stroke-opacity="0.28"/>
  <line x1="392.3" y1="24" x2="392.3" y2="318" stroke="#f59e0b" stroke-opacity="0.28"/>
  <line x1="497.3" y1="24" x2="497.3" y2="318" stroke="#f59e0b" stroke-opacity="0.28"/>
  <line x1="691.3" y1="24" x2="691.3" y2="318" stroke="#f59e0b" stroke-opacity="0.28"/>
  <line x1="707.3" y1="24" x2="707.3" y2="318" stroke="#f59e0b" stroke-opacity="0.28"/>
  <line x1="830.1" y1="24" x2="830.1" y2="318" stroke="#f59e0b" stroke-opacity="0.28"/>
  <line x1="833.7" y1="24" x2="833.7" y2="318" stroke="#f59e0b" stroke-opacity="0.28"/>
  <line x1="876.4" y1="24" x2="876.4" y2="318" stroke="#f59e0b" stroke-opacity="0.28"/>
  <line x1="881.7" y1="24" x2="881.7" y2="318" stroke="#f59e0b" stroke-opacity="0.28"/>
  <line x1="883.5" y1="24" x2="883.5" y2="318" stroke="#f59e0b" stroke-opacity="0.28"/>
  <line x1="903.1" y1="24" x2="903.1" y2="318" stroke="#f59e0b" stroke-opacity="0.28"/>
  <polyline fill="none" stroke="#38bdf8" stroke-width="2" points="56.0,273.2 57.8,273.2 59.6,273.2 61.3,273.2 63.1,273.2 64.9,273.2 66.7,273.2 68.5,273.2 70.2,273.2 72.0,272.9 73.8,309.6 75.6,309.3 77.4,308.8 79.1,308.8 80.9,308.4 82.7,308.1 84.5,308.1 86.3,308.1 88.0,308.1 89.8,308.1 91.6,308.1 93.4,308.1 95.2,308.1 96.9,307.7 98.7,307.7 100.5,307.7 102.3,307.7 104.0,307.7 105.8,307.7 107.6,307.7 109.4,307.7 111.2,307.4 112.9,307.1 114.7,307.1 116.5,306.8 118.3,306.8 120.1,306.8 121.8,306.8 123.6,306.0 125.4,306.0 127.2,305.7 129.0,305.7 130.7,305.7 132.5,304.8 134.3,303.9 136.1,303.7 137.9,301.9 139.6,301.1 141.4,301.1 143.2,301.1 145.0,301.1 146.8,301.1 148.5,301.1 150.3,301.1 152.1,301.1 153.9,301.1 155.7,301.1 157.4,301.1 159.2,300.8 161.0,300.0 162.8,299.3 164.6,298.2 166.3,297.9 168.1,297.9 169.9,297.9 171.7,297.9 173.5,297.6 175.2,297.6 177.0,297.6 178.8,297.2 180.6,296.8 182.3,296.8 184.1,296.8 185.9,296.5 187.7,296.2 189.5,295.9 191.2,295.2 193.0,293.0 194.8,292.7 196.6,292.7 198.4,292.7 200.1,292.7 201.9,292.7 203.7,292.7 205.5,292.2 207.3,292.2 209.0,292.2 210.8,292.2 212.6,292.2 214.4,291.7 216.2,291.3 217.9,291.3 219.7,291.3 221.5,291.3 223.3,291.3 225.1,290.8 226.8,289.7 228.6,289.7 230.4,289.7 232.2,289.7 234.0,289.7 235.7,289.7 237.5,289.7 239.3,289.3 241.1,287.0 242.9,286.7 244.6,286.7 246.4,286.7 248.2,286.7 250.0,286.7 251.8,286.7 253.5,286.7 255.3,286.7 257.1,286.7 258.9,286.7 260.6,286.7 262.4,313.9 264.2,313.9 266.0,313.9 267.8,313.6 269.5,313.2 271.3,312.9 273.1,314.0 274.9,313.7 276.7,313.4 278.4,313.1 280.2,312.7 282.0,312.7 283.8,312.4 285.6,311.1 287.3,311.3 289.1,258.3 290.9,253.1 292.7,252.8 294.5,246.7 296.2,241.1 298.0,240.9 299.8,240.9 301.6,239.7 303.4,239.6 305.1,239.5 306.9,238.2 308.7,237.1 310.5,237.1 312.3,234.6 314.0,234.0 315.8,307.1 317.6,306.8 319.4,306.5 321.2,305.5 322.9,189.2 324.7,188.1 326.5,187.3 328.3,187.2 330.1,187.1 331.8,186.9 333.6,186.0 335.4,185.9 337.2,185.8 338.9,184.9 340.7,184.7 342.5,184.3 344.3,184.2 346.1,183.9 347.8,183.8 349.6,183.6 351.4,183.4 353.2,183.2 355.0,183.1 356.7,180.7 358.5,180.6 360.3,176.9 362.1,176.7 363.9,175.5 365.6,175.3 367.4,175.0 369.2,174.9 371.0,174.7 372.8,172.3 374.5,172.1 376.3,302.2 378.1,301.9 379.9,301.9 381.7,301.5 383.4,301.9 385.2,301.6 387.0,301.6 388.8,301.0 390.6,276.8 392.3,74.8 394.1,74.7 395.9,74.6 397.7,73.7 399.5,73.3 401.2,73.1 403.0,72.4 404.8,72.3 406.6,72.2 408.4,72.2 410.1,71.6 411.9,70.0 413.7,69.8 415.5,69.7 417.3,69.6 419.0,69.4 420.8,69.4 422.6,68.7 424.4,67.3 426.1,67.1 427.9,67.0 429.7,65.9 431.5,65.8 433.3,65.8 435.0,65.4 436.8,65.0 438.6,64.9 440.4,64.6 442.2,64.3 443.9,63.8 445.7,63.4 447.5,63.1 449.3,63.0 451.1,63.0 452.8,62.7 454.6,62.2 456.4,61.1 458.2,60.9 460.0,60.8 461.7,59.8 463.5,59.3 465.3,59.2 467.1,59.0 468.9,58.9 470.6,58.7 472.4,58.6 474.2,58.5 476.0,57.4 477.8,56.5 479.5,55.8 481.3,55.7 483.1,55.6 484.9,55.5 486.7,55.5 488.4,55.4 490.2,55.4 492.0,55.0 493.8,53.1 495.6,52.8 497.3,309.3 499.1,308.7 500.9,307.5 502.7,306.1 504.4,305.2 506.2,305.2 508.0,305.0 509.8,304.7 511.6,303.5 513.3,302.5 515.1,302.5 516.9,301.8 518.7,300.7 520.5,300.5 522.2,300.3 524.0,300.1 525.8,300.0 527.6,299.9 529.4,308.2 531.1,307.9 532.9,307.9 534.7,307.6 536.5,307.2 538.3,306.9 540.0,306.6 541.8,306.6 543.6,306.6 545.4,306.3 547.2,305.9 548.9,305.9 550.7,305.9 552.5,305.6 554.3,305.6 556.1,304.8 557.8,304.5 559.6,304.1 561.4,303.6 563.2,302.9 565.0,302.5 566.7,298.9 568.5,298.6 570.3,298.2 572.1,298.2 573.9,297.8 575.6,297.8 577.4,297.8 579.2,297.8 581.0,297.5 582.7,297.5 584.5,297.5 586.3,297.5 588.1,297.2 589.9,297.2 591.6,296.8 593.4,294.1 595.2,293.7 597.0,293.7 598.8,293.4 600.5,293.0 602.3,292.6 604.1,292.6 605.9,292.2 607.7,291.9 609.4,291.5 611.2,291.2 613.0,290.8 614.8,289.9 616.6,289.9 618.3,289.9 620.1,289.9 621.9,289.9 623.7,289.9 625.5,289.9 627.2,289.6 629.0,289.3 630.8,289.3 632.6,288.5 634.4,288.2 636.1,287.9 637.9,287.9 639.7,287.9 641.5,287.6 643.3,287.6 645.0,287.6 646.8,287.6 648.6,287.6 650.4,287.6 652.2,287.6 653.9,287.6 655.7,287.6 657.5,287.6 659.3,287.6 661.1,287.6 662.8,286.6 664.6,286.6 666.4,286.3 668.2,286.3 669.9,286.3 671.7,286.3 673.5,286.3 675.3,285.2 677.1,285.2 678.8,285.2 680.6,285.2 682.4,285.2 684.2,285.2 686.0,285.2 687.7,285.2 689.5,285.2 691.3,313.5 693.1,313.1 694.9,312.8 696.6,312.5 698.4,312.5 700.2,312.2 702.0,311.8 703.8,311.8 705.5,311.5 707.3,164.9 709.1,152.1 710.9,152.0 712.7,149.2 714.4,149.1 716.2,149.0 718.0,148.8 719.8,148.0 721.6,148.0 723.3,137.2 725.1,137.1 726.9,130.6 728.7,130.5 730.5,130.3 732.2,130.2 734.0,130.1 735.8,128.7 737.6,128.3 739.4,127.1 741.1,126.9 742.9,126.8 744.7,126.2 746.5,126.0 748.2,125.5 750.0,125.2 751.8,125.1 753.6,125.0 755.4,124.4 757.1,123.7 758.9,123.0 760.7,120.3 762.5,118.5 764.3,117.6 766.0,117.5 767.8,116.6 769.6,115.9 771.4,114.7 773.2,114.7 774.9,114.6 776.7,114.3 778.5,114.1 780.3,113.1 782.1,113.1 783.8,113.0 785.6,112.6 787.4,111.8 789.2,111.6 791.0,111.3 792.7,110.7 794.5,110.6 796.3,110.5 798.1,108.4 799.9,105.7 801.6,104.3 803.4,103.8 805.2,102.9 807.0,102.0 808.8,99.2 810.5,98.6 812.3,98.4 814.1,97.0 815.9,95.3 817.7,93.4 819.4,92.2 821.2,92.0 823.0,91.7 824.8,90.8 826.5,89.6 828.3,88.1 830.1,299.0 831.9,298.6 833.7,46.3 835.4,45.7 837.2,45.3 839.0,45.1 840.8,45.0 842.6,44.9 844.3,44.8 846.1,44.7 847.9,44.6 849.7,44.5 851.5,44.5 853.2,27.6 855.0,26.6 856.8,25.8 858.6,25.5 860.4,25.4 862.1,25.1 863.9,25.1 865.7,25.0 867.5,25.0 869.3,24.9 871.0,24.5 872.8,24.2 874.6,24.0 876.4,302.3 878.2,302.0 879.9,301.7 881.7,301.6 883.5,291.6 885.3,283.2 887.1,279.3 888.8,278.6 890.6,273.6 892.4,271.3 894.2,270.6 896.0,270.6 897.7,270.4 899.5,270.4 901.3,270.4 903.1,308.1 904.8,307.0 906.6,298.3 908.4,295.8 910.2,295.8 912.0,294.5 913.7,290.7 915.5,290.3 917.3,290.3 919.1,290.0 920.9,289.6 922.6,289.3 924.4,289.2 926.2,288.8 928.0,288.6 929.8,288.6 931.5,288.5 933.3,288.1 935.1,287.5 936.9,286.9 938.7,286.6 940.4,286.2 942.2,285.8 944.0,285.5"/>
  <polyline fill="none" stroke="#22c55e" stroke-width="2" points="56.0,309.3 57.8,309.3 59.6,309.3 61.3,309.3 63.1,309.3 64.9,309.3 66.7,309.3 68.5,309.3 70.2,309.3 72.0,309.3 73.8,309.6 75.6,309.6 77.4,309.6 79.1,309.6 80.9,309.6 82.7,309.6 84.5,309.6 86.3,309.6 88.0,309.6 89.8,309.6 91.6,309.6 93.4,309.6 95.2,309.6 96.9,309.6 98.7,309.6 100.5,309.6 102.3,309.6 104.0,309.6 105.8,309.6 107.6,309.6 109.4,309.6 111.2,309.6 112.9,309.6 114.7,309.6 116.5,309.6 118.3,309.6 120.1,309.6 121.8,309.6 123.6,309.6 125.4,309.6 127.2,309.6 129.0,309.6 130.7,309.6 132.5,309.6 134.3,309.6 136.1,309.6 137.9,309.6 139.6,309.6 141.4,309.6 143.2,309.6 145.0,309.6 146.8,309.6 148.5,309.6 150.3,309.6 152.1,309.6 153.9,309.6 155.7,309.6 157.4,309.6 159.2,309.6 161.0,309.6 162.8,309.6 164.6,309.6 166.3,309.6 168.1,309.6 169.9,309.6 171.7,309.6 173.5,309.6 175.2,309.6 177.0,309.6 178.8,309.6 180.6,309.6 182.3,309.6 184.1,309.6 185.9,309.6 187.7,309.6 189.5,309.6 191.2,309.6 193.0,309.6 194.8,309.6 196.6,309.6 198.4,309.6 200.1,309.6 201.9,309.6 203.7,309.6 205.5,309.6 207.3,309.6 209.0,309.6 210.8,309.6 212.6,309.6 214.4,309.6 216.2,309.6 217.9,309.6 219.7,309.6 221.5,309.6 223.3,309.6 225.1,309.6 226.8,309.6 228.6,309.6 230.4,309.6 232.2,309.6 234.0,309.6 235.7,309.6 237.5,309.6 239.3,309.6 241.1,309.6 242.9,309.6 244.6,309.6 246.4,309.6 248.2,309.6 250.0,309.6 251.8,309.6 253.5,309.6 255.3,309.6 257.1,309.6 258.9,309.6 260.6,309.6 262.4,314.2 264.2,314.2 266.0,314.2 267.8,314.2 269.5,314.2 271.3,314.2 273.1,314.2 274.9,314.2 276.7,314.2 278.4,314.2 280.2,314.2 282.0,314.2 283.8,314.2 285.6,315.0 287.3,315.0 289.1,309.6 290.9,309.6 292.7,309.6 294.5,309.6 296.2,309.6 298.0,309.6 299.8,309.6 301.6,309.6 303.4,309.6 305.1,309.6 306.9,309.6 308.7,309.6 310.5,309.6 312.3,309.6 314.0,309.6 315.8,314.2 317.6,314.2 319.4,314.2 321.2,315.0 322.9,309.6 324.7,309.6 326.5,309.6 328.3,309.6 330.1,309.6 331.8,309.6 333.6,309.6 335.4,309.6 337.2,309.6 338.9,309.6 340.7,309.6 342.5,309.6 344.3,309.6 346.1,309.6 347.8,309.6 349.6,309.6 351.4,309.6 353.2,309.6 355.0,309.6 356.7,309.6 358.5,309.6 360.3,309.6 362.1,309.6 363.9,309.6 365.6,309.6 367.4,309.6 369.2,309.6 371.0,309.6 372.8,309.6 374.5,309.6 376.3,314.2 378.1,314.2 379.9,314.2 381.7,314.2 383.4,315.0 385.2,315.0 387.0,315.0 388.8,315.0 390.6,315.0 392.3,309.6 394.1,309.6 395.9,309.6 397.7,309.6 399.5,309.6 401.2,309.6 403.0,309.6 404.8,309.6 406.6,309.6 408.4,309.6 410.1,309.6 411.9,309.6 413.7,309.6 415.5,309.6 417.3,309.6 419.0,309.6 420.8,309.6 422.6,309.6 424.4,309.6 426.1,309.6 427.9,309.6 429.7,309.6 431.5,309.6 433.3,309.6 435.0,309.6 436.8,309.6 438.6,309.6 440.4,309.6 442.2,309.6 443.9,309.6 445.7,309.6 447.5,309.6 449.3,309.6 451.1,309.6 452.8,309.6 454.6,309.6 456.4,309.6 458.2,309.6 460.0,309.6 461.7,309.6 463.5,309.6 465.3,309.6 467.1,309.6 468.9,309.6 470.6,309.6 472.4,309.6 474.2,309.6 476.0,309.6 477.8,309.6 479.5,309.6 481.3,309.6 483.1,309.6 484.9,309.6 486.7,309.6 488.4,309.6 490.2,309.6 492.0,309.6 493.8,309.6 495.6,309.6 497.3,309.3 499.1,309.3 500.9,309.3 502.7,309.3 504.4,309.3 506.2,309.3 508.0,309.3 509.8,309.3 511.6,309.3 513.3,309.3 515.1,309.3 516.9,309.3 518.7,309.3 520.5,309.3 522.2,309.3 524.0,309.3 525.8,309.3 527.6,309.3 529.4,309.3 531.1,309.3 532.9,309.3 534.7,309.3 536.5,309.3 538.3,309.3 540.0,309.3 541.8,309.3 543.6,309.3 545.4,309.3 547.2,309.3 548.9,309.3 550.7,309.3 552.5,309.3 554.3,309.3 556.1,309.3 557.8,309.3 559.6,309.3 561.4,309.3 563.2,309.3 565.0,309.3 566.7,309.3 568.5,309.3 570.3,309.3 572.1,309.3 573.9,309.3 575.6,309.3 577.4,309.3 579.2,309.3 581.0,309.3 582.7,309.3 584.5,309.3 586.3,309.3 588.1,309.3 589.9,309.3 591.6,309.3 593.4,309.3 595.2,309.3 597.0,309.3 598.8,309.3 600.5,309.3 602.3,309.3 604.1,309.3 605.9,309.3 607.7,309.3 609.4,309.3 611.2,309.3 613.0,309.3 614.8,309.3 616.6,309.3 618.3,309.3 620.1,309.3 621.9,309.3 623.7,309.3 625.5,309.3 627.2,309.3 629.0,309.3 630.8,309.3 632.6,309.3 634.4,309.3 636.1,309.3 637.9,309.3 639.7,309.3 641.5,309.3 643.3,309.3 645.0,309.3 646.8,309.3 648.6,309.3 650.4,309.3 652.2,309.3 653.9,309.3 655.7,309.3 657.5,309.3 659.3,309.3 661.1,309.3 662.8,309.3 664.6,309.3 666.4,309.3 668.2,309.3 669.9,309.3 671.7,309.3 673.5,309.3 675.3,309.3 677.1,309.3 678.8,309.3 680.6,309.3 682.4,309.3 684.2,309.3 686.0,309.3 687.7,309.3 689.5,309.3 691.3,313.9 693.1,313.9 694.9,313.9 696.6,313.9 698.4,313.9 700.2,313.9 702.0,313.9 703.8,313.9 705.5,313.9 707.3,309.3 709.1,309.3 710.9,309.3 712.7,309.3 714.4,309.3 716.2,309.3 718.0,309.3 719.8,309.3 721.6,309.3 723.3,309.3 725.1,309.3 726.9,309.3 728.7,309.3 730.5,309.3 732.2,309.3 734.0,309.3 735.8,309.3 737.6,309.3 739.4,309.3 741.1,309.3 742.9,309.3 744.7,309.3 746.5,309.3 748.2,309.3 750.0,309.3 751.8,309.3 753.6,309.3 755.4,309.3 757.1,309.3 758.9,309.3 760.7,309.3 762.5,309.3 764.3,309.3 766.0,309.3 767.8,309.3 769.6,309.3 771.4,309.3 773.2,309.3 774.9,309.3 776.7,309.3 778.5,309.3 780.3,309.3 782.1,309.3 783.8,309.3 785.6,309.3 787.4,309.3 789.2,309.3 791.0,309.3 792.7,309.3 794.5,309.3 796.3,309.3 798.1,309.3 799.9,309.3 801.6,309.3 803.4,309.3 805.2,309.3 807.0,309.3 808.8,309.3 810.5,309.3 812.3,309.3 814.1,309.3 815.9,309.3 817.7,309.3 819.4,309.3 821.2,309.3 823.0,309.3 824.8,309.3 826.5,309.3 828.3,309.3 830.1,313.9 831.9,313.9 833.7,309.3 835.4,309.3 837.2,309.3 839.0,309.3 840.8,309.3 842.6,309.3 844.3,309.3 846.1,309.3 847.9,309.3 849.7,309.3 851.5,309.3 853.2,309.3 855.0,309.3 856.8,309.3 858.6,309.3 860.4,309.3 862.1,309.3 863.9,309.3 865.7,309.3 867.5,309.3 869.3,309.3 871.0,309.3 872.8,309.3 874.6,309.3 876.4,313.9 878.2,313.9 879.9,313.9 881.7,314.6 883.5,309.3 885.3,309.3 887.1,309.3 888.8,309.3 890.6,309.3 892.4,309.3 894.2,309.3 896.0,309.3 897.7,309.3 899.5,309.3 901.3,309.3 903.1,308.2 904.8,308.2 906.6,308.2 908.4,308.2 910.2,308.2 912.0,308.2 913.7,308.2 915.5,308.2 917.3,308.2 919.1,308.2 920.9,308.2 922.6,308.2 924.4,308.2 926.2,308.2 928.0,308.2 929.8,308.2 931.5,308.2 933.3,308.2 935.1,308.2 936.9,308.2 938.7,308.2 940.4,308.2 942.2,308.2 944.0,308.2"/>
  <circle cx="285.6" cy="32" r="3" fill="#ef4444"/>
  <circle cx="287.3" cy="32" r="3" fill="#ef4444"/>
  <circle cx="321.2" cy="32" r="3" fill="#ef4444"/>
  <circle cx="383.4" cy="32" r="3" fill="#ef4444"/>
  <circle cx="385.2" cy="32" r="3" fill="#ef4444"/>
  <circle cx="387.0" cy="32" r="3" fill="#ef4444"/>
  <circle cx="388.8" cy="32" r="3" fill="#ef4444"/>
  <circle cx="390.6" cy="32" r="3" fill="#ef4444"/>
  <rect x="710" y="28" width="220" height="62" rx="6" fill="#111827" stroke="#334155"/>
  <line x1="724" y1="48" x2="764" y2="48" stroke="#38bdf8" stroke-width="3"/><text x="772" y="52" fill="#cbd5e1" font-family="sans-serif" font-size="12">totalPromptChars</text>
  <line x1="724" y1="68" x2="764" y2="68" stroke="#22c55e" stroke-width="3"/><text x="772" y="72" fill="#cbd5e1" font-family="sans-serif" font-size="12">stablePrefixChars</text>
</svg>
