<?xml version="1.0" encoding="UTF-8"?>
<svg xmlns="http://www.w3.org/2000/svg" width="960" height="360" viewBox="0 0 960 360">
  <rect width="100%" height="100%" fill="#0f172a"/>
  <text x="56" y="18" fill="#e5e7eb" font-family="sans-serif" font-size="14">cache-friendly-prompt 推移（最新 500 件）</text>
  <line x1="56" y1="318" x2="944" y2="318" stroke="#475569"/>
  <line x1="56" y1="24" x2="56" y2="318" stroke="#475569"/>
  <text x="8" y="34" fill="#94a3b8" font-family="sans-serif" font-size="11">455149</text>
  <text x="20" y="318" fill="#94a3b8" font-family="sans-serif" font-size="11">0</text>
  <line x1="63.1" y1="24" x2="63.1" y2="318" stroke="#f59e0b" stroke-opacity="0.28"/>
  <line x1="73.8" y1="24" x2="73.8" y2="318" stroke="#f59e0b" stroke-opacity="0.28"/>
  <line x1="104.0" y1="24" x2="104.0" y2="318" stroke="#f59e0b" stroke-opacity="0.28"/>
  <line x1="105.8" y1="24" x2="105.8" y2="318" stroke="#f59e0b" stroke-opacity="0.28"/>
  <line x1="120.1" y1="24" x2="120.1" y2="318" stroke="#f59e0b" stroke-opacity="0.28"/>
  <line x1="129.0" y1="24" x2="129.0" y2="318" stroke="#f59e0b" stroke-opacity="0.28"/>
  <line x1="132.5" y1="24" x2="132.5" y2="318" stroke="#f59e0b" stroke-opacity="0.28"/>
  <line x1="134.3" y1="24" x2="134.3" y2="318" stroke="#f59e0b" stroke-opacity="0.28"/>
  <line x1="136.1" y1="24" x2="136.1" y2="318" stroke="#f59e0b" stroke-opacity="0.28"/>
  <line x1="209.0" y1="24" x2="209.0" y2="318" stroke="#f59e0b" stroke-opacity="0.28"/>
  <line x1="257.1" y1="24" x2="257.1" y2="318" stroke="#f59e0b" stroke-opacity="0.28"/>
  <line x1="260.6" y1="24" x2="260.6" y2="318" stroke="#f59e0b" stroke-opacity="0.28"/>
  <line x1="262.4" y1="24" x2="262.4" y2="318" stroke="#f59e0b" stroke-opacity="0.28"/>
  <line x1="264.2" y1="24" x2="264.2" y2="318" stroke="#f59e0b" stroke-opacity="0.28"/>
  <line x1="266.0" y1="24" x2="266.0" y2="318" stroke="#f59e0b" stroke-opacity="0.28"/>
  <line x1="269.5" y1="24" x2="269.5" y2="318" stroke="#f59e0b" stroke-opacity="0.28"/>
  <line x1="271.3" y1="24" x2="271.3" y2="318" stroke="#f59e0b" stroke-opacity="0.28"/>
  <line x1="278.4" y1="24" x2="278.4" y2="318" stroke="#f59e0b" stroke-opacity="0.28"/>
  <line x1="280.2" y1="24" x2="280.2" y2="318" stroke="#f59e0b" stroke-opacity="0.28"/>
  <line x1="283.8" y1="24" x2="283.8" y2="318" stroke="#f59e0b" stroke-opacity="0.28"/>
  <line x1="356.7" y1="24" x2="356.7" y2="318" stroke="#f59e0b" stroke-opacity="0.28"/>
  <line x1="545.4" y1="24" x2="545.4" y2="318" stroke="#f59e0b" stroke-opacity="0.28"/>
  <line x1="568.5" y1="24" x2="568.5" y2="318" stroke="#f59e0b" stroke-opacity="0.28"/>
  <line x1="572.1" y1="24" x2="572.1" y2="318" stroke="#f59e0b" stroke-opacity="0.28"/>
  <line x1="598.8" y1="24" x2="598.8" y2="318" stroke="#f59e0b" stroke-opacity="0.28"/>
  <line x1="604.1" y1="24" x2="604.1" y2="318" stroke="#f59e0b" stroke-opacity="0.28"/>
  <line x1="605.9" y1="24" x2="605.9" y2="318" stroke="#f59e0b" stroke-opacity="0.28"/>
  <line x1="659.3" y1="24" x2="659.3" y2="318" stroke="#f59e0b" stroke-opacity="0.28"/>
  <line x1="666.4" y1="24" x2="666.4" y2="318" stroke="#f59e0b" stroke-opacity="0.28"/>
  <line x1="675.3" y1="24" x2="675.3" y2="318" stroke="#f59e0b" stroke-opacity="0.28"/>
  <line x1="780.3" y1="24" x2="780.3" y2="318" stroke="#f59e0b" stroke-opacity="0.28"/>
  <polyline fill="none" stroke="#38bdf8" stroke-width="2" points="56.0,261.9 57.8,186.9 59.6,97.6 61.3,86.9 63.1,300.1 64.9,299.6 66.7,299.6 68.5,299.3 70.2,298.8 72.0,298.1 73.8,312.8 75.6,312.6 77.4,263.6 79.1,175.8 80.9,242.2 82.7,67.6 84.5,185.0 86.3,184.9 88.0,34.8 89.8,171.5 91.6,130.5 93.4,119.9 95.2,119.4 96.9,90.6 98.7,76.5 100.5,39.7 102.3,37.5 104.0,298.0 105.8,37.5 107.6,37.5 109.4,34.9 111.2,30.9 112.9,29.6 114.7,28.0 116.5,27.2 118.3,24.0 120.1,298.0 121.8,297.4 123.6,296.9 125.4,296.4 127.2,296.1 129.0,313.4 130.7,291.3 132.5,278.2 134.3,291.2 136.1,277.8 137.9,277.7 139.6,277.6 141.4,244.3 143.2,228.6 145.0,218.9 146.8,218.8 148.5,216.0 150.3,215.9 152.1,215.8 153.9,213.4 155.7,212.8 157.4,211.5 159.2,211.4 161.0,211.2 162.8,209.1 164.6,204.6 166.3,204.5 168.1,204.4 169.9,204.3 171.7,203.1 173.5,203.0 175.2,202.8 177.0,201.0 178.8,195.0 180.6,194.9 182.3,194.3 184.1,194.2 185.9,194.0 187.7,193.9 189.5,192.0 191.2,188.2 193.0,186.1 194.8,178.5 196.6,178.4 198.4,178.2 200.1,176.6 201.9,176.3 203.7,176.2 205.5,176.1 207.3,176.1 209.0,305.8 210.8,305.5 212.6,305.2 214.4,305.2 216.2,305.2 217.9,305.0 219.7,305.0 221.5,304.6 223.3,304.4 225.1,304.4 226.8,304.4 228.6,304.1 230.4,304.1 232.2,303.8 234.0,303.8 235.7,303.8 237.5,303.6 239.3,303.6 241.1,303.2 242.9,302.9 244.6,301.5 246.4,301.5 248.2,301.5 250.0,285.4 251.8,285.4 253.5,285.0 255.3,284.7 257.1,313.6 258.9,313.6 260.6,284.7 262.4,313.4 264.2,284.7 266.0,313.4 267.8,313.4 269.5,284.4 271.3,313.4 273.1,313.4 274.9,313.4 276.7,313.4 278.4,284.0 280.2,313.4 282.0,313.4 283.8,284.0 285.6,284.0 287.3,284.0 289.1,284.0 290.9,284.0 292.7,284.0 294.5,282.6 296.2,282.3 298.0,282.3 299.8,282.0 301.6,282.0 303.4,282.0 305.1,282.0 306.9,281.6 308.7,281.6 310.5,281.6 312.3,281.6 314.0,281.6 315.8,281.6 317.6,281.4 319.4,281.4 321.2,281.4 322.9,281.4 324.7,281.1 326.5,281.1 328.3,280.8 330.1,280.8 331.8,280.4 333.6,280.4 335.4,280.1 337.2,279.9 338.9,279.9 340.7,279.9 342.5,279.9 344.3,279.9 346.1,279.9 347.8,279.9 349.6,279.9 351.4,279.9 353.2,279.9 355.0,279.6 356.7,310.9 358.5,310.5 360.3,310.2 362.1,310.2 363.9,309.9 365.6,309.6 367.4,309.6 369.2,309.6 371.0,309.6 372.8,309.6 374.5,309.6 376.3,309.6 378.1,309.6 379.9,309.3 381.7,309.3 383.4,309.3 385.2,309.3 387.0,309.3 388.8,309.3 390.6,309.3 392.3,309.3 394.1,309.0 395.9,308.7 397.7,308.7 399.5,308.4 401.2,308.4 403.0,308.4 404.8,308.4 406.6,307.7 408.4,307.7 410.1,307.5 411.9,307.5 413.7,307.5 415.5,306.8 417.3,305.9 419.0,305.8 420.8,304.3 422.6,303.6 424.4,303.6 426.1,303.6 427.9,303.6 429.7,303.6 431.5,303.6 433.3,303.6 435.0,303.6 436.8,303.6 438.6,303.6 440.4,303.6 442.2,303.4 443.9,302.6 445.7,302.0 447.5,301.1 449.3,300.9 451.1,300.9 452.8,300.9 454.6,300.9 456.4,300.6 458.2,300.6 460.0,300.6 461.7,300.3 463.5,300.0 465.3,300.0 467.1,300.0 468.9,299.7 470.6,299.4 472.4,299.2 474.2,298.6 476.0,296.7 477.8,296.4 479.5,296.4 481.3,296.4 483.1,296.4 484.9,296.4 486.7,296.4 488.4,296.0 490.2,296.0 492.0,296.0 493.8,296.0 495.6,296.0 497.3,295.6 499.1,295.2 500.9,295.2 502.7,295.2 504.4,295.2 506.2,295.2 508.0,294.9 509.8,293.9 511.6,293.9 513.3,293.9 515.1,293.9 516.9,293.9 518.7,293.9 520.5,293.9 522.2,293.6 524.0,291.6 525.8,291.3 527.6,291.3 529.4,291.3 531.1,291.3 532.9,291.3 534.7,291.3 536.5,291.3 538.3,291.3 540.0,291.3 541.8,291.3 543.6,291.3 545.4,314.5 547.2,314.5 548.9,314.5 550.7,314.3 552.5,313.9 554.3,313.6 556.1,314.6 557.8,314.3 559.6,314.1 561.4,313.8 563.2,313.5 565.0,313.5 566.7,313.2 568.5,312.1 570.3,312.3 572.1,267.2 573.9,262.7 575.6,262.5 577.4,257.2 579.2,252.4 581.0,252.3 582.7,252.3 584.5,251.3 586.3,251.2 588.1,251.1 589.9,250.0 591.6,249.0 593.4,249.0 595.2,246.9 597.0,246.4 598.8,308.8 600.5,308.4 602.3,308.2 604.1,307.3 605.9,208.2 607.7,207.3 609.4,206.6 611.2,206.5 613.0,206.4 614.8,206.3 616.6,205.6 618.3,205.5 620.1,205.4 621.9,204.6 623.7,204.4 625.5,204.1 627.2,204.0 629.0,203.8 630.8,203.7 632.6,203.5 634.4,203.3 636.1,203.1 637.9,203.0 639.7,201.0 641.5,200.9 643.3,197.8 645.0,197.6 646.8,196.6 648.6,196.4 650.4,196.1 652.2,196.1 653.9,195.9 655.7,193.8 657.5,193.7 659.3,304.5 661.1,304.2 662.8,304.2 664.6,304.0 666.4,304.3 668.2,304.0 669.9,304.0 671.7,303.5 673.5,282.9 675.3,110.8 677.1,110.7 678.8,110.6 680.6,109.9 682.4,109.5 684.2,109.3 686.0,108.7 687.7,108.7 689.5,108.6 691.3,108.5 693.1,108.1 694.9,106.7 696.6,106.5 698.4,106.4 700.2,106.3 702.0,106.2 703.8,106.1 705.5,105.6 707.3,104.4 709.1,104.2 710.9,104.2 712.7,103.2 714.4,103.1 716.2,103.1 718.0,102.8 719.8,102.5 721.6,102.3 723.3,102.1 725.1,101.8 726.9,101.4 728.7,101.1 730.5,100.8 732.2,100.7 734.0,100.7 735.8,100.4 737.6,100.0 739.4,99.1 741.1,98.9 742.9,98.8 744.7,98.0 746.5,97.6 748.2,97.5 750.0,97.3 751.8,97.2 753.6,97.0 755.4,97.0 757.1,96.9 758.9,95.9 760.7,95.2 762.5,94.6 764.3,94.5 766.0,94.4 767.8,94.4 769.6,94.3 771.4,94.2 773.2,94.2 774.9,93.9 776.7,92.3 778.5,92.1 780.3,310.6 782.1,310.1 783.8,309.1 785.6,307.9 787.4,307.1 789.2,307.1 791.0,306.9 792.7,306.6 794.5,305.6 796.3,304.8 798.1,304.8 799.9,304.2 801.6,303.3 803.4,303.1 805.2,302.9 807.0,302.7 808.8,302.7 810.5,302.6 812.3,309.7 814.1,309.4 815.9,309.4 817.7,309.1 819.4,308.8 821.2,308.5 823.0,308.3 824.8,308.3 826.5,308.3 828.3,308.0 830.1,307.7 831.9,307.7 833.7,307.7 835.4,307.5 837.2,307.5 839.0,306.7 840.8,306.5 842.6,306.2 844.3,305.7 846.1,305.1 847.9,304.8 849.7,301.7 851.5,301.4 853.2,301.1 855.0,301.1 856.8,300.8 858.6,300.8 860.4,300.8 862.1,300.8 863.9,300.5 865.7,300.5 867.5,300.5 869.3,300.5 871.0,300.3 872.8,300.3 874.6,300.0 876.4,297.6 878.2,297.3 879.9,297.3 881.7,297.0 883.5,296.7 885.3,296.4 887.1,296.4 888.8,296.0 890.6,295.7 892.4,295.4 894.2,295.1 896.0,294.8 897.7,294.1 899.5,294.1 901.3,294.1 903.1,294.1 904.8,294.1 906.6,294.1 908.4,294.1 910.2,293.8 912.0,293.5 913.7,293.5 915.5,292.9 917.3,292.6 919.1,292.4 920.9,292.4 922.6,292.4 924.4,292.1 926.2,292.1 928.0,292.1 929.8,292.1 931.5,292.1 933.3,292.1 935.1,292.1 936.9,292.1 938.7,292.1 940.4,292.1 942.2,292.1 944.0,292.1"/>
  <polyline fill="none" stroke="#22c55e" stroke-width="2" points="56.0,313.9 57.8,313.9 59.6,313.9 61.3,313.9 63.1,310.1 64.9,310.1 66.7,310.1 68.5,310.1 70.2,310.1 72.0,310.1 73.8,313.9 75.6,313.9 77.4,313.9 79.1,313.9 80.9,313.9 82.7,313.9 84.5,313.9 86.3,313.9 88.0,313.9 89.8,313.9 91.6,313.9 93.4,313.9 95.2,313.9 96.9,313.9 98.7,313.9 100.5,313.9 102.3,313.9 104.0,310.1 105.8,313.9 107.6,313.9 109.4,313.9 111.2,313.9 112.9,313.9 114.7,313.9 116.5,313.9 118.3,313.9 120.1,310.1 121.8,310.1 123.6,310.1 125.4,310.1 127.2,310.1 129.0,313.9 130.7,313.9 132.5,310.1 134.3,313.9 136.1,310.1 137.9,310.1 139.6,310.1 141.4,310.1 143.2,310.1 145.0,310.1 146.8,310.1 148.5,310.1 150.3,310.1 152.1,310.1 153.9,310.1 155.7,310.1 157.4,310.1 159.2,310.1 161.0,310.1 162.8,310.1 164.6,310.1 166.3,310.1 168.1,310.1 169.9,310.1 171.7,310.1 173.5,310.1 175.2,310.1 177.0,310.1 178.8,310.1 180.6,310.1 182.3,310.1 184.1,310.1 185.9,310.1 187.7,310.1 189.5,310.1 191.2,310.1 193.0,310.1 194.8,310.1 196.6,310.1 198.4,310.1 200.1,310.1 201.9,310.1 203.7,310.1 205.5,310.1 207.3,310.1 209.0,310.6 210.8,310.6 212.6,310.6 214.4,310.6 216.2,310.6 217.9,310.6 219.7,310.6 221.5,310.6 223.3,310.6 225.1,310.6 226.8,310.6 228.6,310.6 230.4,310.6 232.2,310.6 234.0,310.6 235.7,310.6 237.5,310.6 239.3,310.6 241.1,310.6 242.9,310.6 244.6,310.6 246.4,310.6 248.2,310.6 250.0,310.6 251.8,310.6 253.5,310.6 255.3,310.6 257.1,313.9 258.9,313.9 260.6,310.6 262.4,313.9 264.2,310.6 266.0,313.9 267.8,313.9 269.5,310.6 271.3,313.9 273.1,313.9 274.9,313.9 276.7,313.9 278.4,310.6 280.2,313.9 282.0,313.9 283.8,310.6 285.6,310.6 287.3,310.6 289.1,310.6 290.9,310.6 292.7,310.6 294.5,310.6 296.2,310.6 298.0,310.6 299.8,310.6 301.6,310.6 303.4,310.6 305.1,310.6 306.9,310.6 308.7,310.6 310.5,310.6 312.3,310.6 314.0,310.6 315.8,310.6 317.6,310.6 319.4,310.6 321.2,310.6 322.9,310.6 324.7,310.6 326.5,310.6 328.3,310.6 330.1,310.6 331.8,310.6 333.6,310.6 335.4,310.6 337.2,310.6 338.9,310.6 340.7,310.6 342.5,310.6 344.3,310.6 346.1,310.6 347.8,310.6 349.6,310.6 351.4,310.6 353.2,310.6 355.0,310.6 356.7,310.9 358.5,310.9 360.3,310.9 362.1,310.9 363.9,310.9 365.6,310.9 367.4,310.9 369.2,310.9 371.0,310.9 372.8,310.9 374.5,310.9 376.3,310.9 378.1,310.9 379.9,310.9 381.7,310.9 383.4,310.9 385.2,310.9 387.0,310.9 388.8,310.9 390.6,310.9 392.3,310.9 394.1,310.9 395.9,310.9 397.7,310.9 399.5,310.9 401.2,310.9 403.0,310.9 404.8,310.9 406.6,310.9 408.4,310.9 410.1,310.9 411.9,310.9 413.7,310.9 415.5,310.9 417.3,310.9 419.0,310.9 420.8,310.9 422.6,310.9 424.4,310.9 426.1,310.9 427.9,310.9 429.7,310.9 431.5,310.9 433.3,310.9 435.0,310.9 436.8,310.9 438.6,310.9 440.4,310.9 442.2,310.9 443.9,310.9 445.7,310.9 447.5,310.9 449.3,310.9 451.1,310.9 452.8,310.9 454.6,310.9 456.4,310.9 458.2,310.9 460.0,310.9 461.7,310.9 463.5,310.9 465.3,310.9 467.1,310.9 468.9,310.9 470.6,310.9 472.4,310.9 474.2,310.9 476.0,310.9 477.8,310.9 479.5,310.9 481.3,310.9 483.1,310.9 484.9,310.9 486.7,310.9 488.4,310.9 490.2,310.9 492.0,310.9 493.8,310.9 495.6,310.9 497.3,310.9 499.1,310.9 500.9,310.9 502.7,310.9 504.4,310.9 506.2,310.9 508.0,310.9 509.8,310.9 511.6,310.9 513.3,310.9 515.1,310.9 516.9,310.9 518.7,310.9 520.5,310.9 522.2,310.9 524.0,310.9 525.8,310.9 527.6,310.9 529.4,310.9 531.1,310.9 532.9,310.9 534.7,310.9 536.5,310.9 538.3,310.9 540.0,310.9 541.8,310.9 543.6,310.9 545.4,314.8 547.2,314.8 548.9,314.8 550.7,314.8 552.5,314.8 554.3,314.8 556.1,314.8 557.8,314.8 559.6,314.8 561.4,314.8 563.2,314.8 565.0,314.8 566.7,314.8 568.5,315.4 570.3,315.4 572.1,310.9 573.9,310.9 575.6,310.9 577.4,310.9 579.2,310.9 581.0,310.9 582.7,310.9 584.5,310.9 586.3,310.9 588.1,310.9 589.9,310.9 591.6,310.9 593.4,310.9 595.2,310.9 597.0,310.9 598.8,314.8 600.5,314.8 602.3,314.8 604.1,315.4 605.9,310.9 607.7,310.9 609.4,310.9 611.2,310.9 613.0,310.9 614.8,310.9 616.6,310.9 618.3,310.9 620.1,310.9 621.9,310.9 623.7,310.9 625.5,310.9 627.2,310.9 629.0,310.9 630.8,310.9 632.6,310.9 634.4,310.9 636.1,310.9 637.9,310.9 639.7,310.9 641.5,310.9 643.3,310.9 645.0,310.9 646.8,310.9 648.6,310.9 650.4,310.9 652.2,310.9 653.9,310.9 655.7,310.9 657.5,310.9 659.3,314.8 661.1,314.8 662.8,314.8 664.6,314.8 666.4,315.4 668.2,315.4 669.9,315.4 671.7,315.4 673.5,315.4 675.3,310.9 677.1,310.9 678.8,310.9 680.6,310.9 682.4,310.9 684.2,310.9 686.0,310.9 687.7,310.9 689.5,310.9 691.3,310.9 693.1,310.9 694.9,310.9 696.6,310.9 698.4,310.9 700.2,310.9 702.0,310.9 703.8,310.9 705.5,310.9 707.3,310.9 709.1,310.9 710.9,310.9 712.7,310.9 714.4,310.9 716.2,310.9 718.0,310.9 719.8,310.9 721.6,310.9 723.3,310.9 725.1,310.9 726.9,310.9 728.7,310.9 730.5,310.9 732.2,310.9 734.0,310.9 735.8,310.9 737.6,310.9 739.4,310.9 741.1,310.9 742.9,310.9 744.7,310.9 746.5,310.9 748.2,310.9 750.0,310.9 751.8,310.9 753.6,310.9 755.4,310.9 757.1,310.9 758.9,310.9 760.7,310.9 762.5,310.9 764.3,310.9 766.0,310.9 767.8,310.9 769.6,310.9 771.4,310.9 773.2,310.9 774.9,310.9 776.7,310.9 778.5,310.9 780.3,310.6 782.1,310.6 783.8,310.6 785.6,310.6 787.4,310.6 789.2,310.6 791.0,310.6 792.7,310.6 794.5,310.6 796.3,310.6 798.1,310.6 799.9,310.6 801.6,310.6 803.4,310.6 805.2,310.6 807.0,310.6 808.8,310.6 810.5,310.6 812.3,310.6 814.1,310.6 815.9,310.6 817.7,310.6 819.4,310.6 821.2,310.6 823.0,310.6 824.8,310.6 826.5,310.6 828.3,310.6 830.1,310.6 831.9,310.6 833.7,310.6 835.4,310.6 837.2,310.6 839.0,310.6 840.8,310.6 842.6,310.6 844.3,310.6 846.1,310.6 847.9,310.6 849.7,310.6 851.5,310.6 853.2,310.6 855.0,310.6 856.8,310.6 858.6,310.6 860.4,310.6 862.1,310.6 863.9,310.6 865.7,310.6 867.5,310.6 869.3,310.6 871.0,310.6 872.8,310.6 874.6,310.6 876.4,310.6 878.2,310.6 879.9,310.6 881.7,310.6 883.5,310.6 885.3,310.6 887.1,310.6 888.8,310.6 890.6,310.6 892.4,310.6 894.2,310.6 896.0,310.6 897.7,310.6 899.5,310.6 901.3,310.6 903.1,310.6 904.8,310.6 906.6,310.6 908.4,310.6 910.2,310.6 912.0,310.6 913.7,310.6 915.5,310.6 917.3,310.6 919.1,310.6 920.9,310.6 922.6,310.6 924.4,310.6 926.2,310.6 928.0,310.6 929.8,310.6 931.5,310.6 933.3,310.6 935.1,310.6 936.9,310.6 938.7,310.6 940.4,310.6 942.2,310.6 944.0,310.6"/>
  <circle cx="568.5" cy="32" r="3" fill="#ef4444"/>
  <circle cx="570.3" cy="32" r="3" fill="#ef4444"/>
  <circle cx="604.1" cy="32" r="3" fill="#ef4444"/>
  <circle cx="666.4" cy="32" r="3" fill="#ef4444"/>
  <circle cx="668.2" cy="32" r="3" fill="#ef4444"/>
  <circle cx="669.9" cy="32" r="3" fill="#ef4444"/>
  <circle cx="671.7" cy="32" r="3" fill="#ef4444"/>
  <circle cx="673.5" cy="32" r="3" fill="#ef4444"/>
  <rect x="710" y="28" width="220" height="62" rx="6" fill="#111827" stroke="#334155"/>
  <line x1="724" y1="48" x2="764" y2="48" stroke="#38bdf8" stroke-width="3"/><text x="772" y="52" fill="#cbd5e1" font-family="sans-serif" font-size="12">totalPromptChars</text>
  <line x1="724" y1="68" x2="764" y2="68" stroke="#22c55e" stroke-width="3"/><text x="772" y="72" fill="#cbd5e1" font-family="sans-serif" font-size="12">stablePrefixChars</text>
</svg>
