<?xml version="1.0" encoding="UTF-8"?>
<svg xmlns="http://www.w3.org/2000/svg" width="960" height="360" viewBox="0 0 960 360">
  <rect width="100%" height="100%" fill="#0f172a"/>
  <text x="56" y="18" fill="#e5e7eb" font-family="sans-serif" font-size="14">cache-friendly-prompt 推移（最新 500 件）</text>
  <line x1="56" y1="318" x2="944" y2="318" stroke="#475569"/>
  <line x1="56" y1="24" x2="56" y2="318" stroke="#475569"/>
  <text x="8" y="34" fill="#94a3b8" font-family="sans-serif" font-size="11">455149</text>
  <text x="20" y="318" fill="#94a3b8" font-family="sans-serif" font-size="11">0</text>
  <line x1="72.0" y1="24" x2="72.0" y2="318" stroke="#f59e0b" stroke-opacity="0.28"/>
  <line x1="145.0" y1="24" x2="145.0" y2="318" stroke="#f59e0b" stroke-opacity="0.28"/>
  <line x1="152.1" y1="24" x2="152.1" y2="318" stroke="#f59e0b" stroke-opacity="0.28"/>
  <line x1="153.9" y1="24" x2="153.9" y2="318" stroke="#f59e0b" stroke-opacity="0.28"/>
  <line x1="155.7" y1="24" x2="155.7" y2="318" stroke="#f59e0b" stroke-opacity="0.28"/>
  <line x1="157.4" y1="24" x2="157.4" y2="318" stroke="#f59e0b" stroke-opacity="0.28"/>
  <line x1="187.7" y1="24" x2="187.7" y2="318" stroke="#f59e0b" stroke-opacity="0.28"/>
  <line x1="232.2" y1="24" x2="232.2" y2="318" stroke="#f59e0b" stroke-opacity="0.28"/>
  <line x1="266.0" y1="24" x2="266.0" y2="318" stroke="#f59e0b" stroke-opacity="0.28"/>
  <line x1="282.0" y1="24" x2="282.0" y2="318" stroke="#f59e0b" stroke-opacity="0.28"/>
  <line x1="285.6" y1="24" x2="285.6" y2="318" stroke="#f59e0b" stroke-opacity="0.28"/>
  <line x1="296.2" y1="24" x2="296.2" y2="318" stroke="#f59e0b" stroke-opacity="0.28"/>
  <line x1="305.1" y1="24" x2="305.1" y2="318" stroke="#f59e0b" stroke-opacity="0.28"/>
  <line x1="308.7" y1="24" x2="308.7" y2="318" stroke="#f59e0b" stroke-opacity="0.28"/>
  <line x1="310.5" y1="24" x2="310.5" y2="318" stroke="#f59e0b" stroke-opacity="0.28"/>
  <line x1="312.3" y1="24" x2="312.3" y2="318" stroke="#f59e0b" stroke-opacity="0.28"/>
  <line x1="314.0" y1="24" x2="314.0" y2="318" stroke="#f59e0b" stroke-opacity="0.28"/>
  <line x1="324.7" y1="24" x2="324.7" y2="318" stroke="#f59e0b" stroke-opacity="0.28"/>
  <line x1="326.5" y1="24" x2="326.5" y2="318" stroke="#f59e0b" stroke-opacity="0.28"/>
  <line x1="331.8" y1="24" x2="331.8" y2="318" stroke="#f59e0b" stroke-opacity="0.28"/>
  <line x1="333.6" y1="24" x2="333.6" y2="318" stroke="#f59e0b" stroke-opacity="0.28"/>
  <line x1="342.5" y1="24" x2="342.5" y2="318" stroke="#f59e0b" stroke-opacity="0.28"/>
  <line x1="344.3" y1="24" x2="344.3" y2="318" stroke="#f59e0b" stroke-opacity="0.28"/>
  <line x1="351.4" y1="24" x2="351.4" y2="318" stroke="#f59e0b" stroke-opacity="0.28"/>
  <line x1="353.2" y1="24" x2="353.2" y2="318" stroke="#f59e0b" stroke-opacity="0.28"/>
  <line x1="356.7" y1="24" x2="356.7" y2="318" stroke="#f59e0b" stroke-opacity="0.28"/>
  <line x1="358.5" y1="24" x2="358.5" y2="318" stroke="#f59e0b" stroke-opacity="0.28"/>
  <line x1="360.3" y1="24" x2="360.3" y2="318" stroke="#f59e0b" stroke-opacity="0.28"/>
  <line x1="362.1" y1="24" x2="362.1" y2="318" stroke="#f59e0b" stroke-opacity="0.28"/>
  <line x1="365.6" y1="24" x2="365.6" y2="318" stroke="#f59e0b" stroke-opacity="0.28"/>
  <line x1="367.4" y1="24" x2="367.4" y2="318" stroke="#f59e0b" stroke-opacity="0.28"/>
  <line x1="371.0" y1="24" x2="371.0" y2="318" stroke="#f59e0b" stroke-opacity="0.28"/>
  <line x1="372.8" y1="24" x2="372.8" y2="318" stroke="#f59e0b" stroke-opacity="0.28"/>
  <line x1="378.1" y1="24" x2="378.1" y2="318" stroke="#f59e0b" stroke-opacity="0.28"/>
  <line x1="379.9" y1="24" x2="379.9" y2="318" stroke="#f59e0b" stroke-opacity="0.28"/>
  <line x1="392.3" y1="24" x2="392.3" y2="318" stroke="#f59e0b" stroke-opacity="0.28"/>
  <line x1="454.6" y1="24" x2="454.6" y2="318" stroke="#f59e0b" stroke-opacity="0.28"/>
  <line x1="470.6" y1="24" x2="470.6" y2="318" stroke="#f59e0b" stroke-opacity="0.28"/>
  <line x1="488.4" y1="24" x2="488.4" y2="318" stroke="#f59e0b" stroke-opacity="0.28"/>
  <line x1="499.1" y1="24" x2="499.1" y2="318" stroke="#f59e0b" stroke-opacity="0.28"/>
  <line x1="529.4" y1="24" x2="529.4" y2="318" stroke="#f59e0b" stroke-opacity="0.28"/>
  <line x1="531.1" y1="24" x2="531.1" y2="318" stroke="#f59e0b" stroke-opacity="0.28"/>
  <line x1="545.4" y1="24" x2="545.4" y2="318" stroke="#f59e0b" stroke-opacity="0.28"/>
  <line x1="554.3" y1="24" x2="554.3" y2="318" stroke="#f59e0b" stroke-opacity="0.28"/>
  <line x1="557.8" y1="24" x2="557.8" y2="318" stroke="#f59e0b" stroke-opacity="0.28"/>
  <line x1="559.6" y1="24" x2="559.6" y2="318" stroke="#f59e0b" stroke-opacity="0.28"/>
  <line x1="561.4" y1="24" x2="561.4" y2="318" stroke="#f59e0b" stroke-opacity="0.28"/>
  <line x1="634.4" y1="24" x2="634.4" y2="318" stroke="#f59e0b" stroke-opacity="0.28"/>
  <line x1="682.4" y1="24" x2="682.4" y2="318" stroke="#f59e0b" stroke-opacity="0.28"/>
  <line x1="686.0" y1="24" x2="686.0" y2="318" stroke="#f59e0b" stroke-opacity="0.28"/>
  <line x1="687.7" y1="24" x2="687.7" y2="318" stroke="#f59e0b" stroke-opacity="0.28"/>
  <line x1="689.5" y1="24" x2="689.5" y2="318" stroke="#f59e0b" stroke-opacity="0.28"/>
  <line x1="691.3" y1="24" x2="691.3" y2="318" stroke="#f59e0b" stroke-opacity="0.28"/>
  <line x1="694.9" y1="24" x2="694.9" y2="318" stroke="#f59e0b" stroke-opacity="0.28"/>
  <line x1="696.6" y1="24" x2="696.6" y2="318" stroke="#f59e0b" stroke-opacity="0.28"/>
  <line x1="703.8" y1="24" x2="703.8" y2="318" stroke="#f59e0b" stroke-opacity="0.28"/>
  <line x1="705.5" y1="24" x2="705.5" y2="318" stroke="#f59e0b" stroke-opacity="0.28"/>
  <line x1="709.1" y1="24" x2="709.1" y2="318" stroke="#f59e0b" stroke-opacity="0.28"/>
  <line x1="782.1" y1="24" x2="782.1" y2="318" stroke="#f59e0b" stroke-opacity="0.28"/>
  <polyline fill="none" stroke="#38bdf8" stroke-width="2" points="56.0,299.0 57.8,299.0 59.6,298.7 61.3,298.7 63.1,298.4 64.9,298.2 66.7,298.2 68.5,298.2 70.2,298.2 72.0,307.7 73.8,299.7 75.6,285.9 77.4,307.7 79.1,307.4 80.9,307.4 82.7,307.1 84.5,307.1 86.3,306.9 88.0,306.9 89.8,306.6 91.6,306.6 93.4,306.6 95.2,306.6 96.9,306.6 98.7,306.6 100.5,306.3 102.3,306.0 104.0,305.7 105.8,305.4 107.6,304.4 109.4,303.5 111.2,303.3 112.9,303.0 114.7,302.7 116.5,302.7 118.3,302.4 120.1,301.7 121.8,301.2 123.6,300.9 125.4,300.9 127.2,300.6 129.0,300.2 130.7,283.5 132.5,282.6 134.3,282.6 136.1,282.3 137.9,281.9 139.6,281.9 141.4,281.9 143.2,281.6 145.0,305.9 146.8,305.7 148.5,305.7 150.3,305.3 152.1,307.5 153.9,305.3 155.7,307.5 157.4,305.3 159.2,305.1 161.0,304.8 162.8,304.8 164.6,304.5 166.3,304.5 168.1,304.5 169.9,303.9 171.7,303.9 173.5,303.9 175.2,303.9 177.0,303.9 178.8,303.9 180.6,303.6 182.3,303.6 184.1,303.6 185.9,303.3 187.7,306.7 189.5,306.4 191.2,306.4 193.0,306.4 194.8,306.2 196.6,306.2 198.4,305.9 200.1,305.9 201.9,305.9 203.7,305.7 205.5,305.5 207.3,305.5 209.0,305.2 210.8,305.0 212.6,304.8 214.4,306.7 216.2,306.5 217.9,306.7 219.7,306.7 221.5,306.7 223.3,306.5 225.1,306.2 226.8,305.9 228.6,305.9 230.4,306.1 232.2,307.7 234.0,307.5 235.7,307.6 237.5,307.5 239.3,307.2 241.1,306.9 242.9,306.4 244.6,305.9 246.4,305.9 248.2,305.9 250.0,305.9 251.8,305.6 253.5,305.3 255.3,305.3 257.1,305.3 258.9,305.1 260.6,305.1 262.4,305.1 264.2,304.8 266.0,310.4 267.8,309.9 269.5,306.4 271.3,280.5 273.1,280.2 274.9,262.7 276.7,241.1 278.4,238.2 280.2,235.9 282.0,307.7 283.8,307.1 285.6,310.0 287.3,310.0 289.1,307.2 290.9,305.9 292.7,305.1 294.5,303.9 296.2,306.8 298.0,306.5 299.8,303.8 301.6,307.7 303.4,307.3 305.1,310.0 306.9,310.0 308.7,307.3 310.5,310.0 312.3,307.3 314.0,310.0 315.8,310.0 317.6,310.0 319.4,310.0 321.2,310.0 322.9,310.0 324.7,307.3 326.5,310.0 328.3,310.0 330.1,310.0 331.8,307.3 333.6,310.0 335.4,310.0 337.2,310.0 338.9,310.0 340.7,310.0 342.5,307.3 344.3,310.0 346.1,310.0 347.8,310.0 349.6,310.0 351.4,307.3 353.2,310.0 355.0,310.0 356.7,307.3 358.5,310.0 360.3,307.3 362.1,310.0 363.9,310.0 365.6,307.3 367.4,310.0 369.2,310.0 371.0,307.3 372.8,310.0 374.5,310.0 376.3,310.0 378.1,307.3 379.9,310.0 381.7,310.0 383.4,310.0 385.2,310.0 387.0,310.0 388.8,310.0 390.6,309.7 392.3,307.3 394.1,307.3 395.9,307.3 397.7,307.3 399.5,304.6 401.2,304.1 403.0,304.1 404.8,304.1 406.6,303.8 408.4,303.8 410.1,303.8 411.9,303.8 413.7,303.8 415.5,303.8 417.3,303.8 419.0,303.8 420.8,303.8 422.6,303.8 424.4,303.8 426.1,303.8 427.9,303.8 429.7,303.8 431.5,303.8 433.3,303.2 435.0,303.2 436.8,303.2 438.6,303.2 440.4,303.2 442.2,303.2 443.9,303.2 445.7,303.2 447.5,303.2 449.3,303.2 451.1,303.2 452.8,302.9 454.6,310.0 456.4,308.2 458.2,307.3 460.0,307.2 461.7,305.6 463.5,302.1 465.3,301.4 467.1,301.0 468.9,300.2 470.6,313.3 472.4,313.0 474.2,264.6 476.0,298.2 477.8,264.6 479.5,290.0 481.3,261.9 483.1,186.9 484.9,97.6 486.7,86.9 488.4,300.1 490.2,299.6 492.0,299.6 493.8,299.3 495.6,298.8 497.3,298.1 499.1,312.8 500.9,312.6 502.7,263.6 504.4,175.8 506.2,242.2 508.0,67.6 509.8,185.0 511.6,184.9 513.3,34.8 515.1,171.5 516.9,130.5 518.7,119.9 520.5,119.4 522.2,90.6 524.0,76.5 525.8,39.7 527.6,37.5 529.4,298.0 531.1,37.5 532.9,37.5 534.7,34.9 536.5,30.9 538.3,29.6 540.0,28.0 541.8,27.2 543.6,24.0 545.4,298.0 547.2,297.4 548.9,296.9 550.7,296.4 552.5,296.1 554.3,313.4 556.1,291.3 557.8,278.2 559.6,291.2 561.4,277.8 563.2,277.7 565.0,277.6 566.7,244.3 568.5,228.6 570.3,218.9 572.1,218.8 573.9,216.0 575.6,215.9 577.4,215.8 579.2,213.4 581.0,212.8 582.7,211.5 584.5,211.4 586.3,211.2 588.1,209.1 589.9,204.6 591.6,204.5 593.4,204.4 595.2,204.3 597.0,203.1 598.8,203.0 600.5,202.8 602.3,201.0 604.1,195.0 605.9,194.9 607.7,194.3 609.4,194.2 611.2,194.0 613.0,193.9 614.8,192.0 616.6,188.2 618.3,186.1 620.1,178.5 621.9,178.4 623.7,178.2 625.5,176.6 627.2,176.3 629.0,176.2 630.8,176.1 632.6,176.1 634.4,305.8 636.1,305.5 637.9,305.2 639.7,305.2 641.5,305.2 643.3,305.0 645.0,305.0 646.8,304.6 648.6,304.4 650.4,304.4 652.2,304.4 653.9,304.1 655.7,304.1 657.5,303.8 659.3,303.8 661.1,303.8 662.8,303.6 664.6,303.6 666.4,303.2 668.2,302.9 669.9,301.5 671.7,301.5 673.5,301.5 675.3,285.4 677.1,285.4 678.8,285.0 680.6,284.7 682.4,313.6 684.2,313.6 686.0,284.7 687.7,313.4 689.5,284.7 691.3,313.4 693.1,313.4 694.9,284.4 696.6,313.4 698.4,313.4 700.2,313.4 702.0,313.4 703.8,284.0 705.5,313.4 707.3,313.4 709.1,284.0 710.9,284.0 712.7,284.0 714.4,284.0 716.2,284.0 718.0,284.0 719.8,282.6 721.6,282.3 723.3,282.3 725.1,282.0 726.9,282.0 728.7,282.0 730.5,282.0 732.2,281.6 734.0,281.6 735.8,281.6 737.6,281.6 739.4,281.6 741.1,281.6 742.9,281.4 744.7,281.4 746.5,281.4 748.2,281.4 750.0,281.1 751.8,281.1 753.6,280.8 755.4,280.8 757.1,280.4 758.9,280.4 760.7,280.1 762.5,279.9 764.3,279.9 766.0,279.9 767.8,279.9 769.6,279.9 771.4,279.9 773.2,279.9 774.9,279.9 776.7,279.9 778.5,279.9 780.3,279.6 782.1,310.9 783.8,310.5 785.6,310.2 787.4,310.2 789.2,309.9 791.0,309.6 792.7,309.6 794.5,309.6 796.3,309.6 798.1,309.6 799.9,309.6 801.6,309.6 803.4,309.6 805.2,309.3 807.0,309.3 808.8,309.3 810.5,309.3 812.3,309.3 814.1,309.3 815.9,309.3 817.7,309.3 819.4,309.0 821.2,308.7 823.0,308.7 824.8,308.4 826.5,308.4 828.3,308.4 830.1,308.4 831.9,307.7 833.7,307.7 835.4,307.5 837.2,307.5 839.0,307.5 840.8,306.8 842.6,305.9 844.3,305.8 846.1,304.3 847.9,303.6 849.7,303.6 851.5,303.6 853.2,303.6 855.0,303.6 856.8,303.6 858.6,303.6 860.4,303.6 862.1,303.6 863.9,303.6 865.7,303.6 867.5,303.4 869.3,302.6 871.0,302.0 872.8,301.1 874.6,300.9 876.4,300.9 878.2,300.9 879.9,300.9 881.7,300.6 883.5,300.6 885.3,300.6 887.1,300.3 888.8,300.0 890.6,300.0 892.4,300.0 894.2,299.7 896.0,299.4 897.7,299.2 899.5,298.6 901.3,296.7 903.1,296.4 904.8,296.4 906.6,296.4 908.4,296.4 910.2,296.4 912.0,296.4 913.7,296.0 915.5,296.0 917.3,296.0 919.1,296.0 920.9,296.0 922.6,295.6 924.4,295.2 926.2,295.2 928.0,295.2 929.8,295.2 931.5,295.2 933.3,294.9 935.1,293.9 936.9,293.9 938.7,293.9 940.4,293.9 942.2,293.9 944.0,293.9"/>
  <polyline fill="none" stroke="#22c55e" stroke-width="2" points="56.0,308.4 57.8,308.4 59.6,308.4 61.3,308.4 63.1,308.4 64.9,308.4 66.7,308.4 68.5,308.4 70.2,308.4 72.0,307.7 73.8,307.7 75.6,307.7 77.4,307.7 79.1,307.7 80.9,307.7 82.7,307.7 84.5,307.7 86.3,307.7 88.0,307.7 89.8,307.7 91.6,307.7 93.4,307.7 95.2,307.7 96.9,307.7 98.7,307.7 100.5,307.7 102.3,307.7 104.0,307.7 105.8,307.7 107.6,307.7 109.4,307.7 111.2,307.7 112.9,307.7 114.7,307.7 116.5,307.7 118.3,307.7 120.1,307.7 121.8,307.7 123.6,307.7 125.4,307.7 127.2,307.7 129.0,307.7 130.7,307.7 132.5,307.7 134.3,307.7 136.1,307.7 137.9,307.7 139.6,307.7 141.4,307.7 143.2,307.7 145.0,306.0 146.8,306.0 148.5,306.0 150.3,306.0 152.1,307.7 153.9,306.0 155.7,307.7 157.4,306.0 159.2,306.0 161.0,306.0 162.8,306.0 164.6,306.0 166.3,306.0 168.1,306.0 169.9,306.0 171.7,306.0 173.5,306.0 175.2,306.0 177.0,306.0 178.8,306.0 180.6,306.0 182.3,306.0 184.1,306.0 185.9,306.0 187.7,307.4 189.5,307.4 191.2,307.4 193.0,307.4 194.8,307.4 196.6,307.4 198.4,307.4 200.1,307.4 201.9,307.4 203.7,307.4 205.5,307.4 207.3,307.4 209.0,307.4 210.8,307.4 212.6,307.4 214.4,307.4 216.2,307.4 217.9,307.4 219.7,307.4 221.5,307.4 223.3,307.4 225.1,307.4 226.8,307.4 228.6,307.4 230.4,307.4 232.2,307.7 234.0,307.7 235.7,307.7 237.5,307.7 239.3,307.7 241.1,307.7 242.9,307.7 244.6,307.7 246.4,307.7 248.2,307.7 250.0,307.7 251.8,307.7 253.5,307.7 255.3,307.7 257.1,307.7 258.9,307.7 260.6,307.7 262.4,307.7 264.2,307.7 266.0,311.8 267.8,311.8 269.5,311.8 271.3,311.8 273.1,311.8 274.9,311.8 276.7,311.8 278.4,311.8 280.2,311.8 282.0,307.7 283.8,307.7 285.6,311.1 287.3,311.1 289.1,311.1 290.9,311.1 292.7,311.1 294.5,311.1 296.2,307.7 298.0,307.7 299.8,307.7 301.6,307.7 303.4,307.7 305.1,311.1 306.9,311.1 308.7,307.7 310.5,311.1 312.3,307.7 314.0,311.1 315.8,311.1 317.6,311.1 319.4,311.1 321.2,311.1 322.9,311.1 324.7,307.7 326.5,311.1 328.3,311.1 330.1,311.1 331.8,307.7 333.6,311.1 335.4,311.1 337.2,311.1 338.9,311.1 340.7,311.1 342.5,307.7 344.3,311.1 346.1,311.1 347.8,311.1 349.6,311.1 351.4,307.7 353.2,311.1 355.0,311.1 356.7,307.7 358.5,311.1 360.3,307.7 362.1,311.1 363.9,311.1 365.6,307.7 367.4,311.1 369.2,311.1 371.0,307.7 372.8,311.1 374.5,311.1 376.3,311.1 378.1,307.7 379.9,311.1 381.7,311.1 383.4,311.1 385.2,311.1 387.0,311.1 388.8,311.1 390.6,311.1 392.3,307.7 394.1,307.7 395.9,307.7 397.7,307.7 399.5,307.7 401.2,307.7 403.0,307.7 404.8,307.7 406.6,307.7 408.4,307.7 410.1,307.7 411.9,307.7 413.7,307.7 415.5,307.7 417.3,307.7 419.0,307.7 420.8,307.7 422.6,307.7 424.4,307.7 426.1,307.7 427.9,307.7 429.7,307.7 431.5,307.7 433.3,307.7 435.0,307.7 436.8,307.7 438.6,307.7 440.4,307.7 442.2,307.7 443.9,307.7 445.7,307.7 447.5,307.7 449.3,307.7 451.1,307.7 452.8,307.7 454.6,310.1 456.4,310.1 458.2,310.1 460.0,310.1 461.7,310.1 463.5,310.1 465.3,310.1 467.1,310.1 468.9,310.1 470.6,313.9 472.4,313.9 474.2,313.9 476.0,313.9 477.8,313.9 479.5,313.9 481.3,313.9 483.1,313.9 484.9,313.9 486.7,313.9 488.4,310.1 490.2,310.1 492.0,310.1 493.8,310.1 495.6,310.1 497.3,310.1 499.1,313.9 500.9,313.9 502.7,313.9 504.4,313.9 506.2,313.9 508.0,313.9 509.8,313.9 511.6,313.9 513.3,313.9 515.1,313.9 516.9,313.9 518.7,313.9 520.5,313.9 522.2,313.9 524.0,313.9 525.8,313.9 527.6,313.9 529.4,310.1 531.1,313.9 532.9,313.9 534.7,313.9 536.5,313.9 538.3,313.9 540.0,313.9 541.8,313.9 543.6,313.9 545.4,310.1 547.2,310.1 548.9,310.1 550.7,310.1 552.5,310.1 554.3,313.9 556.1,313.9 557.8,310.1 559.6,313.9 561.4,310.1 563.2,310.1 565.0,310.1 566.7,310.1 568.5,310.1 570.3,310.1 572.1,310.1 573.9,310.1 575.6,310.1 577.4,310.1 579.2,310.1 581.0,310.1 582.7,310.1 584.5,310.1 586.3,310.1 588.1,310.1 589.9,310.1 591.6,310.1 593.4,310.1 595.2,310.1 597.0,310.1 598.8,310.1 600.5,310.1 602.3,310.1 604.1,310.1 605.9,310.1 607.7,310.1 609.4,310.1 611.2,310.1 613.0,310.1 614.8,310.1 616.6,310.1 618.3,310.1 620.1,310.1 621.9,310.1 623.7,310.1 625.5,310.1 627.2,310.1 629.0,310.1 630.8,310.1 632.6,310.1 634.4,310.6 636.1,310.6 637.9,310.6 639.7,310.6 641.5,310.6 643.3,310.6 645.0,310.6 646.8,310.6 648.6,310.6 650.4,310.6 652.2,310.6 653.9,310.6 655.7,310.6 657.5,310.6 659.3,310.6 661.1,310.6 662.8,310.6 664.6,310.6 666.4,310.6 668.2,310.6 669.9,310.6 671.7,310.6 673.5,310.6 675.3,310.6 677.1,310.6 678.8,310.6 680.6,310.6 682.4,313.9 684.2,313.9 686.0,310.6 687.7,313.9 689.5,310.6 691.3,313.9 693.1,313.9 694.9,310.6 696.6,313.9 698.4,313.9 700.2,313.9 702.0,313.9 703.8,310.6 705.5,313.9 707.3,313.9 709.1,310.6 710.9,310.6 712.7,310.6 714.4,310.6 716.2,310.6 718.0,310.6 719.8,310.6 721.6,310.6 723.3,310.6 725.1,310.6 726.9,310.6 728.7,310.6 730.5,310.6 732.2,310.6 734.0,310.6 735.8,310.6 737.6,310.6 739.4,310.6 741.1,310.6 742.9,310.6 744.7,310.6 746.5,310.6 748.2,310.6 750.0,310.6 751.8,310.6 753.6,310.6 755.4,310.6 757.1,310.6 758.9,310.6 760.7,310.6 762.5,310.6 764.3,310.6 766.0,310.6 767.8,310.6 769.6,310.6 771.4,310.6 773.2,310.6 774.9,310.6 776.7,310.6 778.5,310.6 780.3,310.6 782.1,310.9 783.8,310.9 785.6,310.9 787.4,310.9 789.2,310.9 791.0,310.9 792.7,310.9 794.5,310.9 796.3,310.9 798.1,310.9 799.9,310.9 801.6,310.9 803.4,310.9 805.2,310.9 807.0,310.9 808.8,310.9 810.5,310.9 812.3,310.9 814.1,310.9 815.9,310.9 817.7,310.9 819.4,310.9 821.2,310.9 823.0,310.9 824.8,310.9 826.5,310.9 828.3,310.9 830.1,310.9 831.9,310.9 833.7,310.9 835.4,310.9 837.2,310.9 839.0,310.9 840.8,310.9 842.6,310.9 844.3,310.9 846.1,310.9 847.9,310.9 849.7,310.9 851.5,310.9 853.2,310.9 855.0,310.9 856.8,310.9 858.6,310.9 860.4,310.9 862.1,310.9 863.9,310.9 865.7,310.9 867.5,310.9 869.3,310.9 871.0,310.9 872.8,310.9 874.6,310.9 876.4,310.9 878.2,310.9 879.9,310.9 881.7,310.9 883.5,310.9 885.3,310.9 887.1,310.9 888.8,310.9 890.6,310.9 892.4,310.9 894.2,310.9 896.0,310.9 897.7,310.9 899.5,310.9 901.3,310.9 903.1,310.9 904.8,310.9 906.6,310.9 908.4,310.9 910.2,310.9 912.0,310.9 913.7,310.9 915.5,310.9 917.3,310.9 919.1,310.9 920.9,310.9 922.6,310.9 924.4,310.9 926.2,310.9 928.0,310.9 929.8,310.9 931.5,310.9 933.3,310.9 935.1,310.9 936.9,310.9 938.7,310.9 940.4,310.9 942.2,310.9 944.0,310.9"/>
  
  <rect x="710" y="28" width="220" height="62" rx="6" fill="#111827" stroke="#334155"/>
  <line x1="724" y1="48" x2="764" y2="48" stroke="#38bdf8" stroke-width="3"/><text x="772" y="52" fill="#cbd5e1" font-family="sans-serif" font-size="12">totalPromptChars</text>
  <line x1="724" y1="68" x2="764" y2="68" stroke="#22c55e" stroke-width="3"/><text x="772" y="72" fill="#cbd5e1" font-family="sans-serif" font-size="12">stablePrefixChars</text>
</svg>
