<?xml version="1.0" encoding="UTF-8"?>
<svg xmlns="http://www.w3.org/2000/svg" width="960" height="360" viewBox="0 0 960 360">
  <rect width="100%" height="100%" fill="#0f172a"/>
  <text x="56" y="18" fill="#e5e7eb" font-family="sans-serif" font-size="14">cache-friendly-prompt 推移（最新 500 件）</text>
  <line x1="56" y1="318" x2="944" y2="318" stroke="#475569"/>
  <line x1="56" y1="24" x2="56" y2="318" stroke="#475569"/>
  <text x="8" y="34" fill="#94a3b8" font-family="sans-serif" font-size="11">387808</text>
  <text x="20" y="318" fill="#94a3b8" font-family="sans-serif" font-size="11">0</text>
  <line x1="68.5" y1="24" x2="68.5" y2="318" stroke="#f59e0b" stroke-opacity="0.28"/>
  <line x1="257.1" y1="24" x2="257.1" y2="318" stroke="#f59e0b" stroke-opacity="0.28"/>
  <line x1="280.2" y1="24" x2="280.2" y2="318" stroke="#f59e0b" stroke-opacity="0.28"/>
  <line x1="283.8" y1="24" x2="283.8" y2="318" stroke="#f59e0b" stroke-opacity="0.28"/>
  <line x1="310.5" y1="24" x2="310.5" y2="318" stroke="#f59e0b" stroke-opacity="0.28"/>
  <line x1="315.8" y1="24" x2="315.8" y2="318" stroke="#f59e0b" stroke-opacity="0.28"/>
  <line x1="317.6" y1="24" x2="317.6" y2="318" stroke="#f59e0b" stroke-opacity="0.28"/>
  <line x1="371.0" y1="24" x2="371.0" y2="318" stroke="#f59e0b" stroke-opacity="0.28"/>
  <line x1="378.1" y1="24" x2="378.1" y2="318" stroke="#f59e0b" stroke-opacity="0.28"/>
  <line x1="387.0" y1="24" x2="387.0" y2="318" stroke="#f59e0b" stroke-opacity="0.28"/>
  <line x1="492.0" y1="24" x2="492.0" y2="318" stroke="#f59e0b" stroke-opacity="0.28"/>
  <line x1="686.0" y1="24" x2="686.0" y2="318" stroke="#f59e0b" stroke-opacity="0.28"/>
  <line x1="702.0" y1="24" x2="702.0" y2="318" stroke="#f59e0b" stroke-opacity="0.28"/>
  <line x1="824.8" y1="24" x2="824.8" y2="318" stroke="#f59e0b" stroke-opacity="0.28"/>
  <line x1="828.3" y1="24" x2="828.3" y2="318" stroke="#f59e0b" stroke-opacity="0.28"/>
  <line x1="871.0" y1="24" x2="871.0" y2="318" stroke="#f59e0b" stroke-opacity="0.28"/>
  <line x1="876.4" y1="24" x2="876.4" y2="318" stroke="#f59e0b" stroke-opacity="0.28"/>
  <line x1="878.2" y1="24" x2="878.2" y2="318" stroke="#f59e0b" stroke-opacity="0.28"/>
  <line x1="897.7" y1="24" x2="897.7" y2="318" stroke="#f59e0b" stroke-opacity="0.28"/>
  <polyline fill="none" stroke="#38bdf8" stroke-width="2" points="56.0,273.2 57.8,273.2 59.6,273.2 61.3,273.2 63.1,273.2 64.9,273.2 66.7,272.9 68.5,309.6 70.2,309.3 72.0,308.8 73.8,308.8 75.6,308.4 77.4,308.1 79.1,308.1 80.9,308.1 82.7,308.1 84.5,308.1 86.3,308.1 88.0,308.1 89.8,308.1 91.6,307.7 93.4,307.7 95.2,307.7 96.9,307.7 98.7,307.7 100.5,307.7 102.3,307.7 104.0,307.7 105.8,307.4 107.6,307.1 109.4,307.1 111.2,306.8 112.9,306.8 114.7,306.8 116.5,306.8 118.3,306.0 120.1,306.0 121.8,305.7 123.6,305.7 125.4,305.7 127.2,304.8 129.0,303.9 130.7,303.7 132.5,301.9 134.3,301.1 136.1,301.1 137.9,301.1 139.6,301.1 141.4,301.1 143.2,301.1 145.0,301.1 146.8,301.1 148.5,301.1 150.3,301.1 152.1,301.1 153.9,300.8 155.7,300.0 157.4,299.3 159.2,298.2 161.0,297.9 162.8,297.9 164.6,297.9 166.3,297.9 168.1,297.6 169.9,297.6 171.7,297.6 173.5,297.2 175.2,296.8 177.0,296.8 178.8,296.8 180.6,296.5 182.3,296.2 184.1,295.9 185.9,295.2 187.7,293.0 189.5,292.7 191.2,292.7 193.0,292.7 194.8,292.7 196.6,292.7 198.4,292.7 200.1,292.2 201.9,292.2 203.7,292.2 205.5,292.2 207.3,292.2 209.0,291.7 210.8,291.3 212.6,291.3 214.4,291.3 216.2,291.3 217.9,291.3 219.7,290.8 221.5,289.7 223.3,289.7 225.1,289.7 226.8,289.7 228.6,289.7 230.4,289.7 232.2,289.7 234.0,289.3 235.7,287.0 237.5,286.7 239.3,286.7 241.1,286.7 242.9,286.7 244.6,286.7 246.4,286.7 248.2,286.7 250.0,286.7 251.8,286.7 253.5,286.7 255.3,286.7 257.1,313.9 258.9,313.9 260.6,313.9 262.4,313.6 264.2,313.2 266.0,312.9 267.8,314.0 269.5,313.7 271.3,313.4 273.1,313.1 274.9,312.7 276.7,312.7 278.4,312.4 280.2,311.1 282.0,311.3 283.8,258.3 285.6,253.1 287.3,252.8 289.1,246.7 290.9,241.1 292.7,240.9 294.5,240.9 296.2,239.7 298.0,239.6 299.8,239.5 301.6,238.2 303.4,237.1 305.1,237.1 306.9,234.6 308.7,234.0 310.5,307.1 312.3,306.8 314.0,306.5 315.8,305.5 317.6,189.2 319.4,188.1 321.2,187.3 322.9,187.2 324.7,187.1 326.5,186.9 328.3,186.0 330.1,185.9 331.8,185.8 333.6,184.9 335.4,184.7 337.2,184.3 338.9,184.2 340.7,183.9 342.5,183.8 344.3,183.6 346.1,183.4 347.8,183.2 349.6,183.1 351.4,180.7 353.2,180.6 355.0,176.9 356.7,176.7 358.5,175.5 360.3,175.3 362.1,175.0 363.9,174.9 365.6,174.7 367.4,172.3 369.2,172.1 371.0,302.2 372.8,301.9 374.5,301.9 376.3,301.5 378.1,301.9 379.9,301.6 381.7,301.6 383.4,301.0 385.2,276.8 387.0,74.8 388.8,74.7 390.6,74.6 392.3,73.7 394.1,73.3 395.9,73.1 397.7,72.4 399.5,72.3 401.2,72.2 403.0,72.2 404.8,71.6 406.6,70.0 408.4,69.8 410.1,69.7 411.9,69.6 413.7,69.4 415.5,69.4 417.3,68.7 419.0,67.3 420.8,67.1 422.6,67.0 424.4,65.9 426.1,65.8 427.9,65.8 429.7,65.4 431.5,65.0 433.3,64.9 435.0,64.6 436.8,64.3 438.6,63.8 440.4,63.4 442.2,63.1 443.9,63.0 445.7,63.0 447.5,62.7 449.3,62.2 451.1,61.1 452.8,60.9 454.6,60.8 456.4,59.8 458.2,59.3 460.0,59.2 461.7,59.0 463.5,58.9 465.3,58.7 467.1,58.6 468.9,58.5 470.6,57.4 472.4,56.5 474.2,55.8 476.0,55.7 477.8,55.6 479.5,55.5 481.3,55.5 483.1,55.4 484.9,55.4 486.7,55.0 488.4,53.1 490.2,52.8 492.0,309.3 493.8,308.7 495.6,307.5 497.3,306.1 499.1,305.2 500.9,305.2 502.7,305.0 504.4,304.7 506.2,303.5 508.0,302.5 509.8,302.5 511.6,301.8 513.3,300.7 515.1,300.5 516.9,300.3 518.7,300.1 520.5,300.0 522.2,299.9 524.0,308.2 525.8,307.9 527.6,307.9 529.4,307.6 531.1,307.2 532.9,306.9 534.7,306.6 536.5,306.6 538.3,306.6 540.0,306.3 541.8,305.9 543.6,305.9 545.4,305.9 547.2,305.6 548.9,305.6 550.7,304.8 552.5,304.5 554.3,304.1 556.1,303.6 557.8,302.9 559.6,302.5 561.4,298.9 563.2,298.6 565.0,298.2 566.7,298.2 568.5,297.8 570.3,297.8 572.1,297.8 573.9,297.8 575.6,297.5 577.4,297.5 579.2,297.5 581.0,297.5 582.7,297.2 584.5,297.2 586.3,296.8 588.1,294.1 589.9,293.7 591.6,293.7 593.4,293.4 595.2,293.0 597.0,292.6 598.8,292.6 600.5,292.2 602.3,291.9 604.1,291.5 605.9,291.2 607.7,290.8 609.4,289.9 611.2,289.9 613.0,289.9 614.8,289.9 616.6,289.9 618.3,289.9 620.1,289.9 621.9,289.6 623.7,289.3 625.5,289.3 627.2,288.5 629.0,288.2 630.8,287.9 632.6,287.9 634.4,287.9 636.1,287.6 637.9,287.6 639.7,287.6 641.5,287.6 643.3,287.6 645.0,287.6 646.8,287.6 648.6,287.6 650.4,287.6 652.2,287.6 653.9,287.6 655.7,287.6 657.5,286.6 659.3,286.6 661.1,286.3 662.8,286.3 664.6,286.3 666.4,286.3 668.2,286.3 669.9,285.2 671.7,285.2 673.5,285.2 675.3,285.2 677.1,285.2 678.8,285.2 680.6,285.2 682.4,285.2 684.2,285.2 686.0,313.5 687.7,313.1 689.5,312.8 691.3,312.5 693.1,312.5 694.9,312.2 696.6,311.8 698.4,311.8 700.2,311.5 702.0,164.9 703.8,152.1 705.5,152.0 707.3,149.2 709.1,149.1 710.9,149.0 712.7,148.8 714.4,148.0 716.2,148.0 718.0,137.2 719.8,137.1 721.6,130.6 723.3,130.5 725.1,130.3 726.9,130.2 728.7,130.1 730.5,128.7 732.2,128.3 734.0,127.1 735.8,126.9 737.6,126.8 739.4,126.2 741.1,126.0 742.9,125.5 744.7,125.2 746.5,125.1 748.2,125.0 750.0,124.4 751.8,123.7 753.6,123.0 755.4,120.3 757.1,118.5 758.9,117.6 760.7,117.5 762.5,116.6 764.3,115.9 766.0,114.7 767.8,114.7 769.6,114.6 771.4,114.3 773.2,114.1 774.9,113.1 776.7,113.1 778.5,113.0 780.3,112.6 782.1,111.8 783.8,111.6 785.6,111.3 787.4,110.7 789.2,110.6 791.0,110.5 792.7,108.4 794.5,105.7 796.3,104.3 798.1,103.8 799.9,102.9 801.6,102.0 803.4,99.2 805.2,98.6 807.0,98.4 808.8,97.0 810.5,95.3 812.3,93.4 814.1,92.2 815.9,92.0 817.7,91.7 819.4,90.8 821.2,89.6 823.0,88.1 824.8,299.0 826.5,298.6 828.3,46.3 830.1,45.7 831.9,45.3 833.7,45.1 835.4,45.0 837.2,44.9 839.0,44.8 840.8,44.7 842.6,44.6 844.3,44.5 846.1,44.5 847.9,27.6 849.7,26.6 851.5,25.8 853.2,25.5 855.0,25.4 856.8,25.1 858.6,25.1 860.4,25.0 862.1,25.0 863.9,24.9 865.7,24.5 867.5,24.2 869.3,24.0 871.0,302.3 872.8,302.0 874.6,301.7 876.4,301.6 878.2,291.6 879.9,283.2 881.7,279.3 883.5,278.6 885.3,273.6 887.1,271.3 888.8,270.6 890.6,270.6 892.4,270.4 894.2,270.4 896.0,270.4 897.7,308.1 899.5,307.0 901.3,298.3 903.1,295.8 904.8,295.8 906.6,294.5 908.4,290.7 910.2,290.3 912.0,290.3 913.7,290.0 915.5,289.6 917.3,289.3 919.1,289.2 920.9,288.8 922.6,288.6 924.4,288.6 926.2,288.5 928.0,288.1 929.8,287.5 931.5,286.9 933.3,286.6 935.1,286.2 936.9,285.8 938.7,285.5 940.4,285.3 942.2,285.1 944.0,284.9"/>
  <polyline fill="none" stroke="#22c55e" stroke-width="2" points="56.0,309.3 57.8,309.3 59.6,309.3 61.3,309.3 63.1,309.3 64.9,309.3 66.7,309.3 68.5,309.6 70.2,309.6 72.0,309.6 73.8,309.6 75.6,309.6 77.4,309.6 79.1,309.6 80.9,309.6 82.7,309.6 84.5,309.6 86.3,309.6 88.0,309.6 89.8,309.6 91.6,309.6 93.4,309.6 95.2,309.6 96.9,309.6 98.7,309.6 100.5,309.6 102.3,309.6 104.0,309.6 105.8,309.6 107.6,309.6 109.4,309.6 111.2,309.6 112.9,309.6 114.7,309.6 116.5,309.6 118.3,309.6 120.1,309.6 121.8,309.6 123.6,309.6 125.4,309.6 127.2,309.6 129.0,309.6 130.7,309.6 132.5,309.6 134.3,309.6 136.1,309.6 137.9,309.6 139.6,309.6 141.4,309.6 143.2,309.6 145.0,309.6 146.8,309.6 148.5,309.6 150.3,309.6 152.1,309.6 153.9,309.6 155.7,309.6 157.4,309.6 159.2,309.6 161.0,309.6 162.8,309.6 164.6,309.6 166.3,309.6 168.1,309.6 169.9,309.6 171.7,309.6 173.5,309.6 175.2,309.6 177.0,309.6 178.8,309.6 180.6,309.6 182.3,309.6 184.1,309.6 185.9,309.6 187.7,309.6 189.5,309.6 191.2,309.6 193.0,309.6 194.8,309.6 196.6,309.6 198.4,309.6 200.1,309.6 201.9,309.6 203.7,309.6 205.5,309.6 207.3,309.6 209.0,309.6 210.8,309.6 212.6,309.6 214.4,309.6 216.2,309.6 217.9,309.6 219.7,309.6 221.5,309.6 223.3,309.6 225.1,309.6 226.8,309.6 228.6,309.6 230.4,309.6 232.2,309.6 234.0,309.6 235.7,309.6 237.5,309.6 239.3,309.6 241.1,309.6 242.9,309.6 244.6,309.6 246.4,309.6 248.2,309.6 250.0,309.6 251.8,309.6 253.5,309.6 255.3,309.6 257.1,314.2 258.9,314.2 260.6,314.2 262.4,314.2 264.2,314.2 266.0,314.2 267.8,314.2 269.5,314.2 271.3,314.2 273.1,314.2 274.9,314.2 276.7,314.2 278.4,314.2 280.2,315.0 282.0,315.0 283.8,309.6 285.6,309.6 287.3,309.6 289.1,309.6 290.9,309.6 292.7,309.6 294.5,309.6 296.2,309.6 298.0,309.6 299.8,309.6 301.6,309.6 303.4,309.6 305.1,309.6 306.9,309.6 308.7,309.6 310.5,314.2 312.3,314.2 314.0,314.2 315.8,315.0 317.6,309.6 319.4,309.6 321.2,309.6 322.9,309.6 324.7,309.6 326.5,309.6 328.3,309.6 330.1,309.6 331.8,309.6 333.6,309.6 335.4,309.6 337.2,309.6 338.9,309.6 340.7,309.6 342.5,309.6 344.3,309.6 346.1,309.6 347.8,309.6 349.6,309.6 351.4,309.6 353.2,309.6 355.0,309.6 356.7,309.6 358.5,309.6 360.3,309.6 362.1,309.6 363.9,309.6 365.6,309.6 367.4,309.6 369.2,309.6 371.0,314.2 372.8,314.2 374.5,314.2 376.3,314.2 378.1,315.0 379.9,315.0 381.7,315.0 383.4,315.0 385.2,315.0 387.0,309.6 388.8,309.6 390.6,309.6 392.3,309.6 394.1,309.6 395.9,309.6 397.7,309.6 399.5,309.6 401.2,309.6 403.0,309.6 404.8,309.6 406.6,309.6 408.4,309.6 410.1,309.6 411.9,309.6 413.7,309.6 415.5,309.6 417.3,309.6 419.0,309.6 420.8,309.6 422.6,309.6 424.4,309.6 426.1,309.6 427.9,309.6 429.7,309.6 431.5,309.6 433.3,309.6 435.0,309.6 436.8,309.6 438.6,309.6 440.4,309.6 442.2,309.6 443.9,309.6 445.7,309.6 447.5,309.6 449.3,309.6 451.1,309.6 452.8,309.6 454.6,309.6 456.4,309.6 458.2,309.6 460.0,309.6 461.7,309.6 463.5,309.6 465.3,309.6 467.1,309.6 468.9,309.6 470.6,309.6 472.4,309.6 474.2,309.6 476.0,309.6 477.8,309.6 479.5,309.6 481.3,309.6 483.1,309.6 484.9,309.6 486.7,309.6 488.4,309.6 490.2,309.6 492.0,309.3 493.8,309.3 495.6,309.3 497.3,309.3 499.1,309.3 500.9,309.3 502.7,309.3 504.4,309.3 506.2,309.3 508.0,309.3 509.8,309.3 511.6,309.3 513.3,309.3 515.1,309.3 516.9,309.3 518.7,309.3 520.5,309.3 522.2,309.3 524.0,309.3 525.8,309.3 527.6,309.3 529.4,309.3 531.1,309.3 532.9,309.3 534.7,309.3 536.5,309.3 538.3,309.3 540.0,309.3 541.8,309.3 543.6,309.3 545.4,309.3 547.2,309.3 548.9,309.3 550.7,309.3 552.5,309.3 554.3,309.3 556.1,309.3 557.8,309.3 559.6,309.3 561.4,309.3 563.2,309.3 565.0,309.3 566.7,309.3 568.5,309.3 570.3,309.3 572.1,309.3 573.9,309.3 575.6,309.3 577.4,309.3 579.2,309.3 581.0,309.3 582.7,309.3 584.5,309.3 586.3,309.3 588.1,309.3 589.9,309.3 591.6,309.3 593.4,309.3 595.2,309.3 597.0,309.3 598.8,309.3 600.5,309.3 602.3,309.3 604.1,309.3 605.9,309.3 607.7,309.3 609.4,309.3 611.2,309.3 613.0,309.3 614.8,309.3 616.6,309.3 618.3,309.3 620.1,309.3 621.9,309.3 623.7,309.3 625.5,309.3 627.2,309.3 629.0,309.3 630.8,309.3 632.6,309.3 634.4,309.3 636.1,309.3 637.9,309.3 639.7,309.3 641.5,309.3 643.3,309.3 645.0,309.3 646.8,309.3 648.6,309.3 650.4,309.3 652.2,309.3 653.9,309.3 655.7,309.3 657.5,309.3 659.3,309.3 661.1,309.3 662.8,309.3 664.6,309.3 666.4,309.3 668.2,309.3 669.9,309.3 671.7,309.3 673.5,309.3 675.3,309.3 677.1,309.3 678.8,309.3 680.6,309.3 682.4,309.3 684.2,309.3 686.0,313.9 687.7,313.9 689.5,313.9 691.3,313.9 693.1,313.9 694.9,313.9 696.6,313.9 698.4,313.9 700.2,313.9 702.0,309.3 703.8,309.3 705.5,309.3 707.3,309.3 709.1,309.3 710.9,309.3 712.7,309.3 714.4,309.3 716.2,309.3 718.0,309.3 719.8,309.3 721.6,309.3 723.3,309.3 725.1,309.3 726.9,309.3 728.7,309.3 730.5,309.3 732.2,309.3 734.0,309.3 735.8,309.3 737.6,309.3 739.4,309.3 741.1,309.3 742.9,309.3 744.7,309.3 746.5,309.3 748.2,309.3 750.0,309.3 751.8,309.3 753.6,309.3 755.4,309.3 757.1,309.3 758.9,309.3 760.7,309.3 762.5,309.3 764.3,309.3 766.0,309.3 767.8,309.3 769.6,309.3 771.4,309.3 773.2,309.3 774.9,309.3 776.7,309.3 778.5,309.3 780.3,309.3 782.1,309.3 783.8,309.3 785.6,309.3 787.4,309.3 789.2,309.3 791.0,309.3 792.7,309.3 794.5,309.3 796.3,309.3 798.1,309.3 799.9,309.3 801.6,309.3 803.4,309.3 805.2,309.3 807.0,309.3 808.8,309.3 810.5,309.3 812.3,309.3 814.1,309.3 815.9,309.3 817.7,309.3 819.4,309.3 821.2,309.3 823.0,309.3 824.8,313.9 826.5,313.9 828.3,309.3 830.1,309.3 831.9,309.3 833.7,309.3 835.4,309.3 837.2,309.3 839.0,309.3 840.8,309.3 842.6,309.3 844.3,309.3 846.1,309.3 847.9,309.3 849.7,309.3 851.5,309.3 853.2,309.3 855.0,309.3 856.8,309.3 858.6,309.3 860.4,309.3 862.1,309.3 863.9,309.3 865.7,309.3 867.5,309.3 869.3,309.3 871.0,313.9 872.8,313.9 874.6,313.9 876.4,314.6 878.2,309.3 879.9,309.3 881.7,309.3 883.5,309.3 885.3,309.3 887.1,309.3 888.8,309.3 890.6,309.3 892.4,309.3 894.2,309.3 896.0,309.3 897.7,308.2 899.5,308.2 901.3,308.2 903.1,308.2 904.8,308.2 906.6,308.2 908.4,308.2 910.2,308.2 912.0,308.2 913.7,308.2 915.5,308.2 917.3,308.2 919.1,308.2 920.9,308.2 922.6,308.2 924.4,308.2 926.2,308.2 928.0,308.2 929.8,308.2 931.5,308.2 933.3,308.2 935.1,308.2 936.9,308.2 938.7,308.2 940.4,308.2 942.2,308.2 944.0,308.2"/>
  <circle cx="280.2" cy="32" r="3" fill="#ef4444"/>
  <circle cx="282.0" cy="32" r="3" fill="#ef4444"/>
  <circle cx="315.8" cy="32" r="3" fill="#ef4444"/>
  <circle cx="378.1" cy="32" r="3" fill="#ef4444"/>
  <circle cx="379.9" cy="32" r="3" fill="#ef4444"/>
  <circle cx="381.7" cy="32" r="3" fill="#ef4444"/>
  <circle cx="383.4" cy="32" r="3" fill="#ef4444"/>
  <circle cx="385.2" cy="32" r="3" fill="#ef4444"/>
  <rect x="710" y="28" width="220" height="62" rx="6" fill="#111827" stroke="#334155"/>
  <line x1="724" y1="48" x2="764" y2="48" stroke="#38bdf8" stroke-width="3"/><text x="772" y="52" fill="#cbd5e1" font-family="sans-serif" font-size="12">totalPromptChars</text>
  <line x1="724" y1="68" x2="764" y2="68" stroke="#22c55e" stroke-width="3"/><text x="772" y="72" fill="#cbd5e1" font-family="sans-serif" font-size="12">stablePrefixChars</text>
</svg>
