<?xml version="1.0" encoding="UTF-8"?>
<svg xmlns="http://www.w3.org/2000/svg" width="960" height="360" viewBox="0 0 960 360">
  <rect width="100%" height="100%" fill="#0f172a"/>
  <text x="56" y="18" fill="#e5e7eb" font-family="sans-serif" font-size="14">cache-friendly-prompt 推移（最新 500 件）</text>
  <line x1="56" y1="318" x2="944" y2="318" stroke="#475569"/>
  <line x1="56" y1="24" x2="56" y2="318" stroke="#475569"/>
  <text x="8" y="34" fill="#94a3b8" font-family="sans-serif" font-size="11">455149</text>
  <text x="20" y="318" fill="#94a3b8" font-family="sans-serif" font-size="11">0</text>
  <line x1="57.8" y1="24" x2="57.8" y2="318" stroke="#f59e0b" stroke-opacity="0.28"/>
  <line x1="66.7" y1="24" x2="66.7" y2="318" stroke="#f59e0b" stroke-opacity="0.28"/>
  <line x1="70.2" y1="24" x2="70.2" y2="318" stroke="#f59e0b" stroke-opacity="0.28"/>
  <line x1="72.0" y1="24" x2="72.0" y2="318" stroke="#f59e0b" stroke-opacity="0.28"/>
  <line x1="73.8" y1="24" x2="73.8" y2="318" stroke="#f59e0b" stroke-opacity="0.28"/>
  <line x1="75.6" y1="24" x2="75.6" y2="318" stroke="#f59e0b" stroke-opacity="0.28"/>
  <line x1="86.3" y1="24" x2="86.3" y2="318" stroke="#f59e0b" stroke-opacity="0.28"/>
  <line x1="88.0" y1="24" x2="88.0" y2="318" stroke="#f59e0b" stroke-opacity="0.28"/>
  <line x1="93.4" y1="24" x2="93.4" y2="318" stroke="#f59e0b" stroke-opacity="0.28"/>
  <line x1="95.2" y1="24" x2="95.2" y2="318" stroke="#f59e0b" stroke-opacity="0.28"/>
  <line x1="104.0" y1="24" x2="104.0" y2="318" stroke="#f59e0b" stroke-opacity="0.28"/>
  <line x1="105.8" y1="24" x2="105.8" y2="318" stroke="#f59e0b" stroke-opacity="0.28"/>
  <line x1="112.9" y1="24" x2="112.9" y2="318" stroke="#f59e0b" stroke-opacity="0.28"/>
  <line x1="114.7" y1="24" x2="114.7" y2="318" stroke="#f59e0b" stroke-opacity="0.28"/>
  <line x1="118.3" y1="24" x2="118.3" y2="318" stroke="#f59e0b" stroke-opacity="0.28"/>
  <line x1="120.1" y1="24" x2="120.1" y2="318" stroke="#f59e0b" stroke-opacity="0.28"/>
  <line x1="121.8" y1="24" x2="121.8" y2="318" stroke="#f59e0b" stroke-opacity="0.28"/>
  <line x1="123.6" y1="24" x2="123.6" y2="318" stroke="#f59e0b" stroke-opacity="0.28"/>
  <line x1="127.2" y1="24" x2="127.2" y2="318" stroke="#f59e0b" stroke-opacity="0.28"/>
  <line x1="129.0" y1="24" x2="129.0" y2="318" stroke="#f59e0b" stroke-opacity="0.28"/>
  <line x1="132.5" y1="24" x2="132.5" y2="318" stroke="#f59e0b" stroke-opacity="0.28"/>
  <line x1="134.3" y1="24" x2="134.3" y2="318" stroke="#f59e0b" stroke-opacity="0.28"/>
  <line x1="139.6" y1="24" x2="139.6" y2="318" stroke="#f59e0b" stroke-opacity="0.28"/>
  <line x1="141.4" y1="24" x2="141.4" y2="318" stroke="#f59e0b" stroke-opacity="0.28"/>
  <line x1="153.9" y1="24" x2="153.9" y2="318" stroke="#f59e0b" stroke-opacity="0.28"/>
  <line x1="216.2" y1="24" x2="216.2" y2="318" stroke="#f59e0b" stroke-opacity="0.28"/>
  <line x1="232.2" y1="24" x2="232.2" y2="318" stroke="#f59e0b" stroke-opacity="0.28"/>
  <line x1="250.0" y1="24" x2="250.0" y2="318" stroke="#f59e0b" stroke-opacity="0.28"/>
  <line x1="260.6" y1="24" x2="260.6" y2="318" stroke="#f59e0b" stroke-opacity="0.28"/>
  <line x1="290.9" y1="24" x2="290.9" y2="318" stroke="#f59e0b" stroke-opacity="0.28"/>
  <line x1="292.7" y1="24" x2="292.7" y2="318" stroke="#f59e0b" stroke-opacity="0.28"/>
  <line x1="306.9" y1="24" x2="306.9" y2="318" stroke="#f59e0b" stroke-opacity="0.28"/>
  <line x1="315.8" y1="24" x2="315.8" y2="318" stroke="#f59e0b" stroke-opacity="0.28"/>
  <line x1="319.4" y1="24" x2="319.4" y2="318" stroke="#f59e0b" stroke-opacity="0.28"/>
  <line x1="321.2" y1="24" x2="321.2" y2="318" stroke="#f59e0b" stroke-opacity="0.28"/>
  <line x1="322.9" y1="24" x2="322.9" y2="318" stroke="#f59e0b" stroke-opacity="0.28"/>
  <line x1="395.9" y1="24" x2="395.9" y2="318" stroke="#f59e0b" stroke-opacity="0.28"/>
  <line x1="443.9" y1="24" x2="443.9" y2="318" stroke="#f59e0b" stroke-opacity="0.28"/>
  <line x1="447.5" y1="24" x2="447.5" y2="318" stroke="#f59e0b" stroke-opacity="0.28"/>
  <line x1="449.3" y1="24" x2="449.3" y2="318" stroke="#f59e0b" stroke-opacity="0.28"/>
  <line x1="451.1" y1="24" x2="451.1" y2="318" stroke="#f59e0b" stroke-opacity="0.28"/>
  <line x1="452.8" y1="24" x2="452.8" y2="318" stroke="#f59e0b" stroke-opacity="0.28"/>
  <line x1="456.4" y1="24" x2="456.4" y2="318" stroke="#f59e0b" stroke-opacity="0.28"/>
  <line x1="458.2" y1="24" x2="458.2" y2="318" stroke="#f59e0b" stroke-opacity="0.28"/>
  <line x1="465.3" y1="24" x2="465.3" y2="318" stroke="#f59e0b" stroke-opacity="0.28"/>
  <line x1="467.1" y1="24" x2="467.1" y2="318" stroke="#f59e0b" stroke-opacity="0.28"/>
  <line x1="470.6" y1="24" x2="470.6" y2="318" stroke="#f59e0b" stroke-opacity="0.28"/>
  <line x1="543.6" y1="24" x2="543.6" y2="318" stroke="#f59e0b" stroke-opacity="0.28"/>
  <line x1="732.2" y1="24" x2="732.2" y2="318" stroke="#f59e0b" stroke-opacity="0.28"/>
  <line x1="755.4" y1="24" x2="755.4" y2="318" stroke="#f59e0b" stroke-opacity="0.28"/>
  <line x1="758.9" y1="24" x2="758.9" y2="318" stroke="#f59e0b" stroke-opacity="0.28"/>
  <line x1="785.6" y1="24" x2="785.6" y2="318" stroke="#f59e0b" stroke-opacity="0.28"/>
  <line x1="791.0" y1="24" x2="791.0" y2="318" stroke="#f59e0b" stroke-opacity="0.28"/>
  <line x1="792.7" y1="24" x2="792.7" y2="318" stroke="#f59e0b" stroke-opacity="0.28"/>
  <line x1="846.1" y1="24" x2="846.1" y2="318" stroke="#f59e0b" stroke-opacity="0.28"/>
  <line x1="853.2" y1="24" x2="853.2" y2="318" stroke="#f59e0b" stroke-opacity="0.28"/>
  <line x1="862.1" y1="24" x2="862.1" y2="318" stroke="#f59e0b" stroke-opacity="0.28"/>
  <polyline fill="none" stroke="#38bdf8" stroke-width="2" points="56.0,303.9 57.8,306.8 59.6,306.5 61.3,303.8 63.1,307.7 64.9,307.3 66.7,310.0 68.5,310.0 70.2,307.3 72.0,310.0 73.8,307.3 75.6,310.0 77.4,310.0 79.1,310.0 80.9,310.0 82.7,310.0 84.5,310.0 86.3,307.3 88.0,310.0 89.8,310.0 91.6,310.0 93.4,307.3 95.2,310.0 96.9,310.0 98.7,310.0 100.5,310.0 102.3,310.0 104.0,307.3 105.8,310.0 107.6,310.0 109.4,310.0 111.2,310.0 112.9,307.3 114.7,310.0 116.5,310.0 118.3,307.3 120.1,310.0 121.8,307.3 123.6,310.0 125.4,310.0 127.2,307.3 129.0,310.0 130.7,310.0 132.5,307.3 134.3,310.0 136.1,310.0 137.9,310.0 139.6,307.3 141.4,310.0 143.2,310.0 145.0,310.0 146.8,310.0 148.5,310.0 150.3,310.0 152.1,309.7 153.9,307.3 155.7,307.3 157.4,307.3 159.2,307.3 161.0,304.6 162.8,304.1 164.6,304.1 166.3,304.1 168.1,303.8 169.9,303.8 171.7,303.8 173.5,303.8 175.2,303.8 177.0,303.8 178.8,303.8 180.6,303.8 182.3,303.8 184.1,303.8 185.9,303.8 187.7,303.8 189.5,303.8 191.2,303.8 193.0,303.8 194.8,303.2 196.6,303.2 198.4,303.2 200.1,303.2 201.9,303.2 203.7,303.2 205.5,303.2 207.3,303.2 209.0,303.2 210.8,303.2 212.6,303.2 214.4,302.9 216.2,310.0 217.9,308.2 219.7,307.3 221.5,307.2 223.3,305.6 225.1,302.1 226.8,301.4 228.6,301.0 230.4,300.2 232.2,313.3 234.0,313.0 235.7,264.6 237.5,298.2 239.3,264.6 241.1,290.0 242.9,261.9 244.6,186.9 246.4,97.6 248.2,86.9 250.0,300.1 251.8,299.6 253.5,299.6 255.3,299.3 257.1,298.8 258.9,298.1 260.6,312.8 262.4,312.6 264.2,263.6 266.0,175.8 267.8,242.2 269.5,67.6 271.3,185.0 273.1,184.9 274.9,34.8 276.7,171.5 278.4,130.5 280.2,119.9 282.0,119.4 283.8,90.6 285.6,76.5 287.3,39.7 289.1,37.5 290.9,298.0 292.7,37.5 294.5,37.5 296.2,34.9 298.0,30.9 299.8,29.6 301.6,28.0 303.4,27.2 305.1,24.0 306.9,298.0 308.7,297.4 310.5,296.9 312.3,296.4 314.0,296.1 315.8,313.4 317.6,291.3 319.4,278.2 321.2,291.2 322.9,277.8 324.7,277.7 326.5,277.6 328.3,244.3 330.1,228.6 331.8,218.9 333.6,218.8 335.4,216.0 337.2,215.9 338.9,215.8 340.7,213.4 342.5,212.8 344.3,211.5 346.1,211.4 347.8,211.2 349.6,209.1 351.4,204.6 353.2,204.5 355.0,204.4 356.7,204.3 358.5,203.1 360.3,203.0 362.1,202.8 363.9,201.0 365.6,195.0 367.4,194.9 369.2,194.3 371.0,194.2 372.8,194.0 374.5,193.9 376.3,192.0 378.1,188.2 379.9,186.1 381.7,178.5 383.4,178.4 385.2,178.2 387.0,176.6 388.8,176.3 390.6,176.2 392.3,176.1 394.1,176.1 395.9,305.8 397.7,305.5 399.5,305.2 401.2,305.2 403.0,305.2 404.8,305.0 406.6,305.0 408.4,304.6 410.1,304.4 411.9,304.4 413.7,304.4 415.5,304.1 417.3,304.1 419.0,303.8 420.8,303.8 422.6,303.8 424.4,303.6 426.1,303.6 427.9,303.2 429.7,302.9 431.5,301.5 433.3,301.5 435.0,301.5 436.8,285.4 438.6,285.4 440.4,285.0 442.2,284.7 443.9,313.6 445.7,313.6 447.5,284.7 449.3,313.4 451.1,284.7 452.8,313.4 454.6,313.4 456.4,284.4 458.2,313.4 460.0,313.4 461.7,313.4 463.5,313.4 465.3,284.0 467.1,313.4 468.9,313.4 470.6,284.0 472.4,284.0 474.2,284.0 476.0,284.0 477.8,284.0 479.5,284.0 481.3,282.6 483.1,282.3 484.9,282.3 486.7,282.0 488.4,282.0 490.2,282.0 492.0,282.0 493.8,281.6 495.6,281.6 497.3,281.6 499.1,281.6 500.9,281.6 502.7,281.6 504.4,281.4 506.2,281.4 508.0,281.4 509.8,281.4 511.6,281.1 513.3,281.1 515.1,280.8 516.9,280.8 518.7,280.4 520.5,280.4 522.2,280.1 524.0,279.9 525.8,279.9 527.6,279.9 529.4,279.9 531.1,279.9 532.9,279.9 534.7,279.9 536.5,279.9 538.3,279.9 540.0,279.9 541.8,279.6 543.6,310.9 545.4,310.5 547.2,310.2 548.9,310.2 550.7,309.9 552.5,309.6 554.3,309.6 556.1,309.6 557.8,309.6 559.6,309.6 561.4,309.6 563.2,309.6 565.0,309.6 566.7,309.3 568.5,309.3 570.3,309.3 572.1,309.3 573.9,309.3 575.6,309.3 577.4,309.3 579.2,309.3 581.0,309.0 582.7,308.7 584.5,308.7 586.3,308.4 588.1,308.4 589.9,308.4 591.6,308.4 593.4,307.7 595.2,307.7 597.0,307.5 598.8,307.5 600.5,307.5 602.3,306.8 604.1,305.9 605.9,305.8 607.7,304.3 609.4,303.6 611.2,303.6 613.0,303.6 614.8,303.6 616.6,303.6 618.3,303.6 620.1,303.6 621.9,303.6 623.7,303.6 625.5,303.6 627.2,303.6 629.0,303.4 630.8,302.6 632.6,302.0 634.4,301.1 636.1,300.9 637.9,300.9 639.7,300.9 641.5,300.9 643.3,300.6 645.0,300.6 646.8,300.6 648.6,300.3 650.4,300.0 652.2,300.0 653.9,300.0 655.7,299.7 657.5,299.4 659.3,299.2 661.1,298.6 662.8,296.7 664.6,296.4 666.4,296.4 668.2,296.4 669.9,296.4 671.7,296.4 673.5,296.4 675.3,296.0 677.1,296.0 678.8,296.0 680.6,296.0 682.4,296.0 684.2,295.6 686.0,295.2 687.7,295.2 689.5,295.2 691.3,295.2 693.1,295.2 694.9,294.9 696.6,293.9 698.4,293.9 700.2,293.9 702.0,293.9 703.8,293.9 705.5,293.9 707.3,293.9 709.1,293.6 710.9,291.6 712.7,291.3 714.4,291.3 716.2,291.3 718.0,291.3 719.8,291.3 721.6,291.3 723.3,291.3 725.1,291.3 726.9,291.3 728.7,291.3 730.5,291.3 732.2,314.5 734.0,314.5 735.8,314.5 737.6,314.3 739.4,313.9 741.1,313.6 742.9,314.6 744.7,314.3 746.5,314.1 748.2,313.8 750.0,313.5 751.8,313.5 753.6,313.2 755.4,312.1 757.1,312.3 758.9,267.2 760.7,262.7 762.5,262.5 764.3,257.2 766.0,252.4 767.8,252.3 769.6,252.3 771.4,251.3 773.2,251.2 774.9,251.1 776.7,250.0 778.5,249.0 780.3,249.0 782.1,246.9 783.8,246.4 785.6,308.8 787.4,308.4 789.2,308.2 791.0,307.3 792.7,208.2 794.5,207.3 796.3,206.6 798.1,206.5 799.9,206.4 801.6,206.3 803.4,205.6 805.2,205.5 807.0,205.4 808.8,204.6 810.5,204.4 812.3,204.1 814.1,204.0 815.9,203.8 817.7,203.7 819.4,203.5 821.2,203.3 823.0,203.1 824.8,203.0 826.5,201.0 828.3,200.9 830.1,197.8 831.9,197.6 833.7,196.6 835.4,196.4 837.2,196.1 839.0,196.1 840.8,195.9 842.6,193.8 844.3,193.7 846.1,304.5 847.9,304.2 849.7,304.2 851.5,304.0 853.2,304.3 855.0,304.0 856.8,304.0 858.6,303.5 860.4,282.9 862.1,110.8 863.9,110.7 865.7,110.6 867.5,109.9 869.3,109.5 871.0,109.3 872.8,108.7 874.6,108.7 876.4,108.6 878.2,108.5 879.9,108.1 881.7,106.7 883.5,106.5 885.3,106.4 887.1,106.3 888.8,106.2 890.6,106.1 892.4,105.6 894.2,104.4 896.0,104.2 897.7,104.2 899.5,103.2 901.3,103.1 903.1,103.1 904.8,102.8 906.6,102.5 908.4,102.3 910.2,102.1 912.0,101.8 913.7,101.4 915.5,101.1 917.3,100.8 919.1,100.7 920.9,100.7 922.6,100.4 924.4,100.0 926.2,99.1 928.0,98.9 929.8,98.8 931.5,98.0 933.3,97.6 935.1,97.5 936.9,97.3 938.7,97.2 940.4,97.0 942.2,97.0 944.0,96.9"/>
  <polyline fill="none" stroke="#22c55e" stroke-width="2" points="56.0,311.1 57.8,307.7 59.6,307.7 61.3,307.7 63.1,307.7 64.9,307.7 66.7,311.1 68.5,311.1 70.2,307.7 72.0,311.1 73.8,307.7 75.6,311.1 77.4,311.1 79.1,311.1 80.9,311.1 82.7,311.1 84.5,311.1 86.3,307.7 88.0,311.1 89.8,311.1 91.6,311.1 93.4,307.7 95.2,311.1 96.9,311.1 98.7,311.1 100.5,311.1 102.3,311.1 104.0,307.7 105.8,311.1 107.6,311.1 109.4,311.1 111.2,311.1 112.9,307.7 114.7,311.1 116.5,311.1 118.3,307.7 120.1,311.1 121.8,307.7 123.6,311.1 125.4,311.1 127.2,307.7 129.0,311.1 130.7,311.1 132.5,307.7 134.3,311.1 136.1,311.1 137.9,311.1 139.6,307.7 141.4,311.1 143.2,311.1 145.0,311.1 146.8,311.1 148.5,311.1 150.3,311.1 152.1,311.1 153.9,307.7 155.7,307.7 157.4,307.7 159.2,307.7 161.0,307.7 162.8,307.7 164.6,307.7 166.3,307.7 168.1,307.7 169.9,307.7 171.7,307.7 173.5,307.7 175.2,307.7 177.0,307.7 178.8,307.7 180.6,307.7 182.3,307.7 184.1,307.7 185.9,307.7 187.7,307.7 189.5,307.7 191.2,307.7 193.0,307.7 194.8,307.7 196.6,307.7 198.4,307.7 200.1,307.7 201.9,307.7 203.7,307.7 205.5,307.7 207.3,307.7 209.0,307.7 210.8,307.7 212.6,307.7 214.4,307.7 216.2,310.1 217.9,310.1 219.7,310.1 221.5,310.1 223.3,310.1 225.1,310.1 226.8,310.1 228.6,310.1 230.4,310.1 232.2,313.9 234.0,313.9 235.7,313.9 237.5,313.9 239.3,313.9 241.1,313.9 242.9,313.9 244.6,313.9 246.4,313.9 248.2,313.9 250.0,310.1 251.8,310.1 253.5,310.1 255.3,310.1 257.1,310.1 258.9,310.1 260.6,313.9 262.4,313.9 264.2,313.9 266.0,313.9 267.8,313.9 269.5,313.9 271.3,313.9 273.1,313.9 274.9,313.9 276.7,313.9 278.4,313.9 280.2,313.9 282.0,313.9 283.8,313.9 285.6,313.9 287.3,313.9 289.1,313.9 290.9,310.1 292.7,313.9 294.5,313.9 296.2,313.9 298.0,313.9 299.8,313.9 301.6,313.9 303.4,313.9 305.1,313.9 306.9,310.1 308.7,310.1 310.5,310.1 312.3,310.1 314.0,310.1 315.8,313.9 317.6,313.9 319.4,310.1 321.2,313.9 322.9,310.1 324.7,310.1 326.5,310.1 328.3,310.1 330.1,310.1 331.8,310.1 333.6,310.1 335.4,310.1 337.2,310.1 338.9,310.1 340.7,310.1 342.5,310.1 344.3,310.1 346.1,310.1 347.8,310.1 349.6,310.1 351.4,310.1 353.2,310.1 355.0,310.1 356.7,310.1 358.5,310.1 360.3,310.1 362.1,310.1 363.9,310.1 365.6,310.1 367.4,310.1 369.2,310.1 371.0,310.1 372.8,310.1 374.5,310.1 376.3,310.1 378.1,310.1 379.9,310.1 381.7,310.1 383.4,310.1 385.2,310.1 387.0,310.1 388.8,310.1 390.6,310.1 392.3,310.1 394.1,310.1 395.9,310.6 397.7,310.6 399.5,310.6 401.2,310.6 403.0,310.6 404.8,310.6 406.6,310.6 408.4,310.6 410.1,310.6 411.9,310.6 413.7,310.6 415.5,310.6 417.3,310.6 419.0,310.6 420.8,310.6 422.6,310.6 424.4,310.6 426.1,310.6 427.9,310.6 429.7,310.6 431.5,310.6 433.3,310.6 435.0,310.6 436.8,310.6 438.6,310.6 440.4,310.6 442.2,310.6 443.9,313.9 445.7,313.9 447.5,310.6 449.3,313.9 451.1,310.6 452.8,313.9 454.6,313.9 456.4,310.6 458.2,313.9 460.0,313.9 461.7,313.9 463.5,313.9 465.3,310.6 467.1,313.9 468.9,313.9 470.6,310.6 472.4,310.6 474.2,310.6 476.0,310.6 477.8,310.6 479.5,310.6 481.3,310.6 483.1,310.6 484.9,310.6 486.7,310.6 488.4,310.6 490.2,310.6 492.0,310.6 493.8,310.6 495.6,310.6 497.3,310.6 499.1,310.6 500.9,310.6 502.7,310.6 504.4,310.6 506.2,310.6 508.0,310.6 509.8,310.6 511.6,310.6 513.3,310.6 515.1,310.6 516.9,310.6 518.7,310.6 520.5,310.6 522.2,310.6 524.0,310.6 525.8,310.6 527.6,310.6 529.4,310.6 531.1,310.6 532.9,310.6 534.7,310.6 536.5,310.6 538.3,310.6 540.0,310.6 541.8,310.6 543.6,310.9 545.4,310.9 547.2,310.9 548.9,310.9 550.7,310.9 552.5,310.9 554.3,310.9 556.1,310.9 557.8,310.9 559.6,310.9 561.4,310.9 563.2,310.9 565.0,310.9 566.7,310.9 568.5,310.9 570.3,310.9 572.1,310.9 573.9,310.9 575.6,310.9 577.4,310.9 579.2,310.9 581.0,310.9 582.7,310.9 584.5,310.9 586.3,310.9 588.1,310.9 589.9,310.9 591.6,310.9 593.4,310.9 595.2,310.9 597.0,310.9 598.8,310.9 600.5,310.9 602.3,310.9 604.1,310.9 605.9,310.9 607.7,310.9 609.4,310.9 611.2,310.9 613.0,310.9 614.8,310.9 616.6,310.9 618.3,310.9 620.1,310.9 621.9,310.9 623.7,310.9 625.5,310.9 627.2,310.9 629.0,310.9 630.8,310.9 632.6,310.9 634.4,310.9 636.1,310.9 637.9,310.9 639.7,310.9 641.5,310.9 643.3,310.9 645.0,310.9 646.8,310.9 648.6,310.9 650.4,310.9 652.2,310.9 653.9,310.9 655.7,310.9 657.5,310.9 659.3,310.9 661.1,310.9 662.8,310.9 664.6,310.9 666.4,310.9 668.2,310.9 669.9,310.9 671.7,310.9 673.5,310.9 675.3,310.9 677.1,310.9 678.8,310.9 680.6,310.9 682.4,310.9 684.2,310.9 686.0,310.9 687.7,310.9 689.5,310.9 691.3,310.9 693.1,310.9 694.9,310.9 696.6,310.9 698.4,310.9 700.2,310.9 702.0,310.9 703.8,310.9 705.5,310.9 707.3,310.9 709.1,310.9 710.9,310.9 712.7,310.9 714.4,310.9 716.2,310.9 718.0,310.9 719.8,310.9 721.6,310.9 723.3,310.9 725.1,310.9 726.9,310.9 728.7,310.9 730.5,310.9 732.2,314.8 734.0,314.8 735.8,314.8 737.6,314.8 739.4,314.8 741.1,314.8 742.9,314.8 744.7,314.8 746.5,314.8 748.2,314.8 750.0,314.8 751.8,314.8 753.6,314.8 755.4,315.4 757.1,315.4 758.9,310.9 760.7,310.9 762.5,310.9 764.3,310.9 766.0,310.9 767.8,310.9 769.6,310.9 771.4,310.9 773.2,310.9 774.9,310.9 776.7,310.9 778.5,310.9 780.3,310.9 782.1,310.9 783.8,310.9 785.6,314.8 787.4,314.8 789.2,314.8 791.0,315.4 792.7,310.9 794.5,310.9 796.3,310.9 798.1,310.9 799.9,310.9 801.6,310.9 803.4,310.9 805.2,310.9 807.0,310.9 808.8,310.9 810.5,310.9 812.3,310.9 814.1,310.9 815.9,310.9 817.7,310.9 819.4,310.9 821.2,310.9 823.0,310.9 824.8,310.9 826.5,310.9 828.3,310.9 830.1,310.9 831.9,310.9 833.7,310.9 835.4,310.9 837.2,310.9 839.0,310.9 840.8,310.9 842.6,310.9 844.3,310.9 846.1,314.8 847.9,314.8 849.7,314.8 851.5,314.8 853.2,315.4 855.0,315.4 856.8,315.4 858.6,315.4 860.4,315.4 862.1,310.9 863.9,310.9 865.7,310.9 867.5,310.9 869.3,310.9 871.0,310.9 872.8,310.9 874.6,310.9 876.4,310.9 878.2,310.9 879.9,310.9 881.7,310.9 883.5,310.9 885.3,310.9 887.1,310.9 888.8,310.9 890.6,310.9 892.4,310.9 894.2,310.9 896.0,310.9 897.7,310.9 899.5,310.9 901.3,310.9 903.1,310.9 904.8,310.9 906.6,310.9 908.4,310.9 910.2,310.9 912.0,310.9 913.7,310.9 915.5,310.9 917.3,310.9 919.1,310.9 920.9,310.9 922.6,310.9 924.4,310.9 926.2,310.9 928.0,310.9 929.8,310.9 931.5,310.9 933.3,310.9 935.1,310.9 936.9,310.9 938.7,310.9 940.4,310.9 942.2,310.9 944.0,310.9"/>
  <circle cx="755.4" cy="32" r="3" fill="#ef4444"/>
  <circle cx="757.1" cy="32" r="3" fill="#ef4444"/>
  <circle cx="791.0" cy="32" r="3" fill="#ef4444"/>
  <circle cx="853.2" cy="32" r="3" fill="#ef4444"/>
  <circle cx="855.0" cy="32" r="3" fill="#ef4444"/>
  <circle cx="856.8" cy="32" r="3" fill="#ef4444"/>
  <circle cx="858.6" cy="32" r="3" fill="#ef4444"/>
  <circle cx="860.4" cy="32" r="3" fill="#ef4444"/>
  <rect x="710" y="28" width="220" height="62" rx="6" fill="#111827" stroke="#334155"/>
  <line x1="724" y1="48" x2="764" y2="48" stroke="#38bdf8" stroke-width="3"/><text x="772" y="52" fill="#cbd5e1" font-family="sans-serif" font-size="12">totalPromptChars</text>
  <line x1="724" y1="68" x2="764" y2="68" stroke="#22c55e" stroke-width="3"/><text x="772" y="72" fill="#cbd5e1" font-family="sans-serif" font-size="12">stablePrefixChars</text>
</svg>
