<?xml version="1.0" encoding="UTF-8"?>
<svg xmlns="http://www.w3.org/2000/svg" width="960" height="360" viewBox="0 0 960 360">
  <rect width="100%" height="100%" fill="#0f172a"/>
  <text x="56" y="18" fill="#e5e7eb" font-family="sans-serif" font-size="14">cache-friendly-prompt 推移（最新 500 件）</text>
  <line x1="56" y1="318" x2="944" y2="318" stroke="#475569"/>
  <line x1="56" y1="24" x2="56" y2="318" stroke="#475569"/>
  <text x="8" y="34" fill="#94a3b8" font-family="sans-serif" font-size="11">455149</text>
  <text x="20" y="318" fill="#94a3b8" font-family="sans-serif" font-size="11">0</text>
  <line x1="121.8" y1="24" x2="121.8" y2="318" stroke="#f59e0b" stroke-opacity="0.28"/>
  <line x1="129.0" y1="24" x2="129.0" y2="318" stroke="#f59e0b" stroke-opacity="0.28"/>
  <line x1="130.7" y1="24" x2="130.7" y2="318" stroke="#f59e0b" stroke-opacity="0.28"/>
  <line x1="132.5" y1="24" x2="132.5" y2="318" stroke="#f59e0b" stroke-opacity="0.28"/>
  <line x1="134.3" y1="24" x2="134.3" y2="318" stroke="#f59e0b" stroke-opacity="0.28"/>
  <line x1="164.6" y1="24" x2="164.6" y2="318" stroke="#f59e0b" stroke-opacity="0.28"/>
  <line x1="209.0" y1="24" x2="209.0" y2="318" stroke="#f59e0b" stroke-opacity="0.28"/>
  <line x1="242.9" y1="24" x2="242.9" y2="318" stroke="#f59e0b" stroke-opacity="0.28"/>
  <line x1="258.9" y1="24" x2="258.9" y2="318" stroke="#f59e0b" stroke-opacity="0.28"/>
  <line x1="262.4" y1="24" x2="262.4" y2="318" stroke="#f59e0b" stroke-opacity="0.28"/>
  <line x1="273.1" y1="24" x2="273.1" y2="318" stroke="#f59e0b" stroke-opacity="0.28"/>
  <line x1="282.0" y1="24" x2="282.0" y2="318" stroke="#f59e0b" stroke-opacity="0.28"/>
  <line x1="285.6" y1="24" x2="285.6" y2="318" stroke="#f59e0b" stroke-opacity="0.28"/>
  <line x1="287.3" y1="24" x2="287.3" y2="318" stroke="#f59e0b" stroke-opacity="0.28"/>
  <line x1="289.1" y1="24" x2="289.1" y2="318" stroke="#f59e0b" stroke-opacity="0.28"/>
  <line x1="290.9" y1="24" x2="290.9" y2="318" stroke="#f59e0b" stroke-opacity="0.28"/>
  <line x1="301.6" y1="24" x2="301.6" y2="318" stroke="#f59e0b" stroke-opacity="0.28"/>
  <line x1="303.4" y1="24" x2="303.4" y2="318" stroke="#f59e0b" stroke-opacity="0.28"/>
  <line x1="308.7" y1="24" x2="308.7" y2="318" stroke="#f59e0b" stroke-opacity="0.28"/>
  <line x1="310.5" y1="24" x2="310.5" y2="318" stroke="#f59e0b" stroke-opacity="0.28"/>
  <line x1="319.4" y1="24" x2="319.4" y2="318" stroke="#f59e0b" stroke-opacity="0.28"/>
  <line x1="321.2" y1="24" x2="321.2" y2="318" stroke="#f59e0b" stroke-opacity="0.28"/>
  <line x1="328.3" y1="24" x2="328.3" y2="318" stroke="#f59e0b" stroke-opacity="0.28"/>
  <line x1="330.1" y1="24" x2="330.1" y2="318" stroke="#f59e0b" stroke-opacity="0.28"/>
  <line x1="333.6" y1="24" x2="333.6" y2="318" stroke="#f59e0b" stroke-opacity="0.28"/>
  <line x1="335.4" y1="24" x2="335.4" y2="318" stroke="#f59e0b" stroke-opacity="0.28"/>
  <line x1="337.2" y1="24" x2="337.2" y2="318" stroke="#f59e0b" stroke-opacity="0.28"/>
  <line x1="338.9" y1="24" x2="338.9" y2="318" stroke="#f59e0b" stroke-opacity="0.28"/>
  <line x1="342.5" y1="24" x2="342.5" y2="318" stroke="#f59e0b" stroke-opacity="0.28"/>
  <line x1="344.3" y1="24" x2="344.3" y2="318" stroke="#f59e0b" stroke-opacity="0.28"/>
  <line x1="347.8" y1="24" x2="347.8" y2="318" stroke="#f59e0b" stroke-opacity="0.28"/>
  <line x1="349.6" y1="24" x2="349.6" y2="318" stroke="#f59e0b" stroke-opacity="0.28"/>
  <line x1="355.0" y1="24" x2="355.0" y2="318" stroke="#f59e0b" stroke-opacity="0.28"/>
  <line x1="356.7" y1="24" x2="356.7" y2="318" stroke="#f59e0b" stroke-opacity="0.28"/>
  <line x1="369.2" y1="24" x2="369.2" y2="318" stroke="#f59e0b" stroke-opacity="0.28"/>
  <line x1="431.5" y1="24" x2="431.5" y2="318" stroke="#f59e0b" stroke-opacity="0.28"/>
  <line x1="447.5" y1="24" x2="447.5" y2="318" stroke="#f59e0b" stroke-opacity="0.28"/>
  <line x1="465.3" y1="24" x2="465.3" y2="318" stroke="#f59e0b" stroke-opacity="0.28"/>
  <line x1="476.0" y1="24" x2="476.0" y2="318" stroke="#f59e0b" stroke-opacity="0.28"/>
  <line x1="506.2" y1="24" x2="506.2" y2="318" stroke="#f59e0b" stroke-opacity="0.28"/>
  <line x1="508.0" y1="24" x2="508.0" y2="318" stroke="#f59e0b" stroke-opacity="0.28"/>
  <line x1="522.2" y1="24" x2="522.2" y2="318" stroke="#f59e0b" stroke-opacity="0.28"/>
  <line x1="531.1" y1="24" x2="531.1" y2="318" stroke="#f59e0b" stroke-opacity="0.28"/>
  <line x1="534.7" y1="24" x2="534.7" y2="318" stroke="#f59e0b" stroke-opacity="0.28"/>
  <line x1="536.5" y1="24" x2="536.5" y2="318" stroke="#f59e0b" stroke-opacity="0.28"/>
  <line x1="538.3" y1="24" x2="538.3" y2="318" stroke="#f59e0b" stroke-opacity="0.28"/>
  <line x1="611.2" y1="24" x2="611.2" y2="318" stroke="#f59e0b" stroke-opacity="0.28"/>
  <line x1="659.3" y1="24" x2="659.3" y2="318" stroke="#f59e0b" stroke-opacity="0.28"/>
  <line x1="662.8" y1="24" x2="662.8" y2="318" stroke="#f59e0b" stroke-opacity="0.28"/>
  <line x1="664.6" y1="24" x2="664.6" y2="318" stroke="#f59e0b" stroke-opacity="0.28"/>
  <line x1="666.4" y1="24" x2="666.4" y2="318" stroke="#f59e0b" stroke-opacity="0.28"/>
  <line x1="668.2" y1="24" x2="668.2" y2="318" stroke="#f59e0b" stroke-opacity="0.28"/>
  <line x1="671.7" y1="24" x2="671.7" y2="318" stroke="#f59e0b" stroke-opacity="0.28"/>
  <line x1="673.5" y1="24" x2="673.5" y2="318" stroke="#f59e0b" stroke-opacity="0.28"/>
  <line x1="680.6" y1="24" x2="680.6" y2="318" stroke="#f59e0b" stroke-opacity="0.28"/>
  <line x1="682.4" y1="24" x2="682.4" y2="318" stroke="#f59e0b" stroke-opacity="0.28"/>
  <line x1="686.0" y1="24" x2="686.0" y2="318" stroke="#f59e0b" stroke-opacity="0.28"/>
  <line x1="758.9" y1="24" x2="758.9" y2="318" stroke="#f59e0b" stroke-opacity="0.28"/>
  <polyline fill="none" stroke="#38bdf8" stroke-width="2" points="56.0,307.4 57.8,307.4 59.6,307.1 61.3,307.1 63.1,306.9 64.9,306.9 66.7,306.6 68.5,306.6 70.2,306.6 72.0,306.6 73.8,306.6 75.6,306.6 77.4,306.3 79.1,306.0 80.9,305.7 82.7,305.4 84.5,304.4 86.3,303.5 88.0,303.3 89.8,303.0 91.6,302.7 93.4,302.7 95.2,302.4 96.9,301.7 98.7,301.2 100.5,300.9 102.3,300.9 104.0,300.6 105.8,300.2 107.6,283.5 109.4,282.6 111.2,282.6 112.9,282.3 114.7,281.9 116.5,281.9 118.3,281.9 120.1,281.6 121.8,305.9 123.6,305.7 125.4,305.7 127.2,305.3 129.0,307.5 130.7,305.3 132.5,307.5 134.3,305.3 136.1,305.1 137.9,304.8 139.6,304.8 141.4,304.5 143.2,304.5 145.0,304.5 146.8,303.9 148.5,303.9 150.3,303.9 152.1,303.9 153.9,303.9 155.7,303.9 157.4,303.6 159.2,303.6 161.0,303.6 162.8,303.3 164.6,306.7 166.3,306.4 168.1,306.4 169.9,306.4 171.7,306.2 173.5,306.2 175.2,305.9 177.0,305.9 178.8,305.9 180.6,305.7 182.3,305.5 184.1,305.5 185.9,305.2 187.7,305.0 189.5,304.8 191.2,306.7 193.0,306.5 194.8,306.7 196.6,306.7 198.4,306.7 200.1,306.5 201.9,306.2 203.7,305.9 205.5,305.9 207.3,306.1 209.0,307.7 210.8,307.5 212.6,307.6 214.4,307.5 216.2,307.2 217.9,306.9 219.7,306.4 221.5,305.9 223.3,305.9 225.1,305.9 226.8,305.9 228.6,305.6 230.4,305.3 232.2,305.3 234.0,305.3 235.7,305.1 237.5,305.1 239.3,305.1 241.1,304.8 242.9,310.4 244.6,309.9 246.4,306.4 248.2,280.5 250.0,280.2 251.8,262.7 253.5,241.1 255.3,238.2 257.1,235.9 258.9,307.7 260.6,307.1 262.4,310.0 264.2,310.0 266.0,307.2 267.8,305.9 269.5,305.1 271.3,303.9 273.1,306.8 274.9,306.5 276.7,303.8 278.4,307.7 280.2,307.3 282.0,310.0 283.8,310.0 285.6,307.3 287.3,310.0 289.1,307.3 290.9,310.0 292.7,310.0 294.5,310.0 296.2,310.0 298.0,310.0 299.8,310.0 301.6,307.3 303.4,310.0 305.1,310.0 306.9,310.0 308.7,307.3 310.5,310.0 312.3,310.0 314.0,310.0 315.8,310.0 317.6,310.0 319.4,307.3 321.2,310.0 322.9,310.0 324.7,310.0 326.5,310.0 328.3,307.3 330.1,310.0 331.8,310.0 333.6,307.3 335.4,310.0 337.2,307.3 338.9,310.0 340.7,310.0 342.5,307.3 344.3,310.0 346.1,310.0 347.8,307.3 349.6,310.0 351.4,310.0 353.2,310.0 355.0,307.3 356.7,310.0 358.5,310.0 360.3,310.0 362.1,310.0 363.9,310.0 365.6,310.0 367.4,309.7 369.2,307.3 371.0,307.3 372.8,307.3 374.5,307.3 376.3,304.6 378.1,304.1 379.9,304.1 381.7,304.1 383.4,303.8 385.2,303.8 387.0,303.8 388.8,303.8 390.6,303.8 392.3,303.8 394.1,303.8 395.9,303.8 397.7,303.8 399.5,303.8 401.2,303.8 403.0,303.8 404.8,303.8 406.6,303.8 408.4,303.8 410.1,303.2 411.9,303.2 413.7,303.2 415.5,303.2 417.3,303.2 419.0,303.2 420.8,303.2 422.6,303.2 424.4,303.2 426.1,303.2 427.9,303.2 429.7,302.9 431.5,310.0 433.3,308.2 435.0,307.3 436.8,307.2 438.6,305.6 440.4,302.1 442.2,301.4 443.9,301.0 445.7,300.2 447.5,313.3 449.3,313.0 451.1,264.6 452.8,298.2 454.6,264.6 456.4,290.0 458.2,261.9 460.0,186.9 461.7,97.6 463.5,86.9 465.3,300.1 467.1,299.6 468.9,299.6 470.6,299.3 472.4,298.8 474.2,298.1 476.0,312.8 477.8,312.6 479.5,263.6 481.3,175.8 483.1,242.2 484.9,67.6 486.7,185.0 488.4,184.9 490.2,34.8 492.0,171.5 493.8,130.5 495.6,119.9 497.3,119.4 499.1,90.6 500.9,76.5 502.7,39.7 504.4,37.5 506.2,298.0 508.0,37.5 509.8,37.5 511.6,34.9 513.3,30.9 515.1,29.6 516.9,28.0 518.7,27.2 520.5,24.0 522.2,298.0 524.0,297.4 525.8,296.9 527.6,296.4 529.4,296.1 531.1,313.4 532.9,291.3 534.7,278.2 536.5,291.2 538.3,277.8 540.0,277.7 541.8,277.6 543.6,244.3 545.4,228.6 547.2,218.9 548.9,218.8 550.7,216.0 552.5,215.9 554.3,215.8 556.1,213.4 557.8,212.8 559.6,211.5 561.4,211.4 563.2,211.2 565.0,209.1 566.7,204.6 568.5,204.5 570.3,204.4 572.1,204.3 573.9,203.1 575.6,203.0 577.4,202.8 579.2,201.0 581.0,195.0 582.7,194.9 584.5,194.3 586.3,194.2 588.1,194.0 589.9,193.9 591.6,192.0 593.4,188.2 595.2,186.1 597.0,178.5 598.8,178.4 600.5,178.2 602.3,176.6 604.1,176.3 605.9,176.2 607.7,176.1 609.4,176.1 611.2,305.8 613.0,305.5 614.8,305.2 616.6,305.2 618.3,305.2 620.1,305.0 621.9,305.0 623.7,304.6 625.5,304.4 627.2,304.4 629.0,304.4 630.8,304.1 632.6,304.1 634.4,303.8 636.1,303.8 637.9,303.8 639.7,303.6 641.5,303.6 643.3,303.2 645.0,302.9 646.8,301.5 648.6,301.5 650.4,301.5 652.2,285.4 653.9,285.4 655.7,285.0 657.5,284.7 659.3,313.6 661.1,313.6 662.8,284.7 664.6,313.4 666.4,284.7 668.2,313.4 669.9,313.4 671.7,284.4 673.5,313.4 675.3,313.4 677.1,313.4 678.8,313.4 680.6,284.0 682.4,313.4 684.2,313.4 686.0,284.0 687.7,284.0 689.5,284.0 691.3,284.0 693.1,284.0 694.9,284.0 696.6,282.6 698.4,282.3 700.2,282.3 702.0,282.0 703.8,282.0 705.5,282.0 707.3,282.0 709.1,281.6 710.9,281.6 712.7,281.6 714.4,281.6 716.2,281.6 718.0,281.6 719.8,281.4 721.6,281.4 723.3,281.4 725.1,281.4 726.9,281.1 728.7,281.1 730.5,280.8 732.2,280.8 734.0,280.4 735.8,280.4 737.6,280.1 739.4,279.9 741.1,279.9 742.9,279.9 744.7,279.9 746.5,279.9 748.2,279.9 750.0,279.9 751.8,279.9 753.6,279.9 755.4,279.9 757.1,279.6 758.9,310.9 760.7,310.5 762.5,310.2 764.3,310.2 766.0,309.9 767.8,309.6 769.6,309.6 771.4,309.6 773.2,309.6 774.9,309.6 776.7,309.6 778.5,309.6 780.3,309.6 782.1,309.3 783.8,309.3 785.6,309.3 787.4,309.3 789.2,309.3 791.0,309.3 792.7,309.3 794.5,309.3 796.3,309.0 798.1,308.7 799.9,308.7 801.6,308.4 803.4,308.4 805.2,308.4 807.0,308.4 808.8,307.7 810.5,307.7 812.3,307.5 814.1,307.5 815.9,307.5 817.7,306.8 819.4,305.9 821.2,305.8 823.0,304.3 824.8,303.6 826.5,303.6 828.3,303.6 830.1,303.6 831.9,303.6 833.7,303.6 835.4,303.6 837.2,303.6 839.0,303.6 840.8,303.6 842.6,303.6 844.3,303.4 846.1,302.6 847.9,302.0 849.7,301.1 851.5,300.9 853.2,300.9 855.0,300.9 856.8,300.9 858.6,300.6 860.4,300.6 862.1,300.6 863.9,300.3 865.7,300.0 867.5,300.0 869.3,300.0 871.0,299.7 872.8,299.4 874.6,299.2 876.4,298.6 878.2,296.7 879.9,296.4 881.7,296.4 883.5,296.4 885.3,296.4 887.1,296.4 888.8,296.4 890.6,296.0 892.4,296.0 894.2,296.0 896.0,296.0 897.7,296.0 899.5,295.6 901.3,295.2 903.1,295.2 904.8,295.2 906.6,295.2 908.4,295.2 910.2,294.9 912.0,293.9 913.7,293.9 915.5,293.9 917.3,293.9 919.1,293.9 920.9,293.9 922.6,293.9 924.4,293.6 926.2,291.6 928.0,291.3 929.8,291.3 931.5,291.3 933.3,291.3 935.1,291.3 936.9,291.3 938.7,291.3 940.4,291.3 942.2,291.3 944.0,291.3"/>
  <polyline fill="none" stroke="#22c55e" stroke-width="2" points="56.0,307.7 57.8,307.7 59.6,307.7 61.3,307.7 63.1,307.7 64.9,307.7 66.7,307.7 68.5,307.7 70.2,307.7 72.0,307.7 73.8,307.7 75.6,307.7 77.4,307.7 79.1,307.7 80.9,307.7 82.7,307.7 84.5,307.7 86.3,307.7 88.0,307.7 89.8,307.7 91.6,307.7 93.4,307.7 95.2,307.7 96.9,307.7 98.7,307.7 100.5,307.7 102.3,307.7 104.0,307.7 105.8,307.7 107.6,307.7 109.4,307.7 111.2,307.7 112.9,307.7 114.7,307.7 116.5,307.7 118.3,307.7 120.1,307.7 121.8,306.0 123.6,306.0 125.4,306.0 127.2,306.0 129.0,307.7 130.7,306.0 132.5,307.7 134.3,306.0 136.1,306.0 137.9,306.0 139.6,306.0 141.4,306.0 143.2,306.0 145.0,306.0 146.8,306.0 148.5,306.0 150.3,306.0 152.1,306.0 153.9,306.0 155.7,306.0 157.4,306.0 159.2,306.0 161.0,306.0 162.8,306.0 164.6,307.4 166.3,307.4 168.1,307.4 169.9,307.4 171.7,307.4 173.5,307.4 175.2,307.4 177.0,307.4 178.8,307.4 180.6,307.4 182.3,307.4 184.1,307.4 185.9,307.4 187.7,307.4 189.5,307.4 191.2,307.4 193.0,307.4 194.8,307.4 196.6,307.4 198.4,307.4 200.1,307.4 201.9,307.4 203.7,307.4 205.5,307.4 207.3,307.4 209.0,307.7 210.8,307.7 212.6,307.7 214.4,307.7 216.2,307.7 217.9,307.7 219.7,307.7 221.5,307.7 223.3,307.7 225.1,307.7 226.8,307.7 228.6,307.7 230.4,307.7 232.2,307.7 234.0,307.7 235.7,307.7 237.5,307.7 239.3,307.7 241.1,307.7 242.9,311.8 244.6,311.8 246.4,311.8 248.2,311.8 250.0,311.8 251.8,311.8 253.5,311.8 255.3,311.8 257.1,311.8 258.9,307.7 260.6,307.7 262.4,311.1 264.2,311.1 266.0,311.1 267.8,311.1 269.5,311.1 271.3,311.1 273.1,307.7 274.9,307.7 276.7,307.7 278.4,307.7 280.2,307.7 282.0,311.1 283.8,311.1 285.6,307.7 287.3,311.1 289.1,307.7 290.9,311.1 292.7,311.1 294.5,311.1 296.2,311.1 298.0,311.1 299.8,311.1 301.6,307.7 303.4,311.1 305.1,311.1 306.9,311.1 308.7,307.7 310.5,311.1 312.3,311.1 314.0,311.1 315.8,311.1 317.6,311.1 319.4,307.7 321.2,311.1 322.9,311.1 324.7,311.1 326.5,311.1 328.3,307.7 330.1,311.1 331.8,311.1 333.6,307.7 335.4,311.1 337.2,307.7 338.9,311.1 340.7,311.1 342.5,307.7 344.3,311.1 346.1,311.1 347.8,307.7 349.6,311.1 351.4,311.1 353.2,311.1 355.0,307.7 356.7,311.1 358.5,311.1 360.3,311.1 362.1,311.1 363.9,311.1 365.6,311.1 367.4,311.1 369.2,307.7 371.0,307.7 372.8,307.7 374.5,307.7 376.3,307.7 378.1,307.7 379.9,307.7 381.7,307.7 383.4,307.7 385.2,307.7 387.0,307.7 388.8,307.7 390.6,307.7 392.3,307.7 394.1,307.7 395.9,307.7 397.7,307.7 399.5,307.7 401.2,307.7 403.0,307.7 404.8,307.7 406.6,307.7 408.4,307.7 410.1,307.7 411.9,307.7 413.7,307.7 415.5,307.7 417.3,307.7 419.0,307.7 420.8,307.7 422.6,307.7 424.4,307.7 426.1,307.7 427.9,307.7 429.7,307.7 431.5,310.1 433.3,310.1 435.0,310.1 436.8,310.1 438.6,310.1 440.4,310.1 442.2,310.1 443.9,310.1 445.7,310.1 447.5,313.9 449.3,313.9 451.1,313.9 452.8,313.9 454.6,313.9 456.4,313.9 458.2,313.9 460.0,313.9 461.7,313.9 463.5,313.9 465.3,310.1 467.1,310.1 468.9,310.1 470.6,310.1 472.4,310.1 474.2,310.1 476.0,313.9 477.8,313.9 479.5,313.9 481.3,313.9 483.1,313.9 484.9,313.9 486.7,313.9 488.4,313.9 490.2,313.9 492.0,313.9 493.8,313.9 495.6,313.9 497.3,313.9 499.1,313.9 500.9,313.9 502.7,313.9 504.4,313.9 506.2,310.1 508.0,313.9 509.8,313.9 511.6,313.9 513.3,313.9 515.1,313.9 516.9,313.9 518.7,313.9 520.5,313.9 522.2,310.1 524.0,310.1 525.8,310.1 527.6,310.1 529.4,310.1 531.1,313.9 532.9,313.9 534.7,310.1 536.5,313.9 538.3,310.1 540.0,310.1 541.8,310.1 543.6,310.1 545.4,310.1 547.2,310.1 548.9,310.1 550.7,310.1 552.5,310.1 554.3,310.1 556.1,310.1 557.8,310.1 559.6,310.1 561.4,310.1 563.2,310.1 565.0,310.1 566.7,310.1 568.5,310.1 570.3,310.1 572.1,310.1 573.9,310.1 575.6,310.1 577.4,310.1 579.2,310.1 581.0,310.1 582.7,310.1 584.5,310.1 586.3,310.1 588.1,310.1 589.9,310.1 591.6,310.1 593.4,310.1 595.2,310.1 597.0,310.1 598.8,310.1 600.5,310.1 602.3,310.1 604.1,310.1 605.9,310.1 607.7,310.1 609.4,310.1 611.2,310.6 613.0,310.6 614.8,310.6 616.6,310.6 618.3,310.6 620.1,310.6 621.9,310.6 623.7,310.6 625.5,310.6 627.2,310.6 629.0,310.6 630.8,310.6 632.6,310.6 634.4,310.6 636.1,310.6 637.9,310.6 639.7,310.6 641.5,310.6 643.3,310.6 645.0,310.6 646.8,310.6 648.6,310.6 650.4,310.6 652.2,310.6 653.9,310.6 655.7,310.6 657.5,310.6 659.3,313.9 661.1,313.9 662.8,310.6 664.6,313.9 666.4,310.6 668.2,313.9 669.9,313.9 671.7,310.6 673.5,313.9 675.3,313.9 677.1,313.9 678.8,313.9 680.6,310.6 682.4,313.9 684.2,313.9 686.0,310.6 687.7,310.6 689.5,310.6 691.3,310.6 693.1,310.6 694.9,310.6 696.6,310.6 698.4,310.6 700.2,310.6 702.0,310.6 703.8,310.6 705.5,310.6 707.3,310.6 709.1,310.6 710.9,310.6 712.7,310.6 714.4,310.6 716.2,310.6 718.0,310.6 719.8,310.6 721.6,310.6 723.3,310.6 725.1,310.6 726.9,310.6 728.7,310.6 730.5,310.6 732.2,310.6 734.0,310.6 735.8,310.6 737.6,310.6 739.4,310.6 741.1,310.6 742.9,310.6 744.7,310.6 746.5,310.6 748.2,310.6 750.0,310.6 751.8,310.6 753.6,310.6 755.4,310.6 757.1,310.6 758.9,310.9 760.7,310.9 762.5,310.9 764.3,310.9 766.0,310.9 767.8,310.9 769.6,310.9 771.4,310.9 773.2,310.9 774.9,310.9 776.7,310.9 778.5,310.9 780.3,310.9 782.1,310.9 783.8,310.9 785.6,310.9 787.4,310.9 789.2,310.9 791.0,310.9 792.7,310.9 794.5,310.9 796.3,310.9 798.1,310.9 799.9,310.9 801.6,310.9 803.4,310.9 805.2,310.9 807.0,310.9 808.8,310.9 810.5,310.9 812.3,310.9 814.1,310.9 815.9,310.9 817.7,310.9 819.4,310.9 821.2,310.9 823.0,310.9 824.8,310.9 826.5,310.9 828.3,310.9 830.1,310.9 831.9,310.9 833.7,310.9 835.4,310.9 837.2,310.9 839.0,310.9 840.8,310.9 842.6,310.9 844.3,310.9 846.1,310.9 847.9,310.9 849.7,310.9 851.5,310.9 853.2,310.9 855.0,310.9 856.8,310.9 858.6,310.9 860.4,310.9 862.1,310.9 863.9,310.9 865.7,310.9 867.5,310.9 869.3,310.9 871.0,310.9 872.8,310.9 874.6,310.9 876.4,310.9 878.2,310.9 879.9,310.9 881.7,310.9 883.5,310.9 885.3,310.9 887.1,310.9 888.8,310.9 890.6,310.9 892.4,310.9 894.2,310.9 896.0,310.9 897.7,310.9 899.5,310.9 901.3,310.9 903.1,310.9 904.8,310.9 906.6,310.9 908.4,310.9 910.2,310.9 912.0,310.9 913.7,310.9 915.5,310.9 917.3,310.9 919.1,310.9 920.9,310.9 922.6,310.9 924.4,310.9 926.2,310.9 928.0,310.9 929.8,310.9 931.5,310.9 933.3,310.9 935.1,310.9 936.9,310.9 938.7,310.9 940.4,310.9 942.2,310.9 944.0,310.9"/>
  
  <rect x="710" y="28" width="220" height="62" rx="6" fill="#111827" stroke="#334155"/>
  <line x1="724" y1="48" x2="764" y2="48" stroke="#38bdf8" stroke-width="3"/><text x="772" y="52" fill="#cbd5e1" font-family="sans-serif" font-size="12">totalPromptChars</text>
  <line x1="724" y1="68" x2="764" y2="68" stroke="#22c55e" stroke-width="3"/><text x="772" y="72" fill="#cbd5e1" font-family="sans-serif" font-size="12">stablePrefixChars</text>
</svg>
