<?xml version="1.0" encoding="UTF-8"?>
<svg xmlns="http://www.w3.org/2000/svg" width="960" height="360" viewBox="0 0 960 360">
  <rect width="100%" height="100%" fill="#0f172a"/>
  <text x="56" y="18" fill="#e5e7eb" font-family="sans-serif" font-size="14">cache-friendly-prompt 推移（最新 500 件）</text>
  <line x1="56" y1="318" x2="944" y2="318" stroke="#475569"/>
  <line x1="56" y1="24" x2="56" y2="318" stroke="#475569"/>
  <text x="8" y="34" fill="#94a3b8" font-family="sans-serif" font-size="11">455149</text>
  <text x="20" y="318" fill="#94a3b8" font-family="sans-serif" font-size="11">0</text>
  <line x1="57.8" y1="24" x2="57.8" y2="318" stroke="#f59e0b" stroke-opacity="0.28"/>
  <line x1="59.6" y1="24" x2="59.6" y2="318" stroke="#f59e0b" stroke-opacity="0.28"/>
  <line x1="61.3" y1="24" x2="61.3" y2="318" stroke="#f59e0b" stroke-opacity="0.28"/>
  <line x1="72.0" y1="24" x2="72.0" y2="318" stroke="#f59e0b" stroke-opacity="0.28"/>
  <line x1="73.8" y1="24" x2="73.8" y2="318" stroke="#f59e0b" stroke-opacity="0.28"/>
  <line x1="79.1" y1="24" x2="79.1" y2="318" stroke="#f59e0b" stroke-opacity="0.28"/>
  <line x1="80.9" y1="24" x2="80.9" y2="318" stroke="#f59e0b" stroke-opacity="0.28"/>
  <line x1="89.8" y1="24" x2="89.8" y2="318" stroke="#f59e0b" stroke-opacity="0.28"/>
  <line x1="91.6" y1="24" x2="91.6" y2="318" stroke="#f59e0b" stroke-opacity="0.28"/>
  <line x1="98.7" y1="24" x2="98.7" y2="318" stroke="#f59e0b" stroke-opacity="0.28"/>
  <line x1="100.5" y1="24" x2="100.5" y2="318" stroke="#f59e0b" stroke-opacity="0.28"/>
  <line x1="104.0" y1="24" x2="104.0" y2="318" stroke="#f59e0b" stroke-opacity="0.28"/>
  <line x1="105.8" y1="24" x2="105.8" y2="318" stroke="#f59e0b" stroke-opacity="0.28"/>
  <line x1="107.6" y1="24" x2="107.6" y2="318" stroke="#f59e0b" stroke-opacity="0.28"/>
  <line x1="109.4" y1="24" x2="109.4" y2="318" stroke="#f59e0b" stroke-opacity="0.28"/>
  <line x1="112.9" y1="24" x2="112.9" y2="318" stroke="#f59e0b" stroke-opacity="0.28"/>
  <line x1="114.7" y1="24" x2="114.7" y2="318" stroke="#f59e0b" stroke-opacity="0.28"/>
  <line x1="118.3" y1="24" x2="118.3" y2="318" stroke="#f59e0b" stroke-opacity="0.28"/>
  <line x1="120.1" y1="24" x2="120.1" y2="318" stroke="#f59e0b" stroke-opacity="0.28"/>
  <line x1="125.4" y1="24" x2="125.4" y2="318" stroke="#f59e0b" stroke-opacity="0.28"/>
  <line x1="127.2" y1="24" x2="127.2" y2="318" stroke="#f59e0b" stroke-opacity="0.28"/>
  <line x1="139.6" y1="24" x2="139.6" y2="318" stroke="#f59e0b" stroke-opacity="0.28"/>
  <line x1="201.9" y1="24" x2="201.9" y2="318" stroke="#f59e0b" stroke-opacity="0.28"/>
  <line x1="217.9" y1="24" x2="217.9" y2="318" stroke="#f59e0b" stroke-opacity="0.28"/>
  <line x1="235.7" y1="24" x2="235.7" y2="318" stroke="#f59e0b" stroke-opacity="0.28"/>
  <line x1="246.4" y1="24" x2="246.4" y2="318" stroke="#f59e0b" stroke-opacity="0.28"/>
  <line x1="276.7" y1="24" x2="276.7" y2="318" stroke="#f59e0b" stroke-opacity="0.28"/>
  <line x1="278.4" y1="24" x2="278.4" y2="318" stroke="#f59e0b" stroke-opacity="0.28"/>
  <line x1="292.7" y1="24" x2="292.7" y2="318" stroke="#f59e0b" stroke-opacity="0.28"/>
  <line x1="301.6" y1="24" x2="301.6" y2="318" stroke="#f59e0b" stroke-opacity="0.28"/>
  <line x1="305.1" y1="24" x2="305.1" y2="318" stroke="#f59e0b" stroke-opacity="0.28"/>
  <line x1="306.9" y1="24" x2="306.9" y2="318" stroke="#f59e0b" stroke-opacity="0.28"/>
  <line x1="308.7" y1="24" x2="308.7" y2="318" stroke="#f59e0b" stroke-opacity="0.28"/>
  <line x1="381.7" y1="24" x2="381.7" y2="318" stroke="#f59e0b" stroke-opacity="0.28"/>
  <line x1="429.7" y1="24" x2="429.7" y2="318" stroke="#f59e0b" stroke-opacity="0.28"/>
  <line x1="433.3" y1="24" x2="433.3" y2="318" stroke="#f59e0b" stroke-opacity="0.28"/>
  <line x1="435.0" y1="24" x2="435.0" y2="318" stroke="#f59e0b" stroke-opacity="0.28"/>
  <line x1="436.8" y1="24" x2="436.8" y2="318" stroke="#f59e0b" stroke-opacity="0.28"/>
  <line x1="438.6" y1="24" x2="438.6" y2="318" stroke="#f59e0b" stroke-opacity="0.28"/>
  <line x1="442.2" y1="24" x2="442.2" y2="318" stroke="#f59e0b" stroke-opacity="0.28"/>
  <line x1="443.9" y1="24" x2="443.9" y2="318" stroke="#f59e0b" stroke-opacity="0.28"/>
  <line x1="451.1" y1="24" x2="451.1" y2="318" stroke="#f59e0b" stroke-opacity="0.28"/>
  <line x1="452.8" y1="24" x2="452.8" y2="318" stroke="#f59e0b" stroke-opacity="0.28"/>
  <line x1="456.4" y1="24" x2="456.4" y2="318" stroke="#f59e0b" stroke-opacity="0.28"/>
  <line x1="529.4" y1="24" x2="529.4" y2="318" stroke="#f59e0b" stroke-opacity="0.28"/>
  <line x1="718.0" y1="24" x2="718.0" y2="318" stroke="#f59e0b" stroke-opacity="0.28"/>
  <line x1="741.1" y1="24" x2="741.1" y2="318" stroke="#f59e0b" stroke-opacity="0.28"/>
  <line x1="744.7" y1="24" x2="744.7" y2="318" stroke="#f59e0b" stroke-opacity="0.28"/>
  <line x1="771.4" y1="24" x2="771.4" y2="318" stroke="#f59e0b" stroke-opacity="0.28"/>
  <line x1="776.7" y1="24" x2="776.7" y2="318" stroke="#f59e0b" stroke-opacity="0.28"/>
  <line x1="778.5" y1="24" x2="778.5" y2="318" stroke="#f59e0b" stroke-opacity="0.28"/>
  <line x1="831.9" y1="24" x2="831.9" y2="318" stroke="#f59e0b" stroke-opacity="0.28"/>
  <line x1="839.0" y1="24" x2="839.0" y2="318" stroke="#f59e0b" stroke-opacity="0.28"/>
  <line x1="847.9" y1="24" x2="847.9" y2="318" stroke="#f59e0b" stroke-opacity="0.28"/>
  <polyline fill="none" stroke="#38bdf8" stroke-width="2" points="56.0,307.3 57.8,310.0 59.6,307.3 61.3,310.0 63.1,310.0 64.9,310.0 66.7,310.0 68.5,310.0 70.2,310.0 72.0,307.3 73.8,310.0 75.6,310.0 77.4,310.0 79.1,307.3 80.9,310.0 82.7,310.0 84.5,310.0 86.3,310.0 88.0,310.0 89.8,307.3 91.6,310.0 93.4,310.0 95.2,310.0 96.9,310.0 98.7,307.3 100.5,310.0 102.3,310.0 104.0,307.3 105.8,310.0 107.6,307.3 109.4,310.0 111.2,310.0 112.9,307.3 114.7,310.0 116.5,310.0 118.3,307.3 120.1,310.0 121.8,310.0 123.6,310.0 125.4,307.3 127.2,310.0 129.0,310.0 130.7,310.0 132.5,310.0 134.3,310.0 136.1,310.0 137.9,309.7 139.6,307.3 141.4,307.3 143.2,307.3 145.0,307.3 146.8,304.6 148.5,304.1 150.3,304.1 152.1,304.1 153.9,303.8 155.7,303.8 157.4,303.8 159.2,303.8 161.0,303.8 162.8,303.8 164.6,303.8 166.3,303.8 168.1,303.8 169.9,303.8 171.7,303.8 173.5,303.8 175.2,303.8 177.0,303.8 178.8,303.8 180.6,303.2 182.3,303.2 184.1,303.2 185.9,303.2 187.7,303.2 189.5,303.2 191.2,303.2 193.0,303.2 194.8,303.2 196.6,303.2 198.4,303.2 200.1,302.9 201.9,310.0 203.7,308.2 205.5,307.3 207.3,307.2 209.0,305.6 210.8,302.1 212.6,301.4 214.4,301.0 216.2,300.2 217.9,313.3 219.7,313.0 221.5,264.6 223.3,298.2 225.1,264.6 226.8,290.0 228.6,261.9 230.4,186.9 232.2,97.6 234.0,86.9 235.7,300.1 237.5,299.6 239.3,299.6 241.1,299.3 242.9,298.8 244.6,298.1 246.4,312.8 248.2,312.6 250.0,263.6 251.8,175.8 253.5,242.2 255.3,67.6 257.1,185.0 258.9,184.9 260.6,34.8 262.4,171.5 264.2,130.5 266.0,119.9 267.8,119.4 269.5,90.6 271.3,76.5 273.1,39.7 274.9,37.5 276.7,298.0 278.4,37.5 280.2,37.5 282.0,34.9 283.8,30.9 285.6,29.6 287.3,28.0 289.1,27.2 290.9,24.0 292.7,298.0 294.5,297.4 296.2,296.9 298.0,296.4 299.8,296.1 301.6,313.4 303.4,291.3 305.1,278.2 306.9,291.2 308.7,277.8 310.5,277.7 312.3,277.6 314.0,244.3 315.8,228.6 317.6,218.9 319.4,218.8 321.2,216.0 322.9,215.9 324.7,215.8 326.5,213.4 328.3,212.8 330.1,211.5 331.8,211.4 333.6,211.2 335.4,209.1 337.2,204.6 338.9,204.5 340.7,204.4 342.5,204.3 344.3,203.1 346.1,203.0 347.8,202.8 349.6,201.0 351.4,195.0 353.2,194.9 355.0,194.3 356.7,194.2 358.5,194.0 360.3,193.9 362.1,192.0 363.9,188.2 365.6,186.1 367.4,178.5 369.2,178.4 371.0,178.2 372.8,176.6 374.5,176.3 376.3,176.2 378.1,176.1 379.9,176.1 381.7,305.8 383.4,305.5 385.2,305.2 387.0,305.2 388.8,305.2 390.6,305.0 392.3,305.0 394.1,304.6 395.9,304.4 397.7,304.4 399.5,304.4 401.2,304.1 403.0,304.1 404.8,303.8 406.6,303.8 408.4,303.8 410.1,303.6 411.9,303.6 413.7,303.2 415.5,302.9 417.3,301.5 419.0,301.5 420.8,301.5 422.6,285.4 424.4,285.4 426.1,285.0 427.9,284.7 429.7,313.6 431.5,313.6 433.3,284.7 435.0,313.4 436.8,284.7 438.6,313.4 440.4,313.4 442.2,284.4 443.9,313.4 445.7,313.4 447.5,313.4 449.3,313.4 451.1,284.0 452.8,313.4 454.6,313.4 456.4,284.0 458.2,284.0 460.0,284.0 461.7,284.0 463.5,284.0 465.3,284.0 467.1,282.6 468.9,282.3 470.6,282.3 472.4,282.0 474.2,282.0 476.0,282.0 477.8,282.0 479.5,281.6 481.3,281.6 483.1,281.6 484.9,281.6 486.7,281.6 488.4,281.6 490.2,281.4 492.0,281.4 493.8,281.4 495.6,281.4 497.3,281.1 499.1,281.1 500.9,280.8 502.7,280.8 504.4,280.4 506.2,280.4 508.0,280.1 509.8,279.9 511.6,279.9 513.3,279.9 515.1,279.9 516.9,279.9 518.7,279.9 520.5,279.9 522.2,279.9 524.0,279.9 525.8,279.9 527.6,279.6 529.4,310.9 531.1,310.5 532.9,310.2 534.7,310.2 536.5,309.9 538.3,309.6 540.0,309.6 541.8,309.6 543.6,309.6 545.4,309.6 547.2,309.6 548.9,309.6 550.7,309.6 552.5,309.3 554.3,309.3 556.1,309.3 557.8,309.3 559.6,309.3 561.4,309.3 563.2,309.3 565.0,309.3 566.7,309.0 568.5,308.7 570.3,308.7 572.1,308.4 573.9,308.4 575.6,308.4 577.4,308.4 579.2,307.7 581.0,307.7 582.7,307.5 584.5,307.5 586.3,307.5 588.1,306.8 589.9,305.9 591.6,305.8 593.4,304.3 595.2,303.6 597.0,303.6 598.8,303.6 600.5,303.6 602.3,303.6 604.1,303.6 605.9,303.6 607.7,303.6 609.4,303.6 611.2,303.6 613.0,303.6 614.8,303.4 616.6,302.6 618.3,302.0 620.1,301.1 621.9,300.9 623.7,300.9 625.5,300.9 627.2,300.9 629.0,300.6 630.8,300.6 632.6,300.6 634.4,300.3 636.1,300.0 637.9,300.0 639.7,300.0 641.5,299.7 643.3,299.4 645.0,299.2 646.8,298.6 648.6,296.7 650.4,296.4 652.2,296.4 653.9,296.4 655.7,296.4 657.5,296.4 659.3,296.4 661.1,296.0 662.8,296.0 664.6,296.0 666.4,296.0 668.2,296.0 669.9,295.6 671.7,295.2 673.5,295.2 675.3,295.2 677.1,295.2 678.8,295.2 680.6,294.9 682.4,293.9 684.2,293.9 686.0,293.9 687.7,293.9 689.5,293.9 691.3,293.9 693.1,293.9 694.9,293.6 696.6,291.6 698.4,291.3 700.2,291.3 702.0,291.3 703.8,291.3 705.5,291.3 707.3,291.3 709.1,291.3 710.9,291.3 712.7,291.3 714.4,291.3 716.2,291.3 718.0,314.5 719.8,314.5 721.6,314.5 723.3,314.3 725.1,313.9 726.9,313.6 728.7,314.6 730.5,314.3 732.2,314.1 734.0,313.8 735.8,313.5 737.6,313.5 739.4,313.2 741.1,312.1 742.9,312.3 744.7,267.2 746.5,262.7 748.2,262.5 750.0,257.2 751.8,252.4 753.6,252.3 755.4,252.3 757.1,251.3 758.9,251.2 760.7,251.1 762.5,250.0 764.3,249.0 766.0,249.0 767.8,246.9 769.6,246.4 771.4,308.8 773.2,308.4 774.9,308.2 776.7,307.3 778.5,208.2 780.3,207.3 782.1,206.6 783.8,206.5 785.6,206.4 787.4,206.3 789.2,205.6 791.0,205.5 792.7,205.4 794.5,204.6 796.3,204.4 798.1,204.1 799.9,204.0 801.6,203.8 803.4,203.7 805.2,203.5 807.0,203.3 808.8,203.1 810.5,203.0 812.3,201.0 814.1,200.9 815.9,197.8 817.7,197.6 819.4,196.6 821.2,196.4 823.0,196.1 824.8,196.1 826.5,195.9 828.3,193.8 830.1,193.7 831.9,304.5 833.7,304.2 835.4,304.2 837.2,304.0 839.0,304.3 840.8,304.0 842.6,304.0 844.3,303.5 846.1,282.9 847.9,110.8 849.7,110.7 851.5,110.6 853.2,109.9 855.0,109.5 856.8,109.3 858.6,108.7 860.4,108.7 862.1,108.6 863.9,108.5 865.7,108.1 867.5,106.7 869.3,106.5 871.0,106.4 872.8,106.3 874.6,106.2 876.4,106.1 878.2,105.6 879.9,104.4 881.7,104.2 883.5,104.2 885.3,103.2 887.1,103.1 888.8,103.1 890.6,102.8 892.4,102.5 894.2,102.3 896.0,102.1 897.7,101.8 899.5,101.4 901.3,101.1 903.1,100.8 904.8,100.7 906.6,100.7 908.4,100.4 910.2,100.0 912.0,99.1 913.7,98.9 915.5,98.8 917.3,98.0 919.1,97.6 920.9,97.5 922.6,97.3 924.4,97.2 926.2,97.0 928.0,97.0 929.8,96.9 931.5,95.9 933.3,95.2 935.1,94.6 936.9,94.5 938.7,94.4 940.4,94.4 942.2,94.3 944.0,94.2"/>
  <polyline fill="none" stroke="#22c55e" stroke-width="2" points="56.0,307.7 57.8,311.1 59.6,307.7 61.3,311.1 63.1,311.1 64.9,311.1 66.7,311.1 68.5,311.1 70.2,311.1 72.0,307.7 73.8,311.1 75.6,311.1 77.4,311.1 79.1,307.7 80.9,311.1 82.7,311.1 84.5,311.1 86.3,311.1 88.0,311.1 89.8,307.7 91.6,311.1 93.4,311.1 95.2,311.1 96.9,311.1 98.7,307.7 100.5,311.1 102.3,311.1 104.0,307.7 105.8,311.1 107.6,307.7 109.4,311.1 111.2,311.1 112.9,307.7 114.7,311.1 116.5,311.1 118.3,307.7 120.1,311.1 121.8,311.1 123.6,311.1 125.4,307.7 127.2,311.1 129.0,311.1 130.7,311.1 132.5,311.1 134.3,311.1 136.1,311.1 137.9,311.1 139.6,307.7 141.4,307.7 143.2,307.7 145.0,307.7 146.8,307.7 148.5,307.7 150.3,307.7 152.1,307.7 153.9,307.7 155.7,307.7 157.4,307.7 159.2,307.7 161.0,307.7 162.8,307.7 164.6,307.7 166.3,307.7 168.1,307.7 169.9,307.7 171.7,307.7 173.5,307.7 175.2,307.7 177.0,307.7 178.8,307.7 180.6,307.7 182.3,307.7 184.1,307.7 185.9,307.7 187.7,307.7 189.5,307.7 191.2,307.7 193.0,307.7 194.8,307.7 196.6,307.7 198.4,307.7 200.1,307.7 201.9,310.1 203.7,310.1 205.5,310.1 207.3,310.1 209.0,310.1 210.8,310.1 212.6,310.1 214.4,310.1 216.2,310.1 217.9,313.9 219.7,313.9 221.5,313.9 223.3,313.9 225.1,313.9 226.8,313.9 228.6,313.9 230.4,313.9 232.2,313.9 234.0,313.9 235.7,310.1 237.5,310.1 239.3,310.1 241.1,310.1 242.9,310.1 244.6,310.1 246.4,313.9 248.2,313.9 250.0,313.9 251.8,313.9 253.5,313.9 255.3,313.9 257.1,313.9 258.9,313.9 260.6,313.9 262.4,313.9 264.2,313.9 266.0,313.9 267.8,313.9 269.5,313.9 271.3,313.9 273.1,313.9 274.9,313.9 276.7,310.1 278.4,313.9 280.2,313.9 282.0,313.9 283.8,313.9 285.6,313.9 287.3,313.9 289.1,313.9 290.9,313.9 292.7,310.1 294.5,310.1 296.2,310.1 298.0,310.1 299.8,310.1 301.6,313.9 303.4,313.9 305.1,310.1 306.9,313.9 308.7,310.1 310.5,310.1 312.3,310.1 314.0,310.1 315.8,310.1 317.6,310.1 319.4,310.1 321.2,310.1 322.9,310.1 324.7,310.1 326.5,310.1 328.3,310.1 330.1,310.1 331.8,310.1 333.6,310.1 335.4,310.1 337.2,310.1 338.9,310.1 340.7,310.1 342.5,310.1 344.3,310.1 346.1,310.1 347.8,310.1 349.6,310.1 351.4,310.1 353.2,310.1 355.0,310.1 356.7,310.1 358.5,310.1 360.3,310.1 362.1,310.1 363.9,310.1 365.6,310.1 367.4,310.1 369.2,310.1 371.0,310.1 372.8,310.1 374.5,310.1 376.3,310.1 378.1,310.1 379.9,310.1 381.7,310.6 383.4,310.6 385.2,310.6 387.0,310.6 388.8,310.6 390.6,310.6 392.3,310.6 394.1,310.6 395.9,310.6 397.7,310.6 399.5,310.6 401.2,310.6 403.0,310.6 404.8,310.6 406.6,310.6 408.4,310.6 410.1,310.6 411.9,310.6 413.7,310.6 415.5,310.6 417.3,310.6 419.0,310.6 420.8,310.6 422.6,310.6 424.4,310.6 426.1,310.6 427.9,310.6 429.7,313.9 431.5,313.9 433.3,310.6 435.0,313.9 436.8,310.6 438.6,313.9 440.4,313.9 442.2,310.6 443.9,313.9 445.7,313.9 447.5,313.9 449.3,313.9 451.1,310.6 452.8,313.9 454.6,313.9 456.4,310.6 458.2,310.6 460.0,310.6 461.7,310.6 463.5,310.6 465.3,310.6 467.1,310.6 468.9,310.6 470.6,310.6 472.4,310.6 474.2,310.6 476.0,310.6 477.8,310.6 479.5,310.6 481.3,310.6 483.1,310.6 484.9,310.6 486.7,310.6 488.4,310.6 490.2,310.6 492.0,310.6 493.8,310.6 495.6,310.6 497.3,310.6 499.1,310.6 500.9,310.6 502.7,310.6 504.4,310.6 506.2,310.6 508.0,310.6 509.8,310.6 511.6,310.6 513.3,310.6 515.1,310.6 516.9,310.6 518.7,310.6 520.5,310.6 522.2,310.6 524.0,310.6 525.8,310.6 527.6,310.6 529.4,310.9 531.1,310.9 532.9,310.9 534.7,310.9 536.5,310.9 538.3,310.9 540.0,310.9 541.8,310.9 543.6,310.9 545.4,310.9 547.2,310.9 548.9,310.9 550.7,310.9 552.5,310.9 554.3,310.9 556.1,310.9 557.8,310.9 559.6,310.9 561.4,310.9 563.2,310.9 565.0,310.9 566.7,310.9 568.5,310.9 570.3,310.9 572.1,310.9 573.9,310.9 575.6,310.9 577.4,310.9 579.2,310.9 581.0,310.9 582.7,310.9 584.5,310.9 586.3,310.9 588.1,310.9 589.9,310.9 591.6,310.9 593.4,310.9 595.2,310.9 597.0,310.9 598.8,310.9 600.5,310.9 602.3,310.9 604.1,310.9 605.9,310.9 607.7,310.9 609.4,310.9 611.2,310.9 613.0,310.9 614.8,310.9 616.6,310.9 618.3,310.9 620.1,310.9 621.9,310.9 623.7,310.9 625.5,310.9 627.2,310.9 629.0,310.9 630.8,310.9 632.6,310.9 634.4,310.9 636.1,310.9 637.9,310.9 639.7,310.9 641.5,310.9 643.3,310.9 645.0,310.9 646.8,310.9 648.6,310.9 650.4,310.9 652.2,310.9 653.9,310.9 655.7,310.9 657.5,310.9 659.3,310.9 661.1,310.9 662.8,310.9 664.6,310.9 666.4,310.9 668.2,310.9 669.9,310.9 671.7,310.9 673.5,310.9 675.3,310.9 677.1,310.9 678.8,310.9 680.6,310.9 682.4,310.9 684.2,310.9 686.0,310.9 687.7,310.9 689.5,310.9 691.3,310.9 693.1,310.9 694.9,310.9 696.6,310.9 698.4,310.9 700.2,310.9 702.0,310.9 703.8,310.9 705.5,310.9 707.3,310.9 709.1,310.9 710.9,310.9 712.7,310.9 714.4,310.9 716.2,310.9 718.0,314.8 719.8,314.8 721.6,314.8 723.3,314.8 725.1,314.8 726.9,314.8 728.7,314.8 730.5,314.8 732.2,314.8 734.0,314.8 735.8,314.8 737.6,314.8 739.4,314.8 741.1,315.4 742.9,315.4 744.7,310.9 746.5,310.9 748.2,310.9 750.0,310.9 751.8,310.9 753.6,310.9 755.4,310.9 757.1,310.9 758.9,310.9 760.7,310.9 762.5,310.9 764.3,310.9 766.0,310.9 767.8,310.9 769.6,310.9 771.4,314.8 773.2,314.8 774.9,314.8 776.7,315.4 778.5,310.9 780.3,310.9 782.1,310.9 783.8,310.9 785.6,310.9 787.4,310.9 789.2,310.9 791.0,310.9 792.7,310.9 794.5,310.9 796.3,310.9 798.1,310.9 799.9,310.9 801.6,310.9 803.4,310.9 805.2,310.9 807.0,310.9 808.8,310.9 810.5,310.9 812.3,310.9 814.1,310.9 815.9,310.9 817.7,310.9 819.4,310.9 821.2,310.9 823.0,310.9 824.8,310.9 826.5,310.9 828.3,310.9 830.1,310.9 831.9,314.8 833.7,314.8 835.4,314.8 837.2,314.8 839.0,315.4 840.8,315.4 842.6,315.4 844.3,315.4 846.1,315.4 847.9,310.9 849.7,310.9 851.5,310.9 853.2,310.9 855.0,310.9 856.8,310.9 858.6,310.9 860.4,310.9 862.1,310.9 863.9,310.9 865.7,310.9 867.5,310.9 869.3,310.9 871.0,310.9 872.8,310.9 874.6,310.9 876.4,310.9 878.2,310.9 879.9,310.9 881.7,310.9 883.5,310.9 885.3,310.9 887.1,310.9 888.8,310.9 890.6,310.9 892.4,310.9 894.2,310.9 896.0,310.9 897.7,310.9 899.5,310.9 901.3,310.9 903.1,310.9 904.8,310.9 906.6,310.9 908.4,310.9 910.2,310.9 912.0,310.9 913.7,310.9 915.5,310.9 917.3,310.9 919.1,310.9 920.9,310.9 922.6,310.9 924.4,310.9 926.2,310.9 928.0,310.9 929.8,310.9 931.5,310.9 933.3,310.9 935.1,310.9 936.9,310.9 938.7,310.9 940.4,310.9 942.2,310.9 944.0,310.9"/>
  <circle cx="741.1" cy="32" r="3" fill="#ef4444"/>
  <circle cx="742.9" cy="32" r="3" fill="#ef4444"/>
  <circle cx="776.7" cy="32" r="3" fill="#ef4444"/>
  <circle cx="839.0" cy="32" r="3" fill="#ef4444"/>
  <circle cx="840.8" cy="32" r="3" fill="#ef4444"/>
  <circle cx="842.6" cy="32" r="3" fill="#ef4444"/>
  <circle cx="844.3" cy="32" r="3" fill="#ef4444"/>
  <circle cx="846.1" cy="32" r="3" fill="#ef4444"/>
  <rect x="710" y="28" width="220" height="62" rx="6" fill="#111827" stroke="#334155"/>
  <line x1="724" y1="48" x2="764" y2="48" stroke="#38bdf8" stroke-width="3"/><text x="772" y="52" fill="#cbd5e1" font-family="sans-serif" font-size="12">totalPromptChars</text>
  <line x1="724" y1="68" x2="764" y2="68" stroke="#22c55e" stroke-width="3"/><text x="772" y="72" fill="#cbd5e1" font-family="sans-serif" font-size="12">stablePrefixChars</text>
</svg>
