<?xml version="1.0" encoding="UTF-8"?>
<svg xmlns="http://www.w3.org/2000/svg" width="960" height="360" viewBox="0 0 960 360">
  <rect width="100%" height="100%" fill="#0f172a"/>
  <text x="56" y="18" fill="#e5e7eb" font-family="sans-serif" font-size="14">cache-friendly-prompt 推移（最新 500 件）</text>
  <line x1="56" y1="318" x2="944" y2="318" stroke="#475569"/>
  <line x1="56" y1="24" x2="56" y2="318" stroke="#475569"/>
  <text x="8" y="34" fill="#94a3b8" font-family="sans-serif" font-size="11">455149</text>
  <text x="20" y="318" fill="#94a3b8" font-family="sans-serif" font-size="11">0</text>
  <line x1="59.6" y1="24" x2="59.6" y2="318" stroke="#f59e0b" stroke-opacity="0.28"/>
  <line x1="75.6" y1="24" x2="75.6" y2="318" stroke="#f59e0b" stroke-opacity="0.28"/>
  <line x1="93.4" y1="24" x2="93.4" y2="318" stroke="#f59e0b" stroke-opacity="0.28"/>
  <line x1="104.0" y1="24" x2="104.0" y2="318" stroke="#f59e0b" stroke-opacity="0.28"/>
  <line x1="134.3" y1="24" x2="134.3" y2="318" stroke="#f59e0b" stroke-opacity="0.28"/>
  <line x1="136.1" y1="24" x2="136.1" y2="318" stroke="#f59e0b" stroke-opacity="0.28"/>
  <line x1="150.3" y1="24" x2="150.3" y2="318" stroke="#f59e0b" stroke-opacity="0.28"/>
  <line x1="159.2" y1="24" x2="159.2" y2="318" stroke="#f59e0b" stroke-opacity="0.28"/>
  <line x1="162.8" y1="24" x2="162.8" y2="318" stroke="#f59e0b" stroke-opacity="0.28"/>
  <line x1="164.6" y1="24" x2="164.6" y2="318" stroke="#f59e0b" stroke-opacity="0.28"/>
  <line x1="166.3" y1="24" x2="166.3" y2="318" stroke="#f59e0b" stroke-opacity="0.28"/>
  <line x1="239.3" y1="24" x2="239.3" y2="318" stroke="#f59e0b" stroke-opacity="0.28"/>
  <line x1="287.3" y1="24" x2="287.3" y2="318" stroke="#f59e0b" stroke-opacity="0.28"/>
  <line x1="290.9" y1="24" x2="290.9" y2="318" stroke="#f59e0b" stroke-opacity="0.28"/>
  <line x1="292.7" y1="24" x2="292.7" y2="318" stroke="#f59e0b" stroke-opacity="0.28"/>
  <line x1="294.5" y1="24" x2="294.5" y2="318" stroke="#f59e0b" stroke-opacity="0.28"/>
  <line x1="296.2" y1="24" x2="296.2" y2="318" stroke="#f59e0b" stroke-opacity="0.28"/>
  <line x1="299.8" y1="24" x2="299.8" y2="318" stroke="#f59e0b" stroke-opacity="0.28"/>
  <line x1="301.6" y1="24" x2="301.6" y2="318" stroke="#f59e0b" stroke-opacity="0.28"/>
  <line x1="308.7" y1="24" x2="308.7" y2="318" stroke="#f59e0b" stroke-opacity="0.28"/>
  <line x1="310.5" y1="24" x2="310.5" y2="318" stroke="#f59e0b" stroke-opacity="0.28"/>
  <line x1="314.0" y1="24" x2="314.0" y2="318" stroke="#f59e0b" stroke-opacity="0.28"/>
  <line x1="387.0" y1="24" x2="387.0" y2="318" stroke="#f59e0b" stroke-opacity="0.28"/>
  <line x1="575.6" y1="24" x2="575.6" y2="318" stroke="#f59e0b" stroke-opacity="0.28"/>
  <line x1="598.8" y1="24" x2="598.8" y2="318" stroke="#f59e0b" stroke-opacity="0.28"/>
  <line x1="602.3" y1="24" x2="602.3" y2="318" stroke="#f59e0b" stroke-opacity="0.28"/>
  <line x1="629.0" y1="24" x2="629.0" y2="318" stroke="#f59e0b" stroke-opacity="0.28"/>
  <line x1="634.4" y1="24" x2="634.4" y2="318" stroke="#f59e0b" stroke-opacity="0.28"/>
  <line x1="636.1" y1="24" x2="636.1" y2="318" stroke="#f59e0b" stroke-opacity="0.28"/>
  <line x1="689.5" y1="24" x2="689.5" y2="318" stroke="#f59e0b" stroke-opacity="0.28"/>
  <line x1="696.6" y1="24" x2="696.6" y2="318" stroke="#f59e0b" stroke-opacity="0.28"/>
  <line x1="705.5" y1="24" x2="705.5" y2="318" stroke="#f59e0b" stroke-opacity="0.28"/>
  <line x1="810.5" y1="24" x2="810.5" y2="318" stroke="#f59e0b" stroke-opacity="0.28"/>
  <polyline fill="none" stroke="#38bdf8" stroke-width="2" points="56.0,303.2 57.8,302.9 59.6,310.0 61.3,308.2 63.1,307.3 64.9,307.2 66.7,305.6 68.5,302.1 70.2,301.4 72.0,301.0 73.8,300.2 75.6,313.3 77.4,313.0 79.1,264.6 80.9,298.2 82.7,264.6 84.5,290.0 86.3,261.9 88.0,186.9 89.8,97.6 91.6,86.9 93.4,300.1 95.2,299.6 96.9,299.6 98.7,299.3 100.5,298.8 102.3,298.1 104.0,312.8 105.8,312.6 107.6,263.6 109.4,175.8 111.2,242.2 112.9,67.6 114.7,185.0 116.5,184.9 118.3,34.8 120.1,171.5 121.8,130.5 123.6,119.9 125.4,119.4 127.2,90.6 129.0,76.5 130.7,39.7 132.5,37.5 134.3,298.0 136.1,37.5 137.9,37.5 139.6,34.9 141.4,30.9 143.2,29.6 145.0,28.0 146.8,27.2 148.5,24.0 150.3,298.0 152.1,297.4 153.9,296.9 155.7,296.4 157.4,296.1 159.2,313.4 161.0,291.3 162.8,278.2 164.6,291.2 166.3,277.8 168.1,277.7 169.9,277.6 171.7,244.3 173.5,228.6 175.2,218.9 177.0,218.8 178.8,216.0 180.6,215.9 182.3,215.8 184.1,213.4 185.9,212.8 187.7,211.5 189.5,211.4 191.2,211.2 193.0,209.1 194.8,204.6 196.6,204.5 198.4,204.4 200.1,204.3 201.9,203.1 203.7,203.0 205.5,202.8 207.3,201.0 209.0,195.0 210.8,194.9 212.6,194.3 214.4,194.2 216.2,194.0 217.9,193.9 219.7,192.0 221.5,188.2 223.3,186.1 225.1,178.5 226.8,178.4 228.6,178.2 230.4,176.6 232.2,176.3 234.0,176.2 235.7,176.1 237.5,176.1 239.3,305.8 241.1,305.5 242.9,305.2 244.6,305.2 246.4,305.2 248.2,305.0 250.0,305.0 251.8,304.6 253.5,304.4 255.3,304.4 257.1,304.4 258.9,304.1 260.6,304.1 262.4,303.8 264.2,303.8 266.0,303.8 267.8,303.6 269.5,303.6 271.3,303.2 273.1,302.9 274.9,301.5 276.7,301.5 278.4,301.5 280.2,285.4 282.0,285.4 283.8,285.0 285.6,284.7 287.3,313.6 289.1,313.6 290.9,284.7 292.7,313.4 294.5,284.7 296.2,313.4 298.0,313.4 299.8,284.4 301.6,313.4 303.4,313.4 305.1,313.4 306.9,313.4 308.7,284.0 310.5,313.4 312.3,313.4 314.0,284.0 315.8,284.0 317.6,284.0 319.4,284.0 321.2,284.0 322.9,284.0 324.7,282.6 326.5,282.3 328.3,282.3 330.1,282.0 331.8,282.0 333.6,282.0 335.4,282.0 337.2,281.6 338.9,281.6 340.7,281.6 342.5,281.6 344.3,281.6 346.1,281.6 347.8,281.4 349.6,281.4 351.4,281.4 353.2,281.4 355.0,281.1 356.7,281.1 358.5,280.8 360.3,280.8 362.1,280.4 363.9,280.4 365.6,280.1 367.4,279.9 369.2,279.9 371.0,279.9 372.8,279.9 374.5,279.9 376.3,279.9 378.1,279.9 379.9,279.9 381.7,279.9 383.4,279.9 385.2,279.6 387.0,310.9 388.8,310.5 390.6,310.2 392.3,310.2 394.1,309.9 395.9,309.6 397.7,309.6 399.5,309.6 401.2,309.6 403.0,309.6 404.8,309.6 406.6,309.6 408.4,309.6 410.1,309.3 411.9,309.3 413.7,309.3 415.5,309.3 417.3,309.3 419.0,309.3 420.8,309.3 422.6,309.3 424.4,309.0 426.1,308.7 427.9,308.7 429.7,308.4 431.5,308.4 433.3,308.4 435.0,308.4 436.8,307.7 438.6,307.7 440.4,307.5 442.2,307.5 443.9,307.5 445.7,306.8 447.5,305.9 449.3,305.8 451.1,304.3 452.8,303.6 454.6,303.6 456.4,303.6 458.2,303.6 460.0,303.6 461.7,303.6 463.5,303.6 465.3,303.6 467.1,303.6 468.9,303.6 470.6,303.6 472.4,303.4 474.2,302.6 476.0,302.0 477.8,301.1 479.5,300.9 481.3,300.9 483.1,300.9 484.9,300.9 486.7,300.6 488.4,300.6 490.2,300.6 492.0,300.3 493.8,300.0 495.6,300.0 497.3,300.0 499.1,299.7 500.9,299.4 502.7,299.2 504.4,298.6 506.2,296.7 508.0,296.4 509.8,296.4 511.6,296.4 513.3,296.4 515.1,296.4 516.9,296.4 518.7,296.0 520.5,296.0 522.2,296.0 524.0,296.0 525.8,296.0 527.6,295.6 529.4,295.2 531.1,295.2 532.9,295.2 534.7,295.2 536.5,295.2 538.3,294.9 540.0,293.9 541.8,293.9 543.6,293.9 545.4,293.9 547.2,293.9 548.9,293.9 550.7,293.9 552.5,293.6 554.3,291.6 556.1,291.3 557.8,291.3 559.6,291.3 561.4,291.3 563.2,291.3 565.0,291.3 566.7,291.3 568.5,291.3 570.3,291.3 572.1,291.3 573.9,291.3 575.6,314.5 577.4,314.5 579.2,314.5 581.0,314.3 582.7,313.9 584.5,313.6 586.3,314.6 588.1,314.3 589.9,314.1 591.6,313.8 593.4,313.5 595.2,313.5 597.0,313.2 598.8,312.1 600.5,312.3 602.3,267.2 604.1,262.7 605.9,262.5 607.7,257.2 609.4,252.4 611.2,252.3 613.0,252.3 614.8,251.3 616.6,251.2 618.3,251.1 620.1,250.0 621.9,249.0 623.7,249.0 625.5,246.9 627.2,246.4 629.0,308.8 630.8,308.4 632.6,308.2 634.4,307.3 636.1,208.2 637.9,207.3 639.7,206.6 641.5,206.5 643.3,206.4 645.0,206.3 646.8,205.6 648.6,205.5 650.4,205.4 652.2,204.6 653.9,204.4 655.7,204.1 657.5,204.0 659.3,203.8 661.1,203.7 662.8,203.5 664.6,203.3 666.4,203.1 668.2,203.0 669.9,201.0 671.7,200.9 673.5,197.8 675.3,197.6 677.1,196.6 678.8,196.4 680.6,196.1 682.4,196.1 684.2,195.9 686.0,193.8 687.7,193.7 689.5,304.5 691.3,304.2 693.1,304.2 694.9,304.0 696.6,304.3 698.4,304.0 700.2,304.0 702.0,303.5 703.8,282.9 705.5,110.8 707.3,110.7 709.1,110.6 710.9,109.9 712.7,109.5 714.4,109.3 716.2,108.7 718.0,108.7 719.8,108.6 721.6,108.5 723.3,108.1 725.1,106.7 726.9,106.5 728.7,106.4 730.5,106.3 732.2,106.2 734.0,106.1 735.8,105.6 737.6,104.4 739.4,104.2 741.1,104.2 742.9,103.2 744.7,103.1 746.5,103.1 748.2,102.8 750.0,102.5 751.8,102.3 753.6,102.1 755.4,101.8 757.1,101.4 758.9,101.1 760.7,100.8 762.5,100.7 764.3,100.7 766.0,100.4 767.8,100.0 769.6,99.1 771.4,98.9 773.2,98.8 774.9,98.0 776.7,97.6 778.5,97.5 780.3,97.3 782.1,97.2 783.8,97.0 785.6,97.0 787.4,96.9 789.2,95.9 791.0,95.2 792.7,94.6 794.5,94.5 796.3,94.4 798.1,94.4 799.9,94.3 801.6,94.2 803.4,94.2 805.2,93.9 807.0,92.3 808.8,92.1 810.5,310.6 812.3,310.1 814.1,309.1 815.9,307.9 817.7,307.1 819.4,307.1 821.2,306.9 823.0,306.6 824.8,305.6 826.5,304.8 828.3,304.8 830.1,304.2 831.9,303.3 833.7,303.1 835.4,302.9 837.2,302.7 839.0,302.7 840.8,302.6 842.6,309.7 844.3,309.4 846.1,309.4 847.9,309.1 849.7,308.8 851.5,308.5 853.2,308.3 855.0,308.3 856.8,308.3 858.6,308.0 860.4,307.7 862.1,307.7 863.9,307.7 865.7,307.5 867.5,307.5 869.3,306.7 871.0,306.5 872.8,306.2 874.6,305.7 876.4,305.1 878.2,304.8 879.9,301.7 881.7,301.4 883.5,301.1 885.3,301.1 887.1,300.8 888.8,300.8 890.6,300.8 892.4,300.8 894.2,300.5 896.0,300.5 897.7,300.5 899.5,300.5 901.3,300.3 903.1,300.3 904.8,300.0 906.6,297.6 908.4,297.3 910.2,297.3 912.0,297.0 913.7,296.7 915.5,296.4 917.3,296.4 919.1,296.0 920.9,295.7 922.6,295.4 924.4,295.1 926.2,294.8 928.0,294.1 929.8,294.1 931.5,294.1 933.3,294.1 935.1,294.1 936.9,294.1 938.7,294.1 940.4,293.8 942.2,293.5 944.0,293.5"/>
  <polyline fill="none" stroke="#22c55e" stroke-width="2" points="56.0,307.7 57.8,307.7 59.6,310.1 61.3,310.1 63.1,310.1 64.9,310.1 66.7,310.1 68.5,310.1 70.2,310.1 72.0,310.1 73.8,310.1 75.6,313.9 77.4,313.9 79.1,313.9 80.9,313.9 82.7,313.9 84.5,313.9 86.3,313.9 88.0,313.9 89.8,313.9 91.6,313.9 93.4,310.1 95.2,310.1 96.9,310.1 98.7,310.1 100.5,310.1 102.3,310.1 104.0,313.9 105.8,313.9 107.6,313.9 109.4,313.9 111.2,313.9 112.9,313.9 114.7,313.9 116.5,313.9 118.3,313.9 120.1,313.9 121.8,313.9 123.6,313.9 125.4,313.9 127.2,313.9 129.0,313.9 130.7,313.9 132.5,313.9 134.3,310.1 136.1,313.9 137.9,313.9 139.6,313.9 141.4,313.9 143.2,313.9 145.0,313.9 146.8,313.9 148.5,313.9 150.3,310.1 152.1,310.1 153.9,310.1 155.7,310.1 157.4,310.1 159.2,313.9 161.0,313.9 162.8,310.1 164.6,313.9 166.3,310.1 168.1,310.1 169.9,310.1 171.7,310.1 173.5,310.1 175.2,310.1 177.0,310.1 178.8,310.1 180.6,310.1 182.3,310.1 184.1,310.1 185.9,310.1 187.7,310.1 189.5,310.1 191.2,310.1 193.0,310.1 194.8,310.1 196.6,310.1 198.4,310.1 200.1,310.1 201.9,310.1 203.7,310.1 205.5,310.1 207.3,310.1 209.0,310.1 210.8,310.1 212.6,310.1 214.4,310.1 216.2,310.1 217.9,310.1 219.7,310.1 221.5,310.1 223.3,310.1 225.1,310.1 226.8,310.1 228.6,310.1 230.4,310.1 232.2,310.1 234.0,310.1 235.7,310.1 237.5,310.1 239.3,310.6 241.1,310.6 242.9,310.6 244.6,310.6 246.4,310.6 248.2,310.6 250.0,310.6 251.8,310.6 253.5,310.6 255.3,310.6 257.1,310.6 258.9,310.6 260.6,310.6 262.4,310.6 264.2,310.6 266.0,310.6 267.8,310.6 269.5,310.6 271.3,310.6 273.1,310.6 274.9,310.6 276.7,310.6 278.4,310.6 280.2,310.6 282.0,310.6 283.8,310.6 285.6,310.6 287.3,313.9 289.1,313.9 290.9,310.6 292.7,313.9 294.5,310.6 296.2,313.9 298.0,313.9 299.8,310.6 301.6,313.9 303.4,313.9 305.1,313.9 306.9,313.9 308.7,310.6 310.5,313.9 312.3,313.9 314.0,310.6 315.8,310.6 317.6,310.6 319.4,310.6 321.2,310.6 322.9,310.6 324.7,310.6 326.5,310.6 328.3,310.6 330.1,310.6 331.8,310.6 333.6,310.6 335.4,310.6 337.2,310.6 338.9,310.6 340.7,310.6 342.5,310.6 344.3,310.6 346.1,310.6 347.8,310.6 349.6,310.6 351.4,310.6 353.2,310.6 355.0,310.6 356.7,310.6 358.5,310.6 360.3,310.6 362.1,310.6 363.9,310.6 365.6,310.6 367.4,310.6 369.2,310.6 371.0,310.6 372.8,310.6 374.5,310.6 376.3,310.6 378.1,310.6 379.9,310.6 381.7,310.6 383.4,310.6 385.2,310.6 387.0,310.9 388.8,310.9 390.6,310.9 392.3,310.9 394.1,310.9 395.9,310.9 397.7,310.9 399.5,310.9 401.2,310.9 403.0,310.9 404.8,310.9 406.6,310.9 408.4,310.9 410.1,310.9 411.9,310.9 413.7,310.9 415.5,310.9 417.3,310.9 419.0,310.9 420.8,310.9 422.6,310.9 424.4,310.9 426.1,310.9 427.9,310.9 429.7,310.9 431.5,310.9 433.3,310.9 435.0,310.9 436.8,310.9 438.6,310.9 440.4,310.9 442.2,310.9 443.9,310.9 445.7,310.9 447.5,310.9 449.3,310.9 451.1,310.9 452.8,310.9 454.6,310.9 456.4,310.9 458.2,310.9 460.0,310.9 461.7,310.9 463.5,310.9 465.3,310.9 467.1,310.9 468.9,310.9 470.6,310.9 472.4,310.9 474.2,310.9 476.0,310.9 477.8,310.9 479.5,310.9 481.3,310.9 483.1,310.9 484.9,310.9 486.7,310.9 488.4,310.9 490.2,310.9 492.0,310.9 493.8,310.9 495.6,310.9 497.3,310.9 499.1,310.9 500.9,310.9 502.7,310.9 504.4,310.9 506.2,310.9 508.0,310.9 509.8,310.9 511.6,310.9 513.3,310.9 515.1,310.9 516.9,310.9 518.7,310.9 520.5,310.9 522.2,310.9 524.0,310.9 525.8,310.9 527.6,310.9 529.4,310.9 531.1,310.9 532.9,310.9 534.7,310.9 536.5,310.9 538.3,310.9 540.0,310.9 541.8,310.9 543.6,310.9 545.4,310.9 547.2,310.9 548.9,310.9 550.7,310.9 552.5,310.9 554.3,310.9 556.1,310.9 557.8,310.9 559.6,310.9 561.4,310.9 563.2,310.9 565.0,310.9 566.7,310.9 568.5,310.9 570.3,310.9 572.1,310.9 573.9,310.9 575.6,314.8 577.4,314.8 579.2,314.8 581.0,314.8 582.7,314.8 584.5,314.8 586.3,314.8 588.1,314.8 589.9,314.8 591.6,314.8 593.4,314.8 595.2,314.8 597.0,314.8 598.8,315.4 600.5,315.4 602.3,310.9 604.1,310.9 605.9,310.9 607.7,310.9 609.4,310.9 611.2,310.9 613.0,310.9 614.8,310.9 616.6,310.9 618.3,310.9 620.1,310.9 621.9,310.9 623.7,310.9 625.5,310.9 627.2,310.9 629.0,314.8 630.8,314.8 632.6,314.8 634.4,315.4 636.1,310.9 637.9,310.9 639.7,310.9 641.5,310.9 643.3,310.9 645.0,310.9 646.8,310.9 648.6,310.9 650.4,310.9 652.2,310.9 653.9,310.9 655.7,310.9 657.5,310.9 659.3,310.9 661.1,310.9 662.8,310.9 664.6,310.9 666.4,310.9 668.2,310.9 669.9,310.9 671.7,310.9 673.5,310.9 675.3,310.9 677.1,310.9 678.8,310.9 680.6,310.9 682.4,310.9 684.2,310.9 686.0,310.9 687.7,310.9 689.5,314.8 691.3,314.8 693.1,314.8 694.9,314.8 696.6,315.4 698.4,315.4 700.2,315.4 702.0,315.4 703.8,315.4 705.5,310.9 707.3,310.9 709.1,310.9 710.9,310.9 712.7,310.9 714.4,310.9 716.2,310.9 718.0,310.9 719.8,310.9 721.6,310.9 723.3,310.9 725.1,310.9 726.9,310.9 728.7,310.9 730.5,310.9 732.2,310.9 734.0,310.9 735.8,310.9 737.6,310.9 739.4,310.9 741.1,310.9 742.9,310.9 744.7,310.9 746.5,310.9 748.2,310.9 750.0,310.9 751.8,310.9 753.6,310.9 755.4,310.9 757.1,310.9 758.9,310.9 760.7,310.9 762.5,310.9 764.3,310.9 766.0,310.9 767.8,310.9 769.6,310.9 771.4,310.9 773.2,310.9 774.9,310.9 776.7,310.9 778.5,310.9 780.3,310.9 782.1,310.9 783.8,310.9 785.6,310.9 787.4,310.9 789.2,310.9 791.0,310.9 792.7,310.9 794.5,310.9 796.3,310.9 798.1,310.9 799.9,310.9 801.6,310.9 803.4,310.9 805.2,310.9 807.0,310.9 808.8,310.9 810.5,310.6 812.3,310.6 814.1,310.6 815.9,310.6 817.7,310.6 819.4,310.6 821.2,310.6 823.0,310.6 824.8,310.6 826.5,310.6 828.3,310.6 830.1,310.6 831.9,310.6 833.7,310.6 835.4,310.6 837.2,310.6 839.0,310.6 840.8,310.6 842.6,310.6 844.3,310.6 846.1,310.6 847.9,310.6 849.7,310.6 851.5,310.6 853.2,310.6 855.0,310.6 856.8,310.6 858.6,310.6 860.4,310.6 862.1,310.6 863.9,310.6 865.7,310.6 867.5,310.6 869.3,310.6 871.0,310.6 872.8,310.6 874.6,310.6 876.4,310.6 878.2,310.6 879.9,310.6 881.7,310.6 883.5,310.6 885.3,310.6 887.1,310.6 888.8,310.6 890.6,310.6 892.4,310.6 894.2,310.6 896.0,310.6 897.7,310.6 899.5,310.6 901.3,310.6 903.1,310.6 904.8,310.6 906.6,310.6 908.4,310.6 910.2,310.6 912.0,310.6 913.7,310.6 915.5,310.6 917.3,310.6 919.1,310.6 920.9,310.6 922.6,310.6 924.4,310.6 926.2,310.6 928.0,310.6 929.8,310.6 931.5,310.6 933.3,310.6 935.1,310.6 936.9,310.6 938.7,310.6 940.4,310.6 942.2,310.6 944.0,310.6"/>
  <circle cx="598.8" cy="32" r="3" fill="#ef4444"/>
  <circle cx="600.5" cy="32" r="3" fill="#ef4444"/>
  <circle cx="634.4" cy="32" r="3" fill="#ef4444"/>
  <circle cx="696.6" cy="32" r="3" fill="#ef4444"/>
  <circle cx="698.4" cy="32" r="3" fill="#ef4444"/>
  <circle cx="700.2" cy="32" r="3" fill="#ef4444"/>
  <circle cx="702.0" cy="32" r="3" fill="#ef4444"/>
  <circle cx="703.8" cy="32" r="3" fill="#ef4444"/>
  <rect x="710" y="28" width="220" height="62" rx="6" fill="#111827" stroke="#334155"/>
  <line x1="724" y1="48" x2="764" y2="48" stroke="#38bdf8" stroke-width="3"/><text x="772" y="52" fill="#cbd5e1" font-family="sans-serif" font-size="12">totalPromptChars</text>
  <line x1="724" y1="68" x2="764" y2="68" stroke="#22c55e" stroke-width="3"/><text x="772" y="72" fill="#cbd5e1" font-family="sans-serif" font-size="12">stablePrefixChars</text>
</svg>
