<?xml version="1.0" encoding="UTF-8"?>
<svg xmlns="http://www.w3.org/2000/svg" width="960" height="360" viewBox="0 0 960 360">
  <rect width="100%" height="100%" fill="#0f172a"/>
  <text x="56" y="18" fill="#e5e7eb" font-family="sans-serif" font-size="14">cache-friendly-prompt 推移（最新 500 件）</text>
  <line x1="56" y1="318" x2="944" y2="318" stroke="#475569"/>
  <line x1="56" y1="24" x2="56" y2="318" stroke="#475569"/>
  <text x="8" y="34" fill="#94a3b8" font-family="sans-serif" font-size="11">455149</text>
  <text x="20" y="318" fill="#94a3b8" font-family="sans-serif" font-size="11">0</text>
  <line x1="93.4" y1="24" x2="93.4" y2="318" stroke="#f59e0b" stroke-opacity="0.28"/>
  <line x1="127.2" y1="24" x2="127.2" y2="318" stroke="#f59e0b" stroke-opacity="0.28"/>
  <line x1="143.2" y1="24" x2="143.2" y2="318" stroke="#f59e0b" stroke-opacity="0.28"/>
  <line x1="146.8" y1="24" x2="146.8" y2="318" stroke="#f59e0b" stroke-opacity="0.28"/>
  <line x1="157.4" y1="24" x2="157.4" y2="318" stroke="#f59e0b" stroke-opacity="0.28"/>
  <line x1="166.3" y1="24" x2="166.3" y2="318" stroke="#f59e0b" stroke-opacity="0.28"/>
  <line x1="169.9" y1="24" x2="169.9" y2="318" stroke="#f59e0b" stroke-opacity="0.28"/>
  <line x1="171.7" y1="24" x2="171.7" y2="318" stroke="#f59e0b" stroke-opacity="0.28"/>
  <line x1="173.5" y1="24" x2="173.5" y2="318" stroke="#f59e0b" stroke-opacity="0.28"/>
  <line x1="175.2" y1="24" x2="175.2" y2="318" stroke="#f59e0b" stroke-opacity="0.28"/>
  <line x1="185.9" y1="24" x2="185.9" y2="318" stroke="#f59e0b" stroke-opacity="0.28"/>
  <line x1="187.7" y1="24" x2="187.7" y2="318" stroke="#f59e0b" stroke-opacity="0.28"/>
  <line x1="193.0" y1="24" x2="193.0" y2="318" stroke="#f59e0b" stroke-opacity="0.28"/>
  <line x1="194.8" y1="24" x2="194.8" y2="318" stroke="#f59e0b" stroke-opacity="0.28"/>
  <line x1="203.7" y1="24" x2="203.7" y2="318" stroke="#f59e0b" stroke-opacity="0.28"/>
  <line x1="205.5" y1="24" x2="205.5" y2="318" stroke="#f59e0b" stroke-opacity="0.28"/>
  <line x1="212.6" y1="24" x2="212.6" y2="318" stroke="#f59e0b" stroke-opacity="0.28"/>
  <line x1="214.4" y1="24" x2="214.4" y2="318" stroke="#f59e0b" stroke-opacity="0.28"/>
  <line x1="217.9" y1="24" x2="217.9" y2="318" stroke="#f59e0b" stroke-opacity="0.28"/>
  <line x1="219.7" y1="24" x2="219.7" y2="318" stroke="#f59e0b" stroke-opacity="0.28"/>
  <line x1="221.5" y1="24" x2="221.5" y2="318" stroke="#f59e0b" stroke-opacity="0.28"/>
  <line x1="223.3" y1="24" x2="223.3" y2="318" stroke="#f59e0b" stroke-opacity="0.28"/>
  <line x1="226.8" y1="24" x2="226.8" y2="318" stroke="#f59e0b" stroke-opacity="0.28"/>
  <line x1="228.6" y1="24" x2="228.6" y2="318" stroke="#f59e0b" stroke-opacity="0.28"/>
  <line x1="232.2" y1="24" x2="232.2" y2="318" stroke="#f59e0b" stroke-opacity="0.28"/>
  <line x1="234.0" y1="24" x2="234.0" y2="318" stroke="#f59e0b" stroke-opacity="0.28"/>
  <line x1="239.3" y1="24" x2="239.3" y2="318" stroke="#f59e0b" stroke-opacity="0.28"/>
  <line x1="241.1" y1="24" x2="241.1" y2="318" stroke="#f59e0b" stroke-opacity="0.28"/>
  <line x1="253.5" y1="24" x2="253.5" y2="318" stroke="#f59e0b" stroke-opacity="0.28"/>
  <line x1="315.8" y1="24" x2="315.8" y2="318" stroke="#f59e0b" stroke-opacity="0.28"/>
  <line x1="331.8" y1="24" x2="331.8" y2="318" stroke="#f59e0b" stroke-opacity="0.28"/>
  <line x1="349.6" y1="24" x2="349.6" y2="318" stroke="#f59e0b" stroke-opacity="0.28"/>
  <line x1="360.3" y1="24" x2="360.3" y2="318" stroke="#f59e0b" stroke-opacity="0.28"/>
  <line x1="390.6" y1="24" x2="390.6" y2="318" stroke="#f59e0b" stroke-opacity="0.28"/>
  <line x1="392.3" y1="24" x2="392.3" y2="318" stroke="#f59e0b" stroke-opacity="0.28"/>
  <line x1="406.6" y1="24" x2="406.6" y2="318" stroke="#f59e0b" stroke-opacity="0.28"/>
  <line x1="415.5" y1="24" x2="415.5" y2="318" stroke="#f59e0b" stroke-opacity="0.28"/>
  <line x1="419.0" y1="24" x2="419.0" y2="318" stroke="#f59e0b" stroke-opacity="0.28"/>
  <line x1="420.8" y1="24" x2="420.8" y2="318" stroke="#f59e0b" stroke-opacity="0.28"/>
  <line x1="422.6" y1="24" x2="422.6" y2="318" stroke="#f59e0b" stroke-opacity="0.28"/>
  <line x1="495.6" y1="24" x2="495.6" y2="318" stroke="#f59e0b" stroke-opacity="0.28"/>
  <line x1="543.6" y1="24" x2="543.6" y2="318" stroke="#f59e0b" stroke-opacity="0.28"/>
  <line x1="547.2" y1="24" x2="547.2" y2="318" stroke="#f59e0b" stroke-opacity="0.28"/>
  <line x1="548.9" y1="24" x2="548.9" y2="318" stroke="#f59e0b" stroke-opacity="0.28"/>
  <line x1="550.7" y1="24" x2="550.7" y2="318" stroke="#f59e0b" stroke-opacity="0.28"/>
  <line x1="552.5" y1="24" x2="552.5" y2="318" stroke="#f59e0b" stroke-opacity="0.28"/>
  <line x1="556.1" y1="24" x2="556.1" y2="318" stroke="#f59e0b" stroke-opacity="0.28"/>
  <line x1="557.8" y1="24" x2="557.8" y2="318" stroke="#f59e0b" stroke-opacity="0.28"/>
  <line x1="565.0" y1="24" x2="565.0" y2="318" stroke="#f59e0b" stroke-opacity="0.28"/>
  <line x1="566.7" y1="24" x2="566.7" y2="318" stroke="#f59e0b" stroke-opacity="0.28"/>
  <line x1="570.3" y1="24" x2="570.3" y2="318" stroke="#f59e0b" stroke-opacity="0.28"/>
  <line x1="643.3" y1="24" x2="643.3" y2="318" stroke="#f59e0b" stroke-opacity="0.28"/>
  <line x1="831.9" y1="24" x2="831.9" y2="318" stroke="#f59e0b" stroke-opacity="0.28"/>
  <line x1="855.0" y1="24" x2="855.0" y2="318" stroke="#f59e0b" stroke-opacity="0.28"/>
  <line x1="858.6" y1="24" x2="858.6" y2="318" stroke="#f59e0b" stroke-opacity="0.28"/>
  <line x1="885.3" y1="24" x2="885.3" y2="318" stroke="#f59e0b" stroke-opacity="0.28"/>
  <line x1="890.6" y1="24" x2="890.6" y2="318" stroke="#f59e0b" stroke-opacity="0.28"/>
  <line x1="892.4" y1="24" x2="892.4" y2="318" stroke="#f59e0b" stroke-opacity="0.28"/>
  <polyline fill="none" stroke="#38bdf8" stroke-width="2" points="56.0,306.2 57.8,306.2 59.6,305.9 61.3,305.9 63.1,305.9 64.9,305.7 66.7,305.5 68.5,305.5 70.2,305.2 72.0,305.0 73.8,304.8 75.6,306.7 77.4,306.5 79.1,306.7 80.9,306.7 82.7,306.7 84.5,306.5 86.3,306.2 88.0,305.9 89.8,305.9 91.6,306.1 93.4,307.7 95.2,307.5 96.9,307.6 98.7,307.5 100.5,307.2 102.3,306.9 104.0,306.4 105.8,305.9 107.6,305.9 109.4,305.9 111.2,305.9 112.9,305.6 114.7,305.3 116.5,305.3 118.3,305.3 120.1,305.1 121.8,305.1 123.6,305.1 125.4,304.8 127.2,310.4 129.0,309.9 130.7,306.4 132.5,280.5 134.3,280.2 136.1,262.7 137.9,241.1 139.6,238.2 141.4,235.9 143.2,307.7 145.0,307.1 146.8,310.0 148.5,310.0 150.3,307.2 152.1,305.9 153.9,305.1 155.7,303.9 157.4,306.8 159.2,306.5 161.0,303.8 162.8,307.7 164.6,307.3 166.3,310.0 168.1,310.0 169.9,307.3 171.7,310.0 173.5,307.3 175.2,310.0 177.0,310.0 178.8,310.0 180.6,310.0 182.3,310.0 184.1,310.0 185.9,307.3 187.7,310.0 189.5,310.0 191.2,310.0 193.0,307.3 194.8,310.0 196.6,310.0 198.4,310.0 200.1,310.0 201.9,310.0 203.7,307.3 205.5,310.0 207.3,310.0 209.0,310.0 210.8,310.0 212.6,307.3 214.4,310.0 216.2,310.0 217.9,307.3 219.7,310.0 221.5,307.3 223.3,310.0 225.1,310.0 226.8,307.3 228.6,310.0 230.4,310.0 232.2,307.3 234.0,310.0 235.7,310.0 237.5,310.0 239.3,307.3 241.1,310.0 242.9,310.0 244.6,310.0 246.4,310.0 248.2,310.0 250.0,310.0 251.8,309.7 253.5,307.3 255.3,307.3 257.1,307.3 258.9,307.3 260.6,304.6 262.4,304.1 264.2,304.1 266.0,304.1 267.8,303.8 269.5,303.8 271.3,303.8 273.1,303.8 274.9,303.8 276.7,303.8 278.4,303.8 280.2,303.8 282.0,303.8 283.8,303.8 285.6,303.8 287.3,303.8 289.1,303.8 290.9,303.8 292.7,303.8 294.5,303.2 296.2,303.2 298.0,303.2 299.8,303.2 301.6,303.2 303.4,303.2 305.1,303.2 306.9,303.2 308.7,303.2 310.5,303.2 312.3,303.2 314.0,302.9 315.8,310.0 317.6,308.2 319.4,307.3 321.2,307.2 322.9,305.6 324.7,302.1 326.5,301.4 328.3,301.0 330.1,300.2 331.8,313.3 333.6,313.0 335.4,264.6 337.2,298.2 338.9,264.6 340.7,290.0 342.5,261.9 344.3,186.9 346.1,97.6 347.8,86.9 349.6,300.1 351.4,299.6 353.2,299.6 355.0,299.3 356.7,298.8 358.5,298.1 360.3,312.8 362.1,312.6 363.9,263.6 365.6,175.8 367.4,242.2 369.2,67.6 371.0,185.0 372.8,184.9 374.5,34.8 376.3,171.5 378.1,130.5 379.9,119.9 381.7,119.4 383.4,90.6 385.2,76.5 387.0,39.7 388.8,37.5 390.6,298.0 392.3,37.5 394.1,37.5 395.9,34.9 397.7,30.9 399.5,29.6 401.2,28.0 403.0,27.2 404.8,24.0 406.6,298.0 408.4,297.4 410.1,296.9 411.9,296.4 413.7,296.1 415.5,313.4 417.3,291.3 419.0,278.2 420.8,291.2 422.6,277.8 424.4,277.7 426.1,277.6 427.9,244.3 429.7,228.6 431.5,218.9 433.3,218.8 435.0,216.0 436.8,215.9 438.6,215.8 440.4,213.4 442.2,212.8 443.9,211.5 445.7,211.4 447.5,211.2 449.3,209.1 451.1,204.6 452.8,204.5 454.6,204.4 456.4,204.3 458.2,203.1 460.0,203.0 461.7,202.8 463.5,201.0 465.3,195.0 467.1,194.9 468.9,194.3 470.6,194.2 472.4,194.0 474.2,193.9 476.0,192.0 477.8,188.2 479.5,186.1 481.3,178.5 483.1,178.4 484.9,178.2 486.7,176.6 488.4,176.3 490.2,176.2 492.0,176.1 493.8,176.1 495.6,305.8 497.3,305.5 499.1,305.2 500.9,305.2 502.7,305.2 504.4,305.0 506.2,305.0 508.0,304.6 509.8,304.4 511.6,304.4 513.3,304.4 515.1,304.1 516.9,304.1 518.7,303.8 520.5,303.8 522.2,303.8 524.0,303.6 525.8,303.6 527.6,303.2 529.4,302.9 531.1,301.5 532.9,301.5 534.7,301.5 536.5,285.4 538.3,285.4 540.0,285.0 541.8,284.7 543.6,313.6 545.4,313.6 547.2,284.7 548.9,313.4 550.7,284.7 552.5,313.4 554.3,313.4 556.1,284.4 557.8,313.4 559.6,313.4 561.4,313.4 563.2,313.4 565.0,284.0 566.7,313.4 568.5,313.4 570.3,284.0 572.1,284.0 573.9,284.0 575.6,284.0 577.4,284.0 579.2,284.0 581.0,282.6 582.7,282.3 584.5,282.3 586.3,282.0 588.1,282.0 589.9,282.0 591.6,282.0 593.4,281.6 595.2,281.6 597.0,281.6 598.8,281.6 600.5,281.6 602.3,281.6 604.1,281.4 605.9,281.4 607.7,281.4 609.4,281.4 611.2,281.1 613.0,281.1 614.8,280.8 616.6,280.8 618.3,280.4 620.1,280.4 621.9,280.1 623.7,279.9 625.5,279.9 627.2,279.9 629.0,279.9 630.8,279.9 632.6,279.9 634.4,279.9 636.1,279.9 637.9,279.9 639.7,279.9 641.5,279.6 643.3,310.9 645.0,310.5 646.8,310.2 648.6,310.2 650.4,309.9 652.2,309.6 653.9,309.6 655.7,309.6 657.5,309.6 659.3,309.6 661.1,309.6 662.8,309.6 664.6,309.6 666.4,309.3 668.2,309.3 669.9,309.3 671.7,309.3 673.5,309.3 675.3,309.3 677.1,309.3 678.8,309.3 680.6,309.0 682.4,308.7 684.2,308.7 686.0,308.4 687.7,308.4 689.5,308.4 691.3,308.4 693.1,307.7 694.9,307.7 696.6,307.5 698.4,307.5 700.2,307.5 702.0,306.8 703.8,305.9 705.5,305.8 707.3,304.3 709.1,303.6 710.9,303.6 712.7,303.6 714.4,303.6 716.2,303.6 718.0,303.6 719.8,303.6 721.6,303.6 723.3,303.6 725.1,303.6 726.9,303.6 728.7,303.4 730.5,302.6 732.2,302.0 734.0,301.1 735.8,300.9 737.6,300.9 739.4,300.9 741.1,300.9 742.9,300.6 744.7,300.6 746.5,300.6 748.2,300.3 750.0,300.0 751.8,300.0 753.6,300.0 755.4,299.7 757.1,299.4 758.9,299.2 760.7,298.6 762.5,296.7 764.3,296.4 766.0,296.4 767.8,296.4 769.6,296.4 771.4,296.4 773.2,296.4 774.9,296.0 776.7,296.0 778.5,296.0 780.3,296.0 782.1,296.0 783.8,295.6 785.6,295.2 787.4,295.2 789.2,295.2 791.0,295.2 792.7,295.2 794.5,294.9 796.3,293.9 798.1,293.9 799.9,293.9 801.6,293.9 803.4,293.9 805.2,293.9 807.0,293.9 808.8,293.6 810.5,291.6 812.3,291.3 814.1,291.3 815.9,291.3 817.7,291.3 819.4,291.3 821.2,291.3 823.0,291.3 824.8,291.3 826.5,291.3 828.3,291.3 830.1,291.3 831.9,314.5 833.7,314.5 835.4,314.5 837.2,314.3 839.0,313.9 840.8,313.6 842.6,314.6 844.3,314.3 846.1,314.1 847.9,313.8 849.7,313.5 851.5,313.5 853.2,313.2 855.0,312.1 856.8,312.3 858.6,267.2 860.4,262.7 862.1,262.5 863.9,257.2 865.7,252.4 867.5,252.3 869.3,252.3 871.0,251.3 872.8,251.2 874.6,251.1 876.4,250.0 878.2,249.0 879.9,249.0 881.7,246.9 883.5,246.4 885.3,308.8 887.1,308.4 888.8,308.2 890.6,307.3 892.4,208.2 894.2,207.3 896.0,206.6 897.7,206.5 899.5,206.4 901.3,206.3 903.1,205.6 904.8,205.5 906.6,205.4 908.4,204.6 910.2,204.4 912.0,204.1 913.7,204.0 915.5,203.8 917.3,203.7 919.1,203.5 920.9,203.3 922.6,203.1 924.4,203.0 926.2,201.0 928.0,200.9 929.8,197.8 931.5,197.6 933.3,196.6 935.1,196.4 936.9,196.1 938.7,196.1 940.4,195.9 942.2,193.8 944.0,193.7"/>
  <polyline fill="none" stroke="#22c55e" stroke-width="2" points="56.0,307.4 57.8,307.4 59.6,307.4 61.3,307.4 63.1,307.4 64.9,307.4 66.7,307.4 68.5,307.4 70.2,307.4 72.0,307.4 73.8,307.4 75.6,307.4 77.4,307.4 79.1,307.4 80.9,307.4 82.7,307.4 84.5,307.4 86.3,307.4 88.0,307.4 89.8,307.4 91.6,307.4 93.4,307.7 95.2,307.7 96.9,307.7 98.7,307.7 100.5,307.7 102.3,307.7 104.0,307.7 105.8,307.7 107.6,307.7 109.4,307.7 111.2,307.7 112.9,307.7 114.7,307.7 116.5,307.7 118.3,307.7 120.1,307.7 121.8,307.7 123.6,307.7 125.4,307.7 127.2,311.8 129.0,311.8 130.7,311.8 132.5,311.8 134.3,311.8 136.1,311.8 137.9,311.8 139.6,311.8 141.4,311.8 143.2,307.7 145.0,307.7 146.8,311.1 148.5,311.1 150.3,311.1 152.1,311.1 153.9,311.1 155.7,311.1 157.4,307.7 159.2,307.7 161.0,307.7 162.8,307.7 164.6,307.7 166.3,311.1 168.1,311.1 169.9,307.7 171.7,311.1 173.5,307.7 175.2,311.1 177.0,311.1 178.8,311.1 180.6,311.1 182.3,311.1 184.1,311.1 185.9,307.7 187.7,311.1 189.5,311.1 191.2,311.1 193.0,307.7 194.8,311.1 196.6,311.1 198.4,311.1 200.1,311.1 201.9,311.1 203.7,307.7 205.5,311.1 207.3,311.1 209.0,311.1 210.8,311.1 212.6,307.7 214.4,311.1 216.2,311.1 217.9,307.7 219.7,311.1 221.5,307.7 223.3,311.1 225.1,311.1 226.8,307.7 228.6,311.1 230.4,311.1 232.2,307.7 234.0,311.1 235.7,311.1 237.5,311.1 239.3,307.7 241.1,311.1 242.9,311.1 244.6,311.1 246.4,311.1 248.2,311.1 250.0,311.1 251.8,311.1 253.5,307.7 255.3,307.7 257.1,307.7 258.9,307.7 260.6,307.7 262.4,307.7 264.2,307.7 266.0,307.7 267.8,307.7 269.5,307.7 271.3,307.7 273.1,307.7 274.9,307.7 276.7,307.7 278.4,307.7 280.2,307.7 282.0,307.7 283.8,307.7 285.6,307.7 287.3,307.7 289.1,307.7 290.9,307.7 292.7,307.7 294.5,307.7 296.2,307.7 298.0,307.7 299.8,307.7 301.6,307.7 303.4,307.7 305.1,307.7 306.9,307.7 308.7,307.7 310.5,307.7 312.3,307.7 314.0,307.7 315.8,310.1 317.6,310.1 319.4,310.1 321.2,310.1 322.9,310.1 324.7,310.1 326.5,310.1 328.3,310.1 330.1,310.1 331.8,313.9 333.6,313.9 335.4,313.9 337.2,313.9 338.9,313.9 340.7,313.9 342.5,313.9 344.3,313.9 346.1,313.9 347.8,313.9 349.6,310.1 351.4,310.1 353.2,310.1 355.0,310.1 356.7,310.1 358.5,310.1 360.3,313.9 362.1,313.9 363.9,313.9 365.6,313.9 367.4,313.9 369.2,313.9 371.0,313.9 372.8,313.9 374.5,313.9 376.3,313.9 378.1,313.9 379.9,313.9 381.7,313.9 383.4,313.9 385.2,313.9 387.0,313.9 388.8,313.9 390.6,310.1 392.3,313.9 394.1,313.9 395.9,313.9 397.7,313.9 399.5,313.9 401.2,313.9 403.0,313.9 404.8,313.9 406.6,310.1 408.4,310.1 410.1,310.1 411.9,310.1 413.7,310.1 415.5,313.9 417.3,313.9 419.0,310.1 420.8,313.9 422.6,310.1 424.4,310.1 426.1,310.1 427.9,310.1 429.7,310.1 431.5,310.1 433.3,310.1 435.0,310.1 436.8,310.1 438.6,310.1 440.4,310.1 442.2,310.1 443.9,310.1 445.7,310.1 447.5,310.1 449.3,310.1 451.1,310.1 452.8,310.1 454.6,310.1 456.4,310.1 458.2,310.1 460.0,310.1 461.7,310.1 463.5,310.1 465.3,310.1 467.1,310.1 468.9,310.1 470.6,310.1 472.4,310.1 474.2,310.1 476.0,310.1 477.8,310.1 479.5,310.1 481.3,310.1 483.1,310.1 484.9,310.1 486.7,310.1 488.4,310.1 490.2,310.1 492.0,310.1 493.8,310.1 495.6,310.6 497.3,310.6 499.1,310.6 500.9,310.6 502.7,310.6 504.4,310.6 506.2,310.6 508.0,310.6 509.8,310.6 511.6,310.6 513.3,310.6 515.1,310.6 516.9,310.6 518.7,310.6 520.5,310.6 522.2,310.6 524.0,310.6 525.8,310.6 527.6,310.6 529.4,310.6 531.1,310.6 532.9,310.6 534.7,310.6 536.5,310.6 538.3,310.6 540.0,310.6 541.8,310.6 543.6,313.9 545.4,313.9 547.2,310.6 548.9,313.9 550.7,310.6 552.5,313.9 554.3,313.9 556.1,310.6 557.8,313.9 559.6,313.9 561.4,313.9 563.2,313.9 565.0,310.6 566.7,313.9 568.5,313.9 570.3,310.6 572.1,310.6 573.9,310.6 575.6,310.6 577.4,310.6 579.2,310.6 581.0,310.6 582.7,310.6 584.5,310.6 586.3,310.6 588.1,310.6 589.9,310.6 591.6,310.6 593.4,310.6 595.2,310.6 597.0,310.6 598.8,310.6 600.5,310.6 602.3,310.6 604.1,310.6 605.9,310.6 607.7,310.6 609.4,310.6 611.2,310.6 613.0,310.6 614.8,310.6 616.6,310.6 618.3,310.6 620.1,310.6 621.9,310.6 623.7,310.6 625.5,310.6 627.2,310.6 629.0,310.6 630.8,310.6 632.6,310.6 634.4,310.6 636.1,310.6 637.9,310.6 639.7,310.6 641.5,310.6 643.3,310.9 645.0,310.9 646.8,310.9 648.6,310.9 650.4,310.9 652.2,310.9 653.9,310.9 655.7,310.9 657.5,310.9 659.3,310.9 661.1,310.9 662.8,310.9 664.6,310.9 666.4,310.9 668.2,310.9 669.9,310.9 671.7,310.9 673.5,310.9 675.3,310.9 677.1,310.9 678.8,310.9 680.6,310.9 682.4,310.9 684.2,310.9 686.0,310.9 687.7,310.9 689.5,310.9 691.3,310.9 693.1,310.9 694.9,310.9 696.6,310.9 698.4,310.9 700.2,310.9 702.0,310.9 703.8,310.9 705.5,310.9 707.3,310.9 709.1,310.9 710.9,310.9 712.7,310.9 714.4,310.9 716.2,310.9 718.0,310.9 719.8,310.9 721.6,310.9 723.3,310.9 725.1,310.9 726.9,310.9 728.7,310.9 730.5,310.9 732.2,310.9 734.0,310.9 735.8,310.9 737.6,310.9 739.4,310.9 741.1,310.9 742.9,310.9 744.7,310.9 746.5,310.9 748.2,310.9 750.0,310.9 751.8,310.9 753.6,310.9 755.4,310.9 757.1,310.9 758.9,310.9 760.7,310.9 762.5,310.9 764.3,310.9 766.0,310.9 767.8,310.9 769.6,310.9 771.4,310.9 773.2,310.9 774.9,310.9 776.7,310.9 778.5,310.9 780.3,310.9 782.1,310.9 783.8,310.9 785.6,310.9 787.4,310.9 789.2,310.9 791.0,310.9 792.7,310.9 794.5,310.9 796.3,310.9 798.1,310.9 799.9,310.9 801.6,310.9 803.4,310.9 805.2,310.9 807.0,310.9 808.8,310.9 810.5,310.9 812.3,310.9 814.1,310.9 815.9,310.9 817.7,310.9 819.4,310.9 821.2,310.9 823.0,310.9 824.8,310.9 826.5,310.9 828.3,310.9 830.1,310.9 831.9,314.8 833.7,314.8 835.4,314.8 837.2,314.8 839.0,314.8 840.8,314.8 842.6,314.8 844.3,314.8 846.1,314.8 847.9,314.8 849.7,314.8 851.5,314.8 853.2,314.8 855.0,315.4 856.8,315.4 858.6,310.9 860.4,310.9 862.1,310.9 863.9,310.9 865.7,310.9 867.5,310.9 869.3,310.9 871.0,310.9 872.8,310.9 874.6,310.9 876.4,310.9 878.2,310.9 879.9,310.9 881.7,310.9 883.5,310.9 885.3,314.8 887.1,314.8 888.8,314.8 890.6,315.4 892.4,310.9 894.2,310.9 896.0,310.9 897.7,310.9 899.5,310.9 901.3,310.9 903.1,310.9 904.8,310.9 906.6,310.9 908.4,310.9 910.2,310.9 912.0,310.9 913.7,310.9 915.5,310.9 917.3,310.9 919.1,310.9 920.9,310.9 922.6,310.9 924.4,310.9 926.2,310.9 928.0,310.9 929.8,310.9 931.5,310.9 933.3,310.9 935.1,310.9 936.9,310.9 938.7,310.9 940.4,310.9 942.2,310.9 944.0,310.9"/>
  <circle cx="855.0" cy="32" r="3" fill="#ef4444"/>
  <circle cx="856.8" cy="32" r="3" fill="#ef4444"/>
  <circle cx="890.6" cy="32" r="3" fill="#ef4444"/>
  <rect x="710" y="28" width="220" height="62" rx="6" fill="#111827" stroke="#334155"/>
  <line x1="724" y1="48" x2="764" y2="48" stroke="#38bdf8" stroke-width="3"/><text x="772" y="52" fill="#cbd5e1" font-family="sans-serif" font-size="12">totalPromptChars</text>
  <line x1="724" y1="68" x2="764" y2="68" stroke="#22c55e" stroke-width="3"/><text x="772" y="72" fill="#cbd5e1" font-family="sans-serif" font-size="12">stablePrefixChars</text>
</svg>
