<?xml version="1.0" encoding="UTF-8"?>
<svg xmlns="http://www.w3.org/2000/svg" width="960" height="360" viewBox="0 0 960 360">
  <rect width="100%" height="100%" fill="#0f172a"/>
  <text x="56" y="18" fill="#e5e7eb" font-family="sans-serif" font-size="14">cache-friendly-prompt 推移（最新 500 件）</text>
  <line x1="56" y1="318" x2="944" y2="318" stroke="#475569"/>
  <line x1="56" y1="24" x2="56" y2="318" stroke="#475569"/>
  <text x="8" y="34" fill="#94a3b8" font-family="sans-serif" font-size="11">387808</text>
  <text x="20" y="318" fill="#94a3b8" font-family="sans-serif" font-size="11">0</text>
  <line x1="57.8" y1="24" x2="57.8" y2="318" stroke="#f59e0b" stroke-opacity="0.28"/>
  <line x1="61.3" y1="24" x2="61.3" y2="318" stroke="#f59e0b" stroke-opacity="0.28"/>
  <line x1="134.3" y1="24" x2="134.3" y2="318" stroke="#f59e0b" stroke-opacity="0.28"/>
  <line x1="322.9" y1="24" x2="322.9" y2="318" stroke="#f59e0b" stroke-opacity="0.28"/>
  <line x1="346.1" y1="24" x2="346.1" y2="318" stroke="#f59e0b" stroke-opacity="0.28"/>
  <line x1="349.6" y1="24" x2="349.6" y2="318" stroke="#f59e0b" stroke-opacity="0.28"/>
  <line x1="376.3" y1="24" x2="376.3" y2="318" stroke="#f59e0b" stroke-opacity="0.28"/>
  <line x1="381.7" y1="24" x2="381.7" y2="318" stroke="#f59e0b" stroke-opacity="0.28"/>
  <line x1="383.4" y1="24" x2="383.4" y2="318" stroke="#f59e0b" stroke-opacity="0.28"/>
  <line x1="436.8" y1="24" x2="436.8" y2="318" stroke="#f59e0b" stroke-opacity="0.28"/>
  <line x1="443.9" y1="24" x2="443.9" y2="318" stroke="#f59e0b" stroke-opacity="0.28"/>
  <line x1="452.8" y1="24" x2="452.8" y2="318" stroke="#f59e0b" stroke-opacity="0.28"/>
  <line x1="557.8" y1="24" x2="557.8" y2="318" stroke="#f59e0b" stroke-opacity="0.28"/>
  <line x1="751.8" y1="24" x2="751.8" y2="318" stroke="#f59e0b" stroke-opacity="0.28"/>
  <line x1="767.8" y1="24" x2="767.8" y2="318" stroke="#f59e0b" stroke-opacity="0.28"/>
  <line x1="890.6" y1="24" x2="890.6" y2="318" stroke="#f59e0b" stroke-opacity="0.28"/>
  <line x1="894.2" y1="24" x2="894.2" y2="318" stroke="#f59e0b" stroke-opacity="0.28"/>
  <line x1="936.9" y1="24" x2="936.9" y2="318" stroke="#f59e0b" stroke-opacity="0.28"/>
  <line x1="942.2" y1="24" x2="942.2" y2="318" stroke="#f59e0b" stroke-opacity="0.28"/>
  <line x1="944.0" y1="24" x2="944.0" y2="318" stroke="#f59e0b" stroke-opacity="0.28"/>
  <polyline fill="none" stroke="#38bdf8" stroke-width="2" points="56.0,278.1 57.8,312.6 59.6,312.6 61.3,278.1 63.1,278.1 64.9,278.1 66.7,278.1 68.5,278.1 70.2,278.1 72.0,276.5 73.8,276.1 75.6,276.1 77.4,275.8 79.1,275.8 80.9,275.8 82.7,275.8 84.5,275.3 86.3,275.3 88.0,275.3 89.8,275.3 91.6,275.3 93.4,275.3 95.2,275.0 96.9,275.0 98.7,275.0 100.5,275.0 102.3,274.7 104.0,274.7 105.8,274.3 107.6,274.3 109.4,273.9 111.2,273.9 112.9,273.5 114.7,273.2 116.5,273.2 118.3,273.2 120.1,273.2 121.8,273.2 123.6,273.2 125.4,273.2 127.2,273.2 129.0,273.2 130.7,273.2 132.5,272.9 134.3,309.6 136.1,309.3 137.9,308.8 139.6,308.8 141.4,308.4 143.2,308.1 145.0,308.1 146.8,308.1 148.5,308.1 150.3,308.1 152.1,308.1 153.9,308.1 155.7,308.1 157.4,307.7 159.2,307.7 161.0,307.7 162.8,307.7 164.6,307.7 166.3,307.7 168.1,307.7 169.9,307.7 171.7,307.4 173.5,307.1 175.2,307.1 177.0,306.8 178.8,306.8 180.6,306.8 182.3,306.8 184.1,306.0 185.9,306.0 187.7,305.7 189.5,305.7 191.2,305.7 193.0,304.8 194.8,303.9 196.6,303.7 198.4,301.9 200.1,301.1 201.9,301.1 203.7,301.1 205.5,301.1 207.3,301.1 209.0,301.1 210.8,301.1 212.6,301.1 214.4,301.1 216.2,301.1 217.9,301.1 219.7,300.8 221.5,300.0 223.3,299.3 225.1,298.2 226.8,297.9 228.6,297.9 230.4,297.9 232.2,297.9 234.0,297.6 235.7,297.6 237.5,297.6 239.3,297.2 241.1,296.8 242.9,296.8 244.6,296.8 246.4,296.5 248.2,296.2 250.0,295.9 251.8,295.2 253.5,293.0 255.3,292.7 257.1,292.7 258.9,292.7 260.6,292.7 262.4,292.7 264.2,292.7 266.0,292.2 267.8,292.2 269.5,292.2 271.3,292.2 273.1,292.2 274.9,291.7 276.7,291.3 278.4,291.3 280.2,291.3 282.0,291.3 283.8,291.3 285.6,290.8 287.3,289.7 289.1,289.7 290.9,289.7 292.7,289.7 294.5,289.7 296.2,289.7 298.0,289.7 299.8,289.3 301.6,287.0 303.4,286.7 305.1,286.7 306.9,286.7 308.7,286.7 310.5,286.7 312.3,286.7 314.0,286.7 315.8,286.7 317.6,286.7 319.4,286.7 321.2,286.7 322.9,313.9 324.7,313.9 326.5,313.9 328.3,313.6 330.1,313.2 331.8,312.9 333.6,314.0 335.4,313.7 337.2,313.4 338.9,313.1 340.7,312.7 342.5,312.7 344.3,312.4 346.1,311.1 347.8,311.3 349.6,258.3 351.4,253.1 353.2,252.8 355.0,246.7 356.7,241.1 358.5,240.9 360.3,240.9 362.1,239.7 363.9,239.6 365.6,239.5 367.4,238.2 369.2,237.1 371.0,237.1 372.8,234.6 374.5,234.0 376.3,307.1 378.1,306.8 379.9,306.5 381.7,305.5 383.4,189.2 385.2,188.1 387.0,187.3 388.8,187.2 390.6,187.1 392.3,186.9 394.1,186.0 395.9,185.9 397.7,185.8 399.5,184.9 401.2,184.7 403.0,184.3 404.8,184.2 406.6,183.9 408.4,183.8 410.1,183.6 411.9,183.4 413.7,183.2 415.5,183.1 417.3,180.7 419.0,180.6 420.8,176.9 422.6,176.7 424.4,175.5 426.1,175.3 427.9,175.0 429.7,174.9 431.5,174.7 433.3,172.3 435.0,172.1 436.8,302.2 438.6,301.9 440.4,301.9 442.2,301.5 443.9,301.9 445.7,301.6 447.5,301.6 449.3,301.0 451.1,276.8 452.8,74.8 454.6,74.7 456.4,74.6 458.2,73.7 460.0,73.3 461.7,73.1 463.5,72.4 465.3,72.3 467.1,72.2 468.9,72.2 470.6,71.6 472.4,70.0 474.2,69.8 476.0,69.7 477.8,69.6 479.5,69.4 481.3,69.4 483.1,68.7 484.9,67.3 486.7,67.1 488.4,67.0 490.2,65.9 492.0,65.8 493.8,65.8 495.6,65.4 497.3,65.0 499.1,64.9 500.9,64.6 502.7,64.3 504.4,63.8 506.2,63.4 508.0,63.1 509.8,63.0 511.6,63.0 513.3,62.7 515.1,62.2 516.9,61.1 518.7,60.9 520.5,60.8 522.2,59.8 524.0,59.3 525.8,59.2 527.6,59.0 529.4,58.9 531.1,58.7 532.9,58.6 534.7,58.5 536.5,57.4 538.3,56.5 540.0,55.8 541.8,55.7 543.6,55.6 545.4,55.5 547.2,55.5 548.9,55.4 550.7,55.4 552.5,55.0 554.3,53.1 556.1,52.8 557.8,309.3 559.6,308.7 561.4,307.5 563.2,306.1 565.0,305.2 566.7,305.2 568.5,305.0 570.3,304.7 572.1,303.5 573.9,302.5 575.6,302.5 577.4,301.8 579.2,300.7 581.0,300.5 582.7,300.3 584.5,300.1 586.3,300.0 588.1,299.9 589.9,308.2 591.6,307.9 593.4,307.9 595.2,307.6 597.0,307.2 598.8,306.9 600.5,306.6 602.3,306.6 604.1,306.6 605.9,306.3 607.7,305.9 609.4,305.9 611.2,305.9 613.0,305.6 614.8,305.6 616.6,304.8 618.3,304.5 620.1,304.1 621.9,303.6 623.7,302.9 625.5,302.5 627.2,298.9 629.0,298.6 630.8,298.2 632.6,298.2 634.4,297.8 636.1,297.8 637.9,297.8 639.7,297.8 641.5,297.5 643.3,297.5 645.0,297.5 646.8,297.5 648.6,297.2 650.4,297.2 652.2,296.8 653.9,294.1 655.7,293.7 657.5,293.7 659.3,293.4 661.1,293.0 662.8,292.6 664.6,292.6 666.4,292.2 668.2,291.9 669.9,291.5 671.7,291.2 673.5,290.8 675.3,289.9 677.1,289.9 678.8,289.9 680.6,289.9 682.4,289.9 684.2,289.9 686.0,289.9 687.7,289.6 689.5,289.3 691.3,289.3 693.1,288.5 694.9,288.2 696.6,287.9 698.4,287.9 700.2,287.9 702.0,287.6 703.8,287.6 705.5,287.6 707.3,287.6 709.1,287.6 710.9,287.6 712.7,287.6 714.4,287.6 716.2,287.6 718.0,287.6 719.8,287.6 721.6,287.6 723.3,286.6 725.1,286.6 726.9,286.3 728.7,286.3 730.5,286.3 732.2,286.3 734.0,286.3 735.8,285.2 737.6,285.2 739.4,285.2 741.1,285.2 742.9,285.2 744.7,285.2 746.5,285.2 748.2,285.2 750.0,285.2 751.8,313.5 753.6,313.1 755.4,312.8 757.1,312.5 758.9,312.5 760.7,312.2 762.5,311.8 764.3,311.8 766.0,311.5 767.8,164.9 769.6,152.1 771.4,152.0 773.2,149.2 774.9,149.1 776.7,149.0 778.5,148.8 780.3,148.0 782.1,148.0 783.8,137.2 785.6,137.1 787.4,130.6 789.2,130.5 791.0,130.3 792.7,130.2 794.5,130.1 796.3,128.7 798.1,128.3 799.9,127.1 801.6,126.9 803.4,126.8 805.2,126.2 807.0,126.0 808.8,125.5 810.5,125.2 812.3,125.1 814.1,125.0 815.9,124.4 817.7,123.7 819.4,123.0 821.2,120.3 823.0,118.5 824.8,117.6 826.5,117.5 828.3,116.6 830.1,115.9 831.9,114.7 833.7,114.7 835.4,114.6 837.2,114.3 839.0,114.1 840.8,113.1 842.6,113.1 844.3,113.0 846.1,112.6 847.9,111.8 849.7,111.6 851.5,111.3 853.2,110.7 855.0,110.6 856.8,110.5 858.6,108.4 860.4,105.7 862.1,104.3 863.9,103.8 865.7,102.9 867.5,102.0 869.3,99.2 871.0,98.6 872.8,98.4 874.6,97.0 876.4,95.3 878.2,93.4 879.9,92.2 881.7,92.0 883.5,91.7 885.3,90.8 887.1,89.6 888.8,88.1 890.6,299.0 892.4,298.6 894.2,46.3 896.0,45.7 897.7,45.3 899.5,45.1 901.3,45.0 903.1,44.9 904.8,44.8 906.6,44.7 908.4,44.6 910.2,44.5 912.0,44.5 913.7,27.6 915.5,26.6 917.3,25.8 919.1,25.5 920.9,25.4 922.6,25.1 924.4,25.1 926.2,25.0 928.0,25.0 929.8,24.9 931.5,24.5 933.3,24.2 935.1,24.0 936.9,302.3 938.7,302.0 940.4,301.7 942.2,301.6 944.0,291.6"/>
  <polyline fill="none" stroke="#22c55e" stroke-width="2" points="56.0,309.3 57.8,313.2 59.6,313.2 61.3,309.3 63.1,309.3 64.9,309.3 66.7,309.3 68.5,309.3 70.2,309.3 72.0,309.3 73.8,309.3 75.6,309.3 77.4,309.3 79.1,309.3 80.9,309.3 82.7,309.3 84.5,309.3 86.3,309.3 88.0,309.3 89.8,309.3 91.6,309.3 93.4,309.3 95.2,309.3 96.9,309.3 98.7,309.3 100.5,309.3 102.3,309.3 104.0,309.3 105.8,309.3 107.6,309.3 109.4,309.3 111.2,309.3 112.9,309.3 114.7,309.3 116.5,309.3 118.3,309.3 120.1,309.3 121.8,309.3 123.6,309.3 125.4,309.3 127.2,309.3 129.0,309.3 130.7,309.3 132.5,309.3 134.3,309.6 136.1,309.6 137.9,309.6 139.6,309.6 141.4,309.6 143.2,309.6 145.0,309.6 146.8,309.6 148.5,309.6 150.3,309.6 152.1,309.6 153.9,309.6 155.7,309.6 157.4,309.6 159.2,309.6 161.0,309.6 162.8,309.6 164.6,309.6 166.3,309.6 168.1,309.6 169.9,309.6 171.7,309.6 173.5,309.6 175.2,309.6 177.0,309.6 178.8,309.6 180.6,309.6 182.3,309.6 184.1,309.6 185.9,309.6 187.7,309.6 189.5,309.6 191.2,309.6 193.0,309.6 194.8,309.6 196.6,309.6 198.4,309.6 200.1,309.6 201.9,309.6 203.7,309.6 205.5,309.6 207.3,309.6 209.0,309.6 210.8,309.6 212.6,309.6 214.4,309.6 216.2,309.6 217.9,309.6 219.7,309.6 221.5,309.6 223.3,309.6 225.1,309.6 226.8,309.6 228.6,309.6 230.4,309.6 232.2,309.6 234.0,309.6 235.7,309.6 237.5,309.6 239.3,309.6 241.1,309.6 242.9,309.6 244.6,309.6 246.4,309.6 248.2,309.6 250.0,309.6 251.8,309.6 253.5,309.6 255.3,309.6 257.1,309.6 258.9,309.6 260.6,309.6 262.4,309.6 264.2,309.6 266.0,309.6 267.8,309.6 269.5,309.6 271.3,309.6 273.1,309.6 274.9,309.6 276.7,309.6 278.4,309.6 280.2,309.6 282.0,309.6 283.8,309.6 285.6,309.6 287.3,309.6 289.1,309.6 290.9,309.6 292.7,309.6 294.5,309.6 296.2,309.6 298.0,309.6 299.8,309.6 301.6,309.6 303.4,309.6 305.1,309.6 306.9,309.6 308.7,309.6 310.5,309.6 312.3,309.6 314.0,309.6 315.8,309.6 317.6,309.6 319.4,309.6 321.2,309.6 322.9,314.2 324.7,314.2 326.5,314.2 328.3,314.2 330.1,314.2 331.8,314.2 333.6,314.2 335.4,314.2 337.2,314.2 338.9,314.2 340.7,314.2 342.5,314.2 344.3,314.2 346.1,315.0 347.8,315.0 349.6,309.6 351.4,309.6 353.2,309.6 355.0,309.6 356.7,309.6 358.5,309.6 360.3,309.6 362.1,309.6 363.9,309.6 365.6,309.6 367.4,309.6 369.2,309.6 371.0,309.6 372.8,309.6 374.5,309.6 376.3,314.2 378.1,314.2 379.9,314.2 381.7,315.0 383.4,309.6 385.2,309.6 387.0,309.6 388.8,309.6 390.6,309.6 392.3,309.6 394.1,309.6 395.9,309.6 397.7,309.6 399.5,309.6 401.2,309.6 403.0,309.6 404.8,309.6 406.6,309.6 408.4,309.6 410.1,309.6 411.9,309.6 413.7,309.6 415.5,309.6 417.3,309.6 419.0,309.6 420.8,309.6 422.6,309.6 424.4,309.6 426.1,309.6 427.9,309.6 429.7,309.6 431.5,309.6 433.3,309.6 435.0,309.6 436.8,314.2 438.6,314.2 440.4,314.2 442.2,314.2 443.9,315.0 445.7,315.0 447.5,315.0 449.3,315.0 451.1,315.0 452.8,309.6 454.6,309.6 456.4,309.6 458.2,309.6 460.0,309.6 461.7,309.6 463.5,309.6 465.3,309.6 467.1,309.6 468.9,309.6 470.6,309.6 472.4,309.6 474.2,309.6 476.0,309.6 477.8,309.6 479.5,309.6 481.3,309.6 483.1,309.6 484.9,309.6 486.7,309.6 488.4,309.6 490.2,309.6 492.0,309.6 493.8,309.6 495.6,309.6 497.3,309.6 499.1,309.6 500.9,309.6 502.7,309.6 504.4,309.6 506.2,309.6 508.0,309.6 509.8,309.6 511.6,309.6 513.3,309.6 515.1,309.6 516.9,309.6 518.7,309.6 520.5,309.6 522.2,309.6 524.0,309.6 525.8,309.6 527.6,309.6 529.4,309.6 531.1,309.6 532.9,309.6 534.7,309.6 536.5,309.6 538.3,309.6 540.0,309.6 541.8,309.6 543.6,309.6 545.4,309.6 547.2,309.6 548.9,309.6 550.7,309.6 552.5,309.6 554.3,309.6 556.1,309.6 557.8,309.3 559.6,309.3 561.4,309.3 563.2,309.3 565.0,309.3 566.7,309.3 568.5,309.3 570.3,309.3 572.1,309.3 573.9,309.3 575.6,309.3 577.4,309.3 579.2,309.3 581.0,309.3 582.7,309.3 584.5,309.3 586.3,309.3 588.1,309.3 589.9,309.3 591.6,309.3 593.4,309.3 595.2,309.3 597.0,309.3 598.8,309.3 600.5,309.3 602.3,309.3 604.1,309.3 605.9,309.3 607.7,309.3 609.4,309.3 611.2,309.3 613.0,309.3 614.8,309.3 616.6,309.3 618.3,309.3 620.1,309.3 621.9,309.3 623.7,309.3 625.5,309.3 627.2,309.3 629.0,309.3 630.8,309.3 632.6,309.3 634.4,309.3 636.1,309.3 637.9,309.3 639.7,309.3 641.5,309.3 643.3,309.3 645.0,309.3 646.8,309.3 648.6,309.3 650.4,309.3 652.2,309.3 653.9,309.3 655.7,309.3 657.5,309.3 659.3,309.3 661.1,309.3 662.8,309.3 664.6,309.3 666.4,309.3 668.2,309.3 669.9,309.3 671.7,309.3 673.5,309.3 675.3,309.3 677.1,309.3 678.8,309.3 680.6,309.3 682.4,309.3 684.2,309.3 686.0,309.3 687.7,309.3 689.5,309.3 691.3,309.3 693.1,309.3 694.9,309.3 696.6,309.3 698.4,309.3 700.2,309.3 702.0,309.3 703.8,309.3 705.5,309.3 707.3,309.3 709.1,309.3 710.9,309.3 712.7,309.3 714.4,309.3 716.2,309.3 718.0,309.3 719.8,309.3 721.6,309.3 723.3,309.3 725.1,309.3 726.9,309.3 728.7,309.3 730.5,309.3 732.2,309.3 734.0,309.3 735.8,309.3 737.6,309.3 739.4,309.3 741.1,309.3 742.9,309.3 744.7,309.3 746.5,309.3 748.2,309.3 750.0,309.3 751.8,313.9 753.6,313.9 755.4,313.9 757.1,313.9 758.9,313.9 760.7,313.9 762.5,313.9 764.3,313.9 766.0,313.9 767.8,309.3 769.6,309.3 771.4,309.3 773.2,309.3 774.9,309.3 776.7,309.3 778.5,309.3 780.3,309.3 782.1,309.3 783.8,309.3 785.6,309.3 787.4,309.3 789.2,309.3 791.0,309.3 792.7,309.3 794.5,309.3 796.3,309.3 798.1,309.3 799.9,309.3 801.6,309.3 803.4,309.3 805.2,309.3 807.0,309.3 808.8,309.3 810.5,309.3 812.3,309.3 814.1,309.3 815.9,309.3 817.7,309.3 819.4,309.3 821.2,309.3 823.0,309.3 824.8,309.3 826.5,309.3 828.3,309.3 830.1,309.3 831.9,309.3 833.7,309.3 835.4,309.3 837.2,309.3 839.0,309.3 840.8,309.3 842.6,309.3 844.3,309.3 846.1,309.3 847.9,309.3 849.7,309.3 851.5,309.3 853.2,309.3 855.0,309.3 856.8,309.3 858.6,309.3 860.4,309.3 862.1,309.3 863.9,309.3 865.7,309.3 867.5,309.3 869.3,309.3 871.0,309.3 872.8,309.3 874.6,309.3 876.4,309.3 878.2,309.3 879.9,309.3 881.7,309.3 883.5,309.3 885.3,309.3 887.1,309.3 888.8,309.3 890.6,313.9 892.4,313.9 894.2,309.3 896.0,309.3 897.7,309.3 899.5,309.3 901.3,309.3 903.1,309.3 904.8,309.3 906.6,309.3 908.4,309.3 910.2,309.3 912.0,309.3 913.7,309.3 915.5,309.3 917.3,309.3 919.1,309.3 920.9,309.3 922.6,309.3 924.4,309.3 926.2,309.3 928.0,309.3 929.8,309.3 931.5,309.3 933.3,309.3 935.1,309.3 936.9,313.9 938.7,313.9 940.4,313.9 942.2,314.6 944.0,309.3"/>
  <circle cx="346.1" cy="32" r="3" fill="#ef4444"/>
  <circle cx="347.8" cy="32" r="3" fill="#ef4444"/>
  <circle cx="381.7" cy="32" r="3" fill="#ef4444"/>
  <circle cx="443.9" cy="32" r="3" fill="#ef4444"/>
  <circle cx="445.7" cy="32" r="3" fill="#ef4444"/>
  <circle cx="447.5" cy="32" r="3" fill="#ef4444"/>
  <circle cx="449.3" cy="32" r="3" fill="#ef4444"/>
  <circle cx="451.1" cy="32" r="3" fill="#ef4444"/>
  <rect x="710" y="28" width="220" height="62" rx="6" fill="#111827" stroke="#334155"/>
  <line x1="724" y1="48" x2="764" y2="48" stroke="#38bdf8" stroke-width="3"/><text x="772" y="52" fill="#cbd5e1" font-family="sans-serif" font-size="12">totalPromptChars</text>
  <line x1="724" y1="68" x2="764" y2="68" stroke="#22c55e" stroke-width="3"/><text x="772" y="72" fill="#cbd5e1" font-family="sans-serif" font-size="12">stablePrefixChars</text>
</svg>
